#usda 1.0

def "Nefertiti_face"
{
    def Mesh "Nefertiti_face"
    {
        int[] faceVertexCounts = [3, 3, 3, 3, 3, 3, 3, 3, 3, 3, 3, 3, 3, 3, 3, 3, 3, 3, 3, 3, 3, 3, 3, 3, 3, 3, 3, 3, 3, 3, 3, 3, 3, 3, 3, 3, 3, 3, 3, 3, 3, 3, 3, 3, 3, 3, 3, 3, 3, 3, 3, 3, 3, 3, 3, 3, 3, 3, 3, 3, 3, 3, 3, 3, 3, 3, 3, 3, 3, 3, 3, 3, 3, 3, 3, 3, 3, 3, 3, 3, 3, 3, 3, 3, 3, 3, 3, 3, 3, 3, 3, 3, 3, 3, 3, 3, 3, 3, 3, 3, 3, 3, 3, 3, 3, 3, 3, 3, 3, 3, 3, 3, 3, 3, 3, 3, 3, 3, 3, 3, 3, 3, 3, 3, 3, 3, 3, 3, 3, 3, 3, 3, 3, 3, 3, 3, 3, 3, 3, 3, 3, 3, 3, 3, 3, 3, 3, 3, 3, 3, 3, 3, 3, 3, 3, 3, 3, 3, 3, 3, 3, 3, 3, 3, 3, 3, 3, 3, 3, 3, 3, 3, 3, 3, 3, 3, 3, 3, 3, 3, 3, 3, 3, 3, 3, 3, 3, 3, 3, 3, 3, 3, 3, 3, 3, 3, 3, 3, 3, 3, 3, 3, 3, 3, 3, 3, 3, 3, 3, 3, 3, 3, 3, 3, 3, 3, 3, 3, 3, 3, 3, 3, 3, 3, 3, 3, 3, 3, 3, 3, 3, 3, 3, 3, 3, 3, 3, 3, 3, 3, 3, 3, 3, 3, 3, 3, 3, 3, 3, 3, 3, 3, 3, 3, 3, 3, 3, 3, 3, 3, 3, 3, 3, 3, 3, 3, 3, 3, 3, 3, 3, 3, 3, 3, 3, 3, 3, 3, 3, 3, 3, 3, 3, 3, 3, 3, 3, 3, 3, 3, 3, 3, 3, 3, 3, 3, 3, 3, 3, 3, 3, 3, 3, 3, 3, 3, 3, 3, 3, 3, 3, 3, 3, 3, 3, 3, 3, 3, 3, 3, 3, 3, 3, 3, 3, 3, 3, 3, 3, 3, 3, 3, 3, 3, 3, 3, 3, 3, 3, 3, 3, 3, 3, 3, 3, 3, 3, 3, 3, 3, 3, 3, 3, 3, 3, 3, 3, 3, 3, 3, 3, 3, 3, 3, 3, 3, 3, 3, 3, 3, 3, 3, 3, 3, 3, 3, 3, 3, 3, 3, 3, 3, 3, 3, 3, 3, 3, 3, 3, 3, 3, 3, 3, 3, 3, 3, 3, 3, 3, 3, 3, 3, 3, 3, 3, 3, 3, 3, 3, 3, 3, 3, 3, 3, 3, 3, 3, 3, 3, 3, 3, 3, 3, 3, 3, 3, 3, 3, 3, 3, 3, 3, 3, 3, 3, 3, 3, 3, 3, 3, 3, 3, 3, 3, 3, 3, 3, 3, 3, 3, 3, 3, 3, 3, 3, 3, 3, 3, 3, 3, 3, 3, 3, 3, 3, 3, 3, 3, 3, 3, 3, 3, 3, 3, 3, 3, 3, 3, 3, 3, 3, 3, 3, 3, 3, 3, 3, 3, 3, 3, 3, 3, 3, 3, 3, 3, 3, 3, 3, 3, 3, 3, 3, 3, 3, 3, 3, 3, 3, 3, 3, 3, 3, 3, 3, 3, 3, 3, 3, 3, 3, 3, 3, 3, 3, 3, 3, 3, 3, 3, 3, 3, 3, 3, 3, 3, 3, 3, 3, 3, 3, 3, 3, 3, 3, 3, 3, 3, 3, 3, 3, 3, 3, 3, 3, 3, 3, 3, 3, 3, 3, 3]
        int[] faceVertexIndices = [4, 8, 9, 9, 8, 10, 10, 8, 11, 11, 8, 12, 12, 8, 13, 13, 8, 5, 15, 14, 6, 6, 14, 5, 5, 14, 16, 16, 14, 17, 17, 14, 18, 18, 14, 15, 15, 7, 19, 19, 20, 18, 18, 20, 17, 17, 20, 21, 21, 20, 22, 22, 20, 23, 23, 20, 19, 7, 15, 6, 15, 19, 18, 5, 16, 13, 13, 24, 12, 12, 24, 25, 25, 24, 26, 26, 24, 27, 27, 24, 16, 16, 24, 13, 21, 27, 17, 16, 17, 27, 9, 28, 4, 4, 28, 3, 3, 28, 2, 2, 28, 1, 1, 28, 29, 29, 28, 30, 30, 28, 9, 32, 31, 10, 10, 31, 30, 30, 31, 33, 33, 31, 34, 34, 31, 35, 35, 31, 32, 35, 36, 37, 37, 36, 38, 38, 36, 39, 39, 36, 40, 40, 36, 11, 11, 36, 32, 32, 36, 35, 10, 30, 9, 11, 32, 10, 25, 11, 12, 11, 25, 40, 22, 41, 21, 21, 41, 42, 42, 41, 43, 43, 41, 44, 44, 41, 22, 42, 45, 46, 46, 45, 47, 47, 45, 48, 48, 45, 43, 43, 45, 42, 50, 49, 43, 43, 49, 48, 48, 49, 51, 51, 49, 52, 52, 49, 53, 53, 49, 50, 50, 43, 44, 46, 54, 42, 42, 54, 27, 27, 54, 26, 21, 42, 27, 26, 55, 25, 25, 55, 40, 40, 55, 39, 39, 55, 56, 56, 55, 57, 57, 55, 58, 58, 55, 59, 59, 55, 47, 47, 55, 46, 46, 55, 54, 54, 55, 26, 48, 60, 47, 47, 60, 59, 59, 60, 58, 58, 60, 61, 61, 60, 51, 51, 60, 48, 52, 62, 51, 51, 62, 63, 63, 62, 64, 64, 62, 65, 65, 62, 66, 66, 62, 52, 64, 67, 63, 63, 67, 61, 61, 67, 57, 57, 67, 56, 61, 57, 58, 63, 61, 51, 64, 68, 67, 67, 68, 56, 56, 68, 69, 69, 68, 70, 70, 68, 71, 71, 68, 72, 72, 68, 65, 65, 68, 64, 74, 73, 56, 56, 73, 39, 39, 73, 38, 38, 73, 74, 74, 56, 69, 76, 75, 77, 77, 75, 78, 78, 75, 79, 79, 75, 70, 70, 75, 69, 69, 80, 74, 74, 80, 81, 81, 80, 82, 82, 80, 83, 83, 80, 76, 76, 80, 69, 76, 77, 83, 79, 84, 78, 78, 84, 77, 77, 84, 83, 83, 84, 85, 85, 84, 86, 86, 84, 87, 70, 71, 79, 88, 79, 71, 87, 84, 79, 87, 79, 88, 37, 89, 35, 35, 89, 34, 34, 89, 90, 90, 89, 91, 91, 89, 92, 92, 89, 37, 92, 93, 91, 91, 93, 94, 94, 93, 95, 95, 93, 96, 96, 93, 97, 97, 93, 98, 98, 93, 92, 74, 81, 38, 37, 38, 92, 81, 92, 38, 98, 92, 81, 98, 81, 99, 82, 99, 81, 85, 100, 82, 82, 100, 99, 85, 82, 83, 85, 101, 100, 100, 101, 99, 99, 101, 97, 97, 101, 102, 102, 101, 103, 103, 101, 104, 104, 101, 86, 86, 101, 85, 86, 87, 104, 99, 97, 98, 30, 33, 29, 105, 103, 104, 107, 106, 108, 108, 106, 109, 109, 106, 110, 110, 106, 111, 111, 106, 107, 94, 112, 111, 111, 112, 113, 113, 112, 114, 114, 112, 115, 115, 112, 95, 95, 112, 94, 96, 116, 95, 95, 116, 115, 115, 116, 117, 118, 116, 119, 119, 116, 96, 110, 111, 113, 114, 115, 117, 118, 119, 120, 102, 120, 119, 102, 119, 97, 121, 102, 103, 121, 120, 102, 94, 107, 91, 90, 91, 107, 107, 122, 90, 90, 122, 34, 34, 122, 33, 33, 122, 123, 123, 122, 108, 108, 122, 107, 94, 111, 107, 97, 119, 96, 29, 124, 1, 1, 124, 0, 0, 124, 125, 125, 124, 126, 126, 124, 127, 127, 124, 123, 123, 124, 29, 108, 127, 123, 109, 128, 108, 108, 128, 129, 129, 128, 130, 130, 128, 131, 131, 128, 109, 108, 129, 127, 126, 127, 129, 129, 132, 126, 126, 132, 133, 133, 132, 134, 134, 132, 135, 135, 132, 130, 130, 132, 129, 137, 136, 138, 138, 136, 131, 131, 136, 139, 139, 136, 140, 140, 136, 141, 141, 136, 137, 120, 142, 137, 137, 142, 141, 141, 142, 140, 140, 142, 143, 143, 142, 121, 121, 142, 120, 131, 109, 138, 103, 143, 121, 103, 144, 143, 143, 144, 145, 145, 144, 146, 146, 144, 147, 147, 144, 105, 105, 144, 103, 143, 145, 140, 139, 140, 145, 145, 148, 139, 139, 148, 149, 149, 148, 150, 150, 148, 151, 151, 148, 146, 146, 148, 145, 139, 149, 131, 149, 130, 131, 130, 149, 135, 135, 149, 150, 105, 152, 147, 153, 147, 152, 154, 147, 153, 147, 154, 146, 151, 146, 154, 151, 154, 155, 151, 155, 156, 151, 156, 157, 151, 157, 150, 150, 158, 135, 135, 158, 134, 134, 158, 159, 159, 158, 160, 160, 158, 157, 157, 158, 150, 160, 157, 156, 126, 133, 125, 0, 125, 133, 33, 123, 29, 162, 161, 163, 167, 166, 168, 168, 169, 170, 167, 168, 170, 171, 165, 170, 169, 171, 170, 172, 169, 168, 172, 168, 166, 172, 166, 173, 172, 173, 174, 172, 174, 175, 176, 175, 174, 174, 153, 176, 153, 152, 176, 105, 176, 152, 171, 169, 177, 178, 171, 177, 177, 179, 178, 180, 178, 179, 181, 179, 177, 175, 182, 183, 172, 175, 183, 169, 172, 183, 177, 169, 183, 181, 177, 183, 182, 181, 183, 181, 182, 184, 185, 184, 182, 105, 186, 187, 176, 105, 187, 175, 176, 187, 182, 175, 187, 185, 182, 187, 186, 185, 187, 186, 188, 185, 179, 189, 190, 188, 191, 192, 185, 188, 192, 184, 185, 192, 193, 184, 192, 194, 193, 192, 191, 194, 192, 193, 194, 195, 184, 193, 195, 181, 184, 195, 179, 181, 195, 189, 179, 195, 194, 189, 195, 178, 196, 197, 171, 178, 197, 165, 171, 197, 196, 164, 197, 164, 196, 198, 199, 198, 196, 179, 190, 180, 196, 178, 180, 199, 196, 180, 190, 199, 180, 199, 163, 198, 163, 161, 200, 198, 163, 200, 164, 198, 200, 161, 201, 200, 203, 202, 204, 206, 205, 207, 199, 205, 208, 163, 199, 208, 162, 163, 208, 209, 162, 208, 210, 209, 208, 205, 210, 208, 210, 205, 211, 206, 211, 205, 188, 212, 191, 188, 186, 212, 212, 203, 204, 213, 191, 204, 215, 214, 216, 218, 217, 207, 204, 202, 219, 213, 204, 219, 214, 213, 219, 216, 214, 219, 220, 216, 219, 202, 220, 219, 220, 206, 221, 216, 220, 221, 215, 216, 221, 217, 215, 221, 207, 217, 221, 206, 207, 221, 207, 205, 222, 218, 207, 222, 190, 218, 222, 199, 190, 222, 205, 199, 222, 105, 104, 186, 223, 161, 162, 225, 224, 203, 226, 104, 87, 226, 227, 228, 104, 226, 228, 186, 104, 228, 212, 186, 228, 203, 212, 228, 225, 203, 228, 229, 225, 228, 227, 229, 228, 227, 230, 231, 231, 225, 229, 227, 231, 229, 231, 232, 225, 224, 225, 232, 224, 232, 233, 232, 234, 233, 235, 233, 234, 236, 234, 232, 224, 233, 237, 203, 224, 237, 202, 203, 237, 220, 202, 237, 206, 220, 237, 211, 206, 237, 233, 211, 237, 233, 235, 238, 211, 233, 238, 210, 211, 238, 209, 210, 238, 239, 209, 238, 235, 239, 238, 87, 88, 240, 87, 240, 241, 88, 71, 240, 242, 240, 71, 226, 87, 241, 227, 226, 241, 230, 227, 241, 243, 230, 241, 244, 243, 241, 240, 244, 241, 245, 230, 243, 245, 246, 247, 230, 245, 247, 231, 230, 247, 232, 231, 247, 236, 232, 247, 246, 236, 247, 242, 246, 248, 240, 242, 248, 244, 240, 248, 243, 244, 248, 245, 243, 248, 246, 245, 248, 236, 246, 249, 234, 236, 250, 251, 234, 250, 249, 251, 250, 236, 249, 250, 65, 252, 253, 72, 65, 253, 71, 72, 253, 242, 71, 253, 246, 242, 253, 249, 246, 253, 254, 249, 253, 252, 254, 253, 256, 255, 257, 257, 258, 259, 259, 249, 254, 257, 259, 254, 256, 257, 254, 252, 256, 254, 66, 52, 260, 65, 66, 260, 252, 65, 260, 256, 252, 260, 255, 256, 260, 52, 255, 260, 255, 261, 262, 257, 255, 262, 258, 257, 262, 263, 258, 262, 264, 263, 262, 261, 264, 262, 266, 265, 267, 268, 266, 267, 264, 268, 267, 263, 264, 267, 258, 263, 267, 259, 258, 267, 249, 259, 267, 251, 249, 267, 269, 251, 267, 270, 269, 267, 265, 270, 267, 272, 271, 273, 271, 265, 266, 273, 271, 266, 268, 273, 266, 50, 44, 274, 53, 50, 275, 52, 53, 275, 255, 52, 275, 261, 255, 275, 274, 261, 275, 50, 274, 275, 274, 273, 276, 261, 274, 276, 264, 261, 276, 268, 264, 276, 273, 268, 276, 44, 22, 277, 274, 44, 277, 273, 274, 277, 272, 273, 277, 22, 272, 277, 278, 269, 270, 270, 279, 278, 278, 280, 281, 280, 282, 223, 281, 239, 283, 278, 281, 283, 269, 278, 283, 251, 269, 283, 234, 251, 283, 235, 234, 283, 239, 235, 283, 239, 281, 284, 209, 239, 284, 162, 209, 284, 223, 162, 284, 280, 223, 284, 281, 280, 284, 223, 282, 285, 161, 223, 285, 201, 161, 285, 286, 201, 285, 287, 286, 285, 288, 287, 285, 282, 288, 285, 289, 271, 290, 272, 290, 271, 289, 291, 292, 271, 289, 292, 265, 271, 292, 270, 265, 292, 279, 270, 292, 291, 279, 292, 293, 291, 289, 295, 294, 19, 23, 19, 296, 22, 23, 296, 272, 22, 296, 290, 272, 296, 294, 290, 296, 19, 294, 296, 295, 19, 7, 294, 295, 297, 290, 294, 297, 289, 290, 297, 293, 289, 297, 291, 293, 298, 279, 291, 298, 278, 279, 298, 280, 278, 298, 282, 280, 298, 288, 282, 298, 138, 109, 110, 138, 110, 113, 138, 113, 114, 138, 114, 137, 137, 117, 120, 120, 117, 118, 191, 213, 214, 215, 194, 214, 189, 194, 215, 189, 215, 217, 190, 189, 217, 204, 191, 212, 218, 190, 217, 137, 114, 117, 118, 117, 116, 191, 214, 194, 76, 69, 75]
        point3f[] points = [(-1.92178, 0.3346, -1.85165), (-1.87002, -0.14781, -1.59069), (-1.80413, -0.5525, -1.6956), (-1.76538, -0.79938, -1.71997), (-1.6733, -1.07555, -1.53857), (-0.909274, -2.23334, -0.6694), (-0.523504, -2.45282, -0.55391), (-0.0945979, -2.49029, -0.35773), (-1.3671, -1.67146, -1.08744), (-1.6217, -1.00464, -1.28481), (-1.48412, -1.14375, -1.0138), (-1.26709, -1.38221, -0.77302), (-1.13262, -1.75488, -0.7034), (-0.997273, -2.02999, -0.61376), (-0.6063, -2.34987, -0.24912), (-0.292278, -2.45441, -0.19455), (-0.749425, -2.14981, -0.27787), (-0.524425, -2.17419, -0.01538), (-0.37864, -2.35114, -0.03184), (0.0112959, -2.35901, 0.03494), (-0.299425, -2.20797, 0.1315), (-0.3613, -1.93822, 0.11275), (0.0241007, -1.99407, 0.19215), (0.0200672, -2.22089, 0.17631), (-0.895031, -1.87194, -0.43475), (-0.989369, -1.55625, -0.48663), (-0.758823, -1.65409, -0.29595), (-0.630612, -1.87618, -0.13414), (-1.7463, -0.68622, -1.50256), (-1.8285, -0.15256, -1.29875), (-1.68663, -0.63813, -1.16065), (-1.5585, -0.6325, -0.88657), (-1.36918, -1.03682, -0.79397), (-1.72975, -0.15069, -0.99905), (-1.52663, -0.16256, -0.71725), (-1.32662, -0.54875, -0.59537), (-1.0776, -0.90662, -0.44963), (-1.10185, -0.42118, -0.3853), (-0.840287, -0.61995, -0.22463), (-0.823138, -0.95813, -0.19287), (-1.00758, -1.24073, -0.42605), (-0.210322, -1.70047, 0.12498), (-0.396595, -1.64034, 0.0626299), (-0.22571, -1.55642, 0.1692), (0.034325, -1.68441, 0.14212), (-0.3878, -1.51484, 0.12227), (-0.495459, -1.46764, 0.00469995), (-0.423175, -1.38812, 0.07462), (-0.26755, -1.41937, 0.17837), (-0.093175, -1.44375, 0.2015), (0.04245, -1.55062, 0.20025), (-0.160712, -1.2725, 0.1591), (0.0520973, -1.30689, 0.19342), (0.0449109, -1.45008, 0.21447), (-0.559096, -1.57923, -0.10118), (-0.703687, -1.3107, -0.23734), (-0.509472, -0.94847, 0.0022099), (-0.445641, -1.10437, 0.07041), (-0.432187, -1.20512, 0.05545), (-0.436573, -1.28856, 0.01963), (-0.310675, -1.28375, 0.11275), (-0.324425, -1.15875, 0.15337), (-0.0538, -1.14188, 0.27837), (-0.193027, -1.13157, 0.22564), (-0.123777, -1.00194, 0.28554), (0.0620973, -1.00371, 0.30818), (0.0549109, -1.14735, 0.28568), (-0.315675, -1.03938, 0.19712), (-0.101526, -0.87048, 0.25416), (-0.263654, -0.58378, 0.08371), (-0.0456414, -0.62484, 0.2248), (0.0728986, -0.6757, 0.25665), (0.0649109, -0.87281, 0.26627), (-0.679347, -0.79313, -0.10342), (-0.4713, -0.56563, -0.03912), (-0.109425, -0.42187, 0.1615), (-0.318367, -0.42325, 0.15573), (-0.206959, -0.37914, 0.28152), (-0.0999328, -0.40008, 0.34084), (-0.0128683, -0.47975, 0.38743), (-0.410675, -0.39875, 0.06463), (-0.514929, -0.31438, -0.0916899), (-0.36255, -0.2475, 0.14525), (-0.27005, -0.325, 0.29587), (-0.0953195, -0.32368, 0.46351), (-0.150675, -0.16816, 0.39525), (-0.0130275, -0.0897, 0.47098), (0.0916966, -0.24653, 0.52693), (0.0824891, -0.49555, 0.42205), (-1.28852, -0.14631, -0.50037), (-1.44591, 0.19008, -0.66184), (-1.20104, 0.17644, -0.50038), (-0.920373, -0.1363, -0.29835), (-0.850778, 0.21154, -0.35737), (-1.12354, 0.44387, -0.52475), (-0.865013, 0.46888, -0.4535), (-0.60246, 0.47355, -0.41502), (-0.425615, 0.34281, -0.24021), (-0.546665, 0.01544, -0.17118), (-0.3163, -0.02259, 0.00524998), (-0.215988, -0.08166, 0.21568), (-0.10595, 0.20633, 0.17771), (-0.3213, 0.70388, -0.33725), (-0.102578, 1.0318, -0.22404), (0.103299, 0.40905, 0.21137), (0.123299, 1.20914, -0.19786), (-1.38852, 0.72532, -0.74676), (-1.43708, 0.53121, -0.75402), (-1.62396, 0.72817, -1.01382), (-1.3435, 0.9045, -0.67473), (-1.26993, 0.7813, -0.61998), (-1.2235, 0.64325, -0.60287), (-1.07293, 0.60138, -0.51475), (-1.14182, 0.7255, -0.52689), (-0.986869, 0.73013, -0.471), (-0.869639, 0.60457, -0.47016), (-0.656925, 0.607, -0.456), (-0.754425, 0.73137, -0.456), (-0.558995, 0.72942, -0.48952), (-0.471925, 0.65575, -0.4435), (-0.518066, 0.92151, -0.461), (-0.352936, 1.05373, -0.44895), (-1.6335, 0.27581, -0.8672), (-1.79788, 0.36394, -1.17002), (-1.89129, 0.25607, -1.47727), (-1.89995, 0.53458, -1.73939), (-1.83537, 0.73263, -1.49247), (-1.79675, 0.66738, -1.2706), (-1.46207, 1.02102, -0.86271), (-1.70413, 0.89075, -1.1519), (-1.56662, 1.187, -0.90658), (-1.20907, 1.26151, -0.641), (-1.77163, 1.04137, -1.2869), (-1.87254, 0.83579, -1.83166), (-1.78591, 1.27868, -1.52774), (-1.63412, 1.33637, -0.98843), (-0.962512, 1.31825, -0.52038), (-0.840792, 1.04916, -0.43747), (-1.09683, 1.01151, -0.48581), (-0.989369, 1.51763, -0.48663), (-0.690675, 1.46825, -0.43663), (-0.735675, 1.29247, -0.49799), (-0.521925, 1.20637, -0.49162), (-0.38255, 1.35763, -0.366), (-0.2988, 1.51888, -0.3135), (-0.650656, 1.65138, -0.38975), (-0.568762, 1.957, -0.51163), (-0.126925, 1.88075, -0.46475), (-1.01856, 1.73075, -0.4985), (-1.31977, 1.46012, -0.64975), (-1.37413, 1.64512, -0.69598), (-1.02799, 2.04024, -0.66726), (0.1337, 1.79181, -0.43643), (0.141177, 2.33872, -0.69438), (-0.446705, 2.36984, -0.71475), (-0.984806, 2.337, -0.8428), (-1.36334, 2.16739, -1.01262), (-1.41291, 1.89448, -0.89911), (-1.67037, 1.60575, -1.21942), (-1.77788, 1.5895, -1.64372), (-1.64909, 1.88614, -1.37287), (1.914, -0.27194, -1.39685), (1.829, -0.26694, -1.0888), (1.92275, 0.24456, -1.26813), (1.95431, 0.60763, -1.49525), (1.93025, 1.18325, -1.42497), (1.6165, 2.07223, -1.08899), (1.81838, 1.81513, -1.31568), (1.65502, 1.79364, -0.97911), (1.60963, 1.54763, -0.77407), (1.85943, 1.49289, -1.25105), (1.83338, 1.22638, -1.07755), (1.28691, 1.96926, -0.72775), (1.25707, 2.26888, -0.90092), (0.727479, 2.33563, -0.74643), (0.833738, 1.91512, -0.55037), (0.394325, 1.862, -0.47662), (1.54587, 1.37013, -0.7216), (1.76275, 1.0795, -0.99405), (1.42459, 1.17906, -0.711), (1.64839, 0.92018, -0.94355), (1.22646, 1.44825, -0.54537), (0.903738, 1.602, -0.42975), (1.26646, 1.66075, -0.55788), (0.926862, 1.41762, -0.47725), (0.618075, 1.32575, -0.3885), (0.326547, 1.01886, -0.23502), (0.54745, 1.49075, -0.3335), (0.5637, 1.02373, -0.46979), (1.29275, 0.94325, -0.54413), (1.52174, 0.8019, -0.73255), (0.722049, 0.88053, -0.49149), (0.740594, 1.16513, -0.52288), (0.960726, 1.24005, -0.54041), (1.04894, 0.98965, -0.486), (1.18834, 1.25013, -0.57788), (1.864, 0.77325, -1.24315), (1.92709, 0.93802, -1.33466), (1.93307, 0.54738, -1.36892), (1.78196, 0.61937, -1.10262), (1.98045, 0.13006, -1.52024), (1.92252, -0.32975, -1.64185), (0.778229, 0.43018, -0.44923), (0.602049, 0.31136, -0.26923), (0.6587, 0.61637, -0.4735), (1.59508, 0.43366, -0.83304), (1.29025, 0.36513, -0.586), (1.39962, 0.56075, -0.67225), (1.77025, 0.16644, -0.95592), (1.64338, -0.26319, -0.79722), (1.5897, 0.0917599, -0.741), (1.34962, 0.0958099, -0.5685), (0.513075, 0.67513, -0.35787), (0.747606, 0.68579, -0.52194), (0.943131, 0.67387, -0.49725), (1.17586, 0.66013, -0.5285), (1.04815, 0.54289, -0.52016), (1.34275, 0.65138, -0.59475), (1.4631, 0.66731, -0.70373), (0.835613, 0.557, -0.49538), (1.03459, 0.40825, -0.50287), (1.25088, 0.5245, -0.57412), (1.5582, 0.63364, -0.82508), (1.7465, -0.74813, -1.25), (0.703274, -0.02511, -0.20371), (0.483075, -0.0456899, -0.016), (0.199587, -0.09802, 0.46266), (0.326825, -0.18066, 0.38337), (0.293751, 0.19433, 0.16611), (0.390966, -0.10045, 0.1981), (0.434325, -0.34562, 0.2765), (0.521825, -0.275, 0.12462), (0.654305, -0.35387, -0.12267), (1.05758, -0.19775, -0.34884), (0.950702, -0.67848, -0.27316), (1.21725, -0.49866, -0.4453), (0.59745, -0.59938, -0.07038), (1.00993, 0.15303, -0.4059), (1.4165, -0.23444, -0.56975), (1.424, -0.63813, -0.66538), (0.170759, -0.48828, 0.38596), (0.2637, -0.33417, 0.45351), (0.185564, -0.63484, 0.22143), (0.364359, -0.39745, 0.26405), (0.257333, -0.41129, 0.33084), (0.467449, -0.44904, 0.13573), (0.400073, -0.60476, 0.0641999), (0.55745, -0.42813, 0.0371201), (0.25745, -0.43438, 0.15088), (0.617272, -0.98686, -0.02739), (0.787958, -0.84192, -0.14342), (0.917487, -1.01688, -0.241), (0.240336, -1.01362, 0.27554), (0.228525, -0.88168, 0.24416), (0.4237, -1.06626, 0.17838), (0.258112, -1.28397, 0.14812), (0.299587, -1.14989, 0.21395), (0.42245, -1.18, 0.13462), (0.525382, -1.23511, 0.0337701), (0.542201, -1.13605, 0.0478899), (0.16245, -1.15063, 0.27025), (0.3537, -1.43937, 0.16025), (0.399325, -1.305, 0.09337), (0.521552, -1.31977, -0.00279999), (0.501825, -1.41812, 0.0527501), (0.804566, -1.70493, -0.33595), (0.617337, -1.61923, -0.13202), (0.773677, -1.35891, -0.27529), (0.569495, -1.50016, -0.02361), (1.06797, -1.30905, -0.47773), (1.02769, -1.62375, -0.53725), (0.668993, -1.91667, -0.16512), (0.408075, -1.96572, 0.09337), (0.462525, -1.67034, 0.04214), (0.30311, -1.57495, 0.1587), (0.181825, -1.45313, 0.19275), (0.465199, -1.54316, 0.10227), (0.2752, -1.71879, 0.11498), (1.299, -1.4622, -0.84057), (1.14881, -1.82572, -0.76256), (1.52275, -1.2425, -1.09317), (1.42475, -1.12598, -0.86481), (1.65466, -1.11212, -1.37228), (1.1626, -0.97858, -0.50963), (1.63587, -0.73312, -0.96655), (1.78675, -0.79818, -1.59354), (1.844, -0.67063, -1.78747), (1.789, -0.91563, -1.80997), (1.68736, -1.18434, -1.62615), (0.7637, -2.19919, -0.31788), (0.54995, -2.20606, -0.04413), (0.997297, -2.09251, -0.66544), (0.915612, -1.93069, -0.48287), (0.92858, -2.24849, -0.70044), (0.389404, -2.37777, -0.051), (0.266434, -2.46183, -0.16405), (0.329325, -2.22609, 0.11462), (0.60604, -2.37525, -0.25689), (1.36436, -1.7595, -1.15744)]
        texCoord2f[] primvars:st = [(2.7514777, -0.8905739), (2.7926316, -0.26325622), (2.8035035, 0.24192576), (2.783162, 0.46993485), (2.6360288, 0.79017895), (1.5693941, 2.2196999), (1.1701578, 2.6405315), (0.62010914, 2.8033648), (2.1509686, 1.4876488), (2.374195, 0.74739903), (2.0843835, 0.91928524), (1.8017398, 1.2321754), (1.6821785, 1.6532857), (1.5657612, 1.9645042), (1.0235208, 2.348287), (0.7355274, 2.5379229), (1.1599537, 2.1174626), (0.78229713, 2.1589093), (0.66547704, 2.352983), (0.29659915, 2.5039048), (0.5082667, 2.2335777), (0.57981354, 1.9706645), (0.1992567, 2.0498476), (0.22356883, 2.2883267), (1.3239366, 1.8041207), (1.406891, 1.4645396), (1.1090204, 1.6057358), (0.9159646, 1.8690877), (2.6045055, 0.3736429), (2.4184709, -0.19739622), (2.269781, 0.34783182), (1.9665463, 0.38821626), (1.8298683, 0.8416699), (2.0984402, -0.1416143), (1.7606329, -0.06911474), (1.6049359, 0.36883542), (1.3779212, 0.79512966), (1.2823794, 0.3018521), (1.001327, 0.5595532), (1.0621117, 0.9057326), (1.3582815, 1.1567222), (0.4003593, 1.7711462), (0.5972169, 1.6789507), (0.37335607, 1.6299509), (0.13767624, 1.7494978), (0.54019374, 1.5574158), (0.6911263, 1.5276906), (0.61225164, 1.4296529), (0.43494812, 1.4750245), (0.24390747, 1.501101), (0.118389904, 1.6197468), (0.31190503, 1.3435686), (0.07405064, 1.3873401), (0.099673636, 1.5184058), (0.85316443, 1.6007127), (0.9901212, 1.2779652), (0.6668125, 0.92367506), (0.59022003, 1.1427838), (0.61496437, 1.2691208), (0.65525514, 1.3360081), (0.5087205, 1.3502804), (0.4472488, 1.233079), (0.15195099, 1.2377976), (0.29713506, 1.2064872), (0.19460805, 1.1360109), (0.018378507, 1.1417035), (0.045061547, 1.2501792), (0.3810547, 1.0994699), (0.18942064, 0.99998647), (0.4054612, 0.6753075), (0.14275427, 0.77895796), (-0.034011915, 0.82101846), (-0.002731694, 1.0132682), (0.8539094, 0.79237205), (0.6559865, 0.575239), (0.22346455, 0.5987355), (0.33787626, 0.4922499), (0.2188225, 0.47753015), (0.14094053, 0.51131094), (0.022573806, 0.5868013), (0.48744863, 0.41653907), (0.6531442, 0.2964982), (0.36919028, 0.2777194), (0.270751, 0.39690432), (0.073932216, 0.41371694), (0.14185049, 0.27685168), (-0.038257927, 0.22857322), (-0.087290645, 0.39359325), (-0.06532068, 0.58117807), (1.4200181, -0.02271412), (1.5859742, -0.3797968), (1.3253556, -0.33858135), (1.061599, 0.04765834), (0.919978, -0.3422573), (1.2064126, -0.5785233), (0.93410754, -0.60545015), (0.6888218, -0.55590993), (0.4789415, -0.3641088), (0.6540416, -0.054986488), (0.4088237, 0.03822749), (0.23425302, 0.15250495), (0.0815407, -0.103936166), (0.31561908, -0.7261145), (-0.05128978, -0.9549614), (-0.18867114, -0.22379746), (-0.3249006, -1.0834277), (1.4538532, -0.9416927), (1.5650328, -0.7497983), (1.8279475, -1.014172), (1.3418291, -1.094163), (1.2578986, -0.95426816), (1.2784855, -0.8117904), (1.0766206, -0.7398798), (1.1342849, -0.8820786), (0.95403755, -0.9053537), (0.893317, -0.7570847), (0.71848094, -0.7065717), (0.7215566, -0.8657266), (0.59274817, -0.7908862), (0.5197277, -0.69050884), (0.46612683, -0.9283232), (0.26699752, -1.061229), (1.8231201, -0.54164094), (2.1163564, -0.69671446), (2.487503, -0.6554553), (2.603231, -1.044868), (2.3142648, -1.1605766), (2.1516647, -1.0251048), (1.5500152, -1.2783262), (1.9503996, -1.2434062), (1.5613178, -1.4817194), (1.1461499, -1.4036729), (2.0401845, -1.4312574), (2.6077824, -1.3400946), (2.2162971, -1.7398943), (1.6464753, -1.6449062), (0.82844454, -1.4051652), (0.7245843, -1.1636842), (1.0552408, -1.1122757), (0.8061539, -1.6206994), (0.51927066, -1.52276), (0.6125301, -1.3738993), (0.41132787, -1.2634133), (0.21473266, -1.3586413), (0.06540996, -1.4891441), (0.39831522, -1.6858829), (0.28685358, -2.0043592), (-0.15990411, -1.8549743), (0.7663064, -1.8162205), (1.155695, -1.6371195), (1.1689636, -1.8456343), (0.78270304, -2.1804996), (-0.41283974, -1.7189479), (-0.4967616, -2.3301883), (0.120086774, -2.4538078), (0.7242379, -2.5149393), (1.216695, -2.4356394), (1.2736535, -2.1401587), (1.7480057, -1.9554306), (2.122651, -2.1153202), (1.7791549, -2.285665), (-2.6311746, 0.6211591), (-2.3066487, 0.56412196), (-2.5371747, 0.057943534), (-2.7073607, -0.31907806), (-2.730667, -0.9554398), (-2.1676102, -1.9353993), (-2.526363, -1.6836749), (-2.1499605, -1.6290706), (-1.9892958, -1.3651482), (-2.5353837, -1.3232388), (-2.3908582, -1.0338458), (-1.6715432, -1.7946019), (-1.7279285, -2.132464), (-1.1362514, -2.255302), (-1.1625843, -1.7601804), (-0.68711895, -1.7840831), (-1.9208617, -1.1868045), (-2.2729568, -0.8678852), (-1.8241032, -0.9980047), (-2.1669726, -0.7009401), (-1.5612142, -1.2546016), (-1.1803976, -1.4196342), (-1.5870162, -1.4611022), (-1.2320274, -1.2529509), (-0.8924495, -1.1669908), (-0.5356974, -0.88277453), (-0.7941849, -1.347136), (-0.885894, -0.8844079), (-1.635956, -0.7262061), (-1.9100711, -0.57891357), (-1.039294, -0.72278523), (-1.0901756, -1.0108294), (-1.3001989, -1.0709381), (-1.3642815, -0.8090456), (-1.520406, -1.044135), (-2.5292969, -0.5096658), (-2.7119884, -0.67324024), (-2.5973134, -0.2745758), (-2.3182106, -0.3573872), (-2.806211, 0.19021633), (-2.8592825, 0.74850416), (-1.0933013, -0.26953703), (-0.8576854, -0.17278863), (-0.97857314, -0.4461618), (-1.984674, -0.15892753), (-1.596836, -0.16266102), (-1.7657394, -0.32242185), (-2.202104, 0.107765704), (-1.9714439, 0.54852545), (-1.9232014, 0.16491897), (-1.6467959, 0.14054991), (-0.800992, -0.5472709), (-1.0878216, -0.52820706), (-1.2619655, -0.5377555), (-1.4970709, -0.48271516), (-1.3902235, -0.38882476), (-1.6942924, -0.4390681), (-1.8321086, -0.42474234), (-1.1890479, -0.4073313), (-1.369242, -0.25604063), (-1.5539651, -0.33458987), (-1.9906267, -0.39703324), (-2.3184485, 1.099307), (-0.9407744, 0.20787212), (-0.68380016, 0.20365413), (-0.20524025, 0.26480323), (-0.3211042, 0.35227132), (-0.39713106, -0.018117374), (-0.4602723, 0.2708883), (-0.4408332, 0.50341356), (-0.57959294, 0.4263525), (-0.8191198, 0.53892636), (-1.2746613, 0.4163968), (-1.0775242, 0.88304996), (-1.4154418, 0.7582723), (-0.731123, 0.85070884), (-1.2724255, 0.02208773), (-1.6620797, 0.47815612), (-1.7006397, 0.90126455), (-0.14792435, 0.5919677), (-0.21633914, 0.45493457), (-0.20357536, 0.7927377), (-0.3635545, 0.55283463), (-0.2714472, 0.5547941), (-0.4807538, 0.6228921), (-0.4821325, 0.8204242), (-0.6461323, 0.6145571), (-0.32638878, 0.6557414), (-0.62540853, 1.1532493), (-0.88802534, 1.061173), (-1.0316502, 1.2719042), (-0.13482875, 1.1768867), (-0.18947552, 1.03115), (-0.3336542, 1.2075045), (-0.16114593, 1.4193985), (-0.19655724, 1.2776943), (-0.32932806, 1.3611529), (-0.47183162, 1.4629873), (-0.49371347, 1.3373456), (-0.045936488, 1.2645496), (-0.23654109, 1.5959047), (-0.34432933, 1.4998237), (-0.49199638, 1.5413469), (-0.41499498, 1.6161873), (-0.8580388, 1.9600041), (-0.59615356, 1.861507), (-0.7878226, 1.5979607), (-0.47068745, 1.7410907), (-1.1952606, 1.5740594), (-1.171707, 1.8950968), (-0.57157606, 2.145729), (-0.1835457, 2.1284142), (-0.31812304, 1.854606), (-0.13806581, 1.7239081), (-0.0503381, 1.5526968), (-0.30705643, 1.7155273), (-0.120290525, 1.8734252), (-1.6029447, 1.8000851), (-1.3879416, 2.1468596), (-1.9917513, 1.5864679), (-1.7546346, 1.4448812), (-2.3246522, 1.5091844), (-1.3558269, 1.2511196), (-2.0338893, 1.0413213), (-2.6304002, 1.2315651), (-2.8495336, 1.1496761), (-2.8070269, 1.3939264), (-2.5605822, 1.6298295), (-0.6889502, 2.4706736), (-0.3247551, 2.4040189), (-1.1662643, 2.3984814), (-0.98877853, 2.2087598), (-1.1276097, 2.574779), (-0.12485195, 2.5543528), (0.035227187, 2.730577), (-0.05714629, 2.3424134), (-0.48570484, 2.657434), (-1.8657552, 2.149239)] (
            interpolation = "vertex"
        )
    }
}

