#usda 1.0

def "David328"
{
    def Mesh "David328"
    {
        int[] faceVertexCounts = [3, 3, 3, 3, 3, 3, 3, 3, 3, 3, 3, 3, 3, 3, 3, 3, 3, 3, 3, 3, 3, 3, 3, 3, 3, 3, 3, 3, 3, 3, 3, 3, 3, 3, 3, 3, 3, 3, 3, 3, 3, 3, 3, 3, 3, 3, 3, 3, 3, 3, 3, 3, 3, 3, 3, 3, 3, 3, 3, 3, 3, 3, 3, 3, 3, 3, 3, 3, 3, 3, 3, 3, 3, 3, 3, 3, 3, 3, 3, 3, 3, 3, 3, 3, 3, 3, 3, 3, 3, 3, 3, 3, 3, 3, 3, 3, 3, 3, 3, 3, 3, 3, 3, 3, 3, 3, 3, 3, 3, 3, 3, 3, 3, 3, 3, 3, 3, 3, 3, 3, 3, 3, 3, 3, 3, 3, 3, 3, 3, 3, 3, 3, 3, 3, 3, 3, 3, 3, 3, 3, 3, 3, 3, 3, 3, 3, 3, 3, 3, 3, 3, 3, 3, 3, 3, 3, 3, 3, 3, 3, 3, 3, 3, 3, 3, 3, 3, 3, 3, 3, 3, 3, 3, 3, 3, 3, 3, 3, 3, 3, 3, 3, 3, 3, 3, 3, 3, 3, 3, 3, 3, 3, 3, 3, 3, 3, 3, 3, 3, 3, 3, 3, 3, 3, 3, 3, 3, 3, 3, 3, 3, 3, 3, 3, 3, 3, 3, 3, 3, 3, 3, 3, 3, 3, 3, 3, 3, 3, 3, 3, 3, 3, 3, 3, 3, 3, 3, 3, 3, 3, 3, 3, 3, 3, 3, 3, 3, 3, 3, 3, 3, 3, 3, 3, 3, 3, 3, 3, 3, 3, 3, 3, 3, 3, 3, 3, 3, 3, 3, 3, 3, 3, 3, 3, 3, 3, 3, 3, 3, 3, 3, 3, 3, 3, 3, 3, 3, 3, 3, 3, 3, 3, 3, 3, 3, 3, 3, 3, 3, 3, 3, 3, 3, 3, 3, 3, 3, 3, 3, 3, 3, 3, 3, 3, 3, 3, 3, 3, 3, 3, 3, 3, 3, 3, 3, 3, 3, 3, 3, 3, 3, 3, 3, 3, 3, 3, 3, 3, 3, 3, 3, 3, 3, 3, 3, 3, 3, 3, 3, 3, 3, 3, 3, 3, 3, 3, 3, 3, 3, 3, 3, 3, 3, 3, 3, 3, 3, 3, 3, 3, 3, 3, 3, 3, 3, 3, 3, 3, 3, 3, 3, 3, 3, 3, 3, 3, 3, 3, 3, 3, 3, 3, 3, 3, 3, 3, 3, 3, 3, 3, 3, 3, 3, 3, 3, 3, 3, 3, 3, 3, 3, 3, 3, 3, 3, 3, 3, 3, 3, 3, 3, 3, 3, 3, 3, 3, 3, 3, 3, 3, 3, 3, 3, 3, 3, 3, 3, 3, 3, 3, 3, 3, 3, 3, 3, 3, 3, 3, 3, 3, 3, 3, 3, 3, 3, 3, 3, 3, 3, 3, 3, 3, 3, 3, 3, 3, 3, 3, 3, 3, 3, 3, 3, 3, 3, 3, 3, 3, 3, 3, 3, 3, 3, 3, 3, 3, 3, 3, 3, 3, 3, 3, 3, 3, 3, 3, 3, 3, 3, 3, 3, 3, 3, 3, 3, 3, 3, 3, 3, 3, 3, 3, 3, 3, 3, 3, 3, 3, 3, 3, 3, 3, 3, 3, 3, 3, 3, 3, 3, 3, 3, 3, 3, 3, 3, 3, 3, 3, 3, 3, 3, 3, 3, 3, 3, 3, 3, 3, 3, 3, 3, 3, 3, 3, 3, 3, 3, 3, 3, 3, 3, 3, 3, 3, 3, 3, 3, 3, 3, 3, 3, 3, 3, 3, 3, 3, 3, 3, 3, 3, 3, 3, 3, 3, 3, 3]
        int[] faceVertexIndices = [0, 1, 2, 3, 4, 5, 6, 7, 8, 9, 10, 3, 3, 11, 12, 4, 3, 13, 13, 14, 15, 16, 3, 10, 15, 14, 17, 3, 16, 11, 6, 12, 18, 3, 5, 9, 19, 17, 14, 6, 18, 7, 13, 3, 14, 6, 8, 1, 21, 22, 23, 20, 23, 22, 24, 21, 23, 23, 20, 19, 23, 25, 24, 23, 19, 14, 26, 27, 28, 29, 3, 30, 26, 28, 31, 33, 26, 32, 26, 31, 32, 26, 34, 35, 26, 33, 34, 36, 37, 25, 14, 39, 23, 35, 40, 26, 26, 40, 2, 14, 3, 29, 44, 2, 40, 45, 46, 47, 48, 42, 43, 2, 44, 48, 24, 25, 38, 47, 48, 43, 46, 45, 50, 47, 46, 48, 46, 50, 51, 14, 29, 52, 53, 54, 46, 53, 46, 51, 55, 38, 25, 23, 39, 56, 57, 58, 46, 58, 57, 59, 44, 42, 48, 36, 23, 56, 36, 25, 23, 60, 3, 6, 58, 59, 49, 14, 52, 39, 54, 57, 46, 61, 39, 52, 3, 12, 6, 52, 29, 30, 52, 30, 62, 41, 25, 49, 56, 63, 36, 41, 55, 25, 25, 37, 64, 2, 27, 26, 65, 49, 25, 48, 46, 66, 67, 39, 61, 56, 39, 67, 30, 3, 60, 25, 64, 68, 2, 48, 69, 56, 67, 63, 69, 48, 66, 6, 1, 0, 62, 61, 52, 46, 70, 66, 30, 71, 62, 2, 1, 27, 46, 58, 70, 72, 63, 67, 73, 6, 74, 67, 61, 62, 60, 75, 71, 76, 77, 78, 71, 30, 60, 79, 36, 63, 69, 66, 76, 63, 72, 79, 79, 37, 36, 80, 62, 71, 81, 2, 69, 73, 60, 6, 76, 66, 70, 71, 75, 82, 75, 60, 73, 64, 37, 83, 83, 37, 79, 25, 68, 65, 6, 0, 74, 71, 82, 84, 85, 69, 76, 76, 70, 77, 73, 86, 87, 85, 76, 78, 88, 62, 80, 89, 77, 70, 65, 58, 49, 90, 67, 62, 74, 86, 73, 68, 64, 83, 68, 83, 91, 72, 67, 92, 83, 79, 93, 80, 71, 88, 84, 88, 71, 62, 88, 90, 67, 90, 92, 94, 95, 96, 74, 0, 97, 98, 58, 99, 75, 73, 82, 93, 79, 92, 100, 90, 88, 65, 68, 91, 82, 73, 87, 74, 97, 86, 81, 101, 2, 91, 83, 93, 102, 65, 91, 92, 90, 103, 104, 85, 78, 77, 89, 104, 97, 0, 105, 103, 90, 100, 104, 78, 77, 81, 69, 106, 107, 104, 108, 106, 69, 85, 94, 70, 58, 109, 0, 2, 93, 110, 91, 87, 111, 82, 100, 88, 84, 58, 65, 99, 2, 101, 109, 112, 86, 97, 105, 0, 109, 97, 105, 112, 91, 113, 102, 85, 104, 107, 112, 87, 86, 92, 114, 93, 84, 82, 115, 70, 94, 96, 70, 96, 89, 102, 99, 65, 104, 89, 108, 93, 114, 110, 91, 110, 116, 99, 102, 113, 117, 101, 81, 81, 118, 117, 119, 92, 103, 100, 84, 115, 58, 98, 94, 120, 112, 121, 112, 105, 121, 115, 82, 111, 106, 118, 81, 113, 98, 99, 122, 115, 111, 123, 124, 125, 101, 121, 109, 111, 120, 126, 114, 92, 119, 117, 127, 101, 103, 100, 128, 121, 105, 109, 91, 116, 113, 101, 124, 121, 101, 127, 124, 129, 85, 107, 103, 130, 119, 131, 94, 98, 122, 132, 133, 85, 129, 106, 133, 100, 115, 134, 129, 107, 107, 108, 134, 113, 135, 98, 131, 98, 135, 111, 87, 112, 116, 110, 136, 137, 138, 116, 111, 112, 120, 117, 139, 127, 117, 140, 141, 96, 142, 89, 135, 113, 116, 110, 114, 136, 116, 138, 135, 103, 128, 130, 128, 100, 133, 108, 89, 143, 144, 145, 131, 141, 139, 117, 137, 116, 136, 120, 123, 126, 135, 144, 131, 146, 131, 145, 147, 114, 119, 89, 142, 143, 122, 111, 126, 148, 149, 150, 119, 130, 147, 121, 124, 123, 143, 151, 108, 123, 120, 121, 140, 117, 118, 133, 115, 122, 152, 153, 132, 138, 136, 148, 127, 154, 124, 114, 155, 136, 135, 138, 156, 157, 146, 145, 158, 118, 106, 155, 114, 147, 135, 156, 159, 129, 134, 160, 131, 146, 94, 123, 161, 126, 136, 138, 137, 140, 118, 162, 143, 142, 163, 139, 141, 127, 134, 108, 151, 123, 125, 161, 164, 106, 129, 165, 151, 166, 145, 144, 157, 127, 141, 167, 144, 135, 157, 151, 160, 134, 167, 140, 162, 141, 140, 167, 136, 149, 148, 161, 168, 126, 125, 124, 154, 162, 118, 158, 130, 128, 133, 142, 96, 95, 95, 94, 169, 169, 94, 146, 158, 106, 164, 161, 125, 168, 127, 167, 154, 159, 146, 157, 138, 148, 156, 170, 163, 142, 122, 126, 152, 171, 172, 173, 125, 154, 174, 175, 158, 164, 148, 176, 156, 157, 135, 159, 132, 122, 152, 143, 163, 151, 177, 129, 160, 178, 158, 175, 160, 151, 179, 178, 162, 158, 168, 125, 174, 180, 146, 159, 181, 162, 178, 179, 151, 165, 164, 172, 171, 182, 183, 181, 163, 166, 151, 149, 136, 155, 184, 133, 132, 160, 179, 177, 175, 164, 171, 156, 176, 159, 167, 174, 154, 185, 147, 130, 95, 170, 142, 162, 186, 167, 164, 129, 172, 178, 175, 187, 188, 146, 180, 169, 188, 95, 159, 176, 189, 162, 181, 186, 133, 185, 130, 185, 184, 190, 169, 146, 188, 166, 163, 170, 180, 159, 191, 172, 129, 177, 192, 175, 171, 174, 167, 186, 150, 176, 148, 193, 174, 186, 95, 188, 194, 192, 171, 173, 126, 168, 152, 185, 133, 184, 165, 166, 170, 168, 174, 193, 178, 187, 181, 159, 189, 191, 189, 195, 191, 196, 187, 175, 189, 176, 150, 170, 95, 197, 168, 198, 152, 195, 189, 199, 147, 185, 200, 189, 150, 199, 201, 180, 191, 186, 181, 183, 193, 186, 183, 179, 165, 202, 175, 192, 196, 203, 194, 188, 198, 168, 193, 204, 172, 177, 177, 202, 205, 206, 204, 207, 172, 204, 206, 198, 208, 209, 193, 183, 210, 177, 179, 202, 155, 147, 211, 181, 187, 182, 205, 204, 177, 180, 201, 212, 208, 193, 210, 182, 213, 183, 198, 209, 152, 194, 214, 215, 196, 216, 187, 201, 191, 195, 197, 95, 194, 173, 172, 206, 150, 149, 217, 197, 218, 170, 173, 206, 219, 173, 219, 192, 188, 180, 212, 200, 185, 190, 170, 220, 165, 198, 193, 208, 206, 207, 221, 212, 203, 188, 153, 152, 209, 216, 182, 187, 194, 222, 197, 204, 202, 207, 207, 223, 224, 217, 149, 225, 226, 200, 227, 194, 203, 214, 220, 170, 218, 213, 182, 228, 147, 200, 226, 204, 205, 202, 197, 229, 230, 201, 195, 212, 149, 155, 211, 222, 229, 197, 153, 209, 231, 232, 153, 231, 192, 219, 233, 215, 222, 194, 197, 230, 218, 233, 196, 192, 217, 199, 150, 132, 153, 232, 216, 196, 233, 212, 234, 203, 182, 216, 228, 183, 235, 210, 147, 226, 211, 232, 184, 132, 183, 213, 235, 236, 233, 219, 202, 223, 207, 237, 199, 217, 199, 237, 195, 214, 222, 215, 225, 238, 239, 149, 238, 225, 202, 240, 223, 241, 223, 240, 242, 243, 220, 221, 207, 244, 222, 214, 245, 202, 165, 240, 219, 206, 221, 246, 200, 190, 203, 247, 214, 210, 248, 208, 165, 249, 240, 214, 247, 245, 218, 230, 250, 236, 219, 221, 207, 224, 244, 213, 228, 235, 235, 228, 216, 232, 251, 184, 252, 231, 209, 253, 249, 254, 247, 203, 234, 210, 235, 248, 165, 220, 243, 241, 240, 255, 221, 256, 236, 209, 208, 252, 212, 195, 257, 238, 149, 211, 237, 257, 195, 233, 236, 216, 258, 223, 241, 240, 249, 253, 255, 259, 241, 250, 230, 229, 255, 240, 253, 218, 250, 220, 246, 190, 251, 260, 247, 234, 249, 165, 243, 241, 259, 258, 249, 243, 254, 223, 258, 261, 253, 259, 255, 184, 251, 190, 262, 222, 245, 263, 254, 264, 226, 227, 265, 254, 266, 264, 253, 263, 259, 242, 220, 267, 223, 244, 224, 222, 262, 229, 212, 257, 234, 254, 243, 266, 236, 268, 216, 245, 247, 260, 267, 220, 269, 259, 263, 270, 229, 262, 250, 253, 254, 263, 223, 261, 244, 271, 211, 265, 272, 260, 234, 232, 231, 273, 268, 274, 216, 208, 248, 275, 242, 266, 243, 261, 276, 244, 257, 237, 277, 245, 278, 262, 276, 261, 258, 244, 256, 221, 235, 216, 274, 231, 252, 273, 264, 279, 280, 273, 281, 232, 235, 274, 282, 280, 263, 264, 257, 277, 283, 208, 273, 252, 277, 225, 239, 257, 272, 234, 208, 275, 273, 263, 280, 284, 285, 220, 250, 248, 235, 286, 269, 220, 285, 268, 256, 286, 236, 256, 268, 235, 282, 286, 248, 286, 287, 278, 245, 260, 285, 267, 269, 270, 263, 284, 276, 258, 288, 217, 225, 237, 237, 225, 277, 283, 239, 289, 259, 270, 258, 260, 272, 278, 250, 278, 290, 256, 244, 276, 248, 287, 275, 250, 262, 278, 270, 288, 258, 257, 289, 272, 282, 274, 268, 289, 257, 283, 291, 276, 292, 211, 226, 265, 242, 293, 266, 286, 282, 268, 280, 270, 284, 285, 290, 267, 294, 279, 293, 211, 271, 238, 250, 290, 285, 288, 270, 295, 200, 246, 227, 280, 295, 270, 290, 278, 296, 293, 279, 266, 264, 266, 279, 227, 246, 265, 267, 290, 297, 283, 277, 239, 246, 251, 265, 275, 298, 273, 242, 267, 297, 297, 293, 242, 280, 279, 295, 275, 287, 298, 273, 298, 299, 287, 286, 298, 278, 272, 296, 300, 301, 290, 232, 281, 251, 301, 297, 290, 286, 291, 298, 295, 294, 288, 281, 273, 299, 289, 302, 303, 286, 256, 291, 256, 276, 291, 295, 279, 294, 304, 271, 265, 288, 305, 276, 289, 239, 302, 306, 292, 276, 293, 301, 307, 305, 288, 307, 301, 293, 297, 294, 307, 288, 289, 296, 272, 296, 300, 290, 308, 265, 251, 299, 309, 281, 291, 292, 310, 238, 271, 304, 301, 300, 307, 302, 239, 311, 303, 296, 289, 311, 238, 304, 303, 300, 296, 298, 291, 310, 299, 298, 309, 276, 305, 306, 307, 294, 293, 251, 281, 308, 281, 309, 308, 239, 238, 311, 308, 304, 265, 309, 298, 312, 311, 303, 302, 298, 310, 312, 292, 306, 313, 306, 305, 313, 309, 312, 308, 308, 311, 304, 300, 303, 311, 307, 313, 305, 313, 312, 292, 307, 300, 313, 292, 312, 310, 314, 300, 311, 313, 314, 312, 312, 314, 308, 314, 311, 308, 313, 300, 314, 92, 79, 72]
        point3f[] points = [(1.5, -0.960751, -1.2232), (0.81, -0.891238, -3.74258), (0.16, -0.233535, -2.28405), (1.49, -2.44325, -3.6962), (1.59, -2.98815, -4.15761), (1.66, -2.81016, -4.10777), (1.41, -1.14861, -1.92823), (1, -1.40023, -3.80159), (0.88, -1.33122, -3.83517), (1.69, -2.60816, -4.12133), (1.68, -2.36516, -4.13078), (1.52, -2.07518, -4.0136), (1.36, -1.89818, -4.01323), (1.13, -3.46417, -4.0713), (0.74, -3.4833, -3.41621), (0.77, -3.73919, -3.99486), (1.54, -2.34516, -4.10098), (0.58, -3.89022, -3.80609), (1.21, -1.6112, -3.94075), (0.43, -3.82819, -3.99919), (0.16, -3.89122, -3.85389), (-0.2, -4.04723, -3.76522), (0.0500002, -3.90221, -3.85969), (-0.04, -3.71235, -3.21576), (-0.67, -3.99324, -3.72131), (-1.04, -3.5855, -2.44973), (0.0799999, -0.335372, -3.08527), (0.51, -0.542263, -3.61741), (0.12, -0.501272, -3.5768), (1.21, -2.88041, -2.87359), (1.52, -2.43643, -2.7945), (-0.24, -0.399286, -3.50468), (-0.3, -0.35829, -3.48747), (-0.39, -0.375297, -3.44968), (-0.55, -0.267311, -3.38255), (-0.66, -0.285315, -3.36586), (-0.0799999, -4.10148, -2.55884), (-0.47, -4.20458, -2.07986), (-1.38, -3.96827, -3.58371), (1.12, -3.76941, -2.89177), (-0.93, -0.229326, -3.31065), (-1.84, -3.72732, -3.35326), (-1.19, -0.228369, -3.09795), (-1.39, -0.419346, -3.21079), (-1.04, -0.190367, -3.10644), (-1.82, -1.01735, -3.18631), (-1.85, -1.17447, -2.61224), (-1.67, -0.854345, -3.21667), (-1.47, -0.357456, -2.67107), (-2.252, -2.60735, -3.19383), (-1.9, -1.07837, -3.11352), (-2.012, -1.15736, -3.15554), (1.67, -2.92146, -2.6326), (-2.127, -1.25636, -3.13406), (-2.292, -1.49937, -3.08151), (-1.6, -3.8903, -3.42039), (0.51, -4.10443, -2.81884), (-2.356, -1.79138, -3.05056), (-1.9, -2.51069, -1.52151), (-2.359, -2.16237, -3.09414), (1.76, -1.60557, -2.11933), (1.54, -3.5575, -2.47372), (1.86, -3.16659, -1.99264), (0.17, -4.1925, -2.44685), (-0.69, -3.86155, -2.20379), (-1.33, -3.20976, -1.19865), (-2.471, 0.442458, -2.24791), (1.2, -3.90258, -2.08079), (-1.07, -3.73568, -1.54776), (-1.2, 0.628399, -1.95787), (-2.751, -0.871651, -1.71418), (2.21, -2.53063, -1.81952), (0.63, -4.23668, -1.57386), (2.3, -1.52268, -1.58231), (1.59, -1.18871, -1.44024), (2.32, -1.87469, -1.54638), (-2.46, 0.452292, -1.43591), (-2.644, -0.0687568, -1.19401), (-2.398, 0.701246, -1.20786), (0.1, -4.12471, -1.40484), (1.86, -2.91165, -1.69659), (0.45, 0.32629, -1.42193), (2.6, -1.90678, -1.07639), (-0.52, -4.31969, -1.53188), (2.43, -2.30779, -1.00847), (-1.67, 0.811232, -1.14083), (2.23, -0.991752, -1.2192), (2.5, -1.43085, -0.761291), (2.29, -2.79376, -1.20057), (-2.67, 0.175088, -0.430964), (1.49, -3.84774, -1.25378), (-0.98, -4.07083, -0.849829), (0.21, -4.2948, -0.988875), (-0.24, -4.4138, -1.0039), (-2.544, -2.40909, 0.460509), (-2.829, -1.55032, 1.56768), (-3.087, -1.21304, 0.173753), (1.77, -1.04081, -0.919212), (-2.014, -2.86691, -0.424584), (-1.53, -3.03694, -0.291618), (1.86, -2.88992, -0.395589), (0.93, 0.0291297, -0.636994), (-1.51, -3.40982, -0.890694), (1.49, -3.52786, -0.707718), (-2.649, 0.598151, -0.740878), (1.84, -0.543899, -0.498111), (-0.58, 1.35398, 0.115276), (-2.1, 0.6921, -0.488859), (-2.893, 0.945106, -0.518808), (1.4, -0.481958, -0.205098), (-0.66, -4.03393, -0.333822), (2.51, -1.35598, -0.0782763), (2.15, -0.860982, -0.0891753), (-1.3, -3.72202, 0.122242), (0.31, -4.14794, -0.312845), (2.07, -2.11694, -0.282431), (-1.2, -4.05098, -0.116825), (1.03, 0.126991, 0.0460259), (0.56, 0.831932, 0.335169), (1.05, -3.90197, -0.125795), (2.35, -0.648999, -0.00713214), (1.93, -0.198977, -0.112041), (2.77, -2.0141, 0.50459), (2.67, -0.690122, 0.600859), (2.11, -0.0881042, 0.510982), (2.37, 0.263863, 0.675054), (3.09, -1.04016, 0.783788), (1.65, 0.10697, 0.148022), (2.16, -3.16806, 0.298355), (-1.28, 1.1879, 0.498242), (1.71, -3.93213, 0.647199), (-1.99, -2.85403, 0.150419), (2.8, -1.98129, 1.4306), (2.35, -2.88817, 0.818412), (-1.84, 0.655857, 0.702134), (-1.88, -3.54408, 0.393278), (-0.99, -4.54516, 0.783074), (-1.34, -4.14209, 0.420156), (-1.89, -4.13911, 0.537157), (1.66, -0.18208, 0.392963), (1.15, 0.127879, 0.595026), (1.12, -0.102142, 0.697979), (-2.888, -0.639139, 0.68187), (-2.431, -0.0851487, 0.729983), (-1.61, -3.48909, 0.421289), (-1.65, -2.88107, 0.360413), (-2.055, -2.81418, 0.867427), (0.95, -4.38422, 1.07811), (-1.64, -4.30322, 1.07412), (-0.78, -4.44738, 1.87009), (-2.173, -4.38335, 1.69811), (-2.563, 0.737791, 1.02415), (2.87, -0.715306, 1.50185), (3.02, -1.80429, 1.42963), (1.89, 0.0627998, 0.983013), (0.0500002, -4.53931, 1.54308), (-1.79, -3.73416, 0.76824), (-1.84, -2.86318, 0.861417), (0.43, 0.965813, 0.920197), (-1.96, -2.99827, 1.33439), (-1.65, 1.12881, 0.92323), (2.73, -0.183115, 0.564963), (1.11, 0.337787, 1.04607), (-2.654, -0.125206, 1.01297), (-0.1, 1.14076, 1.17723), (-2.71, 0.473525, 2.3311), (-3.103, 0.39373, 1.32408), (1.51, 0.180756, 1.19904), (2.6, 0.248715, 1.39905), (-2.651, -2.07824, 1.18458), (-3.165, -0.605246, 1.20588), (0.0500002, 1.69973, 1.32335), (-0.0799999, 1.42667, 1.62029), (0.17, 1.57364, 1.78632), (1.89, 0.402756, 1.20008), (0.7, 1.46477, 1.1423), (-1.97, -3.80024, 1.18223), (-0.98, 1.46069, 1.5023), (0.97, 1.09776, 1.17922), (-2.193, 1.37373, 1.33628), (-2.684, -2.55333, 1.60348), (1.6, 1.40071, 1.41729), (1.4, 1.38761, 1.92128), (1.78, 0.878598, 1.97218), (2.51, -2.56642, 2.06748), (2.06, -3.50636, 1.77829), (1.81, 0.464675, 1.59509), (1.23, 1.50466, 1.64831), (-3.051, -2.34731, 1.54052), (-2.104, -3.58129, 1.40827), (2.26, -2.73348, 2.33744), (-2.063, -3.15233, 1.59636), (0.28, 1.83062, 1.88137), (2.14, 0.379674, 1.59908), (-3.179, -1.71335, 1.72465), (-2.623, -3.26542, 2.04234), (0.92, 1.93561, 1.89839), (-3.029, -1.15438, 1.88676), (2.64, -0.125334, 1.63897), (-2.315, -3.88141, 2.02721), (1.79, -3.71943, 2.10124), (-2.595, -2.86736, 1.77242), (-1.34, 1.55156, 2.15932), (-3.528, -2.41343, 2.11851), (-0.65, 1.8006, 1.94937), (-0.71, 1.50961, 1.90131), (-0.17, 1.97962, 1.8584), (-0.81, 1.99761, 1.89341), (2.13, 0.290544, 2.23906), (2.58, 0.0225778, 2.073), (2.27, 0.684588, 2.02314), (0.04, -4.23857, 2.82114), (-3.023, -3.02343, 2.09238), (2.18, 1.18756, 2.16424), (-3.222, -1.93444, 2.16161), (-3.573, -1.57246, 2.25368), (0.75, 1.33651, 2.42927), (-1.4, -4.41444, 2.1471), (-3.068, -0.672461, 2.26286), (-7.39355e-17, 1.76452, 2.36836), (-2.996, -0.28852, 2.55494), (-0.11, 2.38779, 2.51549), (-3.427, -1.39447, 2.32272), (-1.34, 1.82351, 2.41237), (-1.13, 2.34363, 2.78448), (-1.3, -4.15561, 2.98815), (0.56, -4.25748, 2.35913), (1.13, -3.64361, 2.98426), (1.18, 1.63354, 2.26833), (-3.605, -1.19949, 2.41776), (-3.811, -0.713451, 2.21385), (2.67, -1.08949, 2.39478), (2.36, -1.46556, 2.7567), (0.55, 1.64854, 2.24134), (-3.215, -2.6965, 2.46545), (1.41, 1.22444, 2.75725), (0.4, 2.01563, 2.32841), (-1.73, -3.76851, 2.52723), (-0.54, -3.75574, 3.63324), (-1.21, -3.09676, 3.72237), (-2.143, 1.09049, 2.52622), (-2.08, 1.65854, 2.24134), (-3.463, 0.377406, 2.91908), (-3.13, 0.688472, 2.59214), (-0.78, 2.11063, 2.78243), (-3.084, -1.73454, 2.63765), (1.94, -2.77361, 3.00844), (-3.137, -2.1045, 2.45457), (1.91, 0.535441, 2.74711), (-2.631, 0.644501, 2.45013), (-3.618, -0.528578, 2.83789), (1.91, -2.1287, 3.45857), (2.44, -0.00954504, 2.676), (-2.561, 1.57947, 2.58432), (-2.769, 1.11947, 2.59723), (-2.274, 1.56548, 2.55232), (-0.04, 1.76235, 3.19436), (-2.791, -3.04159, 2.88038), (-1.51, 1.86236, 3.14838), (-2.309, 2.20465, 2.72445), (-2.933, -2.39857, 2.79151), (-1.23, 1.74245, 2.69436), (-3.733, -1.43558, 2.85271), (-2.695, 1.72242, 2.82435), (-3.124, 1.49743, 2.7843), (0.84, -3.15577, 3.78136), (-3.457, 1.22541, 2.91025), (-3.319, -0.0606052, 2.97199), (0.48, 1.53636, 3.13731), (-2.988, -0.330589, 2.89393), (-2.418, 1.78034, 3.23636), (0.0799999, -3.58974, 3.64027), (-3.199, -2.16866, 3.25056), (2.18, -0.631656, 3.21887), (0.86, 1.59342, 2.86032), (1.88, -0.319625, 3.06793), (-0.17, 1.40531, 3.36529), (-1.83, -3.56965, 3.20827), (-3.216, -1.70166, 3.23365), (-3.011, 1.20129, 3.48824), (-2.828, 1.46138, 3.0673), (2.11, -0.936734, 3.60381), (0.79, 0.946377, 3.05919), (-2.615, -2.90064, 3.14941), (-2.639, 1.26537, 3.07026), (-3.238, -0.629614, 3.01587), (0.97, 0.562297, 3.45311), (1.82, 0.159309, 3.39503), (-1.87, 1.70229, 3.49235), (-2.062, -2.28874, 3.61053), (-3.011, -0.868702, 3.44782), (0.58, 0.563231, 3.77411), (0.38, 0.239174, 4.05505), (-2.879, 0.989211, 3.8722), (-2.346, 1.43022, 3.82129), (-2.99, 1.74525, 3.69836), (-2.838, -1.48673, 3.5997), (-3.435, 0.192272, 3.57404), (1.51, -0.107734, 3.60498), (1.45, -0.921727, 3.56781), (-1.92, -0.963874, 4.2898), (-2.902, -0.580758, 3.72188), (-1.74, -2.48481, 3.96149), (-2.166, -1.76485, 4.18164), (-0.1, -2.69185, 4.19245), (-1.28, 1.0172, 3.93221), (-0.34, 0.370186, 3.99708), (-1.86, 0.47017, 4.0741), (0.35, -2.10288, 4.29757), (1.2, -1.29281, 3.96374), (0.76, -0.338822, 4.03493), (-0.8, -2.18089, 4.35456), (0.18, -0.903907, 4.45282), (-0.76, -0.464901, 4.42291), (-0.37, -1.3689, 4.40272)]
        texCoord2f[] primvars:st = [(2.1591096, -0.042997804), (2.2000604, -0.7918601), (3.279189, 1.0580307), (1.0215074, -1.3716121), (0.6772434, -1.6835567), (0.81840616, -1.6207259), (1.6981555, -0.86133343), (1.89397, -1.0553846), (1.9672247, -0.99667114), (0.9604816, -1.5567319), (1.1231078, -1.4837244), (1.3926173, -1.3599839), (1.5336291, -1.288621), (0.18678655, -1.8684736), (0.021011762, -1.7546569), (-0.1472343, -1.9402643), (1.2162989, -1.4418051), (-0.3665084, -1.9657695), (1.7198246, -1.1792451), (-0.5450955, -1.9824342), (-0.76821655, -2.0062032), (-1.0794688, -2.014258), (-0.848744, -2.0142148), (-0.86278856, -1.8477277), (-1.473903, -1.8468802), (-2.542797, -0.9144838), (3.0795858, 0.25754473), (2.4513054, -0.5548618), (2.670128, -0.32294488), (0.5715335, -1.4245743), (0.77416885, -1.1697844), (2.9381077, -0.0027695675), (3.0079913, 0.08043173), (3.1156707, 0.20531781), (3.4089243, 0.52603143), (3.6164892, 0.74543107), (-1.2322425, -1.4746746), (-1.894681, -1.0979018), (-2.4071581, -1.2994068), (-0.32159215, -1.6143085), (4.12259, 1.4417105), (-2.877785, -0.95406884), (2.895306, 3.3486335), (0.23446545, 7.0960774), (3.8572338, 2.2668467), (-2.2466967, 2.814194), (-2.3531392, 2.4760654), (-1.9650553, 3.3009126), (-0.016539125, 6.4761915), (-3.5994198, 1.2380563), (-2.3376608, 2.6807935), (-2.4128, 2.5726874), (0.23863545, -1.4680659), (-2.4756122, 2.4720747), (-2.5939126, 2.238837), (-2.5849957, -1.3743955), (-0.764025, -1.5655476), (-2.7556858, 1.9042875), (-2.9132614, 1.2668451), (-3.0580606, 1.6525949), (1.2350198, -0.8536872), (-0.053504746, -1.4528632), (0.318431, -1.2026678), (-0.9195596, -1.3773352), (-2.3435066, -0.832935), (-2.8984766, 0.12986955), (-1.493583, 3.6586566), (-0.44386017, -1.37522), (-2.5559163, -0.6050251), (0.5704413, 5.2989187), (-2.0881355, 2.2758372), (0.86466193, -0.8264406), (-0.8723662, -1.2410618), (1.540307, -0.43995452), (1.815649, -0.30071768), (1.2388624, -0.6056339), (-1.1554091, 3.7764087), (-1.4003818, 3.1826632), (-1.0296546, 3.7016556), (-1.3102608, -1.1921083), (0.5667141, -0.98536354), (2.3181288, 2.3994544), (1.2469189, -0.35491925), (-2.0572376, -0.8719649), (0.81851107, -0.59899014), (-0.44419888, 4.25233), (1.7687833, -0.10866599), (1.6066992, -0.08688969), (0.50420797, -0.9153344), (-1.4169735, 2.8930113), (-0.031208653, -1.0844775), (-2.16479, -0.45108008), (-0.8341967, -1.0018333), (-1.6270123, -0.8465053), (-2.1049018, 1.6578883), (-1.4547918, 2.1132295), (-1.7333579, 2.3188927), (1.9765326, 0.038198307), (-2.3726134, 1.0366071), (-2.792721, 0.5660778), (0.4112967, -0.67428106), (2.6077812, 1.3864427), (-2.639974, 0.17691873), (-0.18899103, -0.8366136), (-1.0017211, 3.527108), (2.1857252, 0.3535207), (0.86974514, 4.0569744), (-0.6149063, 3.727203), (-0.91360676, 3.3221357), (2.555612, 0.7249514), (-1.7968123, -0.46947795), (1.5270014, 0.19764985), (1.902898, 0.2609374), (-2.372396, 0.32950002), (-1.3315699, -0.54061794), (0.987534, -0.20203081), (-2.023374, -0.0024280432), (2.219591, 1.9712441), (1.7592425, 2.6746917), (-0.67724884, -0.70443434), (1.8879048, 0.59797615), (2.239654, 0.7902819), (1.1890087, 0.34061798), (1.9899485, 0.9577878), (2.2155292, 1.2646989), (1.9456666, 1.2686299), (1.6602293, 0.7525948), (2.2209563, 1.6758118), (0.15627421, -0.5981407), (-0.05429895, 3.8471696), (-0.13995215, -0.5528226), (-1.9858434, 1.1757855), (0.8798757, 0.47701648), (0.5192862, -0.18353915), (-0.54175603, 3.5160558), (-1.8810271, 0.6985749), (-1.7093271, -0.09757865), (-1.8787231, 0.025657875), (-1.8174691, 0.19276771), (2.1890366, 1.8485656), (1.9507085, 2.1605833), (2.1116493, 1.9076074), (-1.2901924, 2.6459475), (-1.0748811, 2.9906502), (-1.8795043, 1.0118525), (-1.8461199, 1.1437373), (-1.7266014, 1.3615605), (-0.6711125, -0.3782465), (-1.5297914, 0.26527068), (-1.2002302, 0.16815975), (-1.2434335, 0.48314798), (-0.69907784, 3.138063), (1.3028342, 0.8814742), (1.0086489, 0.8701239), (2.0471203, 1.5334473), (-1.247759, -0.20039243), (-1.5781493, 0.5178851), (-1.7726088, 1.0328956), (1.2061903, 3.1414332), (-1.5092462, 0.9387064), (-0.35172626, 3.427867), (1.8273705, 1.0479928), (1.6095519, 2.4318974), (-0.97113794, 2.8418527), (0.64927906, 3.6003065), (-0.49263433, 2.8018498), (-0.7864542, 2.8382127), (1.9342793, 1.8940736), (1.6569465, 1.2131824), (-1.6872274, 1.728926), (-0.95495665, 2.529772), (0.63183826, 3.2943585), (0.30844525, 3.4284477), (0.5271539, 3.1823006), (1.8045561, 1.5949757), (0.9314096, 3.0805688), (-1.3904109, 0.58845997), (-0.06712335, 3.3612044), (1.2507043, 2.7599351), (-0.34739846, 3.1750407), (-1.3810248, 1.2806759), (1.3473461, 2.4110425), (1.1547616, 2.402449), (1.2937578, 2.1245391), (0.41112942, 0.18805143), (0.000573841, -0.22001517), (1.603149, 2.0189395), (1.0957658, 2.681581), (-1.3918805, 1.6605017), (-1.2494422, 0.80204594), (0.05729809, 0.04224996), (-1.2844703, 1.0545664), (0.7285005, 3.043134), (1.4669889, 1.6621729), (-1.1618122, 1.9178299), (-1.0983744, 1.0248656), (0.89941496, 2.8407118), (-1.0375004, 2.1587672), (1.3615335, 1.2842721), (-1.103881, 0.7200329), (-0.24598713, -0.13068172), (-1.2208918, 1.1929243), (-0.09320473, 3.042958), (-1.1078254, 1.6879748), (0.11409666, 3.1991389), (-0.015913282, 3.206772), (0.3645791, 3.1065605), (0.190419, 2.9307928), (1.1307765, 1.5064406), (1.141461, 1.1418346), (1.1997546, 1.8744563), (-0.7586832, -0.026017714), (-1.1368935, 1.385317), (1.1417316, 2.274723), (-1.0355176, 1.843021), (-1.0654091, 1.9089483), (0.9448507, 2.5375924), (-1.0600553, 0.5216128), (-0.84894836, 2.274736), (0.5909903, 2.9564996), (-0.6139373, 2.370052), (0.44427437, 2.821733), (-0.99662316, 1.9615574), (0.05997109, 2.7533827), (0.17076616, 2.7916234), (-0.86192954, 0.5669492), (-0.45703247, -0.10709457), (-0.26947647, -0.0056757308), (1.0719119, 2.356497), (-0.9041302, 2.0746179), (-0.8840606, 2.158516), (0.94692343, 1.0588421), (0.7030412, 0.7483671), (0.77451897, 2.8200634), (-0.9414238, 1.5390618), (1.0360743, 2.203313), (0.6887204, 2.6831412), (-0.9440572, 0.8073163), (-0.6473686, 0.39327127), (-0.6130455, 0.85699785), (-0.17236735, 2.7443283), (-0.06257784, 2.6489398), (-0.40763885, 2.3207016), (-0.39245394, 2.5163584), (0.2598948, 2.6789126), (-0.90796006, 1.8380482), (-0.10131657, 0.08171531), (-0.9699135, 1.7233702), (0.99445724, 1.8579656), (-0.29975328, 2.644072), (-0.74030596, 2.1114373), (0.21398845, 0.40911272), (1.0171771, 1.2480509), (-0.18611714, 2.603719), (-0.25503314, 2.5196826), (-0.13006456, 2.6415179), (0.5434199, 2.4619122), (-0.8559884, 1.1806812), (0.02724764, 2.52358), (-0.10023234, 2.5630558), (-0.8580176, 1.6903858), (0.14797492, 2.5749187), (-0.856202, 1.9649873), (-0.16050047, 2.4966836), (-0.20807657, 2.4418507), (-0.26130486, 0.18721761), (-0.28453836, 2.4010277), (-0.5097327, 2.218095), (0.8020423, 2.4130144), (-0.56934685, 2.2621214), (-0.09170221, 2.4510472), (-0.5008247, 0.22552435), (-0.7465606, 1.5124358), (0.822304, 1.2685761), (0.9209216, 2.3595626), (0.89648205, 1.625965), (0.2342612, 2.317453), (-0.78538877, 0.88220966), (-0.73050964, 1.8201696), (-0.19113387, 2.3575673), (-0.15003449, 2.4290752), (0.49778625, 0.9732742), (0.8904521, 2.2752259), (-0.70939136, 1.0330955), (-0.13398907, 2.4593058), (-0.5852206, 2.1923876), (0.79396725, 2.105356), (0.8386449, 1.8158135), (-0.012575034, 2.3076093), (-0.6105566, 1.2195843), (-0.49582145, 1.9802458), (0.50755453, 2.0575542), (0.3034014, 1.9367926), (-0.256081, 2.2322233), (-0.13468306, 2.268214), (-0.11555154, 2.364158), (-0.52931964, 1.5852656), (-0.39129987, 2.1578486), (0.64587706, 1.6490294), (0.6112962, 1.2910589), (-0.23431514, 1.6434469), (-0.29154283, 2.0224838), (-0.47909862, 1.079244), (-0.4184617, 1.2961233), (-0.31459588, 0.48319688), (0.0809591, 2.119195), (0.18024449, 2.0530903), (-0.10317514, 2.0665581), (0.098962724, 0.8594398), (0.44462898, 1.265069), (0.4484649, 1.7990611), (-0.2991962, 0.96425265), (0.30927053, 1.531985), (0.08915576, 1.8222011), (0.013717157, 1.3576518)] (
            interpolation = "vertex"
        )
    }
}

