#usda 1.0

def "Isis_dABF"
{
    def Mesh "Isis_dABF"
    {
        int[] faceVertexCounts = [3, 3, 3, 3, 3, 3, 3, 3, 3, 3, 3, 3, 3, 3, 3, 3, 3, 3, 3, 3, 3, 3, 3, 3, 3, 3, 3, 3, 3, 3, 3, 3, 3, 3, 3, 3, 3, 3, 3, 3, 3, 3, 3, 3, 3, 3, 3, 3, 3, 3, 3, 3, 3, 3, 3, 3, 3, 3, 3, 3, 3, 3, 3, 3, 3, 3, 3, 3, 3, 3, 3, 3, 3, 3, 3, 3, 3, 3, 3, 3, 3, 3, 3, 3, 3, 3, 3, 3, 3, 3, 3, 3, 3, 3, 3, 3, 3, 3, 3, 3, 3, 3, 3, 3, 3, 3, 3, 3, 3, 3, 3, 3, 3, 3, 3, 3, 3, 3, 3, 3, 3, 3, 3, 3, 3, 3, 3, 3, 3, 3, 3, 3, 3, 3, 3, 3, 3, 3, 3, 3, 3, 3, 3, 3, 3, 3, 3, 3, 3, 3, 3, 3, 3, 3, 3, 3, 3, 3, 3, 3, 3, 3, 3, 3, 3, 3, 3, 3, 3, 3, 3, 3, 3, 3, 3, 3, 3, 3, 3, 3, 3, 3, 3, 3, 3, 3, 3, 3, 3, 3, 3, 3, 3, 3, 3, 3, 3, 3, 3, 3, 3, 3, 3, 3, 3, 3, 3, 3, 3, 3, 3, 3, 3, 3, 3, 3, 3, 3, 3, 3, 3, 3, 3, 3, 3, 3, 3, 3, 3, 3, 3, 3, 3, 3, 3, 3, 3, 3, 3, 3, 3, 3, 3, 3, 3, 3, 3, 3, 3, 3, 3, 3, 3, 3, 3, 3, 3, 3, 3, 3, 3, 3, 3, 3, 3, 3, 3, 3, 3, 3, 3, 3, 3, 3, 3, 3, 3, 3, 3, 3, 3, 3, 3, 3, 3, 3, 3, 3, 3, 3, 3, 3, 3, 3, 3, 3, 3, 3, 3, 3, 3, 3, 3, 3, 3, 3, 3, 3, 3, 3, 3, 3, 3, 3, 3, 3, 3, 3, 3, 3, 3, 3, 3, 3, 3, 3, 3, 3, 3, 3, 3, 3, 3, 3, 3, 3, 3, 3, 3, 3, 3, 3, 3, 3, 3, 3, 3, 3, 3, 3, 3, 3, 3, 3, 3, 3, 3, 3, 3, 3, 3, 3, 3, 3, 3, 3, 3, 3, 3, 3, 3, 3, 3, 3, 3, 3, 3, 3, 3, 3, 3, 3, 3, 3, 3, 3, 3, 3, 3, 3, 3, 3, 3, 3, 3, 3, 3, 3, 3, 3, 3, 3, 3, 3, 3, 3, 3, 3, 3, 3, 3, 3, 3, 3, 3, 3, 3, 3, 3, 3, 3, 3, 3, 3, 3, 3, 3, 3, 3, 3, 3, 3, 3, 3, 3, 3, 3, 3, 3, 3, 3, 3, 3, 3, 3, 3, 3, 3, 3, 3, 3, 3, 3, 3, 3, 3, 3, 3, 3, 3, 3, 3, 3, 3, 3, 3, 3, 3, 3, 3, 3, 3, 3, 3, 3, 3, 3, 3, 3, 3, 3, 3, 3, 3, 3, 3, 3, 3, 3, 3, 3, 3, 3, 3, 3, 3, 3, 3, 3, 3, 3, 3, 3, 3, 3, 3, 3, 3, 3, 3, 3, 3, 3, 3, 3, 3, 3, 3, 3, 3, 3, 3, 3, 3, 3, 3, 3, 3, 3, 3, 3, 3, 3, 3, 3, 3, 3, 3, 3, 3, 3, 3, 3, 3, 3, 3, 3, 3, 3, 3, 3, 3, 3, 3, 3, 3, 3, 3, 3, 3, 3, 3, 3, 3, 3, 3, 3, 3, 3, 3, 3, 3, 3, 3, 3, 3, 3, 3, 3, 3, 3, 3, 3, 3, 3, 3, 3, 3, 3, 3, 3, 3, 3, 3, 3, 3, 3, 3, 3, 3, 3, 3, 3, 3, 3, 3, 3, 3, 3, 3, 3, 3, 3, 3, 3, 3, 3, 3, 3, 3, 3, 3, 3, 3, 3, 3, 3, 3, 3, 3, 3, 3, 3, 3, 3, 3, 3, 3, 3, 3, 3, 3, 3, 3, 3, 3, 3, 3, 3, 3, 3, 3, 3, 3, 3, 3, 3, 3, 3, 3, 3, 3, 3, 3, 3, 3, 3, 3, 3, 3, 3, 3, 3, 3, 3, 3, 3, 3, 3, 3, 3, 3, 3, 3, 3, 3, 3, 3, 3, 3, 3, 3, 3, 3, 3, 3, 3, 3, 3, 3, 3, 3, 3, 3, 3, 3, 3, 3, 3, 3, 3, 3, 3, 3, 3, 3, 3, 3, 3, 3, 3, 3, 3, 3, 3, 3, 3, 3, 3, 3, 3, 3, 3, 3, 3, 3, 3, 3, 3, 3, 3, 3, 3, 3, 3, 3, 3, 3, 3, 3, 3, 3, 3, 3, 3, 3, 3, 3, 3, 3, 3, 3, 3, 3, 3, 3, 3, 3, 3, 3, 3, 3, 3, 3, 3, 3, 3, 3, 3, 3, 3, 3, 3, 3, 3, 3, 3, 3, 3, 3, 3, 3, 3, 3, 3, 3, 3, 3, 3, 3, 3, 3, 3, 3, 3, 3, 3, 3, 3, 3, 3, 3, 3, 3, 3, 3, 3, 3, 3, 3, 3, 3, 3, 3, 3, 3, 3, 3, 3, 3, 3, 3, 3, 3, 3, 3, 3, 3, 3, 3, 3, 3, 3, 3, 3, 3, 3, 3, 3, 3, 3, 3, 3, 3, 3, 3, 3, 3, 3, 3, 3, 3, 3, 3, 3, 3, 3, 3, 3, 3, 3, 3, 3, 3, 3, 3, 3, 3, 3]
        int[] faceVertexIndices = [457, 456, 451, 455, 457, 452, 457, 455, 454, 451, 452, 457, 456, 457, 454, 453, 456, 454, 453, 450, 456, 447, 455, 452, 448, 455, 447, 456, 442, 451, 443, 453, 454, 456, 445, 449, 445, 456, 450, 444, 452, 451, 442, 456, 449, 453, 443, 441, 448, 454, 455, 454, 448, 443, 441, 450, 453, 444, 439, 452, 440, 444, 451, 445, 446, 449, 450, 441, 438, 442, 437, 451, 439, 447, 452, 451, 437, 440, 438, 445, 450, 436, 446, 445, 435, 448, 447, 442, 449, 446, 431, 441, 443, 435, 443, 448, 445, 430, 436, 423, 437, 442, 447, 433, 435, 439, 444, 432, 433, 447, 439, 444, 440, 426, 446, 436, 442, 439, 424, 433, 434, 431, 443, 429, 430, 445, 438, 429, 445, 426, 432, 444, 434, 443, 435, 423, 442, 436, 428, 436, 430, 431, 434, 419, 431, 402, 441, 416, 423, 436, 438, 441, 402, 420, 440, 437, 420, 426, 440, 423, 409, 437, 427, 434, 435, 402, 422, 438, 414, 424, 439, 439, 432, 414, 428, 403, 436, 413, 414, 432, 422, 429, 438, 437, 409, 420, 427, 435, 425, 403, 416, 436, 433, 425, 435, 416, 403, 405, 426, 420, 397, 432, 412, 413, 401, 402, 431, 425, 433, 421, 389, 406, 429, 430, 429, 406, 427, 419, 434, 428, 430, 395, 431, 419, 408, 419, 427, 418, 424, 421, 433, 422, 399, 429, 390, 405, 403, 432, 426, 412, 403, 428, 393, 404, 412, 426, 401, 431, 408, 421, 424, 415, 406, 395, 430, 399, 389, 429, 427, 425, 417, 393, 428, 395, 417, 418, 427, 409, 423, 388, 404, 426, 397, 421, 417, 425, 409, 376, 420, 414, 391, 424, 397, 420, 366, 411, 418, 417, 391, 415, 424, 380, 388, 423, 417, 421, 410, 400, 419, 418, 416, 405, 396, 416, 380, 423, 404, 372, 412, 402, 399, 422, 421, 415, 410, 366, 420, 376, 402, 360, 399, 398, 411, 417, 415, 391, 378, 410, 407, 417, 379, 391, 414, 419, 400, 382, 382, 408, 419, 418, 411, 400, 407, 398, 417, 384, 380, 416, 396, 384, 416, 410, 415, 378, 401, 408, 358, 374, 390, 403, 413, 379, 414, 376, 409, 346, 406, 389, 368, 407, 392, 398, 348, 402, 401, 350, 379, 413, 413, 412, 350, 410, 378, 394, 372, 350, 412, 398, 400, 411, 394, 407, 410, 388, 346, 409, 366, 376, 359, 381, 389, 399, 378, 391, 352, 408, 382, 358, 394, 392, 407, 368, 395, 406, 377, 405, 390, 404, 397, 364, 402, 348, 356, 391, 379, 357, 396, 405, 377, 364, 372, 404, 400, 398, 386, 403, 393, 374, 382, 400, 363, 350, 367, 379, 360, 402, 356, 400, 386, 385, 401, 358, 348, 385, 363, 400, 396, 370, 384, 399, 360, 381, 390, 369, 377, 398, 392, 386, 364, 397, 366, 396, 377, 370, 394, 378, 383, 387, 392, 394, 353, 393, 395, 388, 373, 346, 368, 389, 341, 375, 383, 378, 368, 353, 395, 383, 387, 394, 393, 353, 374, 392, 387, 386, 352, 391, 357, 369, 390, 374, 384, 361, 380, 389, 381, 341, 366, 359, 331, 383, 365, 387, 373, 388, 380, 386, 387, 365, 365, 385, 386, 372, 364, 342, 363, 385, 371, 379, 351, 357, 385, 365, 371, 378, 352, 332, 349, 358, 382, 384, 370, 361, 346, 373, 320, 371, 365, 354, 375, 365, 383, 363, 349, 382, 338, 341, 381, 365, 375, 355, 348, 358, 335, 360, 338, 381, 362, 320, 373, 380, 361, 373, 331, 340, 366, 369, 374, 328, 367, 351, 379, 375, 378, 332, 370, 377, 369, 345, 368, 341, 359, 376, 346, 375, 332, 355, 328, 374, 353, 363, 371, 344, 350, 372, 343, 322, 363, 344, 373, 361, 362, 372, 342, 343, 354, 344, 371, 353, 368, 345, 367, 323, 351, 323, 367, 350, 340, 339, 366, 347, 352, 357, 364, 366, 339, 346, 320, 325, 360, 336, 338, 365, 355, 354, 339, 342, 364, 322, 349, 363, 345, 341, 319, 360, 356, 336, 346, 331, 359, 337, 358, 349, 334, 344, 354, 337, 335, 358, 347, 357, 324, 357, 351, 324, 321, 356, 348, 321, 336, 356, 333, 328, 353, 330, 354, 355, 322, 326, 349, 355, 332, 330, 323, 329, 351, 334, 354, 330, 345, 333, 353, 347, 332, 352, 324, 351, 329, 350, 343, 323, 326, 337, 349, 335, 337, 314, 338, 336, 308, 342, 339, 303, 348, 335, 321, 332, 347, 324, 329, 317, 324, 331, 346, 325, 344, 334, 318, 340, 331, 313, 333, 298, 328, 319, 327, 345, 327, 333, 345, 342, 310, 343, 322, 344, 318, 323, 343, 310, 303, 310, 342, 313, 304, 340, 306, 319, 341, 338, 306, 341, 340, 304, 339, 304, 303, 339, 292, 325, 320, 308, 306, 338, 323, 285, 329, 311, 318, 334, 316, 330, 332, 324, 312, 332, 326, 314, 337, 321, 308, 336, 314, 321, 335, 311, 334, 330, 327, 298, 333, 316, 332, 312, 308, 321, 280, 325, 313, 331, 330, 316, 311, 322, 318, 309, 298, 327, 293, 285, 317, 329, 326, 322, 307, 315, 301, 290, 317, 302, 324, 327, 319, 293, 314, 326, 307, 292, 313, 325, 290, 311, 315, 293, 295, 298, 302, 312, 324, 269, 290, 301, 316, 315, 311, 302, 317, 305, 315, 316, 294, 310, 285, 323, 309, 307, 322, 313, 292, 276, 307, 296, 314, 319, 306, 300, 280, 321, 314, 287, 318, 311, 300, 293, 319, 287, 309, 318, 285, 305, 317, 312, 294, 316, 313, 297, 304, 309, 299, 307, 294, 286, 315, 299, 289, 307, 315, 286, 301, 296, 275, 314, 275, 280, 314, 271, 298, 295, 291, 293, 300, 276, 297, 313, 302, 294, 312, 311, 290, 287, 281, 305, 261, 306, 308, 249, 308, 280, 248, 285, 261, 305, 242, 285, 310, 303, 242, 310, 299, 309, 287, 305, 281, 283, 288, 289, 299, 248, 249, 308, 289, 296, 307, 294, 302, 273, 306, 249, 300, 302, 305, 283, 274, 278, 281, 281, 261, 274, 297, 276, 267, 299, 287, 266, 304, 272, 303, 272, 304, 297, 242, 303, 272, 273, 302, 270, 302, 283, 270, 301, 286, 269, 291, 300, 249, 275, 296, 257, 288, 299, 266, 280, 275, 238, 224, 218, 285, 279, 291, 249, 272, 297, 267, 290, 269, 284, 296, 289, 257, 271, 295, 293, 245, 279, 249, 294, 273, 286, 259, 291, 279, 293, 291, 271, 231, 276, 292, 291, 259, 258, 258, 271, 291, 277, 287, 290, 284, 277, 290, 288, 257, 289, 272, 267, 265, 285, 218, 261, 282, 286, 273, 286, 268, 269, 266, 257, 288, 277, 266, 287, 268, 286, 282, 285, 242, 224, 196, 274, 261, 282, 263, 268, 262, 269, 268, 276, 231, 250, 248, 280, 220, 269, 277, 284, 260, 270, 283, 256, 281, 278, 283, 281, 260, 277, 269, 264, 254, 247, 273, 273, 263, 282, 278, 253, 256, 230, 279, 245, 256, 260, 281, 258, 235, 271, 238, 220, 280, 270, 254, 273, 279, 230, 259, 274, 253, 278, 236, 265, 267, 263, 273, 252, 264, 266, 277, 250, 267, 276, 251, 258, 259, 268, 229, 262, 242, 272, 191, 275, 257, 238, 274, 196, 253, 247, 252, 273, 255, 264, 269, 236, 267, 244, 265, 191, 272, 200, 265, 236, 270, 260, 254, 269, 262, 255, 263, 229, 268, 244, 267, 250, 250, 231, 246, 264, 257, 266, 233, 254, 260, 252, 240, 263, 265, 200, 191, 255, 262, 241, 259, 230, 216, 243, 257, 264, 255, 243, 264, 229, 263, 240, 262, 229, 241, 245, 249, 211, 218, 196, 261, 207, 251, 259, 260, 256, 217, 217, 233, 260, 259, 216, 207, 227, 235, 258, 239, 243, 255, 241, 228, 237, 256, 253, 221, 226, 245, 211, 258, 251, 227, 243, 238, 257, 229, 228, 241, 254, 233, 232, 249, 248, 214, 221, 217, 256, 239, 255, 241, 252, 234, 240, 232, 247, 254, 244, 250, 212, 196, 221, 253, 247, 234, 252, 207, 227, 251, 223, 228, 229, 232, 215, 247, 240, 234, 222, 246, 212, 250, 236, 244, 192, 214, 211, 249, 220, 214, 248, 234, 247, 215, 183, 212, 246, 226, 230, 245, 239, 241, 209, 238, 243, 225, 217, 213, 233, 212, 192, 244, 241, 237, 193, 243, 239, 225, 206, 193, 237, 229, 240, 219, 224, 242, 195, 195, 242, 191, 236, 199, 200, 209, 241, 193, 222, 219, 240, 190, 237, 228, 209, 225, 239, 220, 238, 225, 206, 237, 190, 236, 192, 199, 232, 233, 198, 226, 205, 230, 227, 179, 235, 222, 234, 208, 194, 215, 232, 234, 215, 208, 233, 213, 198, 232, 198, 194, 210, 223, 229, 218, 224, 186, 188, 193, 206, 205, 216, 230, 219, 210, 229, 228, 223, 190, 212, 183, 187, 186, 197, 218, 195, 174, 224, 189, 179, 227, 207, 189, 227, 216, 203, 207, 211, 205, 226, 225, 209, 204, 220, 225, 204, 217, 221, 177, 174, 186, 224, 210, 190, 223, 208, 219, 222, 177, 221, 196, 204, 214, 220, 219, 208, 210, 193, 201, 209, 196, 218, 197, 180, 198, 213, 217, 177, 213, 167, 187, 183, 182, 208, 215, 205, 203, 216, 211, 214, 202, 215, 194, 182, 172, 191, 200, 204, 202, 214, 175, 196, 197, 201, 193, 184, 177, 180, 213, 187, 192, 212, 211, 202, 205, 190, 210, 208, 203, 185, 207, 204, 209, 201, 190, 208, 182, 180, 178, 198, 185, 189, 207, 188, 206, 190, 203, 205, 202, 201, 185, 203, 181, 172, 200, 181, 199, 192, 202, 204, 201, 202, 201, 203, 198, 165, 194, 184, 185, 201, 199, 181, 200, 174, 195, 173, 184, 193, 161, 198, 178, 165, 186, 175, 197, 189, 185, 169, 177, 196, 175, 191, 173, 195, 165, 182, 194, 187, 166, 192, 184, 171, 185, 191, 172, 151, 179, 189, 163, 173, 176, 174, 188, 161, 193, 192, 166, 181, 151, 173, 191, 186, 174, 149, 162, 169, 185, 188, 190, 170, 175, 186, 158, 164, 170, 190, 164, 190, 182, 163, 189, 169, 170, 161, 188, 165, 154, 182, 187, 167, 166, 163, 160, 179, 186, 149, 158, 185, 171, 162, 181, 166, 168, 184, 161, 171, 180, 155, 178, 181, 168, 138, 139, 170, 164, 180, 177, 144, 174, 176, 141, 164, 182, 154, 166, 167, 159, 156, 155, 180, 181, 138, 172, 156, 180, 144, 179, 160, 136, 162, 171, 152, 155, 165, 178, 177, 175, 144, 176, 173, 141, 148, 161, 170, 175, 158, 144, 141, 149, 174, 141, 173, 151, 131, 138, 168, 138, 151, 172, 157, 166, 159, 154, 165, 146, 171, 161, 152, 121, 148, 170, 139, 121, 170, 145, 168, 166, 153, 169, 162, 152, 161, 137, 153, 163, 169, 164, 142, 139, 140, 146, 165, 168, 145, 131, 157, 145, 166, 161, 148, 147, 165, 155, 140, 160, 163, 150, 149, 129, 158, 154, 142, 164, 153, 150, 163, 152, 127, 162, 127, 153, 162, 161, 147, 137, 157, 159, 135, 150, 136, 160, 155, 156, 126, 120, 150, 153, 129, 144, 158, 152, 137, 133, 135, 145, 157, 128, 141, 151, 122, 121, 139, 119, 146, 140, 145, 135, 134, 144, 126, 156, 136, 150, 143, 123, 129, 149, 126, 140, 155, 146, 142, 154, 127, 120, 153, 147, 148, 130, 152, 133, 127, 138, 128, 151, 120, 143, 150, 134, 96, 145, 123, 149, 141, 143, 132, 136, 109, 142, 146, 92, 103, 135, 126, 144, 125, 137, 147, 95, 121, 130, 148, 147, 130, 95, 119, 109, 146, 96, 131, 145, 142, 109, 86, 137, 101, 133, 124, 132, 143, 143, 120, 112, 127, 133, 98, 129, 125, 144, 143, 112, 124, 86, 102, 139, 142, 86, 139, 131, 113, 138, 128, 123, 141, 119, 140, 99, 140, 126, 99, 102, 122, 139, 113, 128, 138, 125, 129, 114, 137, 95, 101, 131, 96, 94, 103, 134, 135, 123, 117, 129, 88, 130, 121, 134, 103, 96, 101, 98, 133, 128, 113, 118, 132, 124, 84, 113, 131, 94, 117, 123, 115, 88, 95, 130, 129, 117, 114, 116, 123, 128, 118, 116, 128, 80, 96, 103, 97, 127, 98, 121, 122, 81, 120, 127, 97, 126, 125, 93, 109, 119, 83, 90, 84, 124, 108, 118, 113, 93, 99, 126, 93, 125, 114, 124, 112, 90, 123, 116, 115, 108, 105, 118, 106, 114, 117, 102, 81, 122, 81, 88, 121, 97, 112, 120, 99, 83, 119, 117, 115, 111, 116, 118, 105, 117, 110, 106, 103, 92, 71, 111, 110, 117, 106, 82, 114, 116, 107, 115, 113, 94, 79, 105, 107, 116, 111, 115, 107, 86, 109, 85, 93, 114, 82, 87, 90, 112, 91, 98, 101, 113, 100, 108, 100, 113, 79, 106, 111, 107, 112, 97, 87, 106, 110, 111, 83, 85, 109, 105, 104, 107, 100, 79, 73, 82, 106, 104, 100, 82, 104, 108, 100, 105, 104, 106, 107, 86, 68, 102, 100, 104, 105, 81, 102, 62, 78, 94, 96, 97, 98, 89, 80, 103, 71, 68, 62, 102, 74, 91, 101, 91, 77, 98, 99, 93, 76, 101, 95, 74, 66, 88, 81, 73, 82, 100, 76, 83, 99, 98, 77, 89, 97, 89, 87, 96, 80, 78, 95, 88, 74, 82, 75, 93, 94, 78, 79, 75, 76, 93, 65, 84, 90, 67, 87, 89, 92, 70, 71, 77, 91, 74, 90, 87, 65, 64, 65, 87, 77, 67, 89, 73, 79, 56, 72, 86, 85, 78, 80, 69, 88, 66, 74, 67, 64, 87, 72, 68, 86, 83, 72, 85, 73, 53, 82, 76, 72, 83, 53, 75, 82, 66, 81, 62, 78, 63, 79, 71, 69, 80, 63, 56, 79, 77, 74, 52, 70, 49, 71, 69, 63, 78, 72, 61, 68, 77, 52, 55, 76, 75, 59, 55, 57, 77, 69, 71, 54, 60, 65, 64, 77, 57, 67, 74, 66, 47, 72, 76, 59, 53, 59, 75, 47, 52, 74, 65, 60, 58, 53, 73, 56, 66, 62, 45, 72, 59, 61, 54, 71, 49, 64, 67, 50, 49, 70, 46, 69, 54, 63, 61, 62, 68, 57, 50, 67, 45, 47, 66, 56, 41, 53, 61, 59, 48, 54, 44, 63, 60, 64, 50, 54, 49, 29, 51, 52, 47, 44, 56, 63, 45, 62, 33, 62, 61, 33, 61, 48, 37, 37, 33, 61, 45, 33, 43, 42, 50, 57, 50, 58, 60, 27, 48, 59, 53, 36, 59, 36, 27, 59, 58, 50, 32, 44, 54, 30, 39, 42, 57, 39, 57, 55, 44, 34, 56, 41, 56, 34, 55, 52, 39, 29, 30, 54, 40, 52, 51, 35, 32, 50, 48, 25, 37, 41, 36, 53, 51, 47, 31, 40, 39, 52, 49, 46, 23, 31, 40, 51, 42, 35, 50, 29, 49, 23, 47, 45, 22, 42, 39, 38, 37, 25, 28, 48, 27, 25, 41, 34, 19, 47, 22, 20, 20, 31, 47, 40, 31, 24, 44, 30, 26, 45, 43, 22, 41, 10, 36, 34, 44, 16, 26, 16, 44, 33, 22, 43, 38, 35, 42, 41, 19, 10, 39, 40, 24, 39, 24, 15, 39, 15, 38, 28, 18, 37, 34, 16, 12, 35, 38, 21, 38, 15, 21, 18, 33, 37, 27, 36, 10, 21, 32, 35, 12, 19, 34, 30, 1, 26, 32, 21, 11, 25, 27, 7, 22, 33, 18, 25, 13, 28, 24, 31, 20, 1, 30, 29, 23, 1, 29, 18, 28, 13, 27, 10, 7, 5, 16, 26, 1, 5, 26, 20, 4, 24, 13, 25, 7, 20, 22, 17, 18, 13, 9, 24, 4, 15, 22, 18, 17, 21, 15, 11, 17, 18, 14, 8, 20, 17, 8, 4, 20, 12, 10, 19, 18, 9, 14, 14, 8, 17, 16, 5, 0, 4, 3, 15, 3, 11, 15, 0, 2, 12, 14, 9, 8, 9, 13, 6, 13, 7, 6, 10, 12, 2, 9, 2, 8, 7, 10, 2, 6, 2, 9, 2, 6, 7, 0, 12, 16]
        point3f[] points = [(0.016077904, -0.112803, 1.103514), (0.027185913, -0.048788, 0.99725), (0.044902906, -0.163664, 1.088783), (-0.12891209, -0.325645, 1.044783), (-0.14577308, -0.379146, 1.028848), (0.023596913, -0.098917, 1.031609), (-0.0063930904, -0.258325, 1.064904), (0.01655891, -0.212328, 1.043524), (-0.118509084, -0.423208, 1.019937), (-0.056039087, -0.331748, 1.043877), (0.051732916, -0.157644, 0.967599), (-0.12520407, -0.292118, 0.987975), (0.059454918, -0.114674, 0.974259), (-0.03306208, -0.267662, 0.986977), (-0.09240508, -0.405088, 1.021914), (-0.14378008, -0.321319, 0.97668), (0.064884916, -0.081311, 0.908716), (-0.12120509, -0.382051, 0.982403), (-0.08182807, -0.33893, 0.937498), (0.07515992, -0.117233, 0.891284), (-0.14313509, -0.358807, 0.970591), (-0.12961607, -0.267835, 0.928782), (-0.122077085, -0.35482, 0.918947), (0.031326924, -0.018185, 0.879296), (-0.16516508, -0.301124, 0.877611), (-0.019273072, -0.220449, 0.861323), (0.04210592, -0.0616, 0.907348), (0.03458093, -0.168417, 0.83714), (-0.05211207, -0.266025, 0.857175), (0.04824093, -0.013412999, 0.811111), (0.04695593, -0.033082, 0.816819), (-0.16636208, -0.302123, 0.824343), (-0.11928907, -0.176583, 0.803426), (-0.096309066, -0.296711, 0.779587), (0.090551935, -0.07806, 0.80559), (-0.12552908, -0.20433, 0.831471), (0.06716494, -0.13964, 0.800331), (-0.066033065, -0.257488, 0.742204), (-0.15929407, -0.227251, 0.82784), (-0.17563207, -0.230018, 0.779911), (-0.17935006, -0.25785404, 0.783901), (0.09636294, -0.093865, 0.70739), (-0.15209207, -0.192707, 0.774787), (-0.11749806, -0.302841, 0.770448), (0.087111935, -0.051287, 0.762667), (-0.13869205, -0.269709, 0.678761), (0.03377794, 0.027891003, 0.68315), (-0.16195504, -0.260679, 0.683618), (-0.0027180593, -0.183066, 0.70589), (0.057909936, 0.024459003, 0.662958), (-0.12946907, -0.149914, 0.692893), (-0.17642304, -0.25629702, 0.721796), (-0.17747305, -0.20472, 0.621137), (0.10611295, -0.090056, 0.600937), (0.06455995, -0.014260999, 0.639045), (-0.17700106, -0.177851, 0.628463), (0.102652945, -0.050543, 0.630986), (-0.16578306, -0.153779, 0.634523), (-0.11219306, -0.095072, 0.656623), (0.06845096, -0.132054, 0.620818), (-0.121967055, -0.113919, 0.610842), (-0.050341047, -0.203819, 0.611044), (-0.107129045, -0.212114, 0.514376), (0.10071195, -0.018937998, 0.579668), (-0.13053304, -0.07717701, 0.546599), (-0.108310044, -0.033196002, 0.504616), (-0.15610805, -0.208565, 0.515895), (-0.16477703, -0.098577, 0.534838), (-0.06810605, -0.1917, 0.505877), (0.07336795, 0.012397001, 0.546845), (0.06387496, 0.09377, 0.393428), (0.07901296, 0.065104, 0.455388), (-0.008031044, -0.167405, 0.523483), (0.15709196, -0.040343996, 0.464888), (-0.17596805, -0.183221, 0.513435), (0.112878956, -0.112536, 0.522623), (0.07896096, -0.13795, 0.515685), (-0.18078405, -0.131206, 0.523381), (0.13341396, 0.019375002, 0.448831), (0.15792696, -0.0071429983, 0.440846), (0.08454996, 0.041898, 0.420311), (-0.13982002, -0.194687, 0.40436), (0.15918097, -0.106617, 0.379823), (0.06364396, -0.155944, 0.431139), (-0.09302004, 0.025482, 0.403471), (0.009318964, -0.162595, 0.433501), (-0.040004026, -0.165728, 0.343508), (-0.16834904, -0.017207002, 0.434529), (-0.17841303, -0.170098, 0.34874296), (-0.19341505, -0.050280005, 0.42881697), (-0.13749103, 0.021085, 0.385353), (-0.20367503, -0.106338, 0.41961598), (0.08853797, 0.106659, 0.306945), (0.13513097, -0.128502, 0.366559), (0.16587096, 0.017039001, 0.373104), (-0.20467603, -0.13552, 0.31671298), (0.16107997, 0.041623004, 0.294228), (-0.19989704, -0.015617003, 0.35576198), (-0.21647403, -0.050049003, 0.32297698), (0.09710897, -0.16113698, 0.315766), (0.18561897, -0.051637, 0.37759602), (-0.21421602, -0.10723901, 0.33505598), (-0.07783503, -0.164398, 0.306499), (0.09617397, 0.063148, 0.306152), (0.20366597, -0.07774, 0.38404402), (0.24100398, -0.051264998, 0.37173304), (0.18820398, -0.122032, 0.37757003), (0.25041997, -0.078127, 0.36857602), (0.21654098, -0.039119996, 0.36655104), (0.030049976, -0.173703, 0.294606), (0.21624897, -0.117029995, 0.36222303), (0.24113397, -0.11028999, 0.36343002), (-0.15843703, 0.047813997, 0.283438), (0.19292697, -0.029781999, 0.33547503), (0.16174197, -0.116905, 0.329586), (0.24337196, -0.10027399, 0.33716503), (0.25463298, -0.054646995, 0.33500203), (0.21270996, -0.120171, 0.32207304), (0.24702297, -0.039162997, 0.33533502), (0.072265975, -0.169851, 0.268699), (-0.18455704, 0.03712, 0.25874096), (-0.16840102, -0.147543, 0.24401699), (-0.13016003, -0.169199, 0.289944), (0.21747497, -0.084337994, 0.26855803), (-0.11318002, 0.060911994, 0.294963), (0.15866399, -0.093615, 0.28153), (0.13068898, -0.135566, 0.24992801), (-0.20829302, 0.011365998, 0.22611098), (0.22463597, -0.0418, 0.27790603), (0.18707798, -0.09473, 0.27052504), (-0.19586103, -0.135184, 0.25941098), (0.18383698, 0.032316, 0.20867501), (-0.07554802, 0.081577, 0.280555), (-0.22152402, -0.046314005, 0.25519797), (0.14460298, 0.077842005, 0.24295701), (0.10831698, 0.100313, 0.22434302), (-0.07306101, 0.116018, 0.196849), (-0.21779001, -0.061669003, 0.20826398), (0.18859799, -0.005243998, 0.17329001), (-0.11401202, -0.123357, 0.15842699), (0.09713798, -0.15501298, 0.21976401), (0.22867498, -0.042548, 0.21595402), (-0.011211018, -0.160649, 0.227921), (-0.12806103, 0.093922995, 0.23227298), (0.16049299, -0.067399, 0.18255301), (0.16524498, 0.070471, 0.19465302), (0.042518985, -0.161994, 0.204755), (-0.208553, -0.085999, 0.19149598), (-0.18729602, -0.118088, 0.20477399), (0.22088899, -0.059408996, 0.13423401), (-0.13764803, 0.09746699, 0.20194699), (0.22524299, 0.011561003, 0.12143602), (-0.20781401, 0.00044799753, 0.16429499), (-0.17552902, 0.068474, 0.19093598), (-0.002699011, -0.141626, 0.143633), (0.118822984, -0.120405, 0.15293501), (0.138663, -0.095887996, 0.14880502), (0.14381596, 0.09025801, 0.18329601), (0.18747099, -0.071496, 0.13332601), (0.10682798, 0.101085, 0.16263102), (-0.11193501, 0.103474, 0.15079999), (-0.18205401, -0.048923, 0.090313986), (-0.18461101, 0.029890995, 0.115023986), (-0.13853501, 0.082012996, 0.112327985), (-0.067503, -0.134737, 0.07773899), (0.060580995, -0.119712, 0.083587006), (0.14991799, 0.062444005, 0.08738601), (0.10195499, 0.09025, 0.09888301), (0.17485899, 0.034443, 0.11253302), (-0.16281402, 0.055008996, 0.093717985), (-0.144823, -0.095161006, 0.102609985), (-0.19151202, -0.0079930015, 0.09127598), (0.211873, 0.042198002, 0.031949017), (0.24146, 0.018131003, 0.060523022), (0.23707, -0.022737999, 0.01809602), (0.172595, -0.056494996, 0.044093017), (0.242382, -0.0087239975, 0.083617024), (0.135608, -0.029110998, 0.028174011), (0.089017995, -0.098254, 0.053749006), (-0.073682, 0.094942, 0.009287993), (0.120635994, -0.067556, 0.055750012), (0.180108, 0.020864002, 0.053183015), (-0.027656998, -0.124401, 0.0015129976), (0.104811005, 0.095038, -0.052451994), (-0.168464, -0.012623002, -0.005909015), (-0.164708, 0.033328995, 0.0052939854), (0.214197, -0.048828997, 0.02018302), (0.113831, 0.074469, 0.01876501), (-0.13196298, -0.08551301, 0.013736988), (-0.116361, 0.07984, -0.0021230103), (-0.059060995, -0.118306, -0.018977005), (0.220986, 0.060043003, -0.05336498), (0.155317, 0.034899004, -0.042363986), (-0.1476, -0.044061, -0.043797012), (0.028255003, -0.111602, -0.011626997), (0.240934, 0.031968005, -0.01900098), (0.166248, -0.019738998, -0.063991986), (0.198175, -0.045858998, -0.012269982), (0.06889, -0.09044, -0.018442994), (0.173814, 0.031225001, -0.033098985), (0.189589, 0.061062, -0.06303999), (-0.187393, 0.019666998, -0.0056380164), (-0.23263201, 0.08569499, -0.0039730207), (-0.177546, 0.051603, -0.0073540155), (-0.249566, 0.056238998, -0.006066022), (-0.18953401, 0.093416, -0.019567017), (-0.08823399, -0.087151, -0.06251801), (-0.138372, 0.052353, -0.040410012), (-0.019293996, -0.146493, -0.018434001), (-0.202736, -0.019464003, -0.03724802), (-0.049990993, -0.161756, -0.023318004), (-0.215326, 0.11710699, -0.04973302), (0.137989, 0.06636301, -0.05278099), (0.108301, -0.038423996, -0.03614599), (-0.238959, 0.10064899, -0.047013022), (-0.010563996, -0.10673, -0.043198), (-0.159343, 0.066757, -0.044839013), (0.100292005, 0.011887001, -0.08271999), (0.19781701, -0.011729998, -0.09164298), (-0.029219994, -0.168624, -0.032402005), (-0.250315, 0.071542, -0.052053023), (0.130072, 0.010876001, -0.05941499), (-0.0044099935, -0.143949, -0.051346), (-0.06535999, -0.140811, -0.046413008), (0.22385201, 0.018949004, -0.10945698), (-0.246864, 0.025021996, -0.04179402), (-0.188125, 0.121253, -0.06511501), (-0.097101994, 0.093138, -0.07077501), (-0.06454899, -0.120957, -0.08183401), (-0.04735199, -0.153171, -0.09635001), (-0.15440698, 0.111597, -0.10805002), (0.11697801, 0.150312, -0.15339999), (0.04443401, -0.07068499, -0.07871499), (0.07834101, -0.034817, -0.09009499), (-0.010065991, -0.118997, -0.081534), (-0.07081399, 0.112086, -0.093751006), (0.16184902, 0.060455002, -0.11614299), (-0.074228995, -0.105971, -0.08290601), (-0.23529698, 0.049442995, -0.09999802), (-0.16855198, -0.066483, -0.08750901), (-0.015938988, -0.147297, -0.096401), (-0.11555699, -0.100357, -0.08816401), (0.22506301, 0.056891, -0.16128299), (-0.19470099, -0.032176003, -0.09524502), (0.14384401, 0.054723, -0.09592499), (-0.16712499, 0.141228, -0.15191402), (0.11162001, 0.112969, -0.106709994), (0.00242301, -0.081363, -0.100022), (-0.21858798, 0.118971996, -0.18095501), (-0.19788699, 0.143057, -0.18361501), (0.135885, 0.09817201, -0.11786499), (-0.11485199, 0.070618, -0.11361201), (0.0022650098, -0.111722, -0.095462), (0.12023001, 0.017734002, -0.13383698), (0.037228014, -0.065516, -0.127059), (-0.11374399, -0.105956, -0.119550005), (0.09835102, 0.017173002, -0.13332398), (-0.15658699, -0.027171003, -0.14241801), (-0.100408986, 0.107473, -0.16233802), (-0.127832, 0.093811, -0.15415202), (0.08584802, -0.025529997, -0.13296698), (0.16793601, -0.002692998, -0.19906199), (-0.05685899, -0.145419, -0.129808), (-0.004441986, -0.144341, -0.137686), (-0.108846985, -0.085971, -0.13935001), (0.177656, 0.09844, -0.16859998), (-0.10691599, -0.061874002, -0.15446702), (0.15488301, 0.1188, -0.17490898), (-0.012876984, -0.142993, -0.166877), (-0.04262498, -0.122213006, -0.176755), (0.07359902, -0.079995, -0.175976), (-0.059749987, 0.158306, -0.174645), (0.213343, 0.097113006, -0.18442999), (0.028921017, -0.089216, -0.18282), (0.14295402, -0.0035869982, -0.18334499), (-0.19933498, 0.046105996, -0.18543202), (0.14717302, 0.150471, -0.19087999), (-0.057748985, -0.078495, -0.155819), (0.115585014, 0.009479002, -0.16697499), (-0.13663198, 0.146728, -0.18351802), (-0.21712199, 0.08124799, -0.21602201), (0.12686001, -0.0070649986, -0.21291599), (0.013110016, -0.114734, -0.164049), (0.097829014, -0.051394, -0.18296199), (-0.049415983, -0.098192, -0.173771), (0.20749402, 0.021748004, -0.21741998), (-0.010848982, -0.116712, -0.181856), (-0.05437098, -0.062865, -0.20089), (-0.12951298, -0.06427201, -0.18346801), (-0.14651099, -0.052412, -0.20924701), (-0.039402977, -0.083961, -0.248931), (-0.120723985, 0.168255, -0.19119501), (0.13140902, 0.190136, -0.23762499), (-0.10817098, 0.181218, -0.22328901), (0.003907019, -0.083767, -0.201928), (-0.05766798, 0.187757, -0.22794), (-0.15957399, -0.0029380019, -0.20938602), (0.18962301, 0.127381, -0.19456498), (-0.04590798, 0.205333, -0.244204), (-0.11706598, -0.066522, -0.21517901), (-0.17835599, 0.162017, -0.20963602), (-0.018903978, -0.105055, -0.241892), (0.081068024, -0.076134, -0.21621), (0.231141, 0.098014005, -0.24422999), (0.21993303, 0.147052, -0.25838298), (0.110163026, -0.038258996, -0.22339399), (-0.19504698, 0.164677, -0.26059803), (-0.12951098, -0.038074, -0.24045601), (-0.21252897, 0.129276, -0.25942904), (-0.09416598, -0.050058, -0.23216802), (0.23070103, 0.06297101, -0.25944498), (-0.037819978, -0.036355, -0.24712), (0.06391402, -0.058404, -0.251542), (0.19053502, 0.178383, -0.25972697), (-0.18146399, 0.024934996, -0.24283402), (0.000040023475, -0.090608, -0.256155), (0.029666021, -0.04453, -0.251421), (0.15860102, -0.016761998, -0.253658), (-0.06923398, -0.018935, -0.26317), (-0.16856597, 0.20148, -0.288592), (0.13829602, 0.223936, -0.33393), (-0.21491997, 0.08350299, -0.29445902), (-0.10091398, -0.025736002, -0.285407), (0.21650504, 0.027496003, -0.30863798), (0.09985002, -0.036767, -0.288398), (0.17054403, 0.199797, -0.28140697), (-0.12345597, -0.009258002, -0.30331), (-0.13553797, 0.211362, -0.272559), (-0.032358974, 0.246675, -0.350206), (0.17754303, -0.005996998, -0.29973096), (0.033650026, -0.019012999, -0.291216), (0.20256503, 0.19345, -0.32884997), (0.046933025, -0.030525, -0.308233), (-0.092436984, 0.23025198, -0.293709), (-0.031165974, -0.012872, -0.297971), (-0.19494598, 0.052042995, -0.31413102), (-0.21935497, 0.12156999, -0.31012204), (-0.15750697, 0.013835998, -0.315719), (-0.20735197, 0.16567, -0.33142504), (0.24008003, 0.129049, -0.30307096), (0.22553103, 0.167483, -0.31385198), (-0.18211697, 0.206358, -0.36186504), (0.24077503, 0.10475001, -0.34905198), (0.23768502, 0.069813006, -0.32508996), (-0.07281697, 0.024029, -0.350825), (-0.14495797, 0.226564, -0.322324), (0.15109102, 0.231279, -0.409307), (0.09012003, -0.029302, -0.33307), (-0.20373198, 0.093148, -0.36579102), (-0.12007297, 0.014450999, -0.3709), (0.22030303, 0.055952005, -0.37107897), (0.15704504, -0.008448998, -0.352505), (0.06776704, 0.004673001, -0.428466), (-0.09337096, 0.251724, -0.393346), (-0.02448997, 0.011686, -0.352038), (0.039635032, 0.018535, -0.362648), (-0.20722798, 0.114432, -0.37798703), (0.12664603, 0.010025002, -0.424787), (-0.15258096, 0.069998, -0.452595), (0.19148003, 0.207862, -0.42521796), (-0.19551297, 0.154737, -0.42191002), (0.07470403, 0.253253, -0.359083), (0.118665025, 0.244411, -0.357038), (-0.08960796, 0.031898, -0.429117), (0.22808503, 0.147071, -0.41265798), (-0.006013964, 0.017675, -0.415176), (0.21294405, 0.18187, -0.43002298), (0.19686203, 0.032753002, -0.38466996), (-0.13992096, 0.239503, -0.414708), (0.009337029, 0.242856, -0.373914), (0.04053203, 0.252536, -0.365639), (-0.06283797, 0.043604, -0.393915), (0.21078305, 0.111125, -0.46473497), (0.104648024, 0.242139, -0.379806), (-0.0132119665, 0.262337, -0.425103), (0.052621037, 0.034038, -0.412111), (0.16533105, 0.227179, -0.49171), (0.023688033, 0.257468, -0.430376), (0.06454004, 0.024092, -0.471614), (0.16685404, 0.045262005, -0.463981), (0.082391046, 0.25454, -0.493091), (-0.18609397, 0.184517, -0.41978103), (-0.10777696, 0.038379997, -0.463409), (0.036532037, 0.026927002, -0.432523), (0.06317405, 0.264941, -0.473421), (-0.072023965, 0.035501998, -0.43953), (-0.040364962, -0.008087001, -0.43568), (-0.001829962, -0.013259, -0.432992), (0.10359605, 0.259948, -0.49758), (-0.14781296, 0.222757, -0.51475), (0.0011200439, 0.269305, -0.53855), (0.105306044, 0.027756002, -0.509245), (-0.016630959, -0.026165, -0.460283), (-0.05489796, 0.269337, -0.494435), (0.025492042, -0.011951, -0.462466), (-0.09667496, 0.260002, -0.523733), (0.039731044, 0.271961, -0.493736), (0.19185105, 0.189602, -0.542181), (-0.034875955, -0.024756001, -0.494915), (-0.15339796, 0.197253, -0.558518), (-0.09500296, 0.04129, -0.513187), (-0.15936396, 0.120676, -0.53841), (-0.15269294, 0.135968, -0.600893), (-0.0058219507, 0.28537, -0.609019), (0.19550805, 0.156185, -0.545247), (0.026195046, 0.279, -0.562149), (-0.121314965, 0.244577, -0.551913), (0.00040404475, -0.016812, -0.509525), (-0.14116797, 0.089462996, -0.5569), (0.119836055, 0.261081, -0.591727), (0.042697046, -0.0011969996, -0.520771), (-0.058189955, 0.00031899931, -0.521428), (0.18341604, 0.123573, -0.563244), (0.16911604, 0.091517, -0.560057), (0.14301404, 0.06255901, -0.574624), (0.071102045, 0.0228, -0.547752), (0.05276705, 0.287424, -0.606976), (-0.023547951, -0.010095, -0.552083), (-0.08419295, 0.029634997, -0.579672), (-0.10724295, 0.051826995, -0.607353), (0.15431006, 0.231523, -0.607651), (0.03902005, 0.0061300006, -0.578359), (-0.14917694, 0.175818, -0.610485), (0.06503406, 0.28092, -0.645349), (0.09498705, 0.033156, -0.609384), (0.00034705224, 0.003717, -0.597828), (0.17587106, 0.182847, -0.617887), (-0.04161295, 0.013821999, -0.604415), (-0.058149945, 0.273296, -0.627437), (-0.12133796, 0.224106, -0.63097), (-0.07970794, 0.259519, -0.645355), (-0.12704895, 0.093717, -0.638926), (0.15994106, 0.113314, -0.642284), (0.065217055, 0.024658, -0.635027), (-0.06267995, 0.025004, -0.627996), (0.005668056, 0.021688, -0.6419), (0.010159052, 0.287302, -0.643305), (0.12573107, 0.240483, -0.650063), (-0.12878394, 0.170405, -0.65876), (0.12634607, 0.080155, -0.660044), (0.14991806, 0.193307, -0.661285), (-0.116872944, 0.127697, -0.671162), (0.06790206, 0.253662, -0.663444), (-0.08089794, 0.084141, -0.672446), (0.14943506, 0.131082, -0.668845), (-0.09462095, 0.22173598, -0.670025), (0.0023080544, 0.274411, -0.656814), (0.056636058, 0.055197, -0.676588), (-0.003537942, 0.056035, -0.671643), (0.0077250563, 0.229043, -0.67587), (-0.10187594, 0.183282, -0.680188), (0.12103106, 0.169961, -0.683078), (0.10859706, 0.098328, -0.685), (-0.084170945, 0.133716, -0.685985), (-0.018152943, 0.101026, -0.685997), (0.05128806, 0.089264, -0.692566), (0.006667058, 0.172023, -0.68826), (0.06381106, 0.125124, -0.696495)]
        texCoord2f[] primvars:st = [(0.7955438, 0.28455845), (0.75759757, 0.17592701), (0.7906699, 0.33117262), (0.5747994, 0.6084336), (0.6154462, 0.57562685), (0.7763233, 0.21989748), (0.73627806, 0.4046376), (0.71345055, 0.34888524), (0.6499145, 0.5589369), (0.69619584, 0.47400686), (0.686, 0.25687394), (0.5250251, 0.6204491), (0.69424546, 0.22202387), (0.65129817, 0.40549996), (0.65175045, 0.5355116), (0.5245575, 0.57880795), (0.666376, 0.16529629), (0.5933293, 0.5233343), (0.5936849, 0.46476242), (0.6267469, 0.18475246), (0.5683038, 0.53166145), (0.4680978, 0.5961968), (0.54470325, 0.4920924), (0.69237757, 0.08524486), (0.462139, 0.5187382), (0.5483326, 0.318601), (0.6736777, 0.13693845), (0.5578326, 0.22339815), (0.52864397, 0.36516446), (0.63143814, 0.054159604), (0.626639, 0.07634617), (0.42594492, 0.4799724), (0.34410894, 0.58340085), (0.4368788, 0.38793954), (0.5663874, 0.11962987), (0.35184526, 0.56087106), (0.5436554, 0.1718137), (0.42051816, 0.32479548), (0.37596273, 0.543046), (0.35028434, 0.49834242), (0.37845576, 0.47985336), (0.47500682, 0.09207421), (0.32025105, 0.52524894), (0.42078948, 0.4069468), (0.5547222, 0.059326045), (0.327964, 0.37452874), (0.5754874, -0.071291074), (0.31226093, 0.4068065), (0.4144807, 0.22591513), (0.5401604, -0.061529018), (0.23406754, 0.5312217), (0.3332879, 0.44401047), (0.22295244, 0.41385743), (0.37436092, 0.024637662), (0.49633563, -0.04100456), (0.20660277, 0.44037208), (0.43302763, 0.00006442517), (0.20091613, 0.46970555), (0.1664265, 0.5668558), (0.37155867, 0.112743), (0.14206012, 0.5302383), (0.30583292, 0.24332574), (0.19203074, 0.26938048), (0.4350741, -0.06308558), (0.07777594, 0.503897), (0.016715854, 0.5255473), (0.1672432, 0.31734318), (0.09135981, 0.45972857), (0.20279162, 0.21166089), (0.44141853, -0.11755924), (0.39088237, -0.2887582), (0.40319443, -0.21411398), (0.25558358, 0.14242846), (0.31044018, -0.089746356), (0.13014476, 0.35580418), (0.28852838, 0.011579819), (0.2581535, 0.045424126), (0.10414104, 0.40924218), (0.3452344, -0.18178642), (0.32512784, -0.13862026), (0.3551283, -0.22413942), (0.073704824, 0.25549114), (0.224842, -0.07996926), (0.17460822, 0.061836146), (-0.118375465, 0.5152473), (0.1710018, 0.09976948), (0.07022467, 0.115644716), (-0.05008038, 0.4534265), (-0.007826, 0.26836264), (-0.03438489, 0.40771094), (-0.1203486, 0.47564706), (0.0030243695, 0.35402894), (0.3120579, -0.35169342), (0.17357795, -0.047255084), (0.27369565, -0.22769049), (-0.05963075, 0.27689704), (0.24534295, -0.30895674), (-0.11323601, 0.39731655), (-0.08900261, 0.3537506), (0.10689737, -0.021515243), (0.23319604, -0.16749471), (-0.06452333, 0.31381395), (0.009957239, 0.16130945), (0.28742802, -0.32634833), (0.204105, -0.13506638), (0.19373725, -0.18142396), (0.17409165, -0.12037759), (0.17326356, -0.16166702), (0.20601784, -0.20061031), (0.054364488, 0.053395472), (0.1589274, -0.14066657), (0.16124739, -0.14941472), (-0.20163742, 0.42124626), (0.2043459, -0.23339391), (0.14194728, -0.11009007), (0.14723285, -0.17685017), (0.16150372, -0.20668268), (0.13281308, -0.15261471), (0.17601876, -0.22352143), (0.05681269, 0.009964429), (-0.25174466, 0.38199165), (-0.07678434, 0.21085063), (-0.03905057, 0.19485262), (0.108551785, -0.20383397), (-0.22297269, 0.46093652), (0.07551257, -0.118272245), (0.04313618, -0.09083225), (-0.22398779, 0.33497858), (0.123938456, -0.27240542), (0.08001165, -0.15246601), (-0.0790266, 0.24172026), (0.17035313, -0.34190926), (-0.2562761, 0.5027363), (-0.1618698, 0.30846044), (0.21978135, -0.37042326), (0.23902507, -0.423299), (-0.33825833, 0.45338914), (-0.17862111, 0.26667404), (0.09903084, -0.34408343), (-0.1359538, 0.11300183), (0.021110982, -0.04092984), (0.052234963, -0.28193846), (-0.04385326, 0.061787017), (-0.27045634, 0.43633315), (-0.015948474, -0.15976547), (0.16406648, -0.39659676), (-0.014904082, 0.010633625), (-0.15625909, 0.23575324), (-0.1601954, 0.20592937), (0.0040142983, -0.2382664), (-0.30785275, 0.40532038), (0.022151083, -0.34699446), (-0.2614646, 0.276557), (-0.29795972, 0.3440904), (-0.11312754, 0.0065020546), (-0.046390407, -0.10062407), (-0.035351142, -0.13103803), (0.16750665, -0.434448), (-0.019697994, -0.21079236), (0.16758038, -0.47464526), (-0.3644257, 0.40150097), (-0.28521734, 0.2092081), (-0.31471696, 0.28263426), (-0.37957194, 0.3491254), (-0.18867263, 0.05676637), (-0.12608433, -0.07055601), (0.065161765, -0.4744529), (0.0997137, -0.51813036), (0.06646444, -0.42964903), (-0.39183533, 0.303357), (-0.22565207, 0.13710889), (-0.3380685, 0.24246573), (-0.05495812, -0.43121505), (-0.045286305, -0.36419547), (-0.0713317, -0.335027), (-0.0889628, -0.24911326), (-0.024147198, -0.32785326), (-0.12810655, -0.21927397), (-0.12151255, -0.12196195), (-0.5232116, 0.3703307), (-0.10996861, -0.15833789), (0.00004068017, -0.4587344), (-0.22913435, -0.031167217), (-0.06238827, -0.6151375), (-0.41938788, 0.1791642), (-0.45806062, 0.23293942), (-0.08942594, -0.29922116), (0.0011994839, -0.54210544), (-0.3003305, 0.11946263), (-0.5177083, 0.32179117), (-0.28900242, 0.044194974), (-0.14230624, -0.46320677), (-0.07136546, -0.5375831), (-0.40214336, 0.11708284), (-0.22497232, -0.10091965), (-0.10921308, -0.40382645), (-0.17749546, -0.31061798), (-0.117848255, -0.30494082), (-0.18917109, -0.14582407), (-0.0806468, -0.50593555), (-0.12039371, -0.50410044), (-0.46529907, 0.18226293), (-0.5368011, 0.19404063), (-0.5121946, 0.23021635), (-0.5166371, 0.16224769), (-0.5834733, 0.21453786), (-0.33738405, 0.059551083), (-0.5577651, 0.28163782), (-0.28437227, -0.029834561), (-0.4573055, 0.1254609), (-0.3135749, -0.0028575733), (-0.63608605, 0.18133625), (-0.07722237, -0.5740778), (-0.18066941, -0.19047508), (-0.5981442, 0.16618079), (-0.2655648, -0.0822936), (-0.58517694, 0.2447747), (-0.2233671, -0.23348236), (-0.20419332, -0.37785006), (-0.31569266, -0.03339737), (-0.5854783, 0.14194417), (-0.20299366, -0.26745886), (-0.3043329, -0.04954113), (-0.3279359, 0.011998467), (-0.2028373, -0.41419694), (-0.5138344, 0.13542143), (-0.65179443, 0.19451609), (-0.6443905, 0.30982658), (-0.35372984, 0.021140821), (-0.3545071, -0.02530346), (-0.68128693, 0.20829901), (-0.23670867, -0.6832008), (-0.25690413, -0.14446343), (-0.24511163, -0.19016269), (-0.296304, -0.073594235), (-0.7153032, 0.3299056), (-0.17210855, -0.5578764), (-0.36199516, 0.037560962), (-0.57812977, 0.09971476), (-0.4526859, 0.0707461), (-0.3232622, -0.063973725), (-0.39621493, 0.029824547), (-0.26629755, -0.5001456), (-0.49304575, 0.060484983), (-0.13602835, -0.5680557), (-0.7241465, 0.16678795), (-0.142286, -0.63366294), (-0.29147407, -0.12398025), (-0.69734323, 0.09511825), (-0.76730525, 0.107581995), (-0.17991452, -0.6201837), (-0.66964173, 0.27012503), (-0.32013172, -0.104967244), (-0.23473912, -0.2988164), (-0.28514782, -0.17636167), (-0.42609942, 0.008173518), (-0.25705025, -0.27370727), (-0.53360856, 0.02580554), (-0.7417481, 0.25262755), (-0.7244458, 0.23660687), (-0.28038767, -0.22953391), (-0.28608435, -0.37658095), (-0.38958102, -0.029162936), (-0.3468523, -0.0985476), (-0.4575758, -0.017750815), (-0.24622247, -0.5738203), (-0.49284405, -0.037064604), (-0.25598514, -0.6125365), (-0.37262112, -0.08944611), (-0.41121686, -0.08638355), (-0.3137094, -0.21095276), (-0.85086465, 0.21579593), (-0.28109398, -0.56910944), (-0.33877724, -0.16736688), (-0.25799865, -0.3261284), (-0.6093567, 0.04401306), (-0.2666565, -0.6554126), (-0.4461708, -0.08197493), (-0.2639164, -0.30024138), (-0.7664288, 0.16982642), (-0.6998787, 0.04889608), (-0.29154247, -0.29569113), (-0.36007714, -0.13088492), (-0.3136492, -0.252889), (-0.42837352, -0.10036393), (-0.3235557, -0.4437518), (-0.38112575, -0.15152201), (-0.4839282, -0.09740814), (-0.52505535, -0.015726604), (-0.5481797, -0.012332097), (-0.4316315, -0.12860234), (-0.8164604, 0.1617387), (-0.37068337, -0.745656), (-0.8945751, 0.110431366), (-0.3799076, -0.206278), (-0.9592385, 0.11217599), (-0.58190477, 0.0059129447), (-0.31633696, -0.6304999), (-1.0238098, 0.07018364), (-0.5277078, -0.044304974), (-0.8358909, 0.08024093), (-0.40730703, -0.14113387), (-0.3500765, -0.24650502), (-0.35052574, -0.57017636), (-0.38337332, -0.62901384), (-0.3262623, -0.3269493), (-0.8489616, 0.013841502), (-0.5785218, -0.03996882), (-0.79606855, 0.017538242), (-0.5406855, -0.077505365), (-0.38051817, -0.5142636), (-0.4604628, -0.1721284), (-0.39675367, -0.24950635), (-0.39272898, -0.6868081), (-0.6568238, -0.010620438), (-0.41112995, -0.17698425), (-0.42699534, -0.22032231), (-0.36141032, -0.3589975), (-0.5263566, -0.12216053), (-0.887638, 0.015627198), (-0.6141714, -0.7687008), (-0.7548765, -0.024079174), (-0.5899434, -0.098113656), (-0.39945474, -0.47987977), (-0.40416634, -0.32410508), (-0.4767716, -0.7327844), (-0.6295798, -0.06637335), (-0.9391868, 0.019238107), (-1.0989758, -0.23846668), (-0.3797509, -0.4230856), (-0.4813456, -0.22014219), (-0.5297355, -0.69390213), (-0.4654355, -0.27927083), (-1.0053816, -0.05266419), (-0.5142262, -0.17428835), (-0.7197598, -0.06621346), (-0.8111267, -0.039271034), (-0.67996, -0.07739596), (-0.8547642, -0.04129558), (-0.43721944, -0.6185218), (-0.4566741, -0.6558047), (-0.9156233, -0.06481707), (-0.44229996, -0.56893075), (-0.44104743, -0.5222757), (-0.5674039, -0.15263057), (-0.96181643, -0.055495724), (-0.71608865, -0.70057946), (-0.45712584, -0.33102232), (-0.7720815, -0.11971505), (-0.6608541, -0.12271007), (-0.50295687, -0.5117437), (-0.42967272, -0.43571836), (-0.49961847, -0.3483585), (-1.0304571, -0.22852564), (-0.5413919, -0.20738423), (-0.515629, -0.25125712), (-0.80232394, -0.09002994), (-0.47465527, -0.3886666), (-0.7302301, -0.14965364), (-0.6488581, -0.66695154), (-0.8439778, -0.10471045), (-0.9140674, -0.71627885), (-0.7709503, -0.7462886), (-0.62919086, -0.17202581), (-0.56694704, -0.6108177), (-0.57291794, -0.2540743), (-0.59318554, -0.6464043), (-0.45395648, -0.47648743), (-0.97426856, -0.1994927), (-1.1011271, -0.46179488), (-1.0319945, -0.6164517), (-0.58740956, -0.19969839), (-0.5470942, -0.5582725), (-0.8331435, -0.72279435), (-1.0754607, -0.40926743), (-0.533131, -0.2858636), (-0.7223122, -0.62887776), (-1.0379944, -0.5070163), (-0.5524759, -0.3361667), (-0.5216414, -0.4608478), (-0.89914, -0.59764224), (-0.88468325, -0.10801031), (-0.69958997, -0.20131475), (-0.56848806, -0.297296), (-0.94275534, -0.576823), (-0.6151116, -0.22637486), (-0.61565685, -0.26408964), (-0.59254056, -0.28466278), (-0.8490057, -0.63306224), (-0.9222536, -0.22255456), (-0.98150086, -0.4637303), (-0.5641566, -0.40003812), (-0.6113872, -0.29068196), (-0.9947523, -0.38222113), (-0.5917858, -0.31141657), (-0.96683955, -0.3489158), (-0.960812, -0.5272685), (-0.6758425, -0.5797006), (-0.63606703, -0.2833012), (-0.8791915, -0.23650205), (-0.6595833, -0.24607709), (-0.7824036, -0.21702193), (-0.83349705, -0.24564335), (-0.92151034, -0.44551286), (-0.6380713, -0.56190807), (-0.94443023, -0.4971281), (-0.9358604, -0.31904325), (-0.61935383, -0.3074284), (-0.75399995, -0.23124224), (-0.8143356, -0.58198047), (-0.6065875, -0.3366855), (-0.65641016, -0.28050727), (-0.6220225, -0.5339989), (-0.5992919, -0.50022423), (-0.62155306, -0.45585835), (-0.5948236, -0.3718596), (-0.9220259, -0.5163193), (-0.6493885, -0.31193003), (-0.6776351, -0.281129), (-0.7228974, -0.2658825), (-0.75652444, -0.56316847), (-0.6324059, -0.36016402), (-0.86875284, -0.28965172), (-0.87467957, -0.5286579), (-0.623906, -0.40278485), (-0.66831315, -0.34124744), (-0.7034172, -0.53428715), (-0.6948861, -0.3068563), (-0.9178772, -0.38642737), (-0.892068, -0.31782264), (-0.9009532, -0.36187315), (-0.78930366, -0.282745), (-0.6673194, -0.5012893), (-0.66170335, -0.38324547), (-0.7399603, -0.3059919), (-0.70551157, -0.34660298), (-0.8784771, -0.46829262), (-0.7985765, -0.52564776), (-0.85541296, -0.32298622), (-0.6723336, -0.4470319), (-0.7533972, -0.5227622), (-0.82247543, -0.32163498), (-0.8291751, -0.48868033), (-0.7672676, -0.33600426), (-0.7172351, -0.49839577), (-0.85417664, -0.3828574), (-0.8491, -0.45423865), (-0.69626606, -0.40228793), (-0.72601116, -0.3726907), (-0.83165836, -0.44484213), (-0.8302244, -0.3581938), (-0.76061285, -0.48903042), (-0.7171527, -0.45301804), (-0.7983186, -0.36049816), (-0.75362515, -0.3846093), (-0.72467446, -0.41087776), (-0.79280794, -0.42273903), (-0.74594986, -0.43739274)] (
            interpolation = "vertex"
        )
    }
}

