#usda 1.0

def "Isis_dABF"
{
    def Mesh "Isis_dABF"
    {
        int[] faceVertexCounts = [3, 3, 3, 3, 3, 3, 3, 3, 3, 3, 3, 3, 3, 3, 3, 3, 3, 3, 3, 3, 3, 3, 3, 3, 3, 3, 3, 3, 3, 3, 3, 3, 3, 3, 3, 3, 3, 3, 3, 3, 3, 3, 3, 3, 3, 3, 3, 3, 3, 3, 3, 3, 3, 3, 3, 3, 3, 3, 3, 3, 3, 3, 3, 3, 3, 3, 3, 3, 3, 3, 3, 3, 3, 3, 3, 3, 3, 3, 3, 3, 3, 3, 3, 3, 3, 3, 3, 3, 3, 3, 3, 3, 3, 3, 3, 3, 3, 3, 3, 3, 3, 3, 3, 3, 3, 3, 3, 3, 3, 3, 3, 3, 3, 3, 3, 3, 3, 3, 3, 3, 3, 3, 3, 3, 3, 3, 3, 3, 3, 3, 3, 3, 3, 3, 3, 3, 3, 3, 3, 3, 3, 3, 3, 3, 3, 3, 3, 3, 3, 3, 3, 3, 3, 3, 3, 3, 3, 3, 3, 3, 3, 3, 3, 3, 3, 3, 3, 3, 3, 3, 3, 3, 3, 3, 3, 3, 3, 3, 3, 3, 3, 3, 3, 3, 3, 3, 3, 3, 3, 3, 3, 3, 3, 3, 3, 3, 3, 3, 3, 3, 3, 3, 3, 3, 3, 3, 3, 3, 3, 3, 3, 3, 3, 3, 3, 3, 3, 3, 3, 3, 3, 3, 3, 3, 3, 3, 3, 3, 3, 3, 3, 3, 3, 3, 3, 3, 3, 3, 3, 3, 3, 3, 3, 3, 3, 3, 3, 3, 3, 3, 3, 3, 3, 3, 3, 3, 3, 3, 3, 3, 3, 3, 3, 3, 3, 3, 3, 3, 3, 3, 3, 3, 3, 3, 3, 3, 3, 3, 3, 3, 3, 3, 3, 3, 3, 3, 3, 3, 3, 3, 3, 3, 3, 3, 3, 3, 3, 3, 3, 3, 3, 3, 3, 3, 3, 3, 3, 3, 3, 3, 3, 3, 3, 3, 3, 3, 3, 3, 3, 3, 3, 3, 3, 3, 3, 3, 3, 3, 3, 3, 3, 3, 3, 3, 3, 3, 3, 3, 3, 3, 3, 3, 3, 3, 3, 3, 3, 3, 3, 3, 3, 3, 3, 3, 3, 3, 3, 3, 3, 3, 3, 3, 3, 3, 3, 3, 3, 3, 3, 3, 3, 3, 3, 3, 3, 3, 3, 3, 3, 3, 3, 3, 3, 3, 3, 3, 3, 3, 3, 3, 3, 3, 3, 3, 3, 3, 3, 3, 3, 3, 3, 3, 3, 3, 3, 3, 3, 3, 3, 3, 3, 3, 3, 3, 3, 3, 3, 3, 3, 3, 3, 3, 3, 3, 3, 3, 3, 3, 3, 3, 3, 3, 3, 3, 3, 3, 3, 3, 3, 3, 3, 3, 3, 3, 3, 3, 3, 3, 3, 3, 3, 3, 3, 3, 3, 3, 3, 3, 3, 3, 3, 3, 3, 3, 3, 3, 3, 3, 3, 3, 3, 3, 3, 3, 3, 3, 3, 3, 3, 3, 3, 3, 3, 3, 3, 3, 3, 3, 3, 3, 3, 3, 3, 3, 3, 3, 3, 3, 3, 3, 3, 3, 3, 3, 3, 3, 3, 3, 3, 3, 3, 3, 3, 3, 3, 3, 3, 3, 3, 3, 3, 3, 3, 3, 3, 3, 3, 3, 3, 3, 3, 3, 3, 3, 3, 3, 3, 3, 3, 3, 3, 3, 3, 3, 3, 3, 3, 3, 3, 3, 3, 3, 3, 3, 3, 3, 3, 3, 3, 3, 3, 3, 3, 3, 3, 3, 3, 3, 3, 3, 3, 3, 3, 3, 3, 3, 3, 3, 3, 3, 3, 3, 3, 3, 3, 3, 3, 3, 3, 3, 3, 3, 3, 3, 3, 3, 3, 3, 3, 3, 3, 3, 3, 3, 3, 3, 3, 3, 3, 3, 3, 3, 3, 3, 3, 3, 3, 3, 3, 3, 3, 3, 3, 3, 3, 3, 3, 3, 3, 3, 3, 3, 3, 3, 3, 3, 3, 3, 3, 3, 3, 3, 3, 3, 3, 3, 3, 3, 3, 3, 3, 3, 3, 3, 3, 3, 3, 3, 3, 3, 3, 3, 3, 3, 3, 3, 3, 3, 3, 3, 3, 3, 3, 3, 3, 3, 3, 3, 3, 3, 3, 3, 3, 3, 3, 3, 3, 3, 3, 3, 3, 3, 3, 3, 3, 3, 3, 3, 3, 3, 3, 3, 3, 3, 3, 3, 3, 3, 3, 3, 3, 3, 3, 3, 3, 3, 3, 3, 3, 3, 3, 3, 3, 3, 3, 3, 3, 3, 3, 3, 3, 3, 3, 3, 3, 3, 3, 3, 3, 3, 3, 3, 3, 3, 3, 3, 3, 3, 3, 3, 3, 3, 3, 3, 3, 3, 3, 3, 3, 3, 3, 3, 3, 3, 3, 3, 3, 3, 3, 3, 3, 3, 3, 3, 3, 3, 3, 3, 3, 3, 3, 3, 3, 3, 3, 3, 3, 3, 3, 3, 3, 3, 3, 3, 3, 3, 3, 3, 3, 3, 3, 3, 3, 3, 3, 3, 3, 3, 3, 3, 3, 3, 3, 3, 3, 3, 3, 3, 3, 3, 3, 3, 3, 3, 3, 3, 3, 3, 3, 3, 3, 3, 3, 3, 3, 3, 3, 3, 3, 3, 3, 3, 3, 3, 3, 3, 3, 3, 3, 3, 3, 3, 3, 3, 3, 3, 3, 3, 3, 3, 3, 3, 3, 3, 3, 3, 3, 3, 3, 3, 3, 3, 3, 3, 3, 3, 3, 3, 3]
        int[] faceVertexIndices = [457, 456, 451, 455, 457, 452, 457, 455, 454, 451, 452, 457, 456, 457, 454, 453, 456, 454, 453, 450, 456, 447, 455, 452, 448, 455, 447, 456, 442, 451, 443, 453, 454, 456, 445, 449, 445, 456, 450, 444, 452, 451, 442, 456, 449, 453, 443, 441, 448, 454, 455, 454, 448, 443, 441, 450, 453, 444, 439, 452, 440, 444, 451, 445, 446, 449, 450, 441, 438, 442, 437, 451, 439, 447, 452, 451, 437, 440, 438, 445, 450, 436, 446, 445, 435, 448, 447, 442, 449, 446, 431, 441, 443, 435, 443, 448, 445, 430, 436, 423, 437, 442, 447, 433, 435, 439, 444, 432, 433, 447, 439, 444, 440, 426, 446, 436, 442, 439, 424, 433, 434, 431, 443, 429, 430, 445, 438, 429, 445, 426, 432, 444, 434, 443, 435, 423, 442, 436, 428, 436, 430, 431, 434, 419, 431, 402, 441, 416, 423, 436, 438, 441, 402, 420, 440, 437, 420, 426, 440, 423, 409, 437, 427, 434, 435, 402, 422, 438, 414, 424, 439, 439, 432, 414, 428, 403, 436, 413, 414, 432, 422, 429, 438, 437, 409, 420, 427, 435, 425, 403, 416, 436, 433, 425, 435, 416, 403, 405, 426, 420, 397, 432, 412, 413, 401, 402, 431, 425, 433, 421, 389, 406, 429, 430, 429, 406, 427, 419, 434, 428, 430, 395, 431, 419, 408, 419, 427, 418, 424, 421, 433, 422, 399, 429, 390, 405, 403, 432, 426, 412, 403, 428, 393, 404, 412, 426, 401, 431, 408, 421, 424, 415, 406, 395, 430, 399, 389, 429, 427, 425, 417, 393, 428, 395, 417, 418, 427, 409, 423, 388, 404, 426, 397, 421, 417, 425, 409, 376, 420, 414, 391, 424, 397, 420, 366, 411, 418, 417, 391, 415, 424, 380, 388, 423, 417, 421, 410, 400, 419, 418, 416, 405, 396, 416, 380, 423, 404, 372, 412, 402, 399, 422, 421, 415, 410, 366, 420, 376, 402, 360, 399, 398, 411, 417, 415, 391, 378, 410, 407, 417, 379, 391, 414, 419, 400, 382, 382, 408, 419, 418, 411, 400, 407, 398, 417, 384, 380, 416, 396, 384, 416, 410, 415, 378, 401, 408, 358, 374, 390, 403, 413, 379, 414, 376, 409, 346, 406, 389, 368, 407, 392, 398, 348, 402, 401, 350, 379, 413, 413, 412, 350, 410, 378, 394, 372, 350, 412, 398, 400, 411, 394, 407, 410, 388, 346, 409, 366, 376, 359, 381, 389, 399, 378, 391, 352, 408, 382, 358, 394, 392, 407, 368, 395, 406, 377, 405, 390, 404, 397, 364, 402, 348, 356, 391, 379, 357, 396, 405, 377, 364, 372, 404, 400, 398, 386, 403, 393, 374, 382, 400, 363, 350, 367, 379, 360, 402, 356, 400, 386, 385, 401, 358, 348, 385, 363, 400, 396, 370, 384, 399, 360, 381, 390, 369, 377, 398, 392, 386, 364, 397, 366, 396, 377, 370, 394, 378, 383, 387, 392, 394, 353, 393, 395, 388, 373, 346, 368, 389, 341, 375, 383, 378, 368, 353, 395, 383, 387, 394, 393, 353, 374, 392, 387, 386, 352, 391, 357, 369, 390, 374, 384, 361, 380, 389, 381, 341, 366, 359, 331, 383, 365, 387, 373, 388, 380, 386, 387, 365, 365, 385, 386, 372, 364, 342, 363, 385, 371, 379, 351, 357, 385, 365, 371, 378, 352, 332, 349, 358, 382, 384, 370, 361, 346, 373, 320, 371, 365, 354, 375, 365, 383, 363, 349, 382, 338, 341, 381, 365, 375, 355, 348, 358, 335, 360, 338, 381, 362, 320, 373, 380, 361, 373, 331, 340, 366, 369, 374, 328, 367, 351, 379, 375, 378, 332, 370, 377, 369, 345, 368, 341, 359, 376, 346, 375, 332, 355, 328, 374, 353, 363, 371, 344, 350, 372, 343, 322, 363, 344, 373, 361, 362, 372, 342, 343, 354, 344, 371, 353, 368, 345, 367, 323, 351, 323, 367, 350, 340, 339, 366, 347, 352, 357, 364, 366, 339, 346, 320, 325, 360, 336, 338, 365, 355, 354, 339, 342, 364, 322, 349, 363, 345, 341, 319, 360, 356, 336, 346, 331, 359, 337, 358, 349, 334, 344, 354, 337, 335, 358, 347, 357, 324, 357, 351, 324, 321, 356, 348, 321, 336, 356, 333, 328, 353, 330, 354, 355, 322, 326, 349, 355, 332, 330, 323, 329, 351, 334, 354, 330, 345, 333, 353, 347, 332, 352, 324, 351, 329, 350, 343, 323, 326, 337, 349, 335, 337, 314, 338, 336, 308, 342, 339, 303, 348, 335, 321, 332, 347, 324, 329, 317, 324, 331, 346, 325, 344, 334, 318, 340, 331, 313, 333, 298, 328, 319, 327, 345, 327, 333, 345, 342, 310, 343, 322, 344, 318, 323, 343, 310, 303, 310, 342, 313, 304, 340, 306, 319, 341, 338, 306, 341, 340, 304, 339, 304, 303, 339, 292, 325, 320, 308, 306, 338, 323, 285, 329, 311, 318, 334, 316, 330, 332, 324, 312, 332, 326, 314, 337, 321, 308, 336, 314, 321, 335, 311, 334, 330, 327, 298, 333, 316, 332, 312, 308, 321, 280, 325, 313, 331, 330, 316, 311, 322, 318, 309, 298, 327, 293, 285, 317, 329, 326, 322, 307, 315, 301, 290, 317, 302, 324, 327, 319, 293, 314, 326, 307, 292, 313, 325, 290, 311, 315, 293, 295, 298, 302, 312, 324, 269, 290, 301, 316, 315, 311, 302, 317, 305, 315, 316, 294, 310, 285, 323, 309, 307, 322, 313, 292, 276, 307, 296, 314, 319, 306, 300, 280, 321, 314, 287, 318, 311, 300, 293, 319, 287, 309, 318, 285, 305, 317, 312, 294, 316, 313, 297, 304, 309, 299, 307, 294, 286, 315, 299, 289, 307, 315, 286, 301, 296, 275, 314, 275, 280, 314, 271, 298, 295, 291, 293, 300, 276, 297, 313, 302, 294, 312, 311, 290, 287, 281, 305, 261, 306, 308, 249, 308, 280, 248, 285, 261, 305, 242, 285, 310, 303, 242, 310, 299, 309, 287, 305, 281, 283, 288, 289, 299, 248, 249, 308, 289, 296, 307, 294, 302, 273, 306, 249, 300, 302, 305, 283, 274, 278, 281, 281, 261, 274, 297, 276, 267, 299, 287, 266, 304, 272, 303, 272, 304, 297, 242, 303, 272, 273, 302, 270, 302, 283, 270, 301, 286, 269, 291, 300, 249, 275, 296, 257, 288, 299, 266, 280, 275, 238, 224, 218, 285, 279, 291, 249, 272, 297, 267, 290, 269, 284, 296, 289, 257, 271, 295, 293, 245, 279, 249, 294, 273, 286, 259, 291, 279, 293, 291, 271, 231, 276, 292, 291, 259, 258, 258, 271, 291, 277, 287, 290, 284, 277, 290, 288, 257, 289, 272, 267, 265, 285, 218, 261, 282, 286, 273, 286, 268, 269, 266, 257, 288, 277, 266, 287, 268, 286, 282, 285, 242, 224, 196, 274, 261, 282, 263, 268, 262, 269, 268, 276, 231, 250, 248, 280, 220, 269, 277, 284, 260, 270, 283, 256, 281, 278, 283, 281, 260, 277, 269, 264, 254, 247, 273, 273, 263, 282, 278, 253, 256, 230, 279, 245, 256, 260, 281, 258, 235, 271, 238, 220, 280, 270, 254, 273, 279, 230, 259, 274, 253, 278, 236, 265, 267, 263, 273, 252, 264, 266, 277, 250, 267, 276, 251, 258, 259, 268, 229, 262, 242, 272, 191, 275, 257, 238, 274, 196, 253, 247, 252, 273, 255, 264, 269, 236, 267, 244, 265, 191, 272, 200, 265, 236, 270, 260, 254, 269, 262, 255, 263, 229, 268, 244, 267, 250, 250, 231, 246, 264, 257, 266, 233, 254, 260, 252, 240, 263, 265, 200, 191, 255, 262, 241, 259, 230, 216, 243, 257, 264, 255, 243, 264, 229, 263, 240, 262, 229, 241, 245, 249, 211, 218, 196, 261, 207, 251, 259, 260, 256, 217, 217, 233, 260, 259, 216, 207, 227, 235, 258, 239, 243, 255, 241, 228, 237, 256, 253, 221, 226, 245, 211, 258, 251, 227, 243, 238, 257, 229, 228, 241, 254, 233, 232, 249, 248, 214, 221, 217, 256, 239, 255, 241, 252, 234, 240, 232, 247, 254, 244, 250, 212, 196, 221, 253, 247, 234, 252, 207, 227, 251, 223, 228, 229, 232, 215, 247, 240, 234, 222, 246, 212, 250, 236, 244, 192, 214, 211, 249, 220, 214, 248, 234, 247, 215, 183, 212, 246, 226, 230, 245, 239, 241, 209, 238, 243, 225, 217, 213, 233, 212, 192, 244, 241, 237, 193, 243, 239, 225, 206, 193, 237, 229, 240, 219, 224, 242, 195, 195, 242, 191, 236, 199, 200, 209, 241, 193, 222, 219, 240, 190, 237, 228, 209, 225, 239, 220, 238, 225, 206, 237, 190, 236, 192, 199, 232, 233, 198, 226, 205, 230, 227, 179, 235, 222, 234, 208, 194, 215, 232, 234, 215, 208, 233, 213, 198, 232, 198, 194, 210, 223, 229, 218, 224, 186, 188, 193, 206, 205, 216, 230, 219, 210, 229, 228, 223, 190, 212, 183, 187, 186, 197, 218, 195, 174, 224, 189, 179, 227, 207, 189, 227, 216, 203, 207, 211, 205, 226, 225, 209, 204, 220, 225, 204, 217, 221, 177, 174, 186, 224, 210, 190, 223, 208, 219, 222, 177, 221, 196, 204, 214, 220, 219, 208, 210, 193, 201, 209, 196, 218, 197, 180, 198, 213, 217, 177, 213, 167, 187, 183, 182, 208, 215, 205, 203, 216, 211, 214, 202, 215, 194, 182, 172, 191, 200, 204, 202, 214, 175, 196, 197, 201, 193, 184, 177, 180, 213, 187, 192, 212, 211, 202, 205, 190, 210, 208, 203, 185, 207, 204, 209, 201, 190, 208, 182, 180, 178, 198, 185, 189, 207, 188, 206, 190, 203, 205, 202, 201, 185, 203, 181, 172, 200, 181, 199, 192, 202, 204, 201, 202, 201, 203, 198, 165, 194, 184, 185, 201, 199, 181, 200, 174, 195, 173, 184, 193, 161, 198, 178, 165, 186, 175, 197, 189, 185, 169, 177, 196, 175, 191, 173, 195, 165, 182, 194, 187, 166, 192, 184, 171, 185, 191, 172, 151, 179, 189, 163, 173, 176, 174, 188, 161, 193, 192, 166, 181, 151, 173, 191, 186, 174, 149, 162, 169, 185, 188, 190, 170, 175, 186, 158, 164, 170, 190, 164, 190, 182, 163, 189, 169, 170, 161, 188, 165, 154, 182, 187, 167, 166, 163, 160, 179, 186, 149, 158, 185, 171, 162, 181, 166, 168, 184, 161, 171, 180, 155, 178, 181, 168, 138, 139, 170, 164, 180, 177, 144, 174, 176, 141, 164, 182, 154, 166, 167, 159, 156, 155, 180, 181, 138, 172, 156, 180, 144, 179, 160, 136, 162, 171, 152, 155, 165, 178, 177, 175, 144, 176, 173, 141, 148, 161, 170, 175, 158, 144, 141, 149, 174, 141, 173, 151, 131, 138, 168, 138, 151, 172, 157, 166, 159, 154, 165, 146, 171, 161, 152, 121, 148, 170, 139, 121, 170, 145, 168, 166, 153, 169, 162, 152, 161, 137, 153, 163, 169, 164, 142, 139, 140, 146, 165, 168, 145, 131, 157, 145, 166, 161, 148, 147, 165, 155, 140, 160, 163, 150, 149, 129, 158, 154, 142, 164, 153, 150, 163, 152, 127, 162, 127, 153, 162, 161, 147, 137, 157, 159, 135, 150, 136, 160, 155, 156, 126, 120, 150, 153, 129, 144, 158, 152, 137, 133, 135, 145, 157, 128, 141, 151, 122, 121, 139, 119, 146, 140, 145, 135, 134, 144, 126, 156, 136, 150, 143, 123, 129, 149, 126, 140, 155, 146, 142, 154, 127, 120, 153, 147, 148, 130, 152, 133, 127, 138, 128, 151, 120, 143, 150, 134, 96, 145, 123, 149, 141, 143, 132, 136, 109, 142, 146, 92, 103, 135, 126, 144, 125, 137, 147, 95, 121, 130, 148, 147, 130, 95, 119, 109, 146, 96, 131, 145, 142, 109, 86, 137, 101, 133, 124, 132, 143, 143, 120, 112, 127, 133, 98, 129, 125, 144, 143, 112, 124, 86, 102, 139, 142, 86, 139, 131, 113, 138, 128, 123, 141, 119, 140, 99, 140, 126, 99, 102, 122, 139, 113, 128, 138, 125, 129, 114, 137, 95, 101, 131, 96, 94, 103, 134, 135, 123, 117, 129, 88, 130, 121, 134, 103, 96, 101, 98, 133, 128, 113, 118, 132, 124, 84, 113, 131, 94, 117, 123, 115, 88, 95, 130, 129, 117, 114, 116, 123, 128, 118, 116, 128, 80, 96, 103, 97, 127, 98, 121, 122, 81, 120, 127, 97, 126, 125, 93, 109, 119, 83, 90, 84, 124, 108, 118, 113, 93, 99, 126, 93, 125, 114, 124, 112, 90, 123, 116, 115, 108, 105, 118, 106, 114, 117, 102, 81, 122, 81, 88, 121, 97, 112, 120, 99, 83, 119, 117, 115, 111, 116, 118, 105, 117, 110, 106, 103, 92, 71, 111, 110, 117, 106, 82, 114, 116, 107, 115, 113, 94, 79, 105, 107, 116, 111, 115, 107, 86, 109, 85, 93, 114, 82, 87, 90, 112, 91, 98, 101, 113, 100, 108, 100, 113, 79, 106, 111, 107, 112, 97, 87, 106, 110, 111, 83, 85, 109, 105, 104, 107, 100, 79, 73, 82, 106, 104, 100, 82, 104, 108, 100, 105, 104, 106, 107, 86, 68, 102, 100, 104, 105, 81, 102, 62, 78, 94, 96, 97, 98, 89, 80, 103, 71, 68, 62, 102, 74, 91, 101, 91, 77, 98, 99, 93, 76, 101, 95, 74, 66, 88, 81, 73, 82, 100, 76, 83, 99, 98, 77, 89, 97, 89, 87, 96, 80, 78, 95, 88, 74, 82, 75, 93, 94, 78, 79, 75, 76, 93, 65, 84, 90, 67, 87, 89, 92, 70, 71, 77, 91, 74, 90, 87, 65, 64, 65, 87, 77, 67, 89, 73, 79, 56, 72, 86, 85, 78, 80, 69, 88, 66, 74, 67, 64, 87, 72, 68, 86, 83, 72, 85, 73, 53, 82, 76, 72, 83, 53, 75, 82, 66, 81, 62, 78, 63, 79, 71, 69, 80, 63, 56, 79, 77, 74, 52, 70, 49, 71, 69, 63, 78, 72, 61, 68, 77, 52, 55, 76, 75, 59, 55, 57, 77, 69, 71, 54, 60, 65, 64, 77, 57, 67, 74, 66, 47, 72, 76, 59, 53, 59, 75, 47, 52, 74, 65, 60, 58, 53, 73, 56, 66, 62, 45, 72, 59, 61, 54, 71, 49, 64, 67, 50, 49, 70, 46, 69, 54, 63, 61, 62, 68, 57, 50, 67, 45, 47, 66, 56, 41, 53, 61, 59, 48, 54, 44, 63, 60, 64, 50, 54, 49, 29, 51, 52, 47, 44, 56, 63, 45, 62, 33, 62, 61, 33, 61, 48, 37, 37, 33, 61, 45, 33, 43, 42, 50, 57, 50, 58, 60, 27, 48, 59, 53, 36, 59, 36, 27, 59, 58, 50, 32, 44, 54, 30, 39, 42, 57, 39, 57, 55, 44, 34, 56, 41, 56, 34, 55, 52, 39, 29, 30, 54, 40, 52, 51, 35, 32, 50, 48, 25, 37, 41, 36, 53, 51, 47, 31, 40, 39, 52, 49, 46, 23, 31, 40, 51, 42, 35, 50, 29, 49, 23, 47, 45, 22, 42, 39, 38, 37, 25, 28, 48, 27, 25, 41, 34, 19, 47, 22, 20, 20, 31, 47, 40, 31, 24, 44, 30, 26, 45, 43, 22, 41, 10, 36, 34, 44, 16, 26, 16, 44, 33, 22, 43, 38, 35, 42, 41, 19, 10, 39, 40, 24, 39, 24, 15, 39, 15, 38, 28, 18, 37, 34, 16, 12, 35, 38, 21, 38, 15, 21, 18, 33, 37, 27, 36, 10, 21, 32, 35, 12, 19, 34, 30, 1, 26, 32, 21, 11, 25, 27, 7, 22, 33, 18, 25, 13, 28, 24, 31, 20, 1, 30, 29, 23, 1, 29, 18, 28, 13, 27, 10, 7, 5, 16, 26, 1, 5, 26, 20, 4, 24, 13, 25, 7, 20, 22, 17, 18, 13, 9, 24, 4, 15, 22, 18, 17, 21, 15, 11, 17, 18, 14, 8, 20, 17, 8, 4, 20, 12, 10, 19, 18, 9, 14, 14, 8, 17, 16, 5, 0, 4, 3, 15, 3, 11, 15, 0, 2, 12, 14, 9, 8, 9, 13, 6, 13, 7, 6, 10, 12, 2, 9, 2, 8, 7, 10, 2, 6, 2, 9, 2, 6, 7, 0, 12, 16]
        point3f[] points = [(0.016077904, -0.112803, 1.103514), (0.027185913, -0.048788, 0.99725), (0.044902906, -0.163664, 1.088783), (-0.12891209, -0.325645, 1.044783), (-0.14577308, -0.379146, 1.028848), (0.023596913, -0.098917, 1.031609), (-0.0063930904, -0.258325, 1.064904), (0.01655891, -0.212328, 1.043524), (-0.118509084, -0.423208, 1.019937), (-0.056039087, -0.331748, 1.043877), (0.051732916, -0.157644, 0.967599), (-0.12520407, -0.292118, 0.987975), (0.059454918, -0.114674, 0.974259), (-0.03306208, -0.267662, 0.986977), (-0.09240508, -0.405088, 1.021914), (-0.14378008, -0.321319, 0.97668), (0.064884916, -0.081311, 0.908716), (-0.12120509, -0.382051, 0.982403), (-0.08182807, -0.33893, 0.937498), (0.07515992, -0.117233, 0.891284), (-0.14313509, -0.358807, 0.970591), (-0.12961607, -0.267835, 0.928782), (-0.122077085, -0.35482, 0.918947), (0.031326924, -0.018185, 0.879296), (-0.16516508, -0.301124, 0.877611), (-0.019273072, -0.220449, 0.861323), (0.04210592, -0.0616, 0.907348), (0.03458093, -0.168417, 0.83714), (-0.05211207, -0.266025, 0.857175), (0.04824093, -0.013412999, 0.811111), (0.04695593, -0.033082, 0.816819), (-0.16636208, -0.302123, 0.824343), (-0.11928907, -0.176583, 0.803426), (-0.096309066, -0.296711, 0.779587), (0.090551935, -0.07806, 0.80559), (-0.12552908, -0.20433, 0.831471), (0.06716494, -0.13964, 0.800331), (-0.066033065, -0.257488, 0.742204), (-0.15929407, -0.227251, 0.82784), (-0.17563207, -0.230018, 0.779911), (-0.17935006, -0.25785404, 0.783901), (0.09636294, -0.093865, 0.70739), (-0.15209207, -0.192707, 0.774787), (-0.11749806, -0.302841, 0.770448), (0.087111935, -0.051287, 0.762667), (-0.13869205, -0.269709, 0.678761), (0.03377794, 0.027891003, 0.68315), (-0.16195504, -0.260679, 0.683618), (-0.0027180593, -0.183066, 0.70589), (0.057909936, 0.024459003, 0.662958), (-0.12946907, -0.149914, 0.692893), (-0.17642304, -0.25629702, 0.721796), (-0.17747305, -0.20472, 0.621137), (0.10611295, -0.090056, 0.600937), (0.06455995, -0.014260999, 0.639045), (-0.17700106, -0.177851, 0.628463), (0.102652945, -0.050543, 0.630986), (-0.16578306, -0.153779, 0.634523), (-0.11219306, -0.095072, 0.656623), (0.06845096, -0.132054, 0.620818), (-0.121967055, -0.113919, 0.610842), (-0.050341047, -0.203819, 0.611044), (-0.107129045, -0.212114, 0.514376), (0.10071195, -0.018937998, 0.579668), (-0.13053304, -0.07717701, 0.546599), (-0.108310044, -0.033196002, 0.504616), (-0.15610805, -0.208565, 0.515895), (-0.16477703, -0.098577, 0.534838), (-0.06810605, -0.1917, 0.505877), (0.07336795, 0.012397001, 0.546845), (0.06387496, 0.09377, 0.393428), (0.07901296, 0.065104, 0.455388), (-0.008031044, -0.167405, 0.523483), (0.15709196, -0.040343996, 0.464888), (-0.17596805, -0.183221, 0.513435), (0.112878956, -0.112536, 0.522623), (0.07896096, -0.13795, 0.515685), (-0.18078405, -0.131206, 0.523381), (0.13341396, 0.019375002, 0.448831), (0.15792696, -0.0071429983, 0.440846), (0.08454996, 0.041898, 0.420311), (-0.13982002, -0.194687, 0.40436), (0.15918097, -0.106617, 0.379823), (0.06364396, -0.155944, 0.431139), (-0.09302004, 0.025482, 0.403471), (0.009318964, -0.162595, 0.433501), (-0.040004026, -0.165728, 0.343508), (-0.16834904, -0.017207002, 0.434529), (-0.17841303, -0.170098, 0.34874296), (-0.19341505, -0.050280005, 0.42881697), (-0.13749103, 0.021085, 0.385353), (-0.20367503, -0.106338, 0.41961598), (0.08853797, 0.106659, 0.306945), (0.13513097, -0.128502, 0.366559), (0.16587096, 0.017039001, 0.373104), (-0.20467603, -0.13552, 0.31671298), (0.16107997, 0.041623004, 0.294228), (-0.19989704, -0.015617003, 0.35576198), (-0.21647403, -0.050049003, 0.32297698), (0.09710897, -0.16113698, 0.315766), (0.18561897, -0.051637, 0.37759602), (-0.21421602, -0.10723901, 0.33505598), (-0.07783503, -0.164398, 0.306499), (0.09617397, 0.063148, 0.306152), (0.20366597, -0.07774, 0.38404402), (0.24100398, -0.051264998, 0.37173304), (0.18820398, -0.122032, 0.37757003), (0.25041997, -0.078127, 0.36857602), (0.21654098, -0.039119996, 0.36655104), (0.030049976, -0.173703, 0.294606), (0.21624897, -0.117029995, 0.36222303), (0.24113397, -0.11028999, 0.36343002), (-0.15843703, 0.047813997, 0.283438), (0.19292697, -0.029781999, 0.33547503), (0.16174197, -0.116905, 0.329586), (0.24337196, -0.10027399, 0.33716503), (0.25463298, -0.054646995, 0.33500203), (0.21270996, -0.120171, 0.32207304), (0.24702297, -0.039162997, 0.33533502), (0.072265975, -0.169851, 0.268699), (-0.18455704, 0.03712, 0.25874096), (-0.16840102, -0.147543, 0.24401699), (-0.13016003, -0.169199, 0.289944), (0.21747497, -0.084337994, 0.26855803), (-0.11318002, 0.060911994, 0.294963), (0.15866399, -0.093615, 0.28153), (0.13068898, -0.135566, 0.24992801), (-0.20829302, 0.011365998, 0.22611098), (0.22463597, -0.0418, 0.27790603), (0.18707798, -0.09473, 0.27052504), (-0.19586103, -0.135184, 0.25941098), (0.18383698, 0.032316, 0.20867501), (-0.07554802, 0.081577, 0.280555), (-0.22152402, -0.046314005, 0.25519797), (0.14460298, 0.077842005, 0.24295701), (0.10831698, 0.100313, 0.22434302), (-0.07306101, 0.116018, 0.196849), (-0.21779001, -0.061669003, 0.20826398), (0.18859799, -0.005243998, 0.17329001), (-0.11401202, -0.123357, 0.15842699), (0.09713798, -0.15501298, 0.21976401), (0.22867498, -0.042548, 0.21595402), (-0.011211018, -0.160649, 0.227921), (-0.12806103, 0.093922995, 0.23227298), (0.16049299, -0.067399, 0.18255301), (0.16524498, 0.070471, 0.19465302), (0.042518985, -0.161994, 0.204755), (-0.208553, -0.085999, 0.19149598), (-0.18729602, -0.118088, 0.20477399), (0.22088899, -0.059408996, 0.13423401), (-0.13764803, 0.09746699, 0.20194699), (0.22524299, 0.011561003, 0.12143602), (-0.20781401, 0.00044799753, 0.16429499), (-0.17552902, 0.068474, 0.19093598), (-0.002699011, -0.141626, 0.143633), (0.118822984, -0.120405, 0.15293501), (0.138663, -0.095887996, 0.14880502), (0.14381596, 0.09025801, 0.18329601), (0.18747099, -0.071496, 0.13332601), (0.10682798, 0.101085, 0.16263102), (-0.11193501, 0.103474, 0.15079999), (-0.18205401, -0.048923, 0.090313986), (-0.18461101, 0.029890995, 0.115023986), (-0.13853501, 0.082012996, 0.112327985), (-0.067503, -0.134737, 0.07773899), (0.060580995, -0.119712, 0.083587006), (0.14991799, 0.062444005, 0.08738601), (0.10195499, 0.09025, 0.09888301), (0.17485899, 0.034443, 0.11253302), (-0.16281402, 0.055008996, 0.093717985), (-0.144823, -0.095161006, 0.102609985), (-0.19151202, -0.0079930015, 0.09127598), (0.211873, 0.042198002, 0.031949017), (0.24146, 0.018131003, 0.060523022), (0.23707, -0.022737999, 0.01809602), (0.172595, -0.056494996, 0.044093017), (0.242382, -0.0087239975, 0.083617024), (0.135608, -0.029110998, 0.028174011), (0.089017995, -0.098254, 0.053749006), (-0.073682, 0.094942, 0.009287993), (0.120635994, -0.067556, 0.055750012), (0.180108, 0.020864002, 0.053183015), (-0.027656998, -0.124401, 0.0015129976), (0.104811005, 0.095038, -0.052451994), (-0.168464, -0.012623002, -0.005909015), (-0.164708, 0.033328995, 0.0052939854), (0.214197, -0.048828997, 0.02018302), (0.113831, 0.074469, 0.01876501), (-0.13196298, -0.08551301, 0.013736988), (-0.116361, 0.07984, -0.0021230103), (-0.059060995, -0.118306, -0.018977005), (0.220986, 0.060043003, -0.05336498), (0.155317, 0.034899004, -0.042363986), (-0.1476, -0.044061, -0.043797012), (0.028255003, -0.111602, -0.011626997), (0.240934, 0.031968005, -0.01900098), (0.166248, -0.019738998, -0.063991986), (0.198175, -0.045858998, -0.012269982), (0.06889, -0.09044, -0.018442994), (0.173814, 0.031225001, -0.033098985), (0.189589, 0.061062, -0.06303999), (-0.187393, 0.019666998, -0.0056380164), (-0.23263201, 0.08569499, -0.0039730207), (-0.177546, 0.051603, -0.0073540155), (-0.249566, 0.056238998, -0.006066022), (-0.18953401, 0.093416, -0.019567017), (-0.08823399, -0.087151, -0.06251801), (-0.138372, 0.052353, -0.040410012), (-0.019293996, -0.146493, -0.018434001), (-0.202736, -0.019464003, -0.03724802), (-0.049990993, -0.161756, -0.023318004), (-0.215326, 0.11710699, -0.04973302), (0.137989, 0.06636301, -0.05278099), (0.108301, -0.038423996, -0.03614599), (-0.238959, 0.10064899, -0.047013022), (-0.010563996, -0.10673, -0.043198), (-0.159343, 0.066757, -0.044839013), (0.100292005, 0.011887001, -0.08271999), (0.19781701, -0.011729998, -0.09164298), (-0.029219994, -0.168624, -0.032402005), (-0.250315, 0.071542, -0.052053023), (0.130072, 0.010876001, -0.05941499), (-0.0044099935, -0.143949, -0.051346), (-0.06535999, -0.140811, -0.046413008), (0.22385201, 0.018949004, -0.10945698), (-0.246864, 0.025021996, -0.04179402), (-0.188125, 0.121253, -0.06511501), (-0.097101994, 0.093138, -0.07077501), (-0.06454899, -0.120957, -0.08183401), (-0.04735199, -0.153171, -0.09635001), (-0.15440698, 0.111597, -0.10805002), (0.11697801, 0.150312, -0.15339999), (0.04443401, -0.07068499, -0.07871499), (0.07834101, -0.034817, -0.09009499), (-0.010065991, -0.118997, -0.081534), (-0.07081399, 0.112086, -0.093751006), (0.16184902, 0.060455002, -0.11614299), (-0.074228995, -0.105971, -0.08290601), (-0.23529698, 0.049442995, -0.09999802), (-0.16855198, -0.066483, -0.08750901), (-0.015938988, -0.147297, -0.096401), (-0.11555699, -0.100357, -0.08816401), (0.22506301, 0.056891, -0.16128299), (-0.19470099, -0.032176003, -0.09524502), (0.14384401, 0.054723, -0.09592499), (-0.16712499, 0.141228, -0.15191402), (0.11162001, 0.112969, -0.106709994), (0.00242301, -0.081363, -0.100022), (-0.21858798, 0.118971996, -0.18095501), (-0.19788699, 0.143057, -0.18361501), (0.135885, 0.09817201, -0.11786499), (-0.11485199, 0.070618, -0.11361201), (0.0022650098, -0.111722, -0.095462), (0.12023001, 0.017734002, -0.13383698), (0.037228014, -0.065516, -0.127059), (-0.11374399, -0.105956, -0.119550005), (0.09835102, 0.017173002, -0.13332398), (-0.15658699, -0.027171003, -0.14241801), (-0.100408986, 0.107473, -0.16233802), (-0.127832, 0.093811, -0.15415202), (0.08584802, -0.025529997, -0.13296698), (0.16793601, -0.002692998, -0.19906199), (-0.05685899, -0.145419, -0.129808), (-0.004441986, -0.144341, -0.137686), (-0.108846985, -0.085971, -0.13935001), (0.177656, 0.09844, -0.16859998), (-0.10691599, -0.061874002, -0.15446702), (0.15488301, 0.1188, -0.17490898), (-0.012876984, -0.142993, -0.166877), (-0.04262498, -0.122213006, -0.176755), (0.07359902, -0.079995, -0.175976), (-0.059749987, 0.158306, -0.174645), (0.213343, 0.097113006, -0.18442999), (0.028921017, -0.089216, -0.18282), (0.14295402, -0.0035869982, -0.18334499), (-0.19933498, 0.046105996, -0.18543202), (0.14717302, 0.150471, -0.19087999), (-0.057748985, -0.078495, -0.155819), (0.115585014, 0.009479002, -0.16697499), (-0.13663198, 0.146728, -0.18351802), (-0.21712199, 0.08124799, -0.21602201), (0.12686001, -0.0070649986, -0.21291599), (0.013110016, -0.114734, -0.164049), (0.097829014, -0.051394, -0.18296199), (-0.049415983, -0.098192, -0.173771), (0.20749402, 0.021748004, -0.21741998), (-0.010848982, -0.116712, -0.181856), (-0.05437098, -0.062865, -0.20089), (-0.12951298, -0.06427201, -0.18346801), (-0.14651099, -0.052412, -0.20924701), (-0.039402977, -0.083961, -0.248931), (-0.120723985, 0.168255, -0.19119501), (0.13140902, 0.190136, -0.23762499), (-0.10817098, 0.181218, -0.22328901), (0.003907019, -0.083767, -0.201928), (-0.05766798, 0.187757, -0.22794), (-0.15957399, -0.0029380019, -0.20938602), (0.18962301, 0.127381, -0.19456498), (-0.04590798, 0.205333, -0.244204), (-0.11706598, -0.066522, -0.21517901), (-0.17835599, 0.162017, -0.20963602), (-0.018903978, -0.105055, -0.241892), (0.081068024, -0.076134, -0.21621), (0.231141, 0.098014005, -0.24422999), (0.21993303, 0.147052, -0.25838298), (0.110163026, -0.038258996, -0.22339399), (-0.19504698, 0.164677, -0.26059803), (-0.12951098, -0.038074, -0.24045601), (-0.21252897, 0.129276, -0.25942904), (-0.09416598, -0.050058, -0.23216802), (0.23070103, 0.06297101, -0.25944498), (-0.037819978, -0.036355, -0.24712), (0.06391402, -0.058404, -0.251542), (0.19053502, 0.178383, -0.25972697), (-0.18146399, 0.024934996, -0.24283402), (0.000040023475, -0.090608, -0.256155), (0.029666021, -0.04453, -0.251421), (0.15860102, -0.016761998, -0.253658), (-0.06923398, -0.018935, -0.26317), (-0.16856597, 0.20148, -0.288592), (0.13829602, 0.223936, -0.33393), (-0.21491997, 0.08350299, -0.29445902), (-0.10091398, -0.025736002, -0.285407), (0.21650504, 0.027496003, -0.30863798), (0.09985002, -0.036767, -0.288398), (0.17054403, 0.199797, -0.28140697), (-0.12345597, -0.009258002, -0.30331), (-0.13553797, 0.211362, -0.272559), (-0.032358974, 0.246675, -0.350206), (0.17754303, -0.005996998, -0.29973096), (0.033650026, -0.019012999, -0.291216), (0.20256503, 0.19345, -0.32884997), (0.046933025, -0.030525, -0.308233), (-0.092436984, 0.23025198, -0.293709), (-0.031165974, -0.012872, -0.297971), (-0.19494598, 0.052042995, -0.31413102), (-0.21935497, 0.12156999, -0.31012204), (-0.15750697, 0.013835998, -0.315719), (-0.20735197, 0.16567, -0.33142504), (0.24008003, 0.129049, -0.30307096), (0.22553103, 0.167483, -0.31385198), (-0.18211697, 0.206358, -0.36186504), (0.24077503, 0.10475001, -0.34905198), (0.23768502, 0.069813006, -0.32508996), (-0.07281697, 0.024029, -0.350825), (-0.14495797, 0.226564, -0.322324), (0.15109102, 0.231279, -0.409307), (0.09012003, -0.029302, -0.33307), (-0.20373198, 0.093148, -0.36579102), (-0.12007297, 0.014450999, -0.3709), (0.22030303, 0.055952005, -0.37107897), (0.15704504, -0.008448998, -0.352505), (0.06776704, 0.004673001, -0.428466), (-0.09337096, 0.251724, -0.393346), (-0.02448997, 0.011686, -0.352038), (0.039635032, 0.018535, -0.362648), (-0.20722798, 0.114432, -0.37798703), (0.12664603, 0.010025002, -0.424787), (-0.15258096, 0.069998, -0.452595), (0.19148003, 0.207862, -0.42521796), (-0.19551297, 0.154737, -0.42191002), (0.07470403, 0.253253, -0.359083), (0.118665025, 0.244411, -0.357038), (-0.08960796, 0.031898, -0.429117), (0.22808503, 0.147071, -0.41265798), (-0.006013964, 0.017675, -0.415176), (0.21294405, 0.18187, -0.43002298), (0.19686203, 0.032753002, -0.38466996), (-0.13992096, 0.239503, -0.414708), (0.009337029, 0.242856, -0.373914), (0.04053203, 0.252536, -0.365639), (-0.06283797, 0.043604, -0.393915), (0.21078305, 0.111125, -0.46473497), (0.104648024, 0.242139, -0.379806), (-0.0132119665, 0.262337, -0.425103), (0.052621037, 0.034038, -0.412111), (0.16533105, 0.227179, -0.49171), (0.023688033, 0.257468, -0.430376), (0.06454004, 0.024092, -0.471614), (0.16685404, 0.045262005, -0.463981), (0.082391046, 0.25454, -0.493091), (-0.18609397, 0.184517, -0.41978103), (-0.10777696, 0.038379997, -0.463409), (0.036532037, 0.026927002, -0.432523), (0.06317405, 0.264941, -0.473421), (-0.072023965, 0.035501998, -0.43953), (-0.040364962, -0.008087001, -0.43568), (-0.001829962, -0.013259, -0.432992), (0.10359605, 0.259948, -0.49758), (-0.14781296, 0.222757, -0.51475), (0.0011200439, 0.269305, -0.53855), (0.105306044, 0.027756002, -0.509245), (-0.016630959, -0.026165, -0.460283), (-0.05489796, 0.269337, -0.494435), (0.025492042, -0.011951, -0.462466), (-0.09667496, 0.260002, -0.523733), (0.039731044, 0.271961, -0.493736), (0.19185105, 0.189602, -0.542181), (-0.034875955, -0.024756001, -0.494915), (-0.15339796, 0.197253, -0.558518), (-0.09500296, 0.04129, -0.513187), (-0.15936396, 0.120676, -0.53841), (-0.15269294, 0.135968, -0.600893), (-0.0058219507, 0.28537, -0.609019), (0.19550805, 0.156185, -0.545247), (0.026195046, 0.279, -0.562149), (-0.121314965, 0.244577, -0.551913), (0.00040404475, -0.016812, -0.509525), (-0.14116797, 0.089462996, -0.5569), (0.119836055, 0.261081, -0.591727), (0.042697046, -0.0011969996, -0.520771), (-0.058189955, 0.00031899931, -0.521428), (0.18341604, 0.123573, -0.563244), (0.16911604, 0.091517, -0.560057), (0.14301404, 0.06255901, -0.574624), (0.071102045, 0.0228, -0.547752), (0.05276705, 0.287424, -0.606976), (-0.023547951, -0.010095, -0.552083), (-0.08419295, 0.029634997, -0.579672), (-0.10724295, 0.051826995, -0.607353), (0.15431006, 0.231523, -0.607651), (0.03902005, 0.0061300006, -0.578359), (-0.14917694, 0.175818, -0.610485), (0.06503406, 0.28092, -0.645349), (0.09498705, 0.033156, -0.609384), (0.00034705224, 0.003717, -0.597828), (0.17587106, 0.182847, -0.617887), (-0.04161295, 0.013821999, -0.604415), (-0.058149945, 0.273296, -0.627437), (-0.12133796, 0.224106, -0.63097), (-0.07970794, 0.259519, -0.645355), (-0.12704895, 0.093717, -0.638926), (0.15994106, 0.113314, -0.642284), (0.065217055, 0.024658, -0.635027), (-0.06267995, 0.025004, -0.627996), (0.005668056, 0.021688, -0.6419), (0.010159052, 0.287302, -0.643305), (0.12573107, 0.240483, -0.650063), (-0.12878394, 0.170405, -0.65876), (0.12634607, 0.080155, -0.660044), (0.14991806, 0.193307, -0.661285), (-0.116872944, 0.127697, -0.671162), (0.06790206, 0.253662, -0.663444), (-0.08089794, 0.084141, -0.672446), (0.14943506, 0.131082, -0.668845), (-0.09462095, 0.22173598, -0.670025), (0.0023080544, 0.274411, -0.656814), (0.056636058, 0.055197, -0.676588), (-0.003537942, 0.056035, -0.671643), (0.0077250563, 0.229043, -0.67587), (-0.10187594, 0.183282, -0.680188), (0.12103106, 0.169961, -0.683078), (0.10859706, 0.098328, -0.685), (-0.084170945, 0.133716, -0.685985), (-0.018152943, 0.101026, -0.685997), (0.05128806, 0.089264, -0.692566), (0.006667058, 0.172023, -0.68826), (0.06381106, 0.125124, -0.696495)]
        texCoord2f[] primvars:st = [(0.88703614, 0.054069772), (0.80533624, -0.052587587), (0.85684866, 0.10119399), (0.6503449, 0.57885885), (0.66792005, 0.522627), (0.8226534, 0.006778767), (0.79757625, 0.2355624), (0.78956133, 0.16948374), (0.7065863, 0.4920394), (0.7566292, 0.3498089), (0.72474355, 0.073142566), (0.5844253, 0.58113885), (0.74674696, 0.017331347), (0.70383686, 0.26237628), (0.70758647, 0.4543554), (0.586605, 0.5451009), (0.6948481, -0.05074967), (0.6487341, 0.4722631), (0.6213552, 0.38460892), (0.663149, -0.015816312), (0.6118615, 0.49495575), (0.5113449, 0.5933993), (0.57881194, 0.44325063), (0.70825815, -0.15706809), (0.49112222, 0.50494796), (0.58027875, 0.18310353), (0.7107998, -0.08573387), (0.581532, 0.0677153), (0.55733526, 0.26717374), (0.6407049, -0.20054288), (0.63664895, -0.17310096), (0.44922087, 0.47121114), (0.34042713, 0.6719405), (0.4511481, 0.34536585), (0.59134555, -0.10306688), (0.38125694, 0.6461038), (0.5628323, -0.011077285), (0.4304895, 0.26510906), (0.39728186, 0.5770549), (0.3605903, 0.5361645), (0.38404563, 0.5020227), (0.48957077, -0.123716675), (0.3289117, 0.5911263), (0.4313198, 0.3777741), (0.5624701, -0.16197532), (0.32601002, 0.37277618), (0.5495481, -0.35114264), (0.312795, 0.4110255), (0.43131727, 0.10183189), (0.517393, -0.3432856), (0.22511508, 0.6042825), (0.3349189, 0.45497605), (0.21479174, 0.44119453), (0.3885225, -0.17123023), (0.47789335, -0.30545285), (0.19878305, 0.4827493), (0.43576258, -0.22921741), (0.18360545, 0.5235281), (0.1544382, 0.64411753), (0.38600612, -0.066712536), (0.119844146, 0.5969165), (0.31123692, 0.17804326), (0.18105753, 0.25416666), (0.4055783, -0.3115183), (0.037623305, 0.5713595), (-0.03866453, 0.5994751), (0.14497674, 0.33618784), (0.053103812, 0.51115924), (0.19829017, 0.18064284), (0.39997485, -0.40488356), (0.28846744, -0.63231844), (0.33109835, -0.5452636), (0.25136584, 0.073566176), (0.28492534, -0.32907304), (0.114214204, 0.37971425), (0.30942804, -0.1621652), (0.28639147, -0.08891825), (0.074629284, 0.45613623), (0.29346007, -0.44069514), (0.27386862, -0.3939234), (0.29255337, -0.52915454), (0.05847851, 0.26007158), (0.19082433, -0.24540982), (0.1986995, -0.058929272), (-0.19158034, 0.5779695), (0.1753943, 0.031022744), (0.0649454, 0.09538272), (-0.100528516, 0.5117222), (-0.022004351, 0.28388813), (-0.07355794, 0.46695018), (-0.18646687, 0.5275605), (-0.029896507, 0.40534627), (0.19856103, -0.654303), (0.16437358, -0.18909246), (0.21447761, -0.45810276), (-0.082818195, 0.30875427), (0.14770147, -0.5236085), (-0.16392882, 0.44548398), (-0.1568659, 0.39213264), (0.10357467, -0.11249295), (0.21083197, -0.35639882), (-0.095516555, 0.34950024), (0.0067681624, 0.13880561), (0.18770078, -0.59776455), (0.1872188, -0.3223671), (0.16617417, -0.3544578), (0.17033479, -0.2716576), (0.15586305, -0.33673385), (0.1766629, -0.37106395), (0.058955435, -0.014390146), (0.15109685, -0.2925356), (0.14656428, -0.311837), (-0.2921987, 0.46577057), (0.16573308, -0.414579), (0.13167657, -0.22988153), (0.12944102, -0.31967205), (0.13428317, -0.36025968), (0.1191478, -0.2860402), (0.14114448, -0.37234968), (0.053244267, -0.077065825), (-0.2909156, 0.42636073), (-0.11046952, 0.23118205), (-0.039446898, 0.20223692), (0.074561544, -0.3294477), (-0.31314906, 0.51266676), (0.08149907, -0.23783253), (0.05353612, -0.16889276), (-0.28330138, 0.37650782), (0.09498624, -0.39499268), (0.073069215, -0.27931523), (-0.121391006, 0.2700571), (0.06057821, -0.5291039), (-0.36044014, 0.53945386), (-0.20810682, 0.3496818), (0.10607815, -0.5877334), (0.10044322, -0.64757276), (-0.4465352, 0.4904464), (-0.22726509, 0.30684903), (0.020211503, -0.49110007), (-0.15839341, 0.14987248), (0.020108188, -0.11801758), (0.04009769, -0.39484942), (-0.020778436, 0.029695038), (-0.3758974, 0.46829903), (-0.0011316095, -0.2659791), (0.05490046, -0.580073), (-0.012689138, -0.04720237), (-0.21567954, 0.27432972), (-0.17101772, 0.24591532), (-0.026674984, -0.36864007), (-0.39621508, 0.44299036), (-0.036218945, -0.46859127), (-0.31892604, 0.3263365), (-0.36603555, 0.4002334), (-0.08665388, -0.0039010167), (-0.028210264, -0.17095038), (-0.028278273, -0.21334265), (0.04824926, -0.6148044), (-0.031984083, -0.31980625), (0.029877426, -0.6589498), (-0.45919162, 0.4289963), (-0.31739044, 0.23292132), (-0.38942093, 0.32017073), (-0.4623132, 0.3775516), (-0.18188179, 0.064699285), (-0.10054124, -0.108667746), (-0.052040156, -0.5982289), (-0.03725457, -0.6615143), (-0.031902466, -0.55085635), (-0.44193712, 0.33560255), (-0.24182393, 0.1773819), (-0.36475518, 0.27174774), (-0.11895869, -0.508823), (-0.0912851, -0.46572354), (-0.12305754, -0.41826552), (-0.103824064, -0.32313338), (-0.071070164, -0.43528277), (-0.1258611, -0.27525076), (-0.11252594, -0.16286872), (-0.61656445, 0.37209758), (-0.10398183, -0.22295082), (-0.08968257, -0.543006), (-0.20644519, -0.01084628), (-0.1982799, -0.67295265), (-0.42621508, 0.20396468), (-0.49739885, 0.2680434), (-0.11820043, -0.37923774), (-0.12124755, -0.64598215), (-0.30553558, 0.1368189), (-0.5908369, 0.32962474), (-0.2537939, 0.0407048), (-0.19847372, -0.51627636), (-0.18014231, -0.59167796), (-0.39185056, 0.14130598), (-0.18135372, -0.09818317), (-0.16285412, -0.47800702), (-0.19270407, -0.35771632), (-0.1453457, -0.3718385), (-0.17035306, -0.15716557), (-0.17196615, -0.5708651), (-0.2078678, -0.55103666), (-0.47958982, 0.23076092), (-0.5547691, 0.21652694), (-0.5298847, 0.25669754), (-0.53228027, 0.2005236), (-0.5832599, 0.23779796), (-0.32786337, 0.07102487), (-0.6093614, 0.28793854), (-0.22690737, -0.01791508), (-0.45794135, 0.16829692), (-0.25533587, 0.0035724586), (-0.6034341, 0.19939998), (-0.19555208, -0.6289856), (-0.17517808, -0.23679128), (-0.5807805, 0.18806323), (-0.21933109, -0.07278241), (-0.6073966, 0.26607567), (-0.21483314, -0.27614915), (-0.21699734, -0.40314794), (-0.25152677, -0.013939394), (-0.5578989, 0.17245014), (-0.19551338, -0.302088), (-0.24797837, -0.042459194), (-0.27718478, 0.018086795), (-0.23767364, -0.45502314), (-0.5146454, 0.17005998), (-0.6307479, 0.20498781), (-0.69334805, 0.30592245), (-0.31231987, 0.026031319), (-0.2995321, -0.015571396), (-0.68188095, 0.20943901), (-0.33128068, -0.6868327), (-0.22183836, -0.16184498), (-0.2230834, -0.22098355), (-0.25077167, -0.078042835), (-0.7465044, 0.30909988), (-0.25506783, -0.5965296), (-0.31984812, 0.04226685), (-0.5563939, 0.13138795), (-0.42321074, 0.09920194), (-0.2804717, -0.049561076), (-0.36168894, 0.06410325), (-0.2920845, -0.50191236), (-0.46563447, 0.10834041), (-0.23357932, -0.6100003), (-0.7134479, 0.16002747), (-0.26564166, -0.67399305), (-0.25025588, -0.12309506), (-0.6700366, 0.106755786), (-0.70735544, 0.11936142), (-0.2730993, -0.6437659), (-0.70037735, 0.25627008), (-0.25949785, -0.092068985), (-0.24741748, -0.30798608), (-0.26013452, -0.16806322), (-0.37327617, 0.040458474), (-0.24738461, -0.28716612), (-0.47088385, 0.061075047), (-0.76906574, 0.22205722), (-0.7379303, 0.21645312), (-0.25450012, -0.24037182), (-0.30437458, -0.37681627), (-0.325194, -0.021712976), (-0.29960638, -0.07233378), (-0.3926426, 0.027121538), (-0.32015038, -0.59431833), (-0.41858754, 0.019059153), (-0.3374674, -0.6318142), (-0.32004598, -0.07454921), (-0.348937, -0.05310929), (-0.29730847, -0.2028673), (-0.84745336, 0.20329167), (-0.33162695, -0.5559893), (-0.3107076, -0.1522978), (-0.28723028, -0.3446958), (-0.58036655, 0.06776895), (-0.37294725, -0.6605178), (-0.38927686, -0.021257754), (-0.27080613, -0.30628607), (-0.77002686, 0.15528762), (-0.6407166, 0.06694897), (-0.30298674, -0.31588414), (-0.307109, -0.115161285), (-0.29550427, -0.24597348), (-0.37168214, -0.041658796), (-0.3206741, -0.44033065), (-0.32990354, -0.09410232), (-0.4094515, -0.049684744), (-0.4505425, 0.012542616), (-0.47788882, 0.0077060293), (-0.3898946, -0.092298836), (-0.8045962, 0.14514339), (-0.4488468, -0.7069632), (-0.84608614, 0.11305505), (-0.33394736, -0.1355823), (-0.9062638, 0.12005487), (-0.52534693, 0.026289117), (-0.3621278, -0.60532993), (-0.9422163, 0.092982836), (-0.4566238, -0.012305843), (-0.75406575, 0.10473611), (-0.36834022, -0.102674335), (-0.32182962, -0.22107905), (-0.3833006, -0.5416252), (-0.43172678, -0.5963025), (-0.31996205, -0.28338063), (-0.7619114, 0.05482898), (-0.49111518, -0.01608615), (-0.7132531, 0.050643366), (-0.45569602, -0.03834278), (-0.37433577, -0.49713787), (-0.4236131, -0.09683493), (-0.3528085, -0.21549913), (-0.4635485, -0.6431237), (-0.5744068, 0.02065511), (-0.37142506, -0.12455257), (-0.37328115, -0.17434676), (-0.3426602, -0.35383883), (-0.45733532, -0.07874658), (-0.82488304, 0.025619276), (-0.64258844, -0.66865987), (-0.66673386, 0.012281429), (-0.49538785, -0.056807727), (-0.39339283, -0.44294038), (-0.36852336, -0.2779963), (-0.5156148, -0.66419995), (-0.5280612, -0.0501421), (-0.8603965, 0.03971591), (-1.017241, -0.15982698), (-0.37523812, -0.38343462), (-0.39831105, -0.19271833), (-0.53928155, -0.6175991), (-0.39373398, -0.22322804), (-0.92405885, -0.0018303908), (-0.44614995, -0.12670264), (-0.63029134, -0.014671506), (-0.7130037, 0.0077445386), (-0.5734555, -0.03652972), (-0.7681549, -0.0071711745), (-0.45173725, -0.5601685), (-0.49493375, -0.592903), (-0.8294152, -0.041751426), (-0.4673768, -0.5202774), (-0.42846298, -0.4910648), (-0.50912964, -0.11435266), (-0.8736759, -0.017953103), (-0.7167045, -0.6016807), (-0.39925653, -0.27655277), (-0.687804, -0.038714636), (-0.5637428, -0.08423746), (-0.44939047, -0.45844316), (-0.41043758, -0.36157042), (-0.46758446, -0.28070414), (-0.9447218, -0.14549612), (-0.47232074, -0.15359995), (-0.44414806, -0.21784317), (-0.7134597, -0.04412868), (-0.46191645, -0.34252453), (-0.65272754, -0.10672374), (-0.64247924, -0.57337606), (-0.7619133, -0.07445208), (-0.900171, -0.5762783), (-0.7646312, -0.6438442), (-0.5688674, -0.13035597), (-0.54762924, -0.533358), (-0.49500448, -0.19010778), (-0.60012174, -0.55664223), (-0.4458307, -0.42164528), (-0.8844556, -0.11725872), (-1.010276, -0.36581972), (-0.96943414, -0.48569295), (-0.52681226, -0.13878505), (-0.5407717, -0.47633827), (-0.81079674, -0.6055951), (-0.97227895, -0.31705144), (-0.4705489, -0.2426722), (-0.6964627, -0.5384002), (-0.9501643, -0.40941033), (-0.49841657, -0.28874066), (-0.49887726, -0.39892355), (-0.83793557, -0.4933918), (-0.7974578, -0.07957051), (-0.6011624, -0.13481715), (-0.4856419, -0.24007373), (-0.8764593, -0.47302952), (-0.5587018, -0.14764148), (-0.53239405, -0.18624365), (-0.5119204, -0.20819966), (-0.80709326, -0.50952584), (-0.8351266, -0.17057851), (-0.88502413, -0.35910147), (-0.5210321, -0.33839464), (-0.53172964, -0.21259345), (-0.91358113, -0.27525198), (-0.5150814, -0.24182844), (-0.87858427, -0.23441355), (-0.8915485, -0.42623022), (-0.6461284, -0.49118483), (-0.55549634, -0.21441679), (-0.7989406, -0.18095554), (-0.6106469, -0.16540729), (-0.71628374, -0.1507945), (-0.73721015, -0.18966624), (-0.8364508, -0.35391885), (-0.61740476, -0.4718806), (-0.8576389, -0.3907177), (-0.846266, -0.21967575), (-0.54898846, -0.24206965), (-0.68551433, -0.16637167), (-0.7652386, -0.46077645), (-0.53964347, -0.27727196), (-0.5839634, -0.20434712), (-0.60162413, -0.44395116), (-0.57939523, -0.4159588), (-0.5739693, -0.38275757), (-0.54901063, -0.31295428), (-0.8177797, -0.40474355), (-0.5810596, -0.23865902), (-0.6286264, -0.20856547), (-0.6600818, -0.20916446), (-0.7186189, -0.46182114), (-0.5752788, -0.2901665), (-0.7683416, -0.20571858), (-0.79017395, -0.39781845), (-0.5890681, -0.3384041), (-0.5987154, -0.2679224), (-0.6706145, -0.44735312), (-0.6191857, -0.24326785), (-0.82372326, -0.30445722), (-0.79767025, -0.24273181), (-0.8091797, -0.28727713), (-0.70080703, -0.21509546), (-0.6353226, -0.4039912), (-0.60726714, -0.31871283), (-0.6418308, -0.24130337), (-0.62544954, -0.2829072), (-0.8110099, -0.35964367), (-0.7376418, -0.4270021), (-0.75533915, -0.23585361), (-0.6317172, -0.3705916), (-0.69707507, -0.42250267), (-0.7242681, -0.23824033), (-0.76720226, -0.39028615), (-0.69068617, -0.25132814), (-0.658875, -0.39869523), (-0.7817448, -0.27107763), (-0.7992734, -0.3507423), (-0.6415624, -0.32417566), (-0.65608746, -0.2898881), (-0.76615953, -0.34269547), (-0.75657266, -0.26028576), (-0.69490355, -0.39499074), (-0.65480655, -0.36484563), (-0.72252476, -0.2617192), (-0.6894601, -0.29374588), (-0.665886, -0.33063206), (-0.7300415, -0.32766196), (-0.6847745, -0.34747443)] (
            interpolation = "vertex"
        )
    }
}

