#usda 1.0

def "Isis_dABF"
{
    def Mesh "Isis_dABF"
    {
        int[] faceVertexCounts = [3, 3, 3, 3, 3, 3, 3, 3, 3, 3, 3, 3, 3, 3, 3, 3, 3, 3, 3, 3, 3, 3, 3, 3, 3, 3, 3, 3, 3, 3, 3, 3, 3, 3, 3, 3, 3, 3, 3, 3, 3, 3, 3, 3, 3, 3, 3, 3, 3, 3, 3, 3, 3, 3, 3, 3, 3, 3, 3, 3, 3, 3, 3, 3, 3, 3, 3, 3, 3, 3, 3, 3, 3, 3, 3, 3, 3, 3, 3, 3, 3, 3, 3, 3, 3, 3, 3, 3, 3, 3, 3, 3, 3, 3, 3, 3, 3, 3, 3, 3, 3, 3, 3, 3, 3, 3, 3, 3, 3, 3, 3, 3, 3, 3, 3, 3, 3, 3, 3, 3, 3, 3, 3, 3, 3, 3, 3, 3, 3, 3, 3, 3, 3, 3, 3, 3, 3, 3, 3, 3, 3, 3, 3, 3, 3, 3, 3, 3, 3, 3, 3, 3, 3, 3, 3, 3, 3, 3, 3, 3, 3, 3, 3, 3, 3, 3, 3, 3, 3, 3, 3, 3, 3, 3, 3, 3, 3, 3, 3, 3, 3, 3, 3, 3, 3, 3, 3, 3, 3, 3, 3, 3, 3, 3, 3, 3, 3, 3, 3, 3, 3, 3, 3, 3, 3, 3, 3, 3, 3, 3, 3, 3, 3, 3, 3, 3, 3, 3, 3, 3, 3, 3, 3, 3, 3, 3, 3, 3, 3, 3, 3, 3, 3, 3, 3, 3, 3, 3, 3, 3, 3, 3, 3, 3, 3, 3, 3, 3, 3, 3, 3, 3, 3, 3, 3, 3, 3, 3, 3, 3, 3, 3, 3, 3, 3, 3, 3, 3, 3, 3, 3, 3, 3, 3, 3, 3, 3, 3, 3, 3, 3, 3, 3, 3, 3, 3, 3, 3, 3, 3, 3, 3, 3, 3, 3, 3, 3, 3, 3, 3, 3, 3, 3, 3, 3, 3, 3, 3, 3, 3, 3, 3, 3, 3, 3, 3, 3, 3, 3, 3, 3, 3, 3, 3, 3, 3, 3, 3, 3, 3, 3, 3, 3, 3, 3, 3, 3, 3, 3, 3, 3, 3, 3, 3, 3, 3, 3, 3, 3, 3, 3, 3, 3, 3, 3, 3, 3, 3, 3, 3, 3, 3, 3, 3, 3, 3, 3, 3, 3, 3, 3, 3, 3, 3, 3, 3, 3, 3, 3, 3, 3, 3, 3, 3, 3, 3, 3, 3, 3, 3, 3, 3, 3, 3, 3, 3, 3, 3, 3, 3, 3, 3, 3, 3, 3, 3, 3, 3, 3, 3, 3, 3, 3, 3, 3, 3, 3, 3, 3, 3, 3, 3, 3, 3, 3, 3, 3, 3, 3, 3, 3, 3, 3, 3, 3, 3, 3, 3, 3, 3, 3, 3, 3, 3, 3, 3, 3, 3, 3, 3, 3, 3, 3, 3, 3, 3, 3, 3, 3, 3, 3, 3, 3, 3, 3, 3, 3, 3, 3, 3, 3, 3, 3, 3, 3, 3, 3, 3, 3, 3, 3, 3, 3, 3, 3, 3, 3, 3, 3, 3, 3, 3, 3, 3, 3, 3, 3, 3, 3, 3, 3, 3, 3, 3, 3, 3, 3, 3, 3, 3, 3, 3, 3, 3, 3, 3, 3, 3, 3, 3, 3, 3, 3, 3, 3, 3, 3, 3, 3, 3, 3, 3, 3, 3, 3, 3, 3, 3, 3, 3, 3, 3, 3, 3, 3, 3, 3, 3, 3, 3, 3, 3, 3, 3, 3, 3, 3, 3, 3, 3, 3, 3, 3, 3, 3, 3, 3, 3, 3, 3, 3, 3, 3, 3, 3, 3, 3, 3, 3, 3, 3, 3, 3, 3, 3, 3, 3, 3, 3, 3, 3, 3, 3, 3, 3, 3, 3, 3, 3, 3, 3, 3, 3, 3, 3, 3, 3, 3, 3, 3, 3, 3, 3, 3, 3, 3, 3, 3, 3, 3, 3, 3, 3, 3, 3, 3, 3, 3, 3, 3, 3, 3, 3, 3, 3, 3, 3, 3, 3, 3, 3, 3, 3, 3, 3, 3, 3, 3, 3, 3, 3, 3, 3, 3, 3, 3, 3, 3, 3, 3, 3, 3, 3, 3, 3, 3, 3, 3, 3, 3, 3, 3, 3, 3, 3, 3, 3, 3, 3, 3, 3, 3, 3, 3, 3, 3, 3, 3, 3, 3, 3, 3, 3, 3, 3, 3, 3, 3, 3, 3, 3, 3, 3, 3, 3, 3, 3, 3, 3, 3, 3, 3, 3, 3, 3, 3, 3, 3, 3, 3, 3, 3, 3, 3, 3, 3, 3, 3, 3, 3, 3, 3, 3, 3, 3, 3, 3, 3, 3, 3, 3, 3, 3, 3, 3, 3, 3, 3, 3, 3, 3, 3, 3, 3, 3, 3, 3, 3, 3, 3, 3, 3, 3, 3, 3, 3, 3, 3, 3, 3, 3, 3, 3, 3, 3, 3, 3, 3, 3, 3, 3, 3, 3, 3, 3, 3, 3, 3, 3, 3, 3, 3, 3, 3, 3, 3, 3, 3, 3, 3, 3, 3, 3, 3, 3, 3, 3, 3, 3, 3, 3, 3, 3, 3, 3, 3, 3, 3, 3, 3, 3, 3, 3, 3, 3, 3, 3, 3, 3, 3, 3, 3, 3, 3, 3, 3, 3, 3, 3, 3, 3, 3, 3, 3, 3, 3, 3, 3, 3, 3, 3, 3, 3, 3, 3, 3, 3, 3, 3, 3, 3, 3, 3, 3, 3, 3, 3, 3, 3, 3, 3, 3, 3, 3, 3, 3, 3, 3, 3]
        int[] faceVertexIndices = [457, 456, 451, 455, 457, 452, 457, 455, 454, 451, 452, 457, 456, 457, 454, 453, 456, 454, 453, 450, 456, 447, 455, 452, 448, 455, 447, 456, 442, 451, 443, 453, 454, 456, 445, 449, 445, 456, 450, 444, 452, 451, 442, 456, 449, 453, 443, 441, 448, 454, 455, 454, 448, 443, 441, 450, 453, 444, 439, 452, 440, 444, 451, 445, 446, 449, 450, 441, 438, 442, 437, 451, 439, 447, 452, 451, 437, 440, 438, 445, 450, 436, 446, 445, 435, 448, 447, 442, 449, 446, 431, 441, 443, 435, 443, 448, 445, 430, 436, 423, 437, 442, 447, 433, 435, 439, 444, 432, 433, 447, 439, 444, 440, 426, 446, 436, 442, 439, 424, 433, 434, 431, 443, 429, 430, 445, 438, 429, 445, 426, 432, 444, 434, 443, 435, 423, 442, 436, 428, 436, 430, 431, 434, 419, 431, 402, 441, 416, 423, 436, 438, 441, 402, 420, 440, 437, 420, 426, 440, 423, 409, 437, 427, 434, 435, 402, 422, 438, 414, 424, 439, 439, 432, 414, 428, 403, 436, 413, 414, 432, 422, 429, 438, 437, 409, 420, 427, 435, 425, 403, 416, 436, 433, 425, 435, 416, 403, 405, 426, 420, 397, 432, 412, 413, 401, 402, 431, 425, 433, 421, 389, 406, 429, 430, 429, 406, 427, 419, 434, 428, 430, 395, 431, 419, 408, 419, 427, 418, 424, 421, 433, 422, 399, 429, 390, 405, 403, 432, 426, 412, 403, 428, 393, 404, 412, 426, 401, 431, 408, 421, 424, 415, 406, 395, 430, 399, 389, 429, 427, 425, 417, 393, 428, 395, 417, 418, 427, 409, 423, 388, 404, 426, 397, 421, 417, 425, 409, 376, 420, 414, 391, 424, 397, 420, 366, 411, 418, 417, 391, 415, 424, 380, 388, 423, 417, 421, 410, 400, 419, 418, 416, 405, 396, 416, 380, 423, 404, 372, 412, 402, 399, 422, 421, 415, 410, 366, 420, 376, 402, 360, 399, 398, 411, 417, 415, 391, 378, 410, 407, 417, 379, 391, 414, 419, 400, 382, 382, 408, 419, 418, 411, 400, 407, 398, 417, 384, 380, 416, 396, 384, 416, 410, 415, 378, 401, 408, 358, 374, 390, 403, 413, 379, 414, 376, 409, 346, 406, 389, 368, 407, 392, 398, 348, 402, 401, 350, 379, 413, 413, 412, 350, 410, 378, 394, 372, 350, 412, 398, 400, 411, 394, 407, 410, 388, 346, 409, 366, 376, 359, 381, 389, 399, 378, 391, 352, 408, 382, 358, 394, 392, 407, 368, 395, 406, 377, 405, 390, 404, 397, 364, 402, 348, 356, 391, 379, 357, 396, 405, 377, 364, 372, 404, 400, 398, 386, 403, 393, 374, 382, 400, 363, 350, 367, 379, 360, 402, 356, 400, 386, 385, 401, 358, 348, 385, 363, 400, 396, 370, 384, 399, 360, 381, 390, 369, 377, 398, 392, 386, 364, 397, 366, 396, 377, 370, 394, 378, 383, 387, 392, 394, 353, 393, 395, 388, 373, 346, 368, 389, 341, 375, 383, 378, 368, 353, 395, 383, 387, 394, 393, 353, 374, 392, 387, 386, 352, 391, 357, 369, 390, 374, 384, 361, 380, 389, 381, 341, 366, 359, 331, 383, 365, 387, 373, 388, 380, 386, 387, 365, 365, 385, 386, 372, 364, 342, 363, 385, 371, 379, 351, 357, 385, 365, 371, 378, 352, 332, 349, 358, 382, 384, 370, 361, 346, 373, 320, 371, 365, 354, 375, 365, 383, 363, 349, 382, 338, 341, 381, 365, 375, 355, 348, 358, 335, 360, 338, 381, 362, 320, 373, 380, 361, 373, 331, 340, 366, 369, 374, 328, 367, 351, 379, 375, 378, 332, 370, 377, 369, 345, 368, 341, 359, 376, 346, 375, 332, 355, 328, 374, 353, 363, 371, 344, 350, 372, 343, 322, 363, 344, 373, 361, 362, 372, 342, 343, 354, 344, 371, 353, 368, 345, 367, 323, 351, 323, 367, 350, 340, 339, 366, 347, 352, 357, 364, 366, 339, 346, 320, 325, 360, 336, 338, 365, 355, 354, 339, 342, 364, 322, 349, 363, 345, 341, 319, 360, 356, 336, 346, 331, 359, 337, 358, 349, 334, 344, 354, 337, 335, 358, 347, 357, 324, 357, 351, 324, 321, 356, 348, 321, 336, 356, 333, 328, 353, 330, 354, 355, 322, 326, 349, 355, 332, 330, 323, 329, 351, 334, 354, 330, 345, 333, 353, 347, 332, 352, 324, 351, 329, 350, 343, 323, 326, 337, 349, 335, 337, 314, 338, 336, 308, 342, 339, 303, 348, 335, 321, 332, 347, 324, 329, 317, 324, 331, 346, 325, 344, 334, 318, 340, 331, 313, 333, 298, 328, 319, 327, 345, 327, 333, 345, 342, 310, 343, 322, 344, 318, 323, 343, 310, 303, 310, 342, 313, 304, 340, 306, 319, 341, 338, 306, 341, 340, 304, 339, 304, 303, 339, 292, 325, 320, 308, 306, 338, 323, 285, 329, 311, 318, 334, 316, 330, 332, 324, 312, 332, 326, 314, 337, 321, 308, 336, 314, 321, 335, 311, 334, 330, 327, 298, 333, 316, 332, 312, 308, 321, 280, 325, 313, 331, 330, 316, 311, 322, 318, 309, 298, 327, 293, 285, 317, 329, 326, 322, 307, 315, 301, 290, 317, 302, 324, 327, 319, 293, 314, 326, 307, 292, 313, 325, 290, 311, 315, 293, 295, 298, 302, 312, 324, 269, 290, 301, 316, 315, 311, 302, 317, 305, 315, 316, 294, 310, 285, 323, 309, 307, 322, 313, 292, 276, 307, 296, 314, 319, 306, 300, 280, 321, 314, 287, 318, 311, 300, 293, 319, 287, 309, 318, 285, 305, 317, 312, 294, 316, 313, 297, 304, 309, 299, 307, 294, 286, 315, 299, 289, 307, 315, 286, 301, 296, 275, 314, 275, 280, 314, 271, 298, 295, 291, 293, 300, 276, 297, 313, 302, 294, 312, 311, 290, 287, 281, 305, 261, 306, 308, 249, 308, 280, 248, 285, 261, 305, 242, 285, 310, 303, 242, 310, 299, 309, 287, 305, 281, 283, 288, 289, 299, 248, 249, 308, 289, 296, 307, 294, 302, 273, 306, 249, 300, 302, 305, 283, 274, 278, 281, 281, 261, 274, 297, 276, 267, 299, 287, 266, 304, 272, 303, 272, 304, 297, 242, 303, 272, 273, 302, 270, 302, 283, 270, 301, 286, 269, 291, 300, 249, 275, 296, 257, 288, 299, 266, 280, 275, 238, 224, 218, 285, 279, 291, 249, 272, 297, 267, 290, 269, 284, 296, 289, 257, 271, 295, 293, 245, 279, 249, 294, 273, 286, 259, 291, 279, 293, 291, 271, 231, 276, 292, 291, 259, 258, 258, 271, 291, 277, 287, 290, 284, 277, 290, 288, 257, 289, 272, 267, 265, 285, 218, 261, 282, 286, 273, 286, 268, 269, 266, 257, 288, 277, 266, 287, 268, 286, 282, 285, 242, 224, 196, 274, 261, 282, 263, 268, 262, 269, 268, 276, 231, 250, 248, 280, 220, 269, 277, 284, 260, 270, 283, 256, 281, 278, 283, 281, 260, 277, 269, 264, 254, 247, 273, 273, 263, 282, 278, 253, 256, 230, 279, 245, 256, 260, 281, 258, 235, 271, 238, 220, 280, 270, 254, 273, 279, 230, 259, 274, 253, 278, 236, 265, 267, 263, 273, 252, 264, 266, 277, 250, 267, 276, 251, 258, 259, 268, 229, 262, 242, 272, 191, 275, 257, 238, 274, 196, 253, 247, 252, 273, 255, 264, 269, 236, 267, 244, 265, 191, 272, 200, 265, 236, 270, 260, 254, 269, 262, 255, 263, 229, 268, 244, 267, 250, 250, 231, 246, 264, 257, 266, 233, 254, 260, 252, 240, 263, 265, 200, 191, 255, 262, 241, 259, 230, 216, 243, 257, 264, 255, 243, 264, 229, 263, 240, 262, 229, 241, 245, 249, 211, 218, 196, 261, 207, 251, 259, 260, 256, 217, 217, 233, 260, 259, 216, 207, 227, 235, 258, 239, 243, 255, 241, 228, 237, 256, 253, 221, 226, 245, 211, 258, 251, 227, 243, 238, 257, 229, 228, 241, 254, 233, 232, 249, 248, 214, 221, 217, 256, 239, 255, 241, 252, 234, 240, 232, 247, 254, 244, 250, 212, 196, 221, 253, 247, 234, 252, 207, 227, 251, 223, 228, 229, 232, 215, 247, 240, 234, 222, 246, 212, 250, 236, 244, 192, 214, 211, 249, 220, 214, 248, 234, 247, 215, 183, 212, 246, 226, 230, 245, 239, 241, 209, 238, 243, 225, 217, 213, 233, 212, 192, 244, 241, 237, 193, 243, 239, 225, 206, 193, 237, 229, 240, 219, 224, 242, 195, 195, 242, 191, 236, 199, 200, 209, 241, 193, 222, 219, 240, 190, 237, 228, 209, 225, 239, 220, 238, 225, 206, 237, 190, 236, 192, 199, 232, 233, 198, 226, 205, 230, 227, 179, 235, 222, 234, 208, 194, 215, 232, 234, 215, 208, 233, 213, 198, 232, 198, 194, 210, 223, 229, 218, 224, 186, 188, 193, 206, 205, 216, 230, 219, 210, 229, 228, 223, 190, 212, 183, 187, 186, 197, 218, 195, 174, 224, 189, 179, 227, 207, 189, 227, 216, 203, 207, 211, 205, 226, 225, 209, 204, 220, 225, 204, 217, 221, 177, 174, 186, 224, 210, 190, 223, 208, 219, 222, 177, 221, 196, 204, 214, 220, 219, 208, 210, 193, 201, 209, 196, 218, 197, 180, 198, 213, 217, 177, 213, 167, 187, 183, 182, 208, 215, 205, 203, 216, 211, 214, 202, 215, 194, 182, 172, 191, 200, 204, 202, 214, 175, 196, 197, 201, 193, 184, 177, 180, 213, 187, 192, 212, 211, 202, 205, 190, 210, 208, 203, 185, 207, 204, 209, 201, 190, 208, 182, 180, 178, 198, 185, 189, 207, 188, 206, 190, 203, 205, 202, 201, 185, 203, 181, 172, 200, 181, 199, 192, 202, 204, 201, 202, 201, 203, 198, 165, 194, 184, 185, 201, 199, 181, 200, 174, 195, 173, 184, 193, 161, 198, 178, 165, 186, 175, 197, 189, 185, 169, 177, 196, 175, 191, 173, 195, 165, 182, 194, 187, 166, 192, 184, 171, 185, 191, 172, 151, 179, 189, 163, 173, 176, 174, 188, 161, 193, 192, 166, 181, 151, 173, 191, 186, 174, 149, 162, 169, 185, 188, 190, 170, 175, 186, 158, 164, 170, 190, 164, 190, 182, 163, 189, 169, 170, 161, 188, 165, 154, 182, 187, 167, 166, 163, 160, 179, 186, 149, 158, 185, 171, 162, 181, 166, 168, 184, 161, 171, 180, 155, 178, 181, 168, 138, 139, 170, 164, 180, 177, 144, 174, 176, 141, 164, 182, 154, 166, 167, 159, 156, 155, 180, 181, 138, 172, 156, 180, 144, 179, 160, 136, 162, 171, 152, 155, 165, 178, 177, 175, 144, 176, 173, 141, 148, 161, 170, 175, 158, 144, 141, 149, 174, 141, 173, 151, 131, 138, 168, 138, 151, 172, 157, 166, 159, 154, 165, 146, 171, 161, 152, 121, 148, 170, 139, 121, 170, 145, 168, 166, 153, 169, 162, 152, 161, 137, 153, 163, 169, 164, 142, 139, 140, 146, 165, 168, 145, 131, 157, 145, 166, 161, 148, 147, 165, 155, 140, 160, 163, 150, 149, 129, 158, 154, 142, 164, 153, 150, 163, 152, 127, 162, 127, 153, 162, 161, 147, 137, 157, 159, 135, 150, 136, 160, 155, 156, 126, 120, 150, 153, 129, 144, 158, 152, 137, 133, 135, 145, 157, 128, 141, 151, 122, 121, 139, 119, 146, 140, 145, 135, 134, 144, 126, 156, 136, 150, 143, 123, 129, 149, 126, 140, 155, 146, 142, 154, 127, 120, 153, 147, 148, 130, 152, 133, 127, 138, 128, 151, 120, 143, 150, 134, 96, 145, 123, 149, 141, 143, 132, 136, 109, 142, 146, 92, 103, 135, 126, 144, 125, 137, 147, 95, 121, 130, 148, 147, 130, 95, 119, 109, 146, 96, 131, 145, 142, 109, 86, 137, 101, 133, 124, 132, 143, 143, 120, 112, 127, 133, 98, 129, 125, 144, 143, 112, 124, 86, 102, 139, 142, 86, 139, 131, 113, 138, 128, 123, 141, 119, 140, 99, 140, 126, 99, 102, 122, 139, 113, 128, 138, 125, 129, 114, 137, 95, 101, 131, 96, 94, 103, 134, 135, 123, 117, 129, 88, 130, 121, 134, 103, 96, 101, 98, 133, 128, 113, 118, 132, 124, 84, 113, 131, 94, 117, 123, 115, 88, 95, 130, 129, 117, 114, 116, 123, 128, 118, 116, 128, 80, 96, 103, 97, 127, 98, 121, 122, 81, 120, 127, 97, 126, 125, 93, 109, 119, 83, 90, 84, 124, 108, 118, 113, 93, 99, 126, 93, 125, 114, 124, 112, 90, 123, 116, 115, 108, 105, 118, 106, 114, 117, 102, 81, 122, 81, 88, 121, 97, 112, 120, 99, 83, 119, 117, 115, 111, 116, 118, 105, 117, 110, 106, 103, 92, 71, 111, 110, 117, 106, 82, 114, 116, 107, 115, 113, 94, 79, 105, 107, 116, 111, 115, 107, 86, 109, 85, 93, 114, 82, 87, 90, 112, 91, 98, 101, 113, 100, 108, 100, 113, 79, 106, 111, 107, 112, 97, 87, 106, 110, 111, 83, 85, 109, 105, 104, 107, 100, 79, 73, 82, 106, 104, 100, 82, 104, 108, 100, 105, 104, 106, 107, 86, 68, 102, 100, 104, 105, 81, 102, 62, 78, 94, 96, 97, 98, 89, 80, 103, 71, 68, 62, 102, 74, 91, 101, 91, 77, 98, 99, 93, 76, 101, 95, 74, 66, 88, 81, 73, 82, 100, 76, 83, 99, 98, 77, 89, 97, 89, 87, 96, 80, 78, 95, 88, 74, 82, 75, 93, 94, 78, 79, 75, 76, 93, 65, 84, 90, 67, 87, 89, 92, 70, 71, 77, 91, 74, 90, 87, 65, 64, 65, 87, 77, 67, 89, 73, 79, 56, 72, 86, 85, 78, 80, 69, 88, 66, 74, 67, 64, 87, 72, 68, 86, 83, 72, 85, 73, 53, 82, 76, 72, 83, 53, 75, 82, 66, 81, 62, 78, 63, 79, 71, 69, 80, 63, 56, 79, 77, 74, 52, 70, 49, 71, 69, 63, 78, 72, 61, 68, 77, 52, 55, 76, 75, 59, 55, 57, 77, 69, 71, 54, 60, 65, 64, 77, 57, 67, 74, 66, 47, 72, 76, 59, 53, 59, 75, 47, 52, 74, 65, 60, 58, 53, 73, 56, 66, 62, 45, 72, 59, 61, 54, 71, 49, 64, 67, 50, 49, 70, 46, 69, 54, 63, 61, 62, 68, 57, 50, 67, 45, 47, 66, 56, 41, 53, 61, 59, 48, 54, 44, 63, 60, 64, 50, 54, 49, 29, 51, 52, 47, 44, 56, 63, 45, 62, 33, 62, 61, 33, 61, 48, 37, 37, 33, 61, 45, 33, 43, 42, 50, 57, 50, 58, 60, 27, 48, 59, 53, 36, 59, 36, 27, 59, 58, 50, 32, 44, 54, 30, 39, 42, 57, 39, 57, 55, 44, 34, 56, 41, 56, 34, 55, 52, 39, 29, 30, 54, 40, 52, 51, 35, 32, 50, 48, 25, 37, 41, 36, 53, 51, 47, 31, 40, 39, 52, 49, 46, 23, 31, 40, 51, 42, 35, 50, 29, 49, 23, 47, 45, 22, 42, 39, 38, 37, 25, 28, 48, 27, 25, 41, 34, 19, 47, 22, 20, 20, 31, 47, 40, 31, 24, 44, 30, 26, 45, 43, 22, 41, 10, 36, 34, 44, 16, 26, 16, 44, 33, 22, 43, 38, 35, 42, 41, 19, 10, 39, 40, 24, 39, 24, 15, 39, 15, 38, 28, 18, 37, 34, 16, 12, 35, 38, 21, 38, 15, 21, 18, 33, 37, 27, 36, 10, 21, 32, 35, 12, 19, 34, 30, 1, 26, 32, 21, 11, 25, 27, 7, 22, 33, 18, 25, 13, 28, 24, 31, 20, 1, 30, 29, 23, 1, 29, 18, 28, 13, 27, 10, 7, 5, 16, 26, 1, 5, 26, 20, 4, 24, 13, 25, 7, 20, 22, 17, 18, 13, 9, 24, 4, 15, 22, 18, 17, 21, 15, 11, 17, 18, 14, 8, 20, 17, 8, 4, 20, 12, 10, 19, 18, 9, 14, 14, 8, 17, 16, 5, 0, 4, 3, 15, 3, 11, 15, 0, 2, 12, 14, 9, 8, 9, 13, 6, 13, 7, 6, 10, 12, 2, 9, 2, 8, 7, 10, 2, 6, 2, 9, 2, 6, 7, 0, 12, 16]
        point3f[] points = [(0.016077904, -0.112803, 1.103514), (0.027185913, -0.048788, 0.99725), (0.044902906, -0.163664, 1.088783), (-0.12891209, -0.325645, 1.044783), (-0.14577308, -0.379146, 1.028848), (0.023596913, -0.098917, 1.031609), (-0.0063930904, -0.258325, 1.064904), (0.01655891, -0.212328, 1.043524), (-0.118509084, -0.423208, 1.019937), (-0.056039087, -0.331748, 1.043877), (0.051732916, -0.157644, 0.967599), (-0.12520407, -0.292118, 0.987975), (0.059454918, -0.114674, 0.974259), (-0.03306208, -0.267662, 0.986977), (-0.09240508, -0.405088, 1.021914), (-0.14378008, -0.321319, 0.97668), (0.064884916, -0.081311, 0.908716), (-0.12120509, -0.382051, 0.982403), (-0.08182807, -0.33893, 0.937498), (0.07515992, -0.117233, 0.891284), (-0.14313509, -0.358807, 0.970591), (-0.12961607, -0.267835, 0.928782), (-0.122077085, -0.35482, 0.918947), (0.031326924, -0.018185, 0.879296), (-0.16516508, -0.301124, 0.877611), (-0.019273072, -0.220449, 0.861323), (0.04210592, -0.0616, 0.907348), (0.03458093, -0.168417, 0.83714), (-0.05211207, -0.266025, 0.857175), (0.04824093, -0.013412999, 0.811111), (0.04695593, -0.033082, 0.816819), (-0.16636208, -0.302123, 0.824343), (-0.11928907, -0.176583, 0.803426), (-0.096309066, -0.296711, 0.779587), (0.090551935, -0.07806, 0.80559), (-0.12552908, -0.20433, 0.831471), (0.06716494, -0.13964, 0.800331), (-0.066033065, -0.257488, 0.742204), (-0.15929407, -0.227251, 0.82784), (-0.17563207, -0.230018, 0.779911), (-0.17935006, -0.25785404, 0.783901), (0.09636294, -0.093865, 0.70739), (-0.15209207, -0.192707, 0.774787), (-0.11749806, -0.302841, 0.770448), (0.087111935, -0.051287, 0.762667), (-0.13869205, -0.269709, 0.678761), (0.03377794, 0.027891003, 0.68315), (-0.16195504, -0.260679, 0.683618), (-0.0027180593, -0.183066, 0.70589), (0.057909936, 0.024459003, 0.662958), (-0.12946907, -0.149914, 0.692893), (-0.17642304, -0.25629702, 0.721796), (-0.17747305, -0.20472, 0.621137), (0.10611295, -0.090056, 0.600937), (0.06455995, -0.014260999, 0.639045), (-0.17700106, -0.177851, 0.628463), (0.102652945, -0.050543, 0.630986), (-0.16578306, -0.153779, 0.634523), (-0.11219306, -0.095072, 0.656623), (0.06845096, -0.132054, 0.620818), (-0.121967055, -0.113919, 0.610842), (-0.050341047, -0.203819, 0.611044), (-0.107129045, -0.212114, 0.514376), (0.10071195, -0.018937998, 0.579668), (-0.13053304, -0.07717701, 0.546599), (-0.108310044, -0.033196002, 0.504616), (-0.15610805, -0.208565, 0.515895), (-0.16477703, -0.098577, 0.534838), (-0.06810605, -0.1917, 0.505877), (0.07336795, 0.012397001, 0.546845), (0.06387496, 0.09377, 0.393428), (0.07901296, 0.065104, 0.455388), (-0.008031044, -0.167405, 0.523483), (0.15709196, -0.040343996, 0.464888), (-0.17596805, -0.183221, 0.513435), (0.112878956, -0.112536, 0.522623), (0.07896096, -0.13795, 0.515685), (-0.18078405, -0.131206, 0.523381), (0.13341396, 0.019375002, 0.448831), (0.15792696, -0.0071429983, 0.440846), (0.08454996, 0.041898, 0.420311), (-0.13982002, -0.194687, 0.40436), (0.15918097, -0.106617, 0.379823), (0.06364396, -0.155944, 0.431139), (-0.09302004, 0.025482, 0.403471), (0.009318964, -0.162595, 0.433501), (-0.040004026, -0.165728, 0.343508), (-0.16834904, -0.017207002, 0.434529), (-0.17841303, -0.170098, 0.34874296), (-0.19341505, -0.050280005, 0.42881697), (-0.13749103, 0.021085, 0.385353), (-0.20367503, -0.106338, 0.41961598), (0.08853797, 0.106659, 0.306945), (0.13513097, -0.128502, 0.366559), (0.16587096, 0.017039001, 0.373104), (-0.20467603, -0.13552, 0.31671298), (0.16107997, 0.041623004, 0.294228), (-0.19989704, -0.015617003, 0.35576198), (-0.21647403, -0.050049003, 0.32297698), (0.09710897, -0.16113698, 0.315766), (0.18561897, -0.051637, 0.37759602), (-0.21421602, -0.10723901, 0.33505598), (-0.07783503, -0.164398, 0.306499), (0.09617397, 0.063148, 0.306152), (0.20366597, -0.07774, 0.38404402), (0.24100398, -0.051264998, 0.37173304), (0.18820398, -0.122032, 0.37757003), (0.25041997, -0.078127, 0.36857602), (0.21654098, -0.039119996, 0.36655104), (0.030049976, -0.173703, 0.294606), (0.21624897, -0.117029995, 0.36222303), (0.24113397, -0.11028999, 0.36343002), (-0.15843703, 0.047813997, 0.283438), (0.19292697, -0.029781999, 0.33547503), (0.16174197, -0.116905, 0.329586), (0.24337196, -0.10027399, 0.33716503), (0.25463298, -0.054646995, 0.33500203), (0.21270996, -0.120171, 0.32207304), (0.24702297, -0.039162997, 0.33533502), (0.072265975, -0.169851, 0.268699), (-0.18455704, 0.03712, 0.25874096), (-0.16840102, -0.147543, 0.24401699), (-0.13016003, -0.169199, 0.289944), (0.21747497, -0.084337994, 0.26855803), (-0.11318002, 0.060911994, 0.294963), (0.15866399, -0.093615, 0.28153), (0.13068898, -0.135566, 0.24992801), (-0.20829302, 0.011365998, 0.22611098), (0.22463597, -0.0418, 0.27790603), (0.18707798, -0.09473, 0.27052504), (-0.19586103, -0.135184, 0.25941098), (0.18383698, 0.032316, 0.20867501), (-0.07554802, 0.081577, 0.280555), (-0.22152402, -0.046314005, 0.25519797), (0.14460298, 0.077842005, 0.24295701), (0.10831698, 0.100313, 0.22434302), (-0.07306101, 0.116018, 0.196849), (-0.21779001, -0.061669003, 0.20826398), (0.18859799, -0.005243998, 0.17329001), (-0.11401202, -0.123357, 0.15842699), (0.09713798, -0.15501298, 0.21976401), (0.22867498, -0.042548, 0.21595402), (-0.011211018, -0.160649, 0.227921), (-0.12806103, 0.093922995, 0.23227298), (0.16049299, -0.067399, 0.18255301), (0.16524498, 0.070471, 0.19465302), (0.042518985, -0.161994, 0.204755), (-0.208553, -0.085999, 0.19149598), (-0.18729602, -0.118088, 0.20477399), (0.22088899, -0.059408996, 0.13423401), (-0.13764803, 0.09746699, 0.20194699), (0.22524299, 0.011561003, 0.12143602), (-0.20781401, 0.00044799753, 0.16429499), (-0.17552902, 0.068474, 0.19093598), (-0.002699011, -0.141626, 0.143633), (0.118822984, -0.120405, 0.15293501), (0.138663, -0.095887996, 0.14880502), (0.14381596, 0.09025801, 0.18329601), (0.18747099, -0.071496, 0.13332601), (0.10682798, 0.101085, 0.16263102), (-0.11193501, 0.103474, 0.15079999), (-0.18205401, -0.048923, 0.090313986), (-0.18461101, 0.029890995, 0.115023986), (-0.13853501, 0.082012996, 0.112327985), (-0.067503, -0.134737, 0.07773899), (0.060580995, -0.119712, 0.083587006), (0.14991799, 0.062444005, 0.08738601), (0.10195499, 0.09025, 0.09888301), (0.17485899, 0.034443, 0.11253302), (-0.16281402, 0.055008996, 0.093717985), (-0.144823, -0.095161006, 0.102609985), (-0.19151202, -0.0079930015, 0.09127598), (0.211873, 0.042198002, 0.031949017), (0.24146, 0.018131003, 0.060523022), (0.23707, -0.022737999, 0.01809602), (0.172595, -0.056494996, 0.044093017), (0.242382, -0.0087239975, 0.083617024), (0.135608, -0.029110998, 0.028174011), (0.089017995, -0.098254, 0.053749006), (-0.073682, 0.094942, 0.009287993), (0.120635994, -0.067556, 0.055750012), (0.180108, 0.020864002, 0.053183015), (-0.027656998, -0.124401, 0.0015129976), (0.104811005, 0.095038, -0.052451994), (-0.168464, -0.012623002, -0.005909015), (-0.164708, 0.033328995, 0.0052939854), (0.214197, -0.048828997, 0.02018302), (0.113831, 0.074469, 0.01876501), (-0.13196298, -0.08551301, 0.013736988), (-0.116361, 0.07984, -0.0021230103), (-0.059060995, -0.118306, -0.018977005), (0.220986, 0.060043003, -0.05336498), (0.155317, 0.034899004, -0.042363986), (-0.1476, -0.044061, -0.043797012), (0.028255003, -0.111602, -0.011626997), (0.240934, 0.031968005, -0.01900098), (0.166248, -0.019738998, -0.063991986), (0.198175, -0.045858998, -0.012269982), (0.06889, -0.09044, -0.018442994), (0.173814, 0.031225001, -0.033098985), (0.189589, 0.061062, -0.06303999), (-0.187393, 0.019666998, -0.0056380164), (-0.23263201, 0.08569499, -0.0039730207), (-0.177546, 0.051603, -0.0073540155), (-0.249566, 0.056238998, -0.006066022), (-0.18953401, 0.093416, -0.019567017), (-0.08823399, -0.087151, -0.06251801), (-0.138372, 0.052353, -0.040410012), (-0.019293996, -0.146493, -0.018434001), (-0.202736, -0.019464003, -0.03724802), (-0.049990993, -0.161756, -0.023318004), (-0.215326, 0.11710699, -0.04973302), (0.137989, 0.06636301, -0.05278099), (0.108301, -0.038423996, -0.03614599), (-0.238959, 0.10064899, -0.047013022), (-0.010563996, -0.10673, -0.043198), (-0.159343, 0.066757, -0.044839013), (0.100292005, 0.011887001, -0.08271999), (0.19781701, -0.011729998, -0.09164298), (-0.029219994, -0.168624, -0.032402005), (-0.250315, 0.071542, -0.052053023), (0.130072, 0.010876001, -0.05941499), (-0.0044099935, -0.143949, -0.051346), (-0.06535999, -0.140811, -0.046413008), (0.22385201, 0.018949004, -0.10945698), (-0.246864, 0.025021996, -0.04179402), (-0.188125, 0.121253, -0.06511501), (-0.097101994, 0.093138, -0.07077501), (-0.06454899, -0.120957, -0.08183401), (-0.04735199, -0.153171, -0.09635001), (-0.15440698, 0.111597, -0.10805002), (0.11697801, 0.150312, -0.15339999), (0.04443401, -0.07068499, -0.07871499), (0.07834101, -0.034817, -0.09009499), (-0.010065991, -0.118997, -0.081534), (-0.07081399, 0.112086, -0.093751006), (0.16184902, 0.060455002, -0.11614299), (-0.074228995, -0.105971, -0.08290601), (-0.23529698, 0.049442995, -0.09999802), (-0.16855198, -0.066483, -0.08750901), (-0.015938988, -0.147297, -0.096401), (-0.11555699, -0.100357, -0.08816401), (0.22506301, 0.056891, -0.16128299), (-0.19470099, -0.032176003, -0.09524502), (0.14384401, 0.054723, -0.09592499), (-0.16712499, 0.141228, -0.15191402), (0.11162001, 0.112969, -0.106709994), (0.00242301, -0.081363, -0.100022), (-0.21858798, 0.118971996, -0.18095501), (-0.19788699, 0.143057, -0.18361501), (0.135885, 0.09817201, -0.11786499), (-0.11485199, 0.070618, -0.11361201), (0.0022650098, -0.111722, -0.095462), (0.12023001, 0.017734002, -0.13383698), (0.037228014, -0.065516, -0.127059), (-0.11374399, -0.105956, -0.119550005), (0.09835102, 0.017173002, -0.13332398), (-0.15658699, -0.027171003, -0.14241801), (-0.100408986, 0.107473, -0.16233802), (-0.127832, 0.093811, -0.15415202), (0.08584802, -0.025529997, -0.13296698), (0.16793601, -0.002692998, -0.19906199), (-0.05685899, -0.145419, -0.129808), (-0.004441986, -0.144341, -0.137686), (-0.108846985, -0.085971, -0.13935001), (0.177656, 0.09844, -0.16859998), (-0.10691599, -0.061874002, -0.15446702), (0.15488301, 0.1188, -0.17490898), (-0.012876984, -0.142993, -0.166877), (-0.04262498, -0.122213006, -0.176755), (0.07359902, -0.079995, -0.175976), (-0.059749987, 0.158306, -0.174645), (0.213343, 0.097113006, -0.18442999), (0.028921017, -0.089216, -0.18282), (0.14295402, -0.0035869982, -0.18334499), (-0.19933498, 0.046105996, -0.18543202), (0.14717302, 0.150471, -0.19087999), (-0.057748985, -0.078495, -0.155819), (0.115585014, 0.009479002, -0.16697499), (-0.13663198, 0.146728, -0.18351802), (-0.21712199, 0.08124799, -0.21602201), (0.12686001, -0.0070649986, -0.21291599), (0.013110016, -0.114734, -0.164049), (0.097829014, -0.051394, -0.18296199), (-0.049415983, -0.098192, -0.173771), (0.20749402, 0.021748004, -0.21741998), (-0.010848982, -0.116712, -0.181856), (-0.05437098, -0.062865, -0.20089), (-0.12951298, -0.06427201, -0.18346801), (-0.14651099, -0.052412, -0.20924701), (-0.039402977, -0.083961, -0.248931), (-0.120723985, 0.168255, -0.19119501), (0.13140902, 0.190136, -0.23762499), (-0.10817098, 0.181218, -0.22328901), (0.003907019, -0.083767, -0.201928), (-0.05766798, 0.187757, -0.22794), (-0.15957399, -0.0029380019, -0.20938602), (0.18962301, 0.127381, -0.19456498), (-0.04590798, 0.205333, -0.244204), (-0.11706598, -0.066522, -0.21517901), (-0.17835599, 0.162017, -0.20963602), (-0.018903978, -0.105055, -0.241892), (0.081068024, -0.076134, -0.21621), (0.231141, 0.098014005, -0.24422999), (0.21993303, 0.147052, -0.25838298), (0.110163026, -0.038258996, -0.22339399), (-0.19504698, 0.164677, -0.26059803), (-0.12951098, -0.038074, -0.24045601), (-0.21252897, 0.129276, -0.25942904), (-0.09416598, -0.050058, -0.23216802), (0.23070103, 0.06297101, -0.25944498), (-0.037819978, -0.036355, -0.24712), (0.06391402, -0.058404, -0.251542), (0.19053502, 0.178383, -0.25972697), (-0.18146399, 0.024934996, -0.24283402), (0.000040023475, -0.090608, -0.256155), (0.029666021, -0.04453, -0.251421), (0.15860102, -0.016761998, -0.253658), (-0.06923398, -0.018935, -0.26317), (-0.16856597, 0.20148, -0.288592), (0.13829602, 0.223936, -0.33393), (-0.21491997, 0.08350299, -0.29445902), (-0.10091398, -0.025736002, -0.285407), (0.21650504, 0.027496003, -0.30863798), (0.09985002, -0.036767, -0.288398), (0.17054403, 0.199797, -0.28140697), (-0.12345597, -0.009258002, -0.30331), (-0.13553797, 0.211362, -0.272559), (-0.032358974, 0.246675, -0.350206), (0.17754303, -0.005996998, -0.29973096), (0.033650026, -0.019012999, -0.291216), (0.20256503, 0.19345, -0.32884997), (0.046933025, -0.030525, -0.308233), (-0.092436984, 0.23025198, -0.293709), (-0.031165974, -0.012872, -0.297971), (-0.19494598, 0.052042995, -0.31413102), (-0.21935497, 0.12156999, -0.31012204), (-0.15750697, 0.013835998, -0.315719), (-0.20735197, 0.16567, -0.33142504), (0.24008003, 0.129049, -0.30307096), (0.22553103, 0.167483, -0.31385198), (-0.18211697, 0.206358, -0.36186504), (0.24077503, 0.10475001, -0.34905198), (0.23768502, 0.069813006, -0.32508996), (-0.07281697, 0.024029, -0.350825), (-0.14495797, 0.226564, -0.322324), (0.15109102, 0.231279, -0.409307), (0.09012003, -0.029302, -0.33307), (-0.20373198, 0.093148, -0.36579102), (-0.12007297, 0.014450999, -0.3709), (0.22030303, 0.055952005, -0.37107897), (0.15704504, -0.008448998, -0.352505), (0.06776704, 0.004673001, -0.428466), (-0.09337096, 0.251724, -0.393346), (-0.02448997, 0.011686, -0.352038), (0.039635032, 0.018535, -0.362648), (-0.20722798, 0.114432, -0.37798703), (0.12664603, 0.010025002, -0.424787), (-0.15258096, 0.069998, -0.452595), (0.19148003, 0.207862, -0.42521796), (-0.19551297, 0.154737, -0.42191002), (0.07470403, 0.253253, -0.359083), (0.118665025, 0.244411, -0.357038), (-0.08960796, 0.031898, -0.429117), (0.22808503, 0.147071, -0.41265798), (-0.006013964, 0.017675, -0.415176), (0.21294405, 0.18187, -0.43002298), (0.19686203, 0.032753002, -0.38466996), (-0.13992096, 0.239503, -0.414708), (0.009337029, 0.242856, -0.373914), (0.04053203, 0.252536, -0.365639), (-0.06283797, 0.043604, -0.393915), (0.21078305, 0.111125, -0.46473497), (0.104648024, 0.242139, -0.379806), (-0.0132119665, 0.262337, -0.425103), (0.052621037, 0.034038, -0.412111), (0.16533105, 0.227179, -0.49171), (0.023688033, 0.257468, -0.430376), (0.06454004, 0.024092, -0.471614), (0.16685404, 0.045262005, -0.463981), (0.082391046, 0.25454, -0.493091), (-0.18609397, 0.184517, -0.41978103), (-0.10777696, 0.038379997, -0.463409), (0.036532037, 0.026927002, -0.432523), (0.06317405, 0.264941, -0.473421), (-0.072023965, 0.035501998, -0.43953), (-0.040364962, -0.008087001, -0.43568), (-0.001829962, -0.013259, -0.432992), (0.10359605, 0.259948, -0.49758), (-0.14781296, 0.222757, -0.51475), (0.0011200439, 0.269305, -0.53855), (0.105306044, 0.027756002, -0.509245), (-0.016630959, -0.026165, -0.460283), (-0.05489796, 0.269337, -0.494435), (0.025492042, -0.011951, -0.462466), (-0.09667496, 0.260002, -0.523733), (0.039731044, 0.271961, -0.493736), (0.19185105, 0.189602, -0.542181), (-0.034875955, -0.024756001, -0.494915), (-0.15339796, 0.197253, -0.558518), (-0.09500296, 0.04129, -0.513187), (-0.15936396, 0.120676, -0.53841), (-0.15269294, 0.135968, -0.600893), (-0.0058219507, 0.28537, -0.609019), (0.19550805, 0.156185, -0.545247), (0.026195046, 0.279, -0.562149), (-0.121314965, 0.244577, -0.551913), (0.00040404475, -0.016812, -0.509525), (-0.14116797, 0.089462996, -0.5569), (0.119836055, 0.261081, -0.591727), (0.042697046, -0.0011969996, -0.520771), (-0.058189955, 0.00031899931, -0.521428), (0.18341604, 0.123573, -0.563244), (0.16911604, 0.091517, -0.560057), (0.14301404, 0.06255901, -0.574624), (0.071102045, 0.0228, -0.547752), (0.05276705, 0.287424, -0.606976), (-0.023547951, -0.010095, -0.552083), (-0.08419295, 0.029634997, -0.579672), (-0.10724295, 0.051826995, -0.607353), (0.15431006, 0.231523, -0.607651), (0.03902005, 0.0061300006, -0.578359), (-0.14917694, 0.175818, -0.610485), (0.06503406, 0.28092, -0.645349), (0.09498705, 0.033156, -0.609384), (0.00034705224, 0.003717, -0.597828), (0.17587106, 0.182847, -0.617887), (-0.04161295, 0.013821999, -0.604415), (-0.058149945, 0.273296, -0.627437), (-0.12133796, 0.224106, -0.63097), (-0.07970794, 0.259519, -0.645355), (-0.12704895, 0.093717, -0.638926), (0.15994106, 0.113314, -0.642284), (0.065217055, 0.024658, -0.635027), (-0.06267995, 0.025004, -0.627996), (0.005668056, 0.021688, -0.6419), (0.010159052, 0.287302, -0.643305), (0.12573107, 0.240483, -0.650063), (-0.12878394, 0.170405, -0.65876), (0.12634607, 0.080155, -0.660044), (0.14991806, 0.193307, -0.661285), (-0.116872944, 0.127697, -0.671162), (0.06790206, 0.253662, -0.663444), (-0.08089794, 0.084141, -0.672446), (0.14943506, 0.131082, -0.668845), (-0.09462095, 0.22173598, -0.670025), (0.0023080544, 0.274411, -0.656814), (0.056636058, 0.055197, -0.676588), (-0.003537942, 0.056035, -0.671643), (0.0077250563, 0.229043, -0.67587), (-0.10187594, 0.183282, -0.680188), (0.12103106, 0.169961, -0.683078), (0.10859706, 0.098328, -0.685), (-0.084170945, 0.133716, -0.685985), (-0.018152943, 0.101026, -0.685997), (0.05128806, 0.089264, -0.692566), (0.006667058, 0.172023, -0.68826), (0.06381106, 0.125124, -0.696495)]
        texCoord2f[] primvars:st = [(1.0374159, 0.0151419975), (0.98652565, -0.1137328), (1.0118344, 0.09335084), (0.77687037, 0.35233873), (0.81499195, 0.30600148), (1.010207, -0.06013633), (0.9289497, 0.10844498), (0.896772, 0.052253474), (0.87338555, 0.2526564), (0.908376, 0.17664732), (0.8688092, -0.021424497), (0.7339997, 0.39394283), (0.93527186, -0.03477605), (0.8629122, 0.10822036), (0.87359464, 0.21707152), (0.72437227, 0.35432157), (0.92528987, -0.08727702), (0.81190455, 0.24163516), (0.802709, 0.16043633), (0.8530897, -0.07043539), (0.7452475, 0.28572455), (0.68386316, 0.3890213), (0.7006521, 0.19765267), (0.9400704, -0.19968458), (0.679973, 0.33030158), (0.787943, 0.06352875), (0.91689205, -0.12897529), (0.76823676, 0.0003336323), (0.7949668, 0.10370425), (0.8582126, -0.22603197), (0.8539766, -0.19237222), (0.6527333, 0.2819345), (0.5865902, 0.4334135), (0.62129736, 0.13779902), (0.8291689, -0.11842736), (0.6001537, 0.39630157), (0.73820233, -0.07116947), (0.7046628, 0.091949075), (0.6180136, 0.37783453), (0.5775143, 0.33183625), (0.6062429, 0.2960148), (0.7705622, -0.110125355), (0.5361774, 0.36765626), (0.62577033, 0.17002676), (0.7933986, -0.19472834), (0.551932, 0.16662453), (0.84563875, -0.3267339), (0.55918956, 0.23267038), (0.6832559, 0.029193217), (0.7928046, -0.3292477), (0.44784304, 0.38141924), (0.5781214, 0.271115), (0.47775975, 0.2632131), (0.6256472, -0.17069784), (0.75944364, -0.2946381), (0.44488463, 0.28234735), (0.6758518, -0.22074085), (0.4295007, 0.3092932), (0.4043544, 0.42258975), (0.6154337, -0.06715025), (0.33712852, 0.36343956), (0.5525683, 0.03351411), (0.4320009, 0.061322935), (0.6728631, -0.3106286), (0.30112588, 0.3342879), (0.261661, 0.37672), (0.38872352, 0.10482912), (0.30654734, 0.27591503), (0.3979291, -0.011075595), (0.6637653, -0.38366228), (0.61749923, -0.5386984), (0.62966883, -0.46067202), (0.4457809, -0.06690253), (0.5524515, -0.27999583), (0.3097971, 0.14171945), (0.5184287, -0.17939535), (0.45919508, -0.14409298), (0.3139606, 0.20972064), (0.6001674, -0.4129923), (0.5680015, -0.3556085), (0.58336675, -0.4708544), (0.26702902, 0.04242844), (0.4639336, -0.28456414), (0.3737055, -0.12921286), (0.11469549, 0.35900635), (0.35756278, -0.094599836), (0.302684, -0.06357703), (0.19656609, 0.27989167), (0.22963555, 0.08560505), (0.2230753, 0.23950434), (0.12251466, 0.32436764), (0.24275011, 0.17586583), (0.5568253, -0.592966), (0.39351985, -0.2442357), (0.5257318, -0.45657083), (0.17425543, 0.11779217), (0.5044285, -0.52932554), (0.122889966, 0.24314246), (0.17690521, 0.19969214), (0.3486832, -0.19302787), (0.47610426, -0.36377743), (0.18313795, 0.15736428), (0.28025666, -0.0035621217), (0.5248989, -0.5601606), (0.4290506, -0.35833815), (0.42670083, -0.39654973), (0.39396778, -0.35634574), (0.3972838, -0.38683012), (0.4483175, -0.41132677), (0.29881978, -0.118957266), (0.37664023, -0.37293285), (0.3788448, -0.38040286), (0.083769836, 0.2887261), (0.46258417, -0.45079505), (0.3652265, -0.32949272), (0.37024453, -0.40311733), (0.38717088, -0.4248691), (0.3572055, -0.38237906), (0.42095765, -0.43397814), (0.30519792, -0.16286887), (0.029474877, 0.23917294), (0.15067665, 0.040251184), (0.20626, 0.01265992), (0.33096248, -0.44095516), (0.051376265, 0.32303888), (0.30629852, -0.31940344), (0.27727482, -0.27195424), (0.0543489, 0.18835126), (0.36652493, -0.4884745), (0.28961703, -0.39221618), (0.1435635, 0.08234717), (0.4363515, -0.5484284), (-0.013672792, 0.34814805), (0.10812197, 0.16428845), (0.4776058, -0.59637576), (0.49391636, -0.643847), (-0.07102814, 0.31278497), (0.09648976, 0.12516002), (0.34659865, -0.5773919), (0.16438046, -0.030276906), (0.2571076, -0.21400969), (0.27336174, -0.52252454), (0.20506023, -0.10422647), (-0.0016415496, 0.2839894), (0.21303846, -0.36126977), (0.42497927, -0.6228233), (0.23322962, -0.1621939), (0.09571223, 0.09227584), (0.07887051, 0.05831553), (0.24998549, -0.47255582), (-0.061366893, 0.23389195), (0.2704595, -0.58184105), (0.01942731, 0.12926717), (-0.046730425, 0.18761262), (0.15259604, -0.15266575), (0.20308952, -0.27067444), (0.21168157, -0.30716875), (0.42488337, -0.6627825), (0.21358562, -0.43359032), (0.44290775, -0.6814133), (-0.129876, 0.23373196), (-0.020287817, 0.06134565), (-0.061847538, 0.13919853), (-0.15112206, 0.1920892), (0.09061909, -0.09339023), (0.15791118, -0.22532313), (0.34624636, -0.6917949), (0.38327613, -0.7216666), (0.35850573, -0.6297505), (-0.14179532, 0.15340504), (0.039389294, -0.0031757497), (-0.08994035, 0.095732465), (0.24201791, -0.64574903), (0.21325648, -0.58232635), (0.20184578, -0.5466794), (0.15082702, -0.43967164), (0.23111168, -0.5504353), (0.11532286, -0.395028), (0.15438966, -0.27924374), (-0.26668644, 0.22670452), (0.1549827, -0.32406273), (0.26743916, -0.6787617), (0.062923804, -0.17728114), (0.21183094, -0.8187156), (-0.16483884, 0.060278095), (-0.22387835, 0.108202904), (0.16427588, -0.49833047), (0.26794407, -0.7571486), (-0.058813807, -0.013100221), (-0.26732966, 0.16093877), (-0.03603506, -0.095326796), (0.14315727, -0.67123854), (0.21910036, -0.7449717), (-0.15095893, -0.00718573), (0.07354986, -0.24581648), (0.13787533, -0.6152851), (0.08051625, -0.46145102), (0.11989458, -0.48176032), (0.10015017, -0.29585865), (0.20301312, -0.7223519), (0.18248984, -0.7056075), (-0.28444612, 0.03982633), (-0.3867879, 0.034748722), (-0.36907732, 0.08190594), (-0.33669242, -0.015291877), (-0.43387416, 0.060762577), (-0.09064765, -0.044283815), (-0.38692102, 0.1255711), (-0.024966504, -0.18179831), (-0.248994, -0.03800279), (-0.061446942, -0.15175027), (-0.4508374, 0.029816013), (0.17275578, -0.80334324), (0.09239044, -0.3519145), (-0.4180342, -0.011353436), (0.011814049, -0.23428702), (-0.4360642, 0.08956072), (0.056797247, -0.39321348), (0.07931622, -0.52348083), (-0.06449231, -0.18370228), (-0.38068822, -0.067184225), (0.06685728, -0.42593923), (-0.051149722, -0.20151456), (-0.07573765, -0.13154262), (0.10005043, -0.5814432), (-0.30802873, -0.07703028), (-0.46243316, 0.050028853), (-0.41596135, 0.16626804), (-0.09997311, -0.112326115), (-0.11053254, -0.16927813), (-0.475009, 0.06687107), (0.030703794, -0.8964809), (0.027039556, -0.2915535), (0.03988438, -0.3470469), (-0.041179284, -0.22758308), (-0.5061356, 0.18642592), (0.14659017, -0.75432914), (-0.11010383, -0.06938509), (-0.3577251, -0.12590837), (-0.24917504, -0.098183446), (-0.075623564, -0.21312717), (-0.17101918, -0.098429255), (0.0077363946, -0.6802916), (-0.29500768, -0.1360859), (0.13238548, -0.7914458), (-0.48531476, 0.04004075), (0.13009058, -0.8566289), (-0.035928115, -0.27877787), (-0.45195484, -0.063229986), (-0.5154258, -0.007947052), (0.07783575, -0.840586), (-0.46443072, 0.13389145), (-0.075354174, -0.25576186), (0.049833823, -0.4470739), (-0.026811307, -0.34059596), (-0.23421969, -0.1518367), (0.03375011, -0.43024036), (-0.34296706, -0.18560617), (-0.5429392, 0.13054506), (-0.49427944, 0.09853999), (-0.0028753583, -0.40248284), (0.020950403, -0.50420856), (-0.18095337, -0.17287274), (-0.113258906, -0.241335), (-0.28508228, -0.19207855), (0.098781005, -0.7448905), (-0.32106, -0.2235384), (0.04519108, -0.8054612), (-0.161875, -0.22649667), (-0.2339051, -0.22720134), (-0.06645328, -0.39262027), (-0.705799, 0.08802778), (-0.012985803, -0.76730675), (-0.11216574, -0.3201961), (0.037308086, -0.4649495), (-0.39193478, -0.17357951), (-0.04491713, -0.8739233), (-0.28212464, -0.2375458), (0.030962503, -0.45042965), (-0.5181749, 0.053474985), (-0.43631342, -0.13489307), (0.0028806496, -0.4585365), (-0.14528282, -0.26842257), (-0.04952668, -0.44350874), (-0.2617672, -0.24488851), (-0.0447016, -0.59656775), (-0.19140404, -0.2860076), (-0.31935835, -0.27073267), (-0.34408614, -0.21769685), (-0.36181274, -0.22059913), (-0.2690494, -0.27122498), (-0.5978081, 0.054446775), (-0.16444266, -0.95253927), (-0.7167479, -0.013119216), (-0.19591576, -0.36846012), (-0.75877225, 0.009095979), (-0.3841813, -0.20965698), (-0.07315611, -0.83414614), (-0.850737, -0.06890005), (-0.34922507, -0.24298912), (-0.62483084, -0.026119607), (-0.23539272, -0.27538875), (-0.12928961, -0.44786942), (-0.13453512, -0.75592524), (-0.15535001, -0.8172506), (-0.05046768, -0.50424916), (-0.613763, -0.09992904), (-0.38688406, -0.25091842), (-0.5292958, -0.12150752), (-0.35927132, -0.27811), (-0.14434062, -0.69293666), (-0.30023766, -0.33174703), (-0.21890864, -0.44381952), (-0.19254142, -0.8801548), (-0.43488714, -0.22344904), (-0.24398485, -0.31956336), (-0.26190212, -0.38925818), (-0.11851443, -0.54021066), (-0.3467097, -0.3182095), (-0.7070359, -0.10542869), (-0.44427842, -0.96433973), (-0.5082022, -0.21330701), (-0.39076442, -0.3113417), (-0.20266117, -0.64217496), (-0.21628413, -0.52648866), (-0.31570885, -0.9184362), (-0.4211337, -0.27812627), (-0.78851914, -0.12004888), (-0.93254817, -0.4936862), (-0.16467506, -0.58678454), (-0.31381863, -0.39743692), (-0.33056703, -0.86724436), (-0.29486236, -0.46845868), (-0.85504186, -0.24791658), (-0.3366927, -0.3608001), (-0.48199064, -0.26846397), (-0.56659317, -0.21029077), (-0.45221314, -0.28391442), (-0.61514354, -0.19245017), (-0.2467623, -0.7912034), (-0.2582669, -0.8382989), (-0.69740057, -0.21622966), (-0.23582204, -0.7380689), (-0.2408555, -0.69262004), (-0.36972544, -0.35946944), (-0.78356147, -0.23050034), (-0.45485947, -0.8766059), (-0.28065374, -0.5200164), (-0.52655697, -0.29960936), (-0.43629256, -0.325509), (-0.30001774, -0.6612571), (-0.24546883, -0.5951264), (-0.3189065, -0.52064484), (-0.83924747, -0.40804878), (-0.35178864, -0.3967612), (-0.33646744, -0.4318103), (-0.5612029, -0.27028388), (-0.2917619, -0.55652606), (-0.48368979, -0.32857904), (-0.3990627, -0.84604007), (-0.60885644, -0.2727379), (-0.70712006, -0.87291664), (-0.56077445, -0.9400944), (-0.41025347, -0.37321526), (-0.32163757, -0.75828695), (-0.37333092, -0.43238714), (-0.36038125, -0.8102846), (-0.2687501, -0.62856513), (-0.7648792, -0.3390486), (-0.88777864, -0.67627573), (-0.81112945, -0.78579336), (-0.38119885, -0.3955267), (-0.3087546, -0.7124506), (-0.57234704, -0.89421386), (-0.863611, -0.5675487), (-0.34824052, -0.4592466), (-0.44479254, -0.8228638), (-0.8312489, -0.71313465), (-0.3630079, -0.49598476), (-0.32174703, -0.60826606), (-0.6728797, -0.8182022), (-0.6573137, -0.269017), (-0.45849016, -0.37834105), (-0.37361112, -0.4634064), (-0.75049543, -0.79307), (-0.400939, -0.41366112), (-0.4048044, -0.43999296), (-0.38999188, -0.45380718), (-0.5790621, -0.8344033), (-0.70468783, -0.3312064), (-0.842535, -0.65662414), (-0.36240643, -0.5540387), (-0.40532857, -0.45886362), (-0.8198919, -0.52238137), (-0.3928308, -0.47327033), (-0.7856878, -0.45511937), (-0.7923088, -0.7439082), (-0.3931498, -0.7558513), (-0.42383602, -0.45461294), (-0.65285647, -0.34091514), (-0.4351393, -0.4248845), (-0.52942514, -0.35974172), (-0.59268475, -0.3623208), (-0.8047477, -0.6226788), (-0.36794484, -0.72542155), (-0.8069719, -0.6941375), (-0.74152184, -0.40932226), (-0.41482538, -0.47188035), (-0.50005937, -0.3842025), (-0.5307846, -0.8011913), (-0.40909198, -0.49379003), (-0.4397299, -0.45261255), (-0.37034282, -0.6847322), (-0.36581352, -0.64265335), (-0.39849705, -0.6025916), (-0.40071693, -0.5241815), (-0.74998796, -0.72554845), (-0.44225836, -0.47792503), (-0.4570243, -0.45207897), (-0.4851528, -0.429502), (-0.46706837, -0.764774), (-0.43797174, -0.51689035), (-0.6476917, -0.39231548), (-0.6470393, -0.74695945), (-0.42599124, -0.55662096), (-0.4697964, -0.5045169), (-0.43648937, -0.7072348), (-0.48103064, -0.47393897), (-0.7799344, -0.546457), (-0.6924987, -0.42191583), (-0.7402383, -0.49977973), (-0.5422069, -0.42253587), (-0.42604017, -0.64930534), (-0.47312722, -0.54128313), (-0.5165429, -0.46653098), (-0.5094367, -0.51102835), (-0.72497284, -0.6204516), (-0.56663513, -0.7224335), (-0.6446053, -0.44560447), (-0.46951258, -0.5958377), (-0.50986624, -0.70083433), (-0.59787536, -0.45780918), (-0.6436442, -0.64567995), (-0.55699337, -0.49373782), (-0.4935774, -0.65169734), (-0.67978644, -0.5332853), (-0.6790304, -0.59820426), (-0.5136839, -0.5589463), (-0.5416088, -0.5351682), (-0.65776324, -0.58842313), (-0.63119733, -0.50531304), (-0.5667192, -0.64291584), (-0.5292716, -0.60104376), (-0.59836733, -0.5151078), (-0.57404566, -0.5449232), (-0.5467719, -0.56560534), (-0.6193651, -0.57189745), (-0.56934226, -0.5861373)] (
            interpolation = "vertex"
        )
    }
}

