#usda 1.0

def "Isis_dABF"
{
    def Mesh "Isis_dABF"
    {
        int[] faceVertexCounts = [3, 3, 3, 3, 3, 3, 3, 3, 3, 3, 3, 3, 3, 3, 3, 3, 3, 3, 3, 3, 3, 3, 3, 3, 3, 3, 3, 3, 3, 3, 3, 3, 3, 3, 3, 3, 3, 3, 3, 3, 3, 3, 3, 3, 3, 3, 3, 3, 3, 3, 3, 3, 3, 3, 3, 3, 3, 3, 3, 3, 3, 3, 3, 3, 3, 3, 3, 3, 3, 3, 3, 3, 3, 3, 3, 3, 3, 3, 3, 3, 3, 3, 3, 3, 3, 3, 3, 3, 3, 3, 3, 3, 3, 3, 3, 3, 3, 3, 3, 3, 3, 3, 3, 3, 3, 3, 3, 3, 3, 3, 3, 3, 3, 3, 3, 3, 3, 3, 3, 3, 3, 3, 3, 3, 3, 3, 3, 3, 3, 3, 3, 3, 3, 3, 3, 3, 3, 3, 3, 3, 3, 3, 3, 3, 3, 3, 3, 3, 3, 3, 3, 3, 3, 3, 3, 3, 3, 3, 3, 3, 3, 3, 3, 3, 3, 3, 3, 3, 3, 3, 3, 3, 3, 3, 3, 3, 3, 3, 3, 3, 3, 3, 3, 3, 3, 3, 3, 3, 3, 3, 3, 3, 3, 3, 3, 3, 3, 3, 3, 3, 3, 3, 3, 3, 3, 3, 3, 3, 3, 3, 3, 3, 3, 3, 3, 3, 3, 3, 3, 3, 3, 3, 3, 3, 3, 3, 3, 3, 3, 3, 3, 3, 3, 3, 3, 3, 3, 3, 3, 3, 3, 3, 3, 3, 3, 3, 3, 3, 3, 3, 3, 3, 3, 3, 3, 3, 3, 3, 3, 3, 3, 3, 3, 3, 3, 3, 3, 3, 3, 3, 3, 3, 3, 3, 3, 3, 3, 3, 3, 3, 3, 3, 3, 3, 3, 3, 3, 3, 3, 3, 3, 3, 3, 3, 3, 3, 3, 3, 3, 3, 3, 3, 3, 3, 3, 3, 3, 3, 3, 3, 3, 3, 3, 3, 3, 3, 3, 3, 3, 3, 3, 3, 3, 3, 3, 3, 3, 3, 3, 3, 3, 3, 3, 3, 3, 3, 3, 3, 3, 3, 3, 3, 3, 3, 3, 3, 3, 3, 3, 3, 3, 3, 3, 3, 3, 3, 3, 3, 3, 3, 3, 3, 3, 3, 3, 3, 3, 3, 3, 3, 3, 3, 3, 3, 3, 3, 3, 3, 3, 3, 3, 3, 3, 3, 3, 3, 3, 3, 3, 3, 3, 3, 3, 3, 3, 3, 3, 3, 3, 3, 3, 3, 3, 3, 3, 3, 3, 3, 3, 3, 3, 3, 3, 3, 3, 3, 3, 3, 3, 3, 3, 3, 3, 3, 3, 3, 3, 3, 3, 3, 3, 3, 3, 3, 3, 3, 3, 3, 3, 3, 3, 3, 3, 3, 3, 3, 3, 3, 3, 3, 3, 3, 3, 3, 3, 3, 3, 3, 3, 3, 3, 3, 3, 3, 3, 3, 3, 3, 3, 3, 3, 3, 3, 3, 3, 3, 3, 3, 3, 3, 3, 3, 3, 3, 3, 3, 3, 3, 3, 3, 3, 3, 3, 3, 3, 3, 3, 3, 3, 3, 3, 3, 3, 3, 3, 3, 3, 3, 3, 3, 3, 3, 3, 3, 3, 3, 3, 3, 3, 3, 3, 3, 3, 3, 3, 3, 3, 3, 3, 3, 3, 3, 3, 3, 3, 3, 3, 3, 3, 3, 3, 3, 3, 3, 3, 3, 3, 3, 3, 3, 3, 3, 3, 3, 3, 3, 3, 3, 3, 3, 3, 3, 3, 3, 3, 3, 3, 3, 3, 3, 3, 3, 3, 3, 3, 3, 3, 3, 3, 3, 3, 3, 3, 3, 3, 3, 3, 3, 3, 3, 3, 3, 3, 3, 3, 3, 3, 3, 3, 3, 3, 3, 3, 3, 3, 3, 3, 3, 3, 3, 3, 3, 3, 3, 3, 3, 3, 3, 3, 3, 3, 3, 3, 3, 3, 3, 3, 3, 3, 3, 3, 3, 3, 3, 3, 3, 3, 3, 3, 3, 3, 3, 3, 3, 3, 3, 3, 3, 3, 3, 3, 3, 3, 3, 3, 3, 3, 3, 3, 3, 3, 3, 3, 3, 3, 3, 3, 3, 3, 3, 3, 3, 3, 3, 3, 3, 3, 3, 3, 3, 3, 3, 3, 3, 3, 3, 3, 3, 3, 3, 3, 3, 3, 3, 3, 3, 3, 3, 3, 3, 3, 3, 3, 3, 3, 3, 3, 3, 3, 3, 3, 3, 3, 3, 3, 3, 3, 3, 3, 3, 3, 3, 3, 3, 3, 3, 3, 3, 3, 3, 3, 3, 3, 3, 3, 3, 3, 3, 3, 3, 3, 3, 3, 3, 3, 3, 3, 3, 3, 3, 3, 3, 3, 3, 3, 3, 3, 3, 3, 3, 3, 3, 3, 3, 3, 3, 3, 3, 3, 3, 3, 3, 3, 3, 3, 3, 3, 3, 3, 3, 3, 3, 3, 3, 3, 3, 3, 3, 3, 3, 3, 3, 3, 3, 3, 3, 3, 3, 3, 3, 3, 3, 3, 3, 3, 3, 3, 3, 3, 3, 3, 3, 3, 3, 3, 3, 3, 3, 3, 3, 3, 3, 3, 3, 3, 3, 3, 3, 3, 3, 3, 3, 3, 3, 3, 3, 3, 3, 3, 3, 3, 3, 3, 3, 3, 3, 3, 3, 3, 3, 3, 3, 3, 3, 3, 3, 3, 3, 3, 3, 3, 3, 3, 3, 3, 3, 3, 3, 3, 3, 3, 3, 3, 3, 3, 3, 3, 3, 3]
        int[] faceVertexIndices = [457, 456, 451, 455, 457, 452, 457, 455, 454, 451, 452, 457, 456, 457, 454, 453, 456, 454, 453, 450, 456, 447, 455, 452, 448, 455, 447, 456, 442, 451, 443, 453, 454, 456, 445, 449, 445, 456, 450, 444, 452, 451, 442, 456, 449, 453, 443, 441, 448, 454, 455, 454, 448, 443, 441, 450, 453, 444, 439, 452, 440, 444, 451, 445, 446, 449, 450, 441, 438, 442, 437, 451, 439, 447, 452, 451, 437, 440, 438, 445, 450, 436, 446, 445, 435, 448, 447, 442, 449, 446, 431, 441, 443, 435, 443, 448, 445, 430, 436, 423, 437, 442, 447, 433, 435, 439, 444, 432, 433, 447, 439, 444, 440, 426, 446, 436, 442, 439, 424, 433, 434, 431, 443, 429, 430, 445, 438, 429, 445, 426, 432, 444, 434, 443, 435, 423, 442, 436, 428, 436, 430, 431, 434, 419, 431, 402, 441, 416, 423, 436, 438, 441, 402, 420, 440, 437, 420, 426, 440, 423, 409, 437, 427, 434, 435, 402, 422, 438, 414, 424, 439, 439, 432, 414, 428, 403, 436, 413, 414, 432, 422, 429, 438, 437, 409, 420, 427, 435, 425, 403, 416, 436, 433, 425, 435, 416, 403, 405, 426, 420, 397, 432, 412, 413, 401, 402, 431, 425, 433, 421, 389, 406, 429, 430, 429, 406, 427, 419, 434, 428, 430, 395, 431, 419, 408, 419, 427, 418, 424, 421, 433, 422, 399, 429, 390, 405, 403, 432, 426, 412, 403, 428, 393, 404, 412, 426, 401, 431, 408, 421, 424, 415, 406, 395, 430, 399, 389, 429, 427, 425, 417, 393, 428, 395, 417, 418, 427, 409, 423, 388, 404, 426, 397, 421, 417, 425, 409, 376, 420, 414, 391, 424, 397, 420, 366, 411, 418, 417, 391, 415, 424, 380, 388, 423, 417, 421, 410, 400, 419, 418, 416, 405, 396, 416, 380, 423, 404, 372, 412, 402, 399, 422, 421, 415, 410, 366, 420, 376, 402, 360, 399, 398, 411, 417, 415, 391, 378, 410, 407, 417, 379, 391, 414, 419, 400, 382, 382, 408, 419, 418, 411, 400, 407, 398, 417, 384, 380, 416, 396, 384, 416, 410, 415, 378, 401, 408, 358, 374, 390, 403, 413, 379, 414, 376, 409, 346, 406, 389, 368, 407, 392, 398, 348, 402, 401, 350, 379, 413, 413, 412, 350, 410, 378, 394, 372, 350, 412, 398, 400, 411, 394, 407, 410, 388, 346, 409, 366, 376, 359, 381, 389, 399, 378, 391, 352, 408, 382, 358, 394, 392, 407, 368, 395, 406, 377, 405, 390, 404, 397, 364, 402, 348, 356, 391, 379, 357, 396, 405, 377, 364, 372, 404, 400, 398, 386, 403, 393, 374, 382, 400, 363, 350, 367, 379, 360, 402, 356, 400, 386, 385, 401, 358, 348, 385, 363, 400, 396, 370, 384, 399, 360, 381, 390, 369, 377, 398, 392, 386, 364, 397, 366, 396, 377, 370, 394, 378, 383, 387, 392, 394, 353, 393, 395, 388, 373, 346, 368, 389, 341, 375, 383, 378, 368, 353, 395, 383, 387, 394, 393, 353, 374, 392, 387, 386, 352, 391, 357, 369, 390, 374, 384, 361, 380, 389, 381, 341, 366, 359, 331, 383, 365, 387, 373, 388, 380, 386, 387, 365, 365, 385, 386, 372, 364, 342, 363, 385, 371, 379, 351, 357, 385, 365, 371, 378, 352, 332, 349, 358, 382, 384, 370, 361, 346, 373, 320, 371, 365, 354, 375, 365, 383, 363, 349, 382, 338, 341, 381, 365, 375, 355, 348, 358, 335, 360, 338, 381, 362, 320, 373, 380, 361, 373, 331, 340, 366, 369, 374, 328, 367, 351, 379, 375, 378, 332, 370, 377, 369, 345, 368, 341, 359, 376, 346, 375, 332, 355, 328, 374, 353, 363, 371, 344, 350, 372, 343, 322, 363, 344, 373, 361, 362, 372, 342, 343, 354, 344, 371, 353, 368, 345, 367, 323, 351, 323, 367, 350, 340, 339, 366, 347, 352, 357, 364, 366, 339, 346, 320, 325, 360, 336, 338, 365, 355, 354, 339, 342, 364, 322, 349, 363, 345, 341, 319, 360, 356, 336, 346, 331, 359, 337, 358, 349, 334, 344, 354, 337, 335, 358, 347, 357, 324, 357, 351, 324, 321, 356, 348, 321, 336, 356, 333, 328, 353, 330, 354, 355, 322, 326, 349, 355, 332, 330, 323, 329, 351, 334, 354, 330, 345, 333, 353, 347, 332, 352, 324, 351, 329, 350, 343, 323, 326, 337, 349, 335, 337, 314, 338, 336, 308, 342, 339, 303, 348, 335, 321, 332, 347, 324, 329, 317, 324, 331, 346, 325, 344, 334, 318, 340, 331, 313, 333, 298, 328, 319, 327, 345, 327, 333, 345, 342, 310, 343, 322, 344, 318, 323, 343, 310, 303, 310, 342, 313, 304, 340, 306, 319, 341, 338, 306, 341, 340, 304, 339, 304, 303, 339, 292, 325, 320, 308, 306, 338, 323, 285, 329, 311, 318, 334, 316, 330, 332, 324, 312, 332, 326, 314, 337, 321, 308, 336, 314, 321, 335, 311, 334, 330, 327, 298, 333, 316, 332, 312, 308, 321, 280, 325, 313, 331, 330, 316, 311, 322, 318, 309, 298, 327, 293, 285, 317, 329, 326, 322, 307, 315, 301, 290, 317, 302, 324, 327, 319, 293, 314, 326, 307, 292, 313, 325, 290, 311, 315, 293, 295, 298, 302, 312, 324, 269, 290, 301, 316, 315, 311, 302, 317, 305, 315, 316, 294, 310, 285, 323, 309, 307, 322, 313, 292, 276, 307, 296, 314, 319, 306, 300, 280, 321, 314, 287, 318, 311, 300, 293, 319, 287, 309, 318, 285, 305, 317, 312, 294, 316, 313, 297, 304, 309, 299, 307, 294, 286, 315, 299, 289, 307, 315, 286, 301, 296, 275, 314, 275, 280, 314, 271, 298, 295, 291, 293, 300, 276, 297, 313, 302, 294, 312, 311, 290, 287, 281, 305, 261, 306, 308, 249, 308, 280, 248, 285, 261, 305, 242, 285, 310, 303, 242, 310, 299, 309, 287, 305, 281, 283, 288, 289, 299, 248, 249, 308, 289, 296, 307, 294, 302, 273, 306, 249, 300, 302, 305, 283, 274, 278, 281, 281, 261, 274, 297, 276, 267, 299, 287, 266, 304, 272, 303, 272, 304, 297, 242, 303, 272, 273, 302, 270, 302, 283, 270, 301, 286, 269, 291, 300, 249, 275, 296, 257, 288, 299, 266, 280, 275, 238, 224, 218, 285, 279, 291, 249, 272, 297, 267, 290, 269, 284, 296, 289, 257, 271, 295, 293, 245, 279, 249, 294, 273, 286, 259, 291, 279, 293, 291, 271, 231, 276, 292, 291, 259, 258, 258, 271, 291, 277, 287, 290, 284, 277, 290, 288, 257, 289, 272, 267, 265, 285, 218, 261, 282, 286, 273, 286, 268, 269, 266, 257, 288, 277, 266, 287, 268, 286, 282, 285, 242, 224, 196, 274, 261, 282, 263, 268, 262, 269, 268, 276, 231, 250, 248, 280, 220, 269, 277, 284, 260, 270, 283, 256, 281, 278, 283, 281, 260, 277, 269, 264, 254, 247, 273, 273, 263, 282, 278, 253, 256, 230, 279, 245, 256, 260, 281, 258, 235, 271, 238, 220, 280, 270, 254, 273, 279, 230, 259, 274, 253, 278, 236, 265, 267, 263, 273, 252, 264, 266, 277, 250, 267, 276, 251, 258, 259, 268, 229, 262, 242, 272, 191, 275, 257, 238, 274, 196, 253, 247, 252, 273, 255, 264, 269, 236, 267, 244, 265, 191, 272, 200, 265, 236, 270, 260, 254, 269, 262, 255, 263, 229, 268, 244, 267, 250, 250, 231, 246, 264, 257, 266, 233, 254, 260, 252, 240, 263, 265, 200, 191, 255, 262, 241, 259, 230, 216, 243, 257, 264, 255, 243, 264, 229, 263, 240, 262, 229, 241, 245, 249, 211, 218, 196, 261, 207, 251, 259, 260, 256, 217, 217, 233, 260, 259, 216, 207, 227, 235, 258, 239, 243, 255, 241, 228, 237, 256, 253, 221, 226, 245, 211, 258, 251, 227, 243, 238, 257, 229, 228, 241, 254, 233, 232, 249, 248, 214, 221, 217, 256, 239, 255, 241, 252, 234, 240, 232, 247, 254, 244, 250, 212, 196, 221, 253, 247, 234, 252, 207, 227, 251, 223, 228, 229, 232, 215, 247, 240, 234, 222, 246, 212, 250, 236, 244, 192, 214, 211, 249, 220, 214, 248, 234, 247, 215, 183, 212, 246, 226, 230, 245, 239, 241, 209, 238, 243, 225, 217, 213, 233, 212, 192, 244, 241, 237, 193, 243, 239, 225, 206, 193, 237, 229, 240, 219, 224, 242, 195, 195, 242, 191, 236, 199, 200, 209, 241, 193, 222, 219, 240, 190, 237, 228, 209, 225, 239, 220, 238, 225, 206, 237, 190, 236, 192, 199, 232, 233, 198, 226, 205, 230, 227, 179, 235, 222, 234, 208, 194, 215, 232, 234, 215, 208, 233, 213, 198, 232, 198, 194, 210, 223, 229, 218, 224, 186, 188, 193, 206, 205, 216, 230, 219, 210, 229, 228, 223, 190, 212, 183, 187, 186, 197, 218, 195, 174, 224, 189, 179, 227, 207, 189, 227, 216, 203, 207, 211, 205, 226, 225, 209, 204, 220, 225, 204, 217, 221, 177, 174, 186, 224, 210, 190, 223, 208, 219, 222, 177, 221, 196, 204, 214, 220, 219, 208, 210, 193, 201, 209, 196, 218, 197, 180, 198, 213, 217, 177, 213, 167, 187, 183, 182, 208, 215, 205, 203, 216, 211, 214, 202, 215, 194, 182, 172, 191, 200, 204, 202, 214, 175, 196, 197, 201, 193, 184, 177, 180, 213, 187, 192, 212, 211, 202, 205, 190, 210, 208, 203, 185, 207, 204, 209, 201, 190, 208, 182, 180, 178, 198, 185, 189, 207, 188, 206, 190, 203, 205, 202, 201, 185, 203, 181, 172, 200, 181, 199, 192, 202, 204, 201, 202, 201, 203, 198, 165, 194, 184, 185, 201, 199, 181, 200, 174, 195, 173, 184, 193, 161, 198, 178, 165, 186, 175, 197, 189, 185, 169, 177, 196, 175, 191, 173, 195, 165, 182, 194, 187, 166, 192, 184, 171, 185, 191, 172, 151, 179, 189, 163, 173, 176, 174, 188, 161, 193, 192, 166, 181, 151, 173, 191, 186, 174, 149, 162, 169, 185, 188, 190, 170, 175, 186, 158, 164, 170, 190, 164, 190, 182, 163, 189, 169, 170, 161, 188, 165, 154, 182, 187, 167, 166, 163, 160, 179, 186, 149, 158, 185, 171, 162, 181, 166, 168, 184, 161, 171, 180, 155, 178, 181, 168, 138, 139, 170, 164, 180, 177, 144, 174, 176, 141, 164, 182, 154, 166, 167, 159, 156, 155, 180, 181, 138, 172, 156, 180, 144, 179, 160, 136, 162, 171, 152, 155, 165, 178, 177, 175, 144, 176, 173, 141, 148, 161, 170, 175, 158, 144, 141, 149, 174, 141, 173, 151, 131, 138, 168, 138, 151, 172, 157, 166, 159, 154, 165, 146, 171, 161, 152, 121, 148, 170, 139, 121, 170, 145, 168, 166, 153, 169, 162, 152, 161, 137, 153, 163, 169, 164, 142, 139, 140, 146, 165, 168, 145, 131, 157, 145, 166, 161, 148, 147, 165, 155, 140, 160, 163, 150, 149, 129, 158, 154, 142, 164, 153, 150, 163, 152, 127, 162, 127, 153, 162, 161, 147, 137, 157, 159, 135, 150, 136, 160, 155, 156, 126, 120, 150, 153, 129, 144, 158, 152, 137, 133, 135, 145, 157, 128, 141, 151, 122, 121, 139, 119, 146, 140, 145, 135, 134, 144, 126, 156, 136, 150, 143, 123, 129, 149, 126, 140, 155, 146, 142, 154, 127, 120, 153, 147, 148, 130, 152, 133, 127, 138, 128, 151, 120, 143, 150, 134, 96, 145, 123, 149, 141, 143, 132, 136, 109, 142, 146, 92, 103, 135, 126, 144, 125, 137, 147, 95, 121, 130, 148, 147, 130, 95, 119, 109, 146, 96, 131, 145, 142, 109, 86, 137, 101, 133, 124, 132, 143, 143, 120, 112, 127, 133, 98, 129, 125, 144, 143, 112, 124, 86, 102, 139, 142, 86, 139, 131, 113, 138, 128, 123, 141, 119, 140, 99, 140, 126, 99, 102, 122, 139, 113, 128, 138, 125, 129, 114, 137, 95, 101, 131, 96, 94, 103, 134, 135, 123, 117, 129, 88, 130, 121, 134, 103, 96, 101, 98, 133, 128, 113, 118, 132, 124, 84, 113, 131, 94, 117, 123, 115, 88, 95, 130, 129, 117, 114, 116, 123, 128, 118, 116, 128, 80, 96, 103, 97, 127, 98, 121, 122, 81, 120, 127, 97, 126, 125, 93, 109, 119, 83, 90, 84, 124, 108, 118, 113, 93, 99, 126, 93, 125, 114, 124, 112, 90, 123, 116, 115, 108, 105, 118, 106, 114, 117, 102, 81, 122, 81, 88, 121, 97, 112, 120, 99, 83, 119, 117, 115, 111, 116, 118, 105, 117, 110, 106, 103, 92, 71, 111, 110, 117, 106, 82, 114, 116, 107, 115, 113, 94, 79, 105, 107, 116, 111, 115, 107, 86, 109, 85, 93, 114, 82, 87, 90, 112, 91, 98, 101, 113, 100, 108, 100, 113, 79, 106, 111, 107, 112, 97, 87, 106, 110, 111, 83, 85, 109, 105, 104, 107, 100, 79, 73, 82, 106, 104, 100, 82, 104, 108, 100, 105, 104, 106, 107, 86, 68, 102, 100, 104, 105, 81, 102, 62, 78, 94, 96, 97, 98, 89, 80, 103, 71, 68, 62, 102, 74, 91, 101, 91, 77, 98, 99, 93, 76, 101, 95, 74, 66, 88, 81, 73, 82, 100, 76, 83, 99, 98, 77, 89, 97, 89, 87, 96, 80, 78, 95, 88, 74, 82, 75, 93, 94, 78, 79, 75, 76, 93, 65, 84, 90, 67, 87, 89, 92, 70, 71, 77, 91, 74, 90, 87, 65, 64, 65, 87, 77, 67, 89, 73, 79, 56, 72, 86, 85, 78, 80, 69, 88, 66, 74, 67, 64, 87, 72, 68, 86, 83, 72, 85, 73, 53, 82, 76, 72, 83, 53, 75, 82, 66, 81, 62, 78, 63, 79, 71, 69, 80, 63, 56, 79, 77, 74, 52, 70, 49, 71, 69, 63, 78, 72, 61, 68, 77, 52, 55, 76, 75, 59, 55, 57, 77, 69, 71, 54, 60, 65, 64, 77, 57, 67, 74, 66, 47, 72, 76, 59, 53, 59, 75, 47, 52, 74, 65, 60, 58, 53, 73, 56, 66, 62, 45, 72, 59, 61, 54, 71, 49, 64, 67, 50, 49, 70, 46, 69, 54, 63, 61, 62, 68, 57, 50, 67, 45, 47, 66, 56, 41, 53, 61, 59, 48, 54, 44, 63, 60, 64, 50, 54, 49, 29, 51, 52, 47, 44, 56, 63, 45, 62, 33, 62, 61, 33, 61, 48, 37, 37, 33, 61, 45, 33, 43, 42, 50, 57, 50, 58, 60, 27, 48, 59, 53, 36, 59, 36, 27, 59, 58, 50, 32, 44, 54, 30, 39, 42, 57, 39, 57, 55, 44, 34, 56, 41, 56, 34, 55, 52, 39, 29, 30, 54, 40, 52, 51, 35, 32, 50, 48, 25, 37, 41, 36, 53, 51, 47, 31, 40, 39, 52, 49, 46, 23, 31, 40, 51, 42, 35, 50, 29, 49, 23, 47, 45, 22, 42, 39, 38, 37, 25, 28, 48, 27, 25, 41, 34, 19, 47, 22, 20, 20, 31, 47, 40, 31, 24, 44, 30, 26, 45, 43, 22, 41, 10, 36, 34, 44, 16, 26, 16, 44, 33, 22, 43, 38, 35, 42, 41, 19, 10, 39, 40, 24, 39, 24, 15, 39, 15, 38, 28, 18, 37, 34, 16, 12, 35, 38, 21, 38, 15, 21, 18, 33, 37, 27, 36, 10, 21, 32, 35, 12, 19, 34, 30, 1, 26, 32, 21, 11, 25, 27, 7, 22, 33, 18, 25, 13, 28, 24, 31, 20, 1, 30, 29, 23, 1, 29, 18, 28, 13, 27, 10, 7, 5, 16, 26, 1, 5, 26, 20, 4, 24, 13, 25, 7, 20, 22, 17, 18, 13, 9, 24, 4, 15, 22, 18, 17, 21, 15, 11, 17, 18, 14, 8, 20, 17, 8, 4, 20, 12, 10, 19, 18, 9, 14, 14, 8, 17, 16, 5, 0, 4, 3, 15, 3, 11, 15, 0, 2, 12, 14, 9, 8, 9, 13, 6, 13, 7, 6, 10, 12, 2, 9, 2, 8, 7, 10, 2, 6, 2, 9, 2, 6, 7, 0, 12, 16]
        point3f[] points = [(0.016077904, -0.112803, 1.103514), (0.027185913, -0.048788, 0.99725), (0.044902906, -0.163664, 1.088783), (-0.12891209, -0.325645, 1.044783), (-0.14577308, -0.379146, 1.028848), (0.023596913, -0.098917, 1.031609), (-0.0063930904, -0.258325, 1.064904), (0.01655891, -0.212328, 1.043524), (-0.118509084, -0.423208, 1.019937), (-0.056039087, -0.331748, 1.043877), (0.051732916, -0.157644, 0.967599), (-0.12520407, -0.292118, 0.987975), (0.059454918, -0.114674, 0.974259), (-0.03306208, -0.267662, 0.986977), (-0.09240508, -0.405088, 1.021914), (-0.14378008, -0.321319, 0.97668), (0.064884916, -0.081311, 0.908716), (-0.12120509, -0.382051, 0.982403), (-0.08182807, -0.33893, 0.937498), (0.07515992, -0.117233, 0.891284), (-0.14313509, -0.358807, 0.970591), (-0.12961607, -0.267835, 0.928782), (-0.122077085, -0.35482, 0.918947), (0.031326924, -0.018185, 0.879296), (-0.16516508, -0.301124, 0.877611), (-0.019273072, -0.220449, 0.861323), (0.04210592, -0.0616, 0.907348), (0.03458093, -0.168417, 0.83714), (-0.05211207, -0.266025, 0.857175), (0.04824093, -0.013412999, 0.811111), (0.04695593, -0.033082, 0.816819), (-0.16636208, -0.302123, 0.824343), (-0.11928907, -0.176583, 0.803426), (-0.096309066, -0.296711, 0.779587), (0.090551935, -0.07806, 0.80559), (-0.12552908, -0.20433, 0.831471), (0.06716494, -0.13964, 0.800331), (-0.066033065, -0.257488, 0.742204), (-0.15929407, -0.227251, 0.82784), (-0.17563207, -0.230018, 0.779911), (-0.17935006, -0.25785404, 0.783901), (0.09636294, -0.093865, 0.70739), (-0.15209207, -0.192707, 0.774787), (-0.11749806, -0.302841, 0.770448), (0.087111935, -0.051287, 0.762667), (-0.13869205, -0.269709, 0.678761), (0.03377794, 0.027891003, 0.68315), (-0.16195504, -0.260679, 0.683618), (-0.0027180593, -0.183066, 0.70589), (0.057909936, 0.024459003, 0.662958), (-0.12946907, -0.149914, 0.692893), (-0.17642304, -0.25629702, 0.721796), (-0.17747305, -0.20472, 0.621137), (0.10611295, -0.090056, 0.600937), (0.06455995, -0.014260999, 0.639045), (-0.17700106, -0.177851, 0.628463), (0.102652945, -0.050543, 0.630986), (-0.16578306, -0.153779, 0.634523), (-0.11219306, -0.095072, 0.656623), (0.06845096, -0.132054, 0.620818), (-0.121967055, -0.113919, 0.610842), (-0.050341047, -0.203819, 0.611044), (-0.107129045, -0.212114, 0.514376), (0.10071195, -0.018937998, 0.579668), (-0.13053304, -0.07717701, 0.546599), (-0.108310044, -0.033196002, 0.504616), (-0.15610805, -0.208565, 0.515895), (-0.16477703, -0.098577, 0.534838), (-0.06810605, -0.1917, 0.505877), (0.07336795, 0.012397001, 0.546845), (0.06387496, 0.09377, 0.393428), (0.07901296, 0.065104, 0.455388), (-0.008031044, -0.167405, 0.523483), (0.15709196, -0.040343996, 0.464888), (-0.17596805, -0.183221, 0.513435), (0.112878956, -0.112536, 0.522623), (0.07896096, -0.13795, 0.515685), (-0.18078405, -0.131206, 0.523381), (0.13341396, 0.019375002, 0.448831), (0.15792696, -0.0071429983, 0.440846), (0.08454996, 0.041898, 0.420311), (-0.13982002, -0.194687, 0.40436), (0.15918097, -0.106617, 0.379823), (0.06364396, -0.155944, 0.431139), (-0.09302004, 0.025482, 0.403471), (0.009318964, -0.162595, 0.433501), (-0.040004026, -0.165728, 0.343508), (-0.16834904, -0.017207002, 0.434529), (-0.17841303, -0.170098, 0.34874296), (-0.19341505, -0.050280005, 0.42881697), (-0.13749103, 0.021085, 0.385353), (-0.20367503, -0.106338, 0.41961598), (0.08853797, 0.106659, 0.306945), (0.13513097, -0.128502, 0.366559), (0.16587096, 0.017039001, 0.373104), (-0.20467603, -0.13552, 0.31671298), (0.16107997, 0.041623004, 0.294228), (-0.19989704, -0.015617003, 0.35576198), (-0.21647403, -0.050049003, 0.32297698), (0.09710897, -0.16113698, 0.315766), (0.18561897, -0.051637, 0.37759602), (-0.21421602, -0.10723901, 0.33505598), (-0.07783503, -0.164398, 0.306499), (0.09617397, 0.063148, 0.306152), (0.20366597, -0.07774, 0.38404402), (0.24100398, -0.051264998, 0.37173304), (0.18820398, -0.122032, 0.37757003), (0.25041997, -0.078127, 0.36857602), (0.21654098, -0.039119996, 0.36655104), (0.030049976, -0.173703, 0.294606), (0.21624897, -0.117029995, 0.36222303), (0.24113397, -0.11028999, 0.36343002), (-0.15843703, 0.047813997, 0.283438), (0.19292697, -0.029781999, 0.33547503), (0.16174197, -0.116905, 0.329586), (0.24337196, -0.10027399, 0.33716503), (0.25463298, -0.054646995, 0.33500203), (0.21270996, -0.120171, 0.32207304), (0.24702297, -0.039162997, 0.33533502), (0.072265975, -0.169851, 0.268699), (-0.18455704, 0.03712, 0.25874096), (-0.16840102, -0.147543, 0.24401699), (-0.13016003, -0.169199, 0.289944), (0.21747497, -0.084337994, 0.26855803), (-0.11318002, 0.060911994, 0.294963), (0.15866399, -0.093615, 0.28153), (0.13068898, -0.135566, 0.24992801), (-0.20829302, 0.011365998, 0.22611098), (0.22463597, -0.0418, 0.27790603), (0.18707798, -0.09473, 0.27052504), (-0.19586103, -0.135184, 0.25941098), (0.18383698, 0.032316, 0.20867501), (-0.07554802, 0.081577, 0.280555), (-0.22152402, -0.046314005, 0.25519797), (0.14460298, 0.077842005, 0.24295701), (0.10831698, 0.100313, 0.22434302), (-0.07306101, 0.116018, 0.196849), (-0.21779001, -0.061669003, 0.20826398), (0.18859799, -0.005243998, 0.17329001), (-0.11401202, -0.123357, 0.15842699), (0.09713798, -0.15501298, 0.21976401), (0.22867498, -0.042548, 0.21595402), (-0.011211018, -0.160649, 0.227921), (-0.12806103, 0.093922995, 0.23227298), (0.16049299, -0.067399, 0.18255301), (0.16524498, 0.070471, 0.19465302), (0.042518985, -0.161994, 0.204755), (-0.208553, -0.085999, 0.19149598), (-0.18729602, -0.118088, 0.20477399), (0.22088899, -0.059408996, 0.13423401), (-0.13764803, 0.09746699, 0.20194699), (0.22524299, 0.011561003, 0.12143602), (-0.20781401, 0.00044799753, 0.16429499), (-0.17552902, 0.068474, 0.19093598), (-0.002699011, -0.141626, 0.143633), (0.118822984, -0.120405, 0.15293501), (0.138663, -0.095887996, 0.14880502), (0.14381596, 0.09025801, 0.18329601), (0.18747099, -0.071496, 0.13332601), (0.10682798, 0.101085, 0.16263102), (-0.11193501, 0.103474, 0.15079999), (-0.18205401, -0.048923, 0.090313986), (-0.18461101, 0.029890995, 0.115023986), (-0.13853501, 0.082012996, 0.112327985), (-0.067503, -0.134737, 0.07773899), (0.060580995, -0.119712, 0.083587006), (0.14991799, 0.062444005, 0.08738601), (0.10195499, 0.09025, 0.09888301), (0.17485899, 0.034443, 0.11253302), (-0.16281402, 0.055008996, 0.093717985), (-0.144823, -0.095161006, 0.102609985), (-0.19151202, -0.0079930015, 0.09127598), (0.211873, 0.042198002, 0.031949017), (0.24146, 0.018131003, 0.060523022), (0.23707, -0.022737999, 0.01809602), (0.172595, -0.056494996, 0.044093017), (0.242382, -0.0087239975, 0.083617024), (0.135608, -0.029110998, 0.028174011), (0.089017995, -0.098254, 0.053749006), (-0.073682, 0.094942, 0.009287993), (0.120635994, -0.067556, 0.055750012), (0.180108, 0.020864002, 0.053183015), (-0.027656998, -0.124401, 0.0015129976), (0.104811005, 0.095038, -0.052451994), (-0.168464, -0.012623002, -0.005909015), (-0.164708, 0.033328995, 0.0052939854), (0.214197, -0.048828997, 0.02018302), (0.113831, 0.074469, 0.01876501), (-0.13196298, -0.08551301, 0.013736988), (-0.116361, 0.07984, -0.0021230103), (-0.059060995, -0.118306, -0.018977005), (0.220986, 0.060043003, -0.05336498), (0.155317, 0.034899004, -0.042363986), (-0.1476, -0.044061, -0.043797012), (0.028255003, -0.111602, -0.011626997), (0.240934, 0.031968005, -0.01900098), (0.166248, -0.019738998, -0.063991986), (0.198175, -0.045858998, -0.012269982), (0.06889, -0.09044, -0.018442994), (0.173814, 0.031225001, -0.033098985), (0.189589, 0.061062, -0.06303999), (-0.187393, 0.019666998, -0.0056380164), (-0.23263201, 0.08569499, -0.0039730207), (-0.177546, 0.051603, -0.0073540155), (-0.249566, 0.056238998, -0.006066022), (-0.18953401, 0.093416, -0.019567017), (-0.08823399, -0.087151, -0.06251801), (-0.138372, 0.052353, -0.040410012), (-0.019293996, -0.146493, -0.018434001), (-0.202736, -0.019464003, -0.03724802), (-0.049990993, -0.161756, -0.023318004), (-0.215326, 0.11710699, -0.04973302), (0.137989, 0.06636301, -0.05278099), (0.108301, -0.038423996, -0.03614599), (-0.238959, 0.10064899, -0.047013022), (-0.010563996, -0.10673, -0.043198), (-0.159343, 0.066757, -0.044839013), (0.100292005, 0.011887001, -0.08271999), (0.19781701, -0.011729998, -0.09164298), (-0.029219994, -0.168624, -0.032402005), (-0.250315, 0.071542, -0.052053023), (0.130072, 0.010876001, -0.05941499), (-0.0044099935, -0.143949, -0.051346), (-0.06535999, -0.140811, -0.046413008), (0.22385201, 0.018949004, -0.10945698), (-0.246864, 0.025021996, -0.04179402), (-0.188125, 0.121253, -0.06511501), (-0.097101994, 0.093138, -0.07077501), (-0.06454899, -0.120957, -0.08183401), (-0.04735199, -0.153171, -0.09635001), (-0.15440698, 0.111597, -0.10805002), (0.11697801, 0.150312, -0.15339999), (0.04443401, -0.07068499, -0.07871499), (0.07834101, -0.034817, -0.09009499), (-0.010065991, -0.118997, -0.081534), (-0.07081399, 0.112086, -0.093751006), (0.16184902, 0.060455002, -0.11614299), (-0.074228995, -0.105971, -0.08290601), (-0.23529698, 0.049442995, -0.09999802), (-0.16855198, -0.066483, -0.08750901), (-0.015938988, -0.147297, -0.096401), (-0.11555699, -0.100357, -0.08816401), (0.22506301, 0.056891, -0.16128299), (-0.19470099, -0.032176003, -0.09524502), (0.14384401, 0.054723, -0.09592499), (-0.16712499, 0.141228, -0.15191402), (0.11162001, 0.112969, -0.106709994), (0.00242301, -0.081363, -0.100022), (-0.21858798, 0.118971996, -0.18095501), (-0.19788699, 0.143057, -0.18361501), (0.135885, 0.09817201, -0.11786499), (-0.11485199, 0.070618, -0.11361201), (0.0022650098, -0.111722, -0.095462), (0.12023001, 0.017734002, -0.13383698), (0.037228014, -0.065516, -0.127059), (-0.11374399, -0.105956, -0.119550005), (0.09835102, 0.017173002, -0.13332398), (-0.15658699, -0.027171003, -0.14241801), (-0.100408986, 0.107473, -0.16233802), (-0.127832, 0.093811, -0.15415202), (0.08584802, -0.025529997, -0.13296698), (0.16793601, -0.002692998, -0.19906199), (-0.05685899, -0.145419, -0.129808), (-0.004441986, -0.144341, -0.137686), (-0.108846985, -0.085971, -0.13935001), (0.177656, 0.09844, -0.16859998), (-0.10691599, -0.061874002, -0.15446702), (0.15488301, 0.1188, -0.17490898), (-0.012876984, -0.142993, -0.166877), (-0.04262498, -0.122213006, -0.176755), (0.07359902, -0.079995, -0.175976), (-0.059749987, 0.158306, -0.174645), (0.213343, 0.097113006, -0.18442999), (0.028921017, -0.089216, -0.18282), (0.14295402, -0.0035869982, -0.18334499), (-0.19933498, 0.046105996, -0.18543202), (0.14717302, 0.150471, -0.19087999), (-0.057748985, -0.078495, -0.155819), (0.115585014, 0.009479002, -0.16697499), (-0.13663198, 0.146728, -0.18351802), (-0.21712199, 0.08124799, -0.21602201), (0.12686001, -0.0070649986, -0.21291599), (0.013110016, -0.114734, -0.164049), (0.097829014, -0.051394, -0.18296199), (-0.049415983, -0.098192, -0.173771), (0.20749402, 0.021748004, -0.21741998), (-0.010848982, -0.116712, -0.181856), (-0.05437098, -0.062865, -0.20089), (-0.12951298, -0.06427201, -0.18346801), (-0.14651099, -0.052412, -0.20924701), (-0.039402977, -0.083961, -0.248931), (-0.120723985, 0.168255, -0.19119501), (0.13140902, 0.190136, -0.23762499), (-0.10817098, 0.181218, -0.22328901), (0.003907019, -0.083767, -0.201928), (-0.05766798, 0.187757, -0.22794), (-0.15957399, -0.0029380019, -0.20938602), (0.18962301, 0.127381, -0.19456498), (-0.04590798, 0.205333, -0.244204), (-0.11706598, -0.066522, -0.21517901), (-0.17835599, 0.162017, -0.20963602), (-0.018903978, -0.105055, -0.241892), (0.081068024, -0.076134, -0.21621), (0.231141, 0.098014005, -0.24422999), (0.21993303, 0.147052, -0.25838298), (0.110163026, -0.038258996, -0.22339399), (-0.19504698, 0.164677, -0.26059803), (-0.12951098, -0.038074, -0.24045601), (-0.21252897, 0.129276, -0.25942904), (-0.09416598, -0.050058, -0.23216802), (0.23070103, 0.06297101, -0.25944498), (-0.037819978, -0.036355, -0.24712), (0.06391402, -0.058404, -0.251542), (0.19053502, 0.178383, -0.25972697), (-0.18146399, 0.024934996, -0.24283402), (0.000040023475, -0.090608, -0.256155), (0.029666021, -0.04453, -0.251421), (0.15860102, -0.016761998, -0.253658), (-0.06923398, -0.018935, -0.26317), (-0.16856597, 0.20148, -0.288592), (0.13829602, 0.223936, -0.33393), (-0.21491997, 0.08350299, -0.29445902), (-0.10091398, -0.025736002, -0.285407), (0.21650504, 0.027496003, -0.30863798), (0.09985002, -0.036767, -0.288398), (0.17054403, 0.199797, -0.28140697), (-0.12345597, -0.009258002, -0.30331), (-0.13553797, 0.211362, -0.272559), (-0.032358974, 0.246675, -0.350206), (0.17754303, -0.005996998, -0.29973096), (0.033650026, -0.019012999, -0.291216), (0.20256503, 0.19345, -0.32884997), (0.046933025, -0.030525, -0.308233), (-0.092436984, 0.23025198, -0.293709), (-0.031165974, -0.012872, -0.297971), (-0.19494598, 0.052042995, -0.31413102), (-0.21935497, 0.12156999, -0.31012204), (-0.15750697, 0.013835998, -0.315719), (-0.20735197, 0.16567, -0.33142504), (0.24008003, 0.129049, -0.30307096), (0.22553103, 0.167483, -0.31385198), (-0.18211697, 0.206358, -0.36186504), (0.24077503, 0.10475001, -0.34905198), (0.23768502, 0.069813006, -0.32508996), (-0.07281697, 0.024029, -0.350825), (-0.14495797, 0.226564, -0.322324), (0.15109102, 0.231279, -0.409307), (0.09012003, -0.029302, -0.33307), (-0.20373198, 0.093148, -0.36579102), (-0.12007297, 0.014450999, -0.3709), (0.22030303, 0.055952005, -0.37107897), (0.15704504, -0.008448998, -0.352505), (0.06776704, 0.004673001, -0.428466), (-0.09337096, 0.251724, -0.393346), (-0.02448997, 0.011686, -0.352038), (0.039635032, 0.018535, -0.362648), (-0.20722798, 0.114432, -0.37798703), (0.12664603, 0.010025002, -0.424787), (-0.15258096, 0.069998, -0.452595), (0.19148003, 0.207862, -0.42521796), (-0.19551297, 0.154737, -0.42191002), (0.07470403, 0.253253, -0.359083), (0.118665025, 0.244411, -0.357038), (-0.08960796, 0.031898, -0.429117), (0.22808503, 0.147071, -0.41265798), (-0.006013964, 0.017675, -0.415176), (0.21294405, 0.18187, -0.43002298), (0.19686203, 0.032753002, -0.38466996), (-0.13992096, 0.239503, -0.414708), (0.009337029, 0.242856, -0.373914), (0.04053203, 0.252536, -0.365639), (-0.06283797, 0.043604, -0.393915), (0.21078305, 0.111125, -0.46473497), (0.104648024, 0.242139, -0.379806), (-0.0132119665, 0.262337, -0.425103), (0.052621037, 0.034038, -0.412111), (0.16533105, 0.227179, -0.49171), (0.023688033, 0.257468, -0.430376), (0.06454004, 0.024092, -0.471614), (0.16685404, 0.045262005, -0.463981), (0.082391046, 0.25454, -0.493091), (-0.18609397, 0.184517, -0.41978103), (-0.10777696, 0.038379997, -0.463409), (0.036532037, 0.026927002, -0.432523), (0.06317405, 0.264941, -0.473421), (-0.072023965, 0.035501998, -0.43953), (-0.040364962, -0.008087001, -0.43568), (-0.001829962, -0.013259, -0.432992), (0.10359605, 0.259948, -0.49758), (-0.14781296, 0.222757, -0.51475), (0.0011200439, 0.269305, -0.53855), (0.105306044, 0.027756002, -0.509245), (-0.016630959, -0.026165, -0.460283), (-0.05489796, 0.269337, -0.494435), (0.025492042, -0.011951, -0.462466), (-0.09667496, 0.260002, -0.523733), (0.039731044, 0.271961, -0.493736), (0.19185105, 0.189602, -0.542181), (-0.034875955, -0.024756001, -0.494915), (-0.15339796, 0.197253, -0.558518), (-0.09500296, 0.04129, -0.513187), (-0.15936396, 0.120676, -0.53841), (-0.15269294, 0.135968, -0.600893), (-0.0058219507, 0.28537, -0.609019), (0.19550805, 0.156185, -0.545247), (0.026195046, 0.279, -0.562149), (-0.121314965, 0.244577, -0.551913), (0.00040404475, -0.016812, -0.509525), (-0.14116797, 0.089462996, -0.5569), (0.119836055, 0.261081, -0.591727), (0.042697046, -0.0011969996, -0.520771), (-0.058189955, 0.00031899931, -0.521428), (0.18341604, 0.123573, -0.563244), (0.16911604, 0.091517, -0.560057), (0.14301404, 0.06255901, -0.574624), (0.071102045, 0.0228, -0.547752), (0.05276705, 0.287424, -0.606976), (-0.023547951, -0.010095, -0.552083), (-0.08419295, 0.029634997, -0.579672), (-0.10724295, 0.051826995, -0.607353), (0.15431006, 0.231523, -0.607651), (0.03902005, 0.0061300006, -0.578359), (-0.14917694, 0.175818, -0.610485), (0.06503406, 0.28092, -0.645349), (0.09498705, 0.033156, -0.609384), (0.00034705224, 0.003717, -0.597828), (0.17587106, 0.182847, -0.617887), (-0.04161295, 0.013821999, -0.604415), (-0.058149945, 0.273296, -0.627437), (-0.12133796, 0.224106, -0.63097), (-0.07970794, 0.259519, -0.645355), (-0.12704895, 0.093717, -0.638926), (0.15994106, 0.113314, -0.642284), (0.065217055, 0.024658, -0.635027), (-0.06267995, 0.025004, -0.627996), (0.005668056, 0.021688, -0.6419), (0.010159052, 0.287302, -0.643305), (0.12573107, 0.240483, -0.650063), (-0.12878394, 0.170405, -0.65876), (0.12634607, 0.080155, -0.660044), (0.14991806, 0.193307, -0.661285), (-0.116872944, 0.127697, -0.671162), (0.06790206, 0.253662, -0.663444), (-0.08089794, 0.084141, -0.672446), (0.14943506, 0.131082, -0.668845), (-0.09462095, 0.22173598, -0.670025), (0.0023080544, 0.274411, -0.656814), (0.056636058, 0.055197, -0.676588), (-0.003537942, 0.056035, -0.671643), (0.0077250563, 0.229043, -0.67587), (-0.10187594, 0.183282, -0.680188), (0.12103106, 0.169961, -0.683078), (0.10859706, 0.098328, -0.685), (-0.084170945, 0.133716, -0.685985), (-0.018152943, 0.101026, -0.685997), (0.05128806, 0.089264, -0.692566), (0.006667058, 0.172023, -0.68826), (0.06381106, 0.125124, -0.696495)]
        texCoord2f[] primvars:st = [(0.8245362, 0.1973176), (0.7763866, 0.10216812), (0.83022964, 0.24873072), (0.63298583, 0.56188977), (0.64858055, 0.52742094), (0.798172, 0.14517722), (0.76655245, 0.330271), (0.7406436, 0.27624547), (0.67117333, 0.50471765), (0.7254236, 0.4096245), (0.7175958, 0.19254509), (0.5834943, 0.5733581), (0.7244942, 0.15576339), (0.68354297, 0.34680334), (0.6765804, 0.47737798), (0.5716822, 0.54281294), (0.6854309, 0.10264296), (0.6165718, 0.46471468), (0.62260485, 0.4087416), (0.6520059, 0.12596074), (0.5973667, 0.47855023), (0.5120839, 0.5532866), (0.56853235, 0.4381899), (0.7006264, 0.01155553), (0.5030788, 0.47251222), (0.57626, 0.25442713), (0.68832815, 0.07050959), (0.59138227, 0.17890671), (0.5514262, 0.3057642), (0.6375046, -0.015305068), (0.6399541, 0.013424464), (0.45568657, 0.43027285), (0.3509481, 0.5329747), (0.4574523, 0.33545548), (0.5748699, 0.060262658), (0.3981849, 0.51806617), (0.55283654, 0.10746192), (0.44452965, 0.26575235), (0.41322267, 0.4979171), (0.37778747, 0.4486495), (0.40637124, 0.42852977), (0.48139453, 0.03609866), (0.35368574, 0.47917482), (0.44695258, 0.35948882), (0.5645, -0.004475966), (0.35348654, 0.3275032), (0.57514215, -0.12761042), (0.33972108, 0.36160842), (0.45729697, 0.17024636), (0.54003716, -0.120506115), (0.25760287, 0.48393348), (0.36219347, 0.3942677), (0.24936421, 0.36344227), (0.373062, -0.014907509), (0.5041717, -0.10166055), (0.23747258, 0.38726673), (0.44392407, -0.054463916), (0.23474966, 0.4217275), (0.20149715, 0.52178216), (0.3737142, 0.07602958), (0.17650358, 0.49284914), (0.3271222, 0.20255142), (0.2139485, 0.22734389), (0.4402523, -0.121983215), (0.11725147, 0.4727029), (0.061732024, 0.5080604), (0.17330118, 0.27662864), (0.13028069, 0.4258946), (0.22402285, 0.1768516), (0.43080556, -0.17155458), (0.36744654, -0.33477125), (0.3880359, -0.26535293), (0.25647348, 0.10104672), (0.3017463, -0.116481245), (0.14827941, 0.31052694), (0.2908513, -0.027221821), (0.2644484, 0.010841064), (0.15009595, 0.36941203), (0.33361608, -0.21465722), (0.30394566, -0.18457973), (0.34608328, -0.27050108), (0.08852449, 0.22210288), (0.21430169, -0.12189728), (0.17331673, 0.018987335), (-0.07208487, 0.5156636), (0.16706146, 0.06657357), (0.07547073, 0.09886164), (-0.0092651695, 0.43562892), (0.01749736, 0.25034758), (0.003068611, 0.39536563), (-0.07138947, 0.47712716), (0.03902951, 0.33285624), (0.30042607, -0.39500523), (0.17470197, -0.07853649), (0.25341588, -0.27125272), (-0.050746843, 0.27236745), (0.21875586, -0.3524507), (-0.08810681, 0.3901013), (-0.051883534, 0.35106274), (0.11410518, -0.053693622), (0.22598289, -0.19740775), (-0.050701387, 0.3038655), (0.017105028, 0.1409015), (0.2752244, -0.36944222), (0.19719277, -0.17076293), (0.18005739, -0.21071333), (0.16686486, -0.16140543), (0.16526948, -0.19541696), (0.19812094, -0.22611904), (0.048513323, 0.0217847), (0.15079398, -0.17894259), (0.15126331, -0.1875539), (-0.15224986, 0.4271612), (0.19377957, -0.2709756), (0.1438099, -0.14002484), (0.13498081, -0.21404809), (0.14696576, -0.23715317), (0.12321712, -0.19268212), (0.16683416, -0.2515578), (0.05157143, -0.029590532), (-0.21082027, 0.39399153), (-0.05513843, 0.20643127), (-0.022218779, 0.17275184), (0.09867816, -0.24488902), (-0.16408291, 0.46621367), (0.067643, -0.14611971), (0.050061673, -0.1093997), (-0.20326228, 0.33142042), (0.12385981, -0.29847562), (0.06154214, -0.1931362), (-0.073391244, 0.23263267), (0.1389481, -0.381211), (-0.19550131, 0.5029985), (-0.1328342, 0.30425853), (0.20003043, -0.41668957), (0.21371348, -0.47055143), (-0.29194117, 0.47399208), (-0.15428783, 0.27234796), (0.086612925, -0.38377044), (-0.12942713, 0.107071884), (0.006642729, -0.073971555), (0.04340981, -0.31652415), (-0.04647799, 0.046607293), (-0.21919893, 0.44330254), (-0.029241651, -0.18043768), (0.14930086, -0.43752393), (-0.028302625, -0.024035383), (-0.14423208, 0.23905489), (-0.15051535, 0.20854887), (0.0025225282, -0.27882808), (-0.27061427, 0.41940877), (0.034449324, -0.3783846), (-0.25682873, 0.27810732), (-0.26957378, 0.36382374), (-0.11259888, -0.004407279), (-0.054555662, -0.11992887), (-0.032010965, -0.14072612), (0.14918162, -0.4727032), (-0.038811505, -0.24642673), (0.14569871, -0.51508874), (-0.34232324, 0.42150587), (-0.27663472, 0.20949268), (-0.33111835, 0.31121966), (-0.3704207, 0.37169236), (-0.17448628, 0.057276316), (-0.122715615, -0.08687613), (0.05079113, -0.5069755), (0.068969205, -0.55168796), (0.0388965, -0.45104748), (-0.38788483, 0.32788533), (-0.217091, 0.14830747), (-0.32395035, 0.24466404), (-0.060419843, -0.45622498), (-0.05517119, -0.3973461), (-0.070535146, -0.3665635), (-0.09998798, -0.2597504), (-0.03107334, -0.36169624), (-0.14383279, -0.22128096), (-0.12690952, -0.133213), (-0.50559396, 0.39767614), (-0.116589904, -0.1636325), (-0.034114525, -0.47834358), (-0.21598855, -0.024800412), (-0.11221151, -0.63355803), (-0.40799308, 0.20759857), (-0.42820257, 0.26716453), (-0.09471895, -0.3210128), (-0.029779837, -0.5641553), (-0.28660494, 0.13313985), (-0.48772198, 0.34327236), (-0.28520823, 0.04894761), (-0.16189133, -0.49084774), (-0.10016236, -0.55683714), (-0.3815549, 0.1478039), (-0.21935579, -0.10300817), (-0.122658625, -0.434561), (-0.19768761, -0.30800045), (-0.13908261, -0.31523713), (-0.19583422, -0.15005335), (-0.10596333, -0.5236323), (-0.14262657, -0.5125811), (-0.44098556, 0.2141681), (-0.5069056, 0.20967695), (-0.48619896, 0.2469092), (-0.49202287, 0.17895782), (-0.5539979, 0.23346809), (-0.32509232, 0.07722721), (-0.56828207, 0.29930502), (-0.28570157, -0.027100746), (-0.4386024, 0.1478244), (-0.30977774, -0.005878523), (-0.6140464, 0.206893), (-0.106155865, -0.58794767), (-0.19366187, -0.19218439), (-0.57999533, 0.18963566), (-0.26620516, -0.084742464), (-0.5717575, 0.26410022), (-0.23226663, -0.23161861), (-0.23716405, -0.38760284), (-0.31557733, -0.03357897), (-0.57171714, 0.15776813), (-0.21541545, -0.26415858), (-0.30731878, -0.04770788), (-0.32016903, 0.010338768), (-0.21606639, -0.43508887), (-0.4926179, 0.14479509), (-0.6253494, 0.22188768), (-0.6330752, 0.33577532), (-0.34079108, 0.023912624), (-0.34909043, -0.034015235), (-0.6585611, 0.23655382), (-0.2475554, -0.67580193), (-0.2619832, -0.14368555), (-0.2552822, -0.19209102), (-0.30255163, -0.075651996), (-0.7018696, 0.36895815), (-0.19548176, -0.5727952), (-0.34801716, 0.063263066), (-0.56563765, 0.115326814), (-0.430771, 0.07990686), (-0.32666135, -0.06430678), (-0.3881573, 0.044942714), (-0.28396797, -0.50480574), (-0.47209412, 0.07199142), (-0.16745926, -0.586241), (-0.7057841, 0.19699979), (-0.18164772, -0.65962577), (-0.30305076, -0.12789415), (-0.6941861, 0.13235003), (-0.7604977, 0.15077034), (-0.21839614, -0.6342279), (-0.66183877, 0.30736938), (-0.32814348, -0.107150935), (-0.24707878, -0.29541433), (-0.30402896, -0.18314455), (-0.41656488, 0.016901277), (-0.26656508, -0.2749561), (-0.52819866, 0.041932143), (-0.7248486, 0.30147696), (-0.70068944, 0.27059418), (-0.29772615, -0.24016991), (-0.30626562, -0.375273), (-0.38519728, -0.03423925), (-0.35215616, -0.0995093), (-0.450177, -0.00069375336), (-0.28438902, -0.5804996), (-0.4909361, -0.015728645), (-0.27220273, -0.61210054), (-0.37229714, -0.08890642), (-0.41259933, -0.06527776), (-0.33093554, -0.22076038), (-0.8371686, 0.25467643), (-0.30872154, -0.562646), (-0.3509922, -0.16304165), (-0.271834, -0.32380292), (-0.6027621, 0.07124742), (-0.30448687, -0.6575189), (-0.44517207, -0.05008438), (-0.27559873, -0.301652), (-0.7487786, 0.2007595), (-0.6885581, 0.09072169), (-0.30840963, -0.30891997), (-0.36616486, -0.124780126), (-0.33292413, -0.27275434), (-0.42995697, -0.06880652), (-0.3388881, -0.43056634), (-0.38470918, -0.13622914), (-0.48621148, -0.06462012), (-0.5254697, 0.0033550486), (-0.5523702, 0.00843624), (-0.43571758, -0.09402223), (-0.7954984, 0.19705799), (-0.44201958, -0.7291882), (-0.88661873, 0.14651278), (-0.3880214, -0.1932592), (-0.9445733, 0.15385392), (-0.58649546, 0.028269857), (-0.33417815, -0.62410355), (-1.0161145, 0.11612942), (-0.5313227, -0.021299671), (-0.8273339, 0.1198551), (-0.4123605, -0.11480509), (-0.36399192, -0.25213268), (-0.37313378, -0.54984474), (-0.4182753, -0.6104013), (-0.34039795, -0.3417292), (-0.8589374, 0.052501492), (-0.58977795, -0.015945792), (-0.7974757, 0.059723787), (-0.5472768, -0.052125365), (-0.4061442, -0.5085525), (-0.4698339, -0.13918395), (-0.40686357, -0.24247351), (-0.44207066, -0.6768439), (-0.65869, 0.012562126), (-0.41892904, -0.15061972), (-0.44, -0.20024262), (-0.37300706, -0.35434923), (-0.53087324, -0.101314686), (-0.8985112, 0.045291573), (-0.6391711, -0.7337923), (-0.7528398, 0.0038642138), (-0.60326093, -0.07886273), (-0.43386114, -0.45752802), (-0.41943353, -0.3224963), (-0.52033436, -0.7040494), (-0.64224505, -0.042235482), (-0.93180335, 0.058504768), (-1.1337075, -0.21599376), (-0.41140193, -0.4037373), (-0.4984277, -0.19503206), (-0.5629091, -0.66773444), (-0.48729897, -0.2655744), (-1.0180304, -0.017565466), (-0.52169466, -0.1509229), (-0.72326195, -0.0431398), (-0.8110753, -0.005854331), (-0.6868061, -0.053967677), (-0.8579037, -0.0023479238), (-0.47454226, -0.5872888), (-0.4961415, -0.63308364), (-0.9241525, -0.024933994), (-0.46027535, -0.5493927), (-0.4616742, -0.50957316), (-0.57586694, -0.1364126), (-0.9778906, -0.027867794), (-0.7437613, -0.67641836), (-0.47651458, -0.32008055), (-0.77628744, -0.09141116), (-0.6747321, -0.101293296), (-0.53212965, -0.48173174), (-0.45087856, -0.41089335), (-0.52389127, -0.3269267), (-1.0560206, -0.21795368), (-0.5501616, -0.18326113), (-0.53286606, -0.22466901), (-0.8034195, -0.058354273), (-0.4970854, -0.36784557), (-0.7394006, -0.12325987), (-0.6737578, -0.6422695), (-0.8451272, -0.06580521), (-0.93890655, -0.6738439), (-0.8020289, -0.7121607), (-0.64531314, -0.15354744), (-0.5853466, -0.57967764), (-0.5848315, -0.2214393), (-0.6280002, -0.61364776), (-0.48068595, -0.44738635), (-0.9815042, -0.15063855), (-1.1054642, -0.416717), (-1.0605936, -0.5725094), (-0.5987082, -0.17675278), (-0.56280214, -0.5370972), (-0.86079633, -0.6798818), (-1.0889889, -0.3534522), (-0.55080974, -0.25455326), (-0.7484218, -0.60385513), (-1.0455827, -0.4551514), (-0.5716783, -0.29991212), (-0.5500484, -0.42859408), (-0.9207915, -0.5671158), (-0.88682604, -0.06327666), (-0.71589756, -0.1797533), (-0.58323276, -0.25941408), (-0.96331465, -0.5520646), (-0.6302267, -0.20107943), (-0.63161343, -0.23397917), (-0.60736895, -0.2486411), (-0.8684722, -0.5927685), (-0.9267231, -0.16034162), (-1.0055255, -0.4257296), (-0.5851391, -0.37328923), (-0.627789, -0.25699314), (-1.0045015, -0.32220235), (-0.6079688, -0.27312142), (-0.9790834, -0.27402836), (-0.9965967, -0.47724348), (-0.69935393, -0.55489665), (-0.65408707, -0.25548515), (-0.8857063, -0.1779655), (-0.6786845, -0.22474208), (-0.7956059, -0.18227872), (-0.8459959, -0.19833769), (-0.9392561, -0.4143237), (-0.6629834, -0.53933316), (-0.95991194, -0.45520663), (-0.94746494, -0.24532747), (-0.63679844, -0.2742463), (-0.7701602, -0.20283645), (-0.8356739, -0.54713506), (-0.6245052, -0.30022386), (-0.67574453, -0.2567475), (-0.65455866, -0.5021594), (-0.6293185, -0.46268943), (-0.64750963, -0.42346284), (-0.614439, -0.33731076), (-0.9333117, -0.47623056), (-0.66857517, -0.2852035), (-0.6980308, -0.25992045), (-0.7428155, -0.24393094), (-0.781481, -0.53314346), (-0.6517664, -0.32952982), (-0.8850014, -0.2334365), (-0.90091336, -0.4903456), (-0.6449742, -0.3752109), (-0.6883204, -0.31630823), (-0.73704875, -0.5054058), (-0.7157905, -0.28542015), (-0.93387604, -0.3449674), (-0.91004586, -0.25784737), (-0.9207442, -0.31347832), (-0.8108045, -0.2483449), (-0.69804215, -0.46677563), (-0.68208337, -0.35601175), (-0.76057315, -0.28164017), (-0.7261549, -0.32292584), (-0.90142405, -0.43432692), (-0.83311987, -0.49048713), (-0.8790728, -0.27423865), (-0.6975745, -0.4159715), (-0.78556633, -0.48927048), (-0.84688115, -0.28026754), (-0.8592589, -0.45377967), (-0.786554, -0.30645984), (-0.7465844, -0.46458256), (-0.87730587, -0.33917215), (-0.8725245, -0.41990378), (-0.717728, -0.37303415), (-0.7466943, -0.34564748), (-0.8530636, -0.40944567), (-0.8534913, -0.31633335), (-0.7931982, -0.4559032), (-0.7440492, -0.42231828), (-0.8161371, -0.3243831), (-0.77388155, -0.35361314), (-0.7467501, -0.3791053), (-0.81334186, -0.38532212), (-0.77048206, -0.4057758)] (
            interpolation = "vertex"
        )
    }
}

