#usda 1.0

def "David328"
{
    def Mesh "David328"
    {
        int[] faceVertexCounts = [3, 3, 3, 3, 3, 3, 3, 3, 3, 3, 3, 3, 3, 3, 3, 3, 3, 3, 3, 3, 3, 3, 3, 3, 3, 3, 3, 3, 3, 3, 3, 3, 3, 3, 3, 3, 3, 3, 3, 3, 3, 3, 3, 3, 3, 3, 3, 3, 3, 3, 3, 3, 3, 3, 3, 3, 3, 3, 3, 3, 3, 3, 3, 3, 3, 3, 3, 3, 3, 3, 3, 3, 3, 3, 3, 3, 3, 3, 3, 3, 3, 3, 3, 3, 3, 3, 3, 3, 3, 3, 3, 3, 3, 3, 3, 3, 3, 3, 3, 3, 3, 3, 3, 3, 3, 3, 3, 3, 3, 3, 3, 3, 3, 3, 3, 3, 3, 3, 3, 3, 3, 3, 3, 3, 3, 3, 3, 3, 3, 3, 3, 3, 3, 3, 3, 3, 3, 3, 3, 3, 3, 3, 3, 3, 3, 3, 3, 3, 3, 3, 3, 3, 3, 3, 3, 3, 3, 3, 3, 3, 3, 3, 3, 3, 3, 3, 3, 3, 3, 3, 3, 3, 3, 3, 3, 3, 3, 3, 3, 3, 3, 3, 3, 3, 3, 3, 3, 3, 3, 3, 3, 3, 3, 3, 3, 3, 3, 3, 3, 3, 3, 3, 3, 3, 3, 3, 3, 3, 3, 3, 3, 3, 3, 3, 3, 3, 3, 3, 3, 3, 3, 3, 3, 3, 3, 3, 3, 3, 3, 3, 3, 3, 3, 3, 3, 3, 3, 3, 3, 3, 3, 3, 3, 3, 3, 3, 3, 3, 3, 3, 3, 3, 3, 3, 3, 3, 3, 3, 3, 3, 3, 3, 3, 3, 3, 3, 3, 3, 3, 3, 3, 3, 3, 3, 3, 3, 3, 3, 3, 3, 3, 3, 3, 3, 3, 3, 3, 3, 3, 3, 3, 3, 3, 3, 3, 3, 3, 3, 3, 3, 3, 3, 3, 3, 3, 3, 3, 3, 3, 3, 3, 3, 3, 3, 3, 3, 3, 3, 3, 3, 3, 3, 3, 3, 3, 3, 3, 3, 3, 3, 3, 3, 3, 3, 3, 3, 3, 3, 3, 3, 3, 3, 3, 3, 3, 3, 3, 3, 3, 3, 3, 3, 3, 3, 3, 3, 3, 3, 3, 3, 3, 3, 3, 3, 3, 3, 3, 3, 3, 3, 3, 3, 3, 3, 3, 3, 3, 3, 3, 3, 3, 3, 3, 3, 3, 3, 3, 3, 3, 3, 3, 3, 3, 3, 3, 3, 3, 3, 3, 3, 3, 3, 3, 3, 3, 3, 3, 3, 3, 3, 3, 3, 3, 3, 3, 3, 3, 3, 3, 3, 3, 3, 3, 3, 3, 3, 3, 3, 3, 3, 3, 3, 3, 3, 3, 3, 3, 3, 3, 3, 3, 3, 3, 3, 3, 3, 3, 3, 3, 3, 3, 3, 3, 3, 3, 3, 3, 3, 3, 3, 3, 3, 3, 3, 3, 3, 3, 3, 3, 3, 3, 3, 3, 3, 3, 3, 3, 3, 3, 3, 3, 3, 3, 3, 3, 3, 3, 3, 3, 3, 3, 3, 3, 3, 3, 3, 3, 3, 3, 3, 3, 3, 3, 3, 3, 3, 3, 3, 3, 3, 3, 3, 3, 3, 3, 3, 3, 3, 3, 3, 3, 3, 3, 3, 3, 3, 3, 3, 3, 3, 3, 3, 3, 3, 3, 3, 3, 3, 3, 3, 3, 3, 3, 3, 3, 3, 3, 3, 3, 3, 3, 3, 3, 3, 3, 3, 3, 3, 3, 3, 3, 3, 3, 3, 3, 3, 3, 3, 3, 3, 3, 3, 3, 3, 3, 3, 3, 3, 3, 3, 3, 3, 3, 3, 3, 3]
        int[] faceVertexIndices = [0, 1, 2, 3, 4, 5, 6, 7, 8, 9, 10, 3, 3, 11, 12, 4, 3, 13, 13, 14, 15, 16, 3, 10, 15, 14, 17, 3, 16, 11, 6, 12, 18, 3, 5, 9, 19, 17, 14, 6, 18, 7, 13, 3, 14, 6, 8, 1, 21, 22, 23, 20, 23, 22, 24, 21, 23, 23, 20, 19, 23, 25, 24, 23, 19, 14, 26, 27, 28, 29, 3, 30, 26, 28, 31, 33, 26, 32, 26, 31, 32, 26, 34, 35, 26, 33, 34, 36, 37, 25, 14, 39, 23, 35, 40, 26, 26, 40, 2, 14, 3, 29, 44, 2, 40, 45, 46, 47, 48, 42, 43, 2, 44, 48, 24, 25, 38, 47, 48, 43, 46, 45, 50, 47, 46, 48, 46, 50, 51, 14, 29, 52, 53, 54, 46, 53, 46, 51, 55, 38, 25, 23, 39, 56, 57, 58, 46, 58, 57, 59, 44, 42, 48, 36, 23, 56, 36, 25, 23, 60, 3, 6, 58, 59, 49, 14, 52, 39, 54, 57, 46, 61, 39, 52, 3, 12, 6, 52, 29, 30, 52, 30, 62, 41, 25, 49, 56, 63, 36, 41, 55, 25, 25, 37, 64, 2, 27, 26, 65, 49, 25, 48, 46, 66, 67, 39, 61, 56, 39, 67, 30, 3, 60, 25, 64, 68, 2, 48, 69, 56, 67, 63, 69, 48, 66, 6, 1, 0, 62, 61, 52, 46, 70, 66, 30, 71, 62, 2, 1, 27, 46, 58, 70, 72, 63, 67, 73, 6, 74, 67, 61, 62, 60, 75, 71, 76, 77, 78, 71, 30, 60, 79, 36, 63, 69, 66, 76, 63, 72, 79, 79, 37, 36, 80, 62, 71, 81, 2, 69, 73, 60, 6, 76, 66, 70, 71, 75, 82, 75, 60, 73, 64, 37, 83, 83, 37, 79, 25, 68, 65, 6, 0, 74, 71, 82, 84, 85, 69, 76, 76, 70, 77, 73, 86, 87, 85, 76, 78, 88, 62, 80, 89, 77, 70, 65, 58, 49, 90, 67, 62, 74, 86, 73, 68, 64, 83, 68, 83, 91, 72, 67, 92, 83, 79, 93, 80, 71, 88, 84, 88, 71, 62, 88, 90, 67, 90, 92, 94, 95, 96, 74, 0, 97, 98, 58, 99, 75, 73, 82, 93, 79, 92, 100, 90, 88, 65, 68, 91, 82, 73, 87, 74, 97, 86, 81, 101, 2, 91, 83, 93, 102, 65, 91, 92, 90, 103, 104, 85, 78, 77, 89, 104, 97, 0, 105, 103, 90, 100, 104, 78, 77, 81, 69, 106, 107, 104, 108, 106, 69, 85, 94, 70, 58, 109, 0, 2, 93, 110, 91, 87, 111, 82, 100, 88, 84, 58, 65, 99, 2, 101, 109, 112, 86, 97, 105, 0, 109, 97, 105, 112, 91, 113, 102, 85, 104, 107, 112, 87, 86, 92, 114, 93, 84, 82, 115, 70, 94, 96, 70, 96, 89, 102, 99, 65, 104, 89, 108, 93, 114, 110, 91, 110, 116, 99, 102, 113, 117, 101, 81, 81, 118, 117, 119, 92, 103, 100, 84, 115, 58, 98, 94, 120, 112, 121, 112, 105, 121, 115, 82, 111, 106, 118, 81, 113, 98, 99, 122, 115, 111, 123, 124, 125, 101, 121, 109, 111, 120, 126, 114, 92, 119, 117, 127, 101, 103, 100, 128, 121, 105, 109, 91, 116, 113, 101, 124, 121, 101, 127, 124, 129, 85, 107, 103, 130, 119, 131, 94, 98, 122, 132, 133, 85, 129, 106, 133, 100, 115, 134, 129, 107, 107, 108, 134, 113, 135, 98, 131, 98, 135, 111, 87, 112, 116, 110, 136, 137, 138, 116, 111, 112, 120, 117, 139, 127, 117, 140, 141, 96, 142, 89, 135, 113, 116, 110, 114, 136, 116, 138, 135, 103, 128, 130, 128, 100, 133, 108, 89, 143, 144, 145, 131, 141, 139, 117, 137, 116, 136, 120, 123, 126, 135, 144, 131, 146, 131, 145, 147, 114, 119, 89, 142, 143, 122, 111, 126, 148, 149, 150, 119, 130, 147, 121, 124, 123, 143, 151, 108, 123, 120, 121, 140, 117, 118, 133, 115, 122, 152, 153, 132, 138, 136, 148, 127, 154, 124, 114, 155, 136, 135, 138, 156, 157, 146, 145, 158, 118, 106, 155, 114, 147, 135, 156, 159, 129, 134, 160, 131, 146, 94, 123, 161, 126, 136, 138, 137, 140, 118, 162, 143, 142, 163, 139, 141, 127, 134, 108, 151, 123, 125, 161, 164, 106, 129, 165, 151, 166, 145, 144, 157, 127, 141, 167, 144, 135, 157, 151, 160, 134, 167, 140, 162, 141, 140, 167, 136, 149, 148, 161, 168, 126, 125, 124, 154, 162, 118, 158, 130, 128, 133, 142, 96, 95, 95, 94, 169, 169, 94, 146, 158, 106, 164, 161, 125, 168, 127, 167, 154, 159, 146, 157, 138, 148, 156, 170, 163, 142, 122, 126, 152, 171, 172, 173, 125, 154, 174, 175, 158, 164, 148, 176, 156, 157, 135, 159, 132, 122, 152, 143, 163, 151, 177, 129, 160, 178, 158, 175, 160, 151, 179, 178, 162, 158, 168, 125, 174, 180, 146, 159, 181, 162, 178, 179, 151, 165, 164, 172, 171, 182, 183, 181, 163, 166, 151, 149, 136, 155, 184, 133, 132, 160, 179, 177, 175, 164, 171, 156, 176, 159, 167, 174, 154, 185, 147, 130, 95, 170, 142, 162, 186, 167, 164, 129, 172, 178, 175, 187, 188, 146, 180, 169, 188, 95, 159, 176, 189, 162, 181, 186, 133, 185, 130, 185, 184, 190, 169, 146, 188, 166, 163, 170, 180, 159, 191, 172, 129, 177, 192, 175, 171, 174, 167, 186, 150, 176, 148, 193, 174, 186, 95, 188, 194, 192, 171, 173, 126, 168, 152, 185, 133, 184, 165, 166, 170, 168, 174, 193, 178, 187, 181, 159, 189, 191, 189, 195, 191, 196, 187, 175, 189, 176, 150, 170, 95, 197, 168, 198, 152, 195, 189, 199, 147, 185, 200, 189, 150, 199, 201, 180, 191, 186, 181, 183, 193, 186, 183, 179, 165, 202, 175, 192, 196, 203, 194, 188, 198, 168, 193, 204, 172, 177, 177, 202, 205, 206, 204, 207, 172, 204, 206, 198, 208, 209, 193, 183, 210, 177, 179, 202, 155, 147, 211, 181, 187, 182, 205, 204, 177, 180, 201, 212, 208, 193, 210, 182, 213, 183, 198, 209, 152, 194, 214, 215, 196, 216, 187, 201, 191, 195, 197, 95, 194, 173, 172, 206, 150, 149, 217, 197, 218, 170, 173, 206, 219, 173, 219, 192, 188, 180, 212, 200, 185, 190, 170, 220, 165, 198, 193, 208, 206, 207, 221, 212, 203, 188, 153, 152, 209, 216, 182, 187, 194, 222, 197, 204, 202, 207, 207, 223, 224, 217, 149, 225, 226, 200, 227, 194, 203, 214, 220, 170, 218, 213, 182, 228, 147, 200, 226, 204, 205, 202, 197, 229, 230, 201, 195, 212, 149, 155, 211, 222, 229, 197, 153, 209, 231, 232, 153, 231, 192, 219, 233, 215, 222, 194, 197, 230, 218, 233, 196, 192, 217, 199, 150, 132, 153, 232, 216, 196, 233, 212, 234, 203, 182, 216, 228, 183, 235, 210, 147, 226, 211, 232, 184, 132, 183, 213, 235, 236, 233, 219, 202, 223, 207, 237, 199, 217, 199, 237, 195, 214, 222, 215, 225, 238, 239, 149, 238, 225, 202, 240, 223, 241, 223, 240, 242, 243, 220, 221, 207, 244, 222, 214, 245, 202, 165, 240, 219, 206, 221, 246, 200, 190, 203, 247, 214, 210, 248, 208, 165, 249, 240, 214, 247, 245, 218, 230, 250, 236, 219, 221, 207, 224, 244, 213, 228, 235, 235, 228, 216, 232, 251, 184, 252, 231, 209, 253, 249, 254, 247, 203, 234, 210, 235, 248, 165, 220, 243, 241, 240, 255, 221, 256, 236, 209, 208, 252, 212, 195, 257, 238, 149, 211, 237, 257, 195, 233, 236, 216, 258, 223, 241, 240, 249, 253, 255, 259, 241, 250, 230, 229, 255, 240, 253, 218, 250, 220, 246, 190, 251, 260, 247, 234, 249, 165, 243, 241, 259, 258, 249, 243, 254, 223, 258, 261, 253, 259, 255, 184, 251, 190, 262, 222, 245, 263, 254, 264, 226, 227, 265, 254, 266, 264, 253, 263, 259, 242, 220, 267, 223, 244, 224, 222, 262, 229, 212, 257, 234, 254, 243, 266, 236, 268, 216, 245, 247, 260, 267, 220, 269, 259, 263, 270, 229, 262, 250, 253, 254, 263, 223, 261, 244, 271, 211, 265, 272, 260, 234, 232, 231, 273, 268, 274, 216, 208, 248, 275, 242, 266, 243, 261, 276, 244, 257, 237, 277, 245, 278, 262, 276, 261, 258, 244, 256, 221, 235, 216, 274, 231, 252, 273, 264, 279, 280, 273, 281, 232, 235, 274, 282, 280, 263, 264, 257, 277, 283, 208, 273, 252, 277, 225, 239, 257, 272, 234, 208, 275, 273, 263, 280, 284, 285, 220, 250, 248, 235, 286, 269, 220, 285, 268, 256, 286, 236, 256, 268, 235, 282, 286, 248, 286, 287, 278, 245, 260, 285, 267, 269, 270, 263, 284, 276, 258, 288, 217, 225, 237, 237, 225, 277, 283, 239, 289, 259, 270, 258, 260, 272, 278, 250, 278, 290, 256, 244, 276, 248, 287, 275, 250, 262, 278, 270, 288, 258, 257, 289, 272, 282, 274, 268, 289, 257, 283, 291, 276, 292, 211, 226, 265, 242, 293, 266, 286, 282, 268, 280, 270, 284, 285, 290, 267, 294, 279, 293, 211, 271, 238, 250, 290, 285, 288, 270, 295, 200, 246, 227, 280, 295, 270, 290, 278, 296, 293, 279, 266, 264, 266, 279, 227, 246, 265, 267, 290, 297, 283, 277, 239, 246, 251, 265, 275, 298, 273, 242, 267, 297, 297, 293, 242, 280, 279, 295, 275, 287, 298, 273, 298, 299, 287, 286, 298, 278, 272, 296, 300, 301, 290, 232, 281, 251, 301, 297, 290, 286, 291, 298, 295, 294, 288, 281, 273, 299, 289, 302, 303, 286, 256, 291, 256, 276, 291, 295, 279, 294, 304, 271, 265, 288, 305, 276, 289, 239, 302, 306, 292, 276, 293, 301, 307, 305, 288, 307, 301, 293, 297, 294, 307, 288, 289, 296, 272, 296, 300, 290, 308, 265, 251, 299, 309, 281, 291, 292, 310, 238, 271, 304, 301, 300, 307, 302, 239, 311, 303, 296, 289, 311, 238, 304, 303, 300, 296, 298, 291, 310, 299, 298, 309, 276, 305, 306, 307, 294, 293, 251, 281, 308, 281, 309, 308, 239, 238, 311, 308, 304, 265, 309, 298, 312, 311, 303, 302, 298, 310, 312, 292, 306, 313, 306, 305, 313, 309, 312, 308, 308, 311, 304, 300, 303, 311, 307, 313, 305, 313, 312, 292, 307, 300, 313, 292, 312, 310, 314, 300, 311, 313, 314, 312, 312, 314, 308, 314, 311, 308, 313, 300, 314, 92, 79, 72]
        point3f[] points = [(1.5, -0.960751, -1.2232), (0.81, -0.891238, -3.74258), (0.16, -0.233535, -2.28405), (1.49, -2.44325, -3.6962), (1.59, -2.98815, -4.15761), (1.66, -2.81016, -4.10777), (1.41, -1.14861, -1.92823), (1, -1.40023, -3.80159), (0.88, -1.33122, -3.83517), (1.69, -2.60816, -4.12133), (1.68, -2.36516, -4.13078), (1.52, -2.07518, -4.0136), (1.36, -1.89818, -4.01323), (1.13, -3.46417, -4.0713), (0.74, -3.4833, -3.41621), (0.77, -3.73919, -3.99486), (1.54, -2.34516, -4.10098), (0.58, -3.89022, -3.80609), (1.21, -1.6112, -3.94075), (0.43, -3.82819, -3.99919), (0.16, -3.89122, -3.85389), (-0.2, -4.04723, -3.76522), (0.0500002, -3.90221, -3.85969), (-0.04, -3.71235, -3.21576), (-0.67, -3.99324, -3.72131), (-1.04, -3.5855, -2.44973), (0.0799999, -0.335372, -3.08527), (0.51, -0.542263, -3.61741), (0.12, -0.501272, -3.5768), (1.21, -2.88041, -2.87359), (1.52, -2.43643, -2.7945), (-0.24, -0.399286, -3.50468), (-0.3, -0.35829, -3.48747), (-0.39, -0.375297, -3.44968), (-0.55, -0.267311, -3.38255), (-0.66, -0.285315, -3.36586), (-0.0799999, -4.10148, -2.55884), (-0.47, -4.20458, -2.07986), (-1.38, -3.96827, -3.58371), (1.12, -3.76941, -2.89177), (-0.93, -0.229326, -3.31065), (-1.84, -3.72732, -3.35326), (-1.19, -0.228369, -3.09795), (-1.39, -0.419346, -3.21079), (-1.04, -0.190367, -3.10644), (-1.82, -1.01735, -3.18631), (-1.85, -1.17447, -2.61224), (-1.67, -0.854345, -3.21667), (-1.47, -0.357456, -2.67107), (-2.252, -2.60735, -3.19383), (-1.9, -1.07837, -3.11352), (-2.012, -1.15736, -3.15554), (1.67, -2.92146, -2.6326), (-2.127, -1.25636, -3.13406), (-2.292, -1.49937, -3.08151), (-1.6, -3.8903, -3.42039), (0.51, -4.10443, -2.81884), (-2.356, -1.79138, -3.05056), (-1.9, -2.51069, -1.52151), (-2.359, -2.16237, -3.09414), (1.76, -1.60557, -2.11933), (1.54, -3.5575, -2.47372), (1.86, -3.16659, -1.99264), (0.17, -4.1925, -2.44685), (-0.69, -3.86155, -2.20379), (-1.33, -3.20976, -1.19865), (-2.471, 0.442458, -2.24791), (1.2, -3.90258, -2.08079), (-1.07, -3.73568, -1.54776), (-1.2, 0.628399, -1.95787), (-2.751, -0.871651, -1.71418), (2.21, -2.53063, -1.81952), (0.63, -4.23668, -1.57386), (2.3, -1.52268, -1.58231), (1.59, -1.18871, -1.44024), (2.32, -1.87469, -1.54638), (-2.46, 0.452292, -1.43591), (-2.644, -0.0687568, -1.19401), (-2.398, 0.701246, -1.20786), (0.1, -4.12471, -1.40484), (1.86, -2.91165, -1.69659), (0.45, 0.32629, -1.42193), (2.6, -1.90678, -1.07639), (-0.52, -4.31969, -1.53188), (2.43, -2.30779, -1.00847), (-1.67, 0.811232, -1.14083), (2.23, -0.991752, -1.2192), (2.5, -1.43085, -0.761291), (2.29, -2.79376, -1.20057), (-2.67, 0.175088, -0.430964), (1.49, -3.84774, -1.25378), (-0.98, -4.07083, -0.849829), (0.21, -4.2948, -0.988875), (-0.24, -4.4138, -1.0039), (-2.544, -2.40909, 0.460509), (-2.829, -1.55032, 1.56768), (-3.087, -1.21304, 0.173753), (1.77, -1.04081, -0.919212), (-2.014, -2.86691, -0.424584), (-1.53, -3.03694, -0.291618), (1.86, -2.88992, -0.395589), (0.93, 0.0291297, -0.636994), (-1.51, -3.40982, -0.890694), (1.49, -3.52786, -0.707718), (-2.649, 0.598151, -0.740878), (1.84, -0.543899, -0.498111), (-0.58, 1.35398, 0.115276), (-2.1, 0.6921, -0.488859), (-2.893, 0.945106, -0.518808), (1.4, -0.481958, -0.205098), (-0.66, -4.03393, -0.333822), (2.51, -1.35598, -0.0782763), (2.15, -0.860982, -0.0891753), (-1.3, -3.72202, 0.122242), (0.31, -4.14794, -0.312845), (2.07, -2.11694, -0.282431), (-1.2, -4.05098, -0.116825), (1.03, 0.126991, 0.0460259), (0.56, 0.831932, 0.335169), (1.05, -3.90197, -0.125795), (2.35, -0.648999, -0.00713214), (1.93, -0.198977, -0.112041), (2.77, -2.0141, 0.50459), (2.67, -0.690122, 0.600859), (2.11, -0.0881042, 0.510982), (2.37, 0.263863, 0.675054), (3.09, -1.04016, 0.783788), (1.65, 0.10697, 0.148022), (2.16, -3.16806, 0.298355), (-1.28, 1.1879, 0.498242), (1.71, -3.93213, 0.647199), (-1.99, -2.85403, 0.150419), (2.8, -1.98129, 1.4306), (2.35, -2.88817, 0.818412), (-1.84, 0.655857, 0.702134), (-1.88, -3.54408, 0.393278), (-0.99, -4.54516, 0.783074), (-1.34, -4.14209, 0.420156), (-1.89, -4.13911, 0.537157), (1.66, -0.18208, 0.392963), (1.15, 0.127879, 0.595026), (1.12, -0.102142, 0.697979), (-2.888, -0.639139, 0.68187), (-2.431, -0.0851487, 0.729983), (-1.61, -3.48909, 0.421289), (-1.65, -2.88107, 0.360413), (-2.055, -2.81418, 0.867427), (0.95, -4.38422, 1.07811), (-1.64, -4.30322, 1.07412), (-0.78, -4.44738, 1.87009), (-2.173, -4.38335, 1.69811), (-2.563, 0.737791, 1.02415), (2.87, -0.715306, 1.50185), (3.02, -1.80429, 1.42963), (1.89, 0.0627998, 0.983013), (0.0500002, -4.53931, 1.54308), (-1.79, -3.73416, 0.76824), (-1.84, -2.86318, 0.861417), (0.43, 0.965813, 0.920197), (-1.96, -2.99827, 1.33439), (-1.65, 1.12881, 0.92323), (2.73, -0.183115, 0.564963), (1.11, 0.337787, 1.04607), (-2.654, -0.125206, 1.01297), (-0.1, 1.14076, 1.17723), (-2.71, 0.473525, 2.3311), (-3.103, 0.39373, 1.32408), (1.51, 0.180756, 1.19904), (2.6, 0.248715, 1.39905), (-2.651, -2.07824, 1.18458), (-3.165, -0.605246, 1.20588), (0.0500002, 1.69973, 1.32335), (-0.0799999, 1.42667, 1.62029), (0.17, 1.57364, 1.78632), (1.89, 0.402756, 1.20008), (0.7, 1.46477, 1.1423), (-1.97, -3.80024, 1.18223), (-0.98, 1.46069, 1.5023), (0.97, 1.09776, 1.17922), (-2.193, 1.37373, 1.33628), (-2.684, -2.55333, 1.60348), (1.6, 1.40071, 1.41729), (1.4, 1.38761, 1.92128), (1.78, 0.878598, 1.97218), (2.51, -2.56642, 2.06748), (2.06, -3.50636, 1.77829), (1.81, 0.464675, 1.59509), (1.23, 1.50466, 1.64831), (-3.051, -2.34731, 1.54052), (-2.104, -3.58129, 1.40827), (2.26, -2.73348, 2.33744), (-2.063, -3.15233, 1.59636), (0.28, 1.83062, 1.88137), (2.14, 0.379674, 1.59908), (-3.179, -1.71335, 1.72465), (-2.623, -3.26542, 2.04234), (0.92, 1.93561, 1.89839), (-3.029, -1.15438, 1.88676), (2.64, -0.125334, 1.63897), (-2.315, -3.88141, 2.02721), (1.79, -3.71943, 2.10124), (-2.595, -2.86736, 1.77242), (-1.34, 1.55156, 2.15932), (-3.528, -2.41343, 2.11851), (-0.65, 1.8006, 1.94937), (-0.71, 1.50961, 1.90131), (-0.17, 1.97962, 1.8584), (-0.81, 1.99761, 1.89341), (2.13, 0.290544, 2.23906), (2.58, 0.0225778, 2.073), (2.27, 0.684588, 2.02314), (0.04, -4.23857, 2.82114), (-3.023, -3.02343, 2.09238), (2.18, 1.18756, 2.16424), (-3.222, -1.93444, 2.16161), (-3.573, -1.57246, 2.25368), (0.75, 1.33651, 2.42927), (-1.4, -4.41444, 2.1471), (-3.068, -0.672461, 2.26286), (-7.39355e-17, 1.76452, 2.36836), (-2.996, -0.28852, 2.55494), (-0.11, 2.38779, 2.51549), (-3.427, -1.39447, 2.32272), (-1.34, 1.82351, 2.41237), (-1.13, 2.34363, 2.78448), (-1.3, -4.15561, 2.98815), (0.56, -4.25748, 2.35913), (1.13, -3.64361, 2.98426), (1.18, 1.63354, 2.26833), (-3.605, -1.19949, 2.41776), (-3.811, -0.713451, 2.21385), (2.67, -1.08949, 2.39478), (2.36, -1.46556, 2.7567), (0.55, 1.64854, 2.24134), (-3.215, -2.6965, 2.46545), (1.41, 1.22444, 2.75725), (0.4, 2.01563, 2.32841), (-1.73, -3.76851, 2.52723), (-0.54, -3.75574, 3.63324), (-1.21, -3.09676, 3.72237), (-2.143, 1.09049, 2.52622), (-2.08, 1.65854, 2.24134), (-3.463, 0.377406, 2.91908), (-3.13, 0.688472, 2.59214), (-0.78, 2.11063, 2.78243), (-3.084, -1.73454, 2.63765), (1.94, -2.77361, 3.00844), (-3.137, -2.1045, 2.45457), (1.91, 0.535441, 2.74711), (-2.631, 0.644501, 2.45013), (-3.618, -0.528578, 2.83789), (1.91, -2.1287, 3.45857), (2.44, -0.00954504, 2.676), (-2.561, 1.57947, 2.58432), (-2.769, 1.11947, 2.59723), (-2.274, 1.56548, 2.55232), (-0.04, 1.76235, 3.19436), (-2.791, -3.04159, 2.88038), (-1.51, 1.86236, 3.14838), (-2.309, 2.20465, 2.72445), (-2.933, -2.39857, 2.79151), (-1.23, 1.74245, 2.69436), (-3.733, -1.43558, 2.85271), (-2.695, 1.72242, 2.82435), (-3.124, 1.49743, 2.7843), (0.84, -3.15577, 3.78136), (-3.457, 1.22541, 2.91025), (-3.319, -0.0606052, 2.97199), (0.48, 1.53636, 3.13731), (-2.988, -0.330589, 2.89393), (-2.418, 1.78034, 3.23636), (0.0799999, -3.58974, 3.64027), (-3.199, -2.16866, 3.25056), (2.18, -0.631656, 3.21887), (0.86, 1.59342, 2.86032), (1.88, -0.319625, 3.06793), (-0.17, 1.40531, 3.36529), (-1.83, -3.56965, 3.20827), (-3.216, -1.70166, 3.23365), (-3.011, 1.20129, 3.48824), (-2.828, 1.46138, 3.0673), (2.11, -0.936734, 3.60381), (0.79, 0.946377, 3.05919), (-2.615, -2.90064, 3.14941), (-2.639, 1.26537, 3.07026), (-3.238, -0.629614, 3.01587), (0.97, 0.562297, 3.45311), (1.82, 0.159309, 3.39503), (-1.87, 1.70229, 3.49235), (-2.062, -2.28874, 3.61053), (-3.011, -0.868702, 3.44782), (0.58, 0.563231, 3.77411), (0.38, 0.239174, 4.05505), (-2.879, 0.989211, 3.8722), (-2.346, 1.43022, 3.82129), (-2.99, 1.74525, 3.69836), (-2.838, -1.48673, 3.5997), (-3.435, 0.192272, 3.57404), (1.51, -0.107734, 3.60498), (1.45, -0.921727, 3.56781), (-1.92, -0.963874, 4.2898), (-2.902, -0.580758, 3.72188), (-1.74, -2.48481, 3.96149), (-2.166, -1.76485, 4.18164), (-0.1, -2.69185, 4.19245), (-1.28, 1.0172, 3.93221), (-0.34, 0.370186, 3.99708), (-1.86, 0.47017, 4.0741), (0.35, -2.10288, 4.29757), (1.2, -1.29281, 3.96374), (0.76, -0.338822, 4.03493), (-0.8, -2.18089, 4.35456), (0.18, -0.903907, 4.45282), (-0.76, -0.464901, 4.42291), (-0.37, -1.3689, 4.40272)]
        texCoord2f[] primvars:st = [(5.689127, 0.9137916), (7.5077415, 1.0506512), (6.894138, 5.238784), (3.794145, -3.5651994), (2.738504, -4.3438454), (3.104736, -4.3021894), (5.804603, -0.05721414), (7.0623, -0.47182506), (7.2534204, -0.1431312), (3.580228, -4.1581936), (4.199942, -3.7658882), (4.8864446, -3.2510552), (5.5875597, -2.564924), (0.8898138, -4.4711537), (-0.26581785, -4.0441403), (-0.1908308, -4.5549436), (4.422121, -3.5862083), (-1.0631273, -4.615371), (6.3396964, -1.5758688), (-1.7806641, -4.388171), (-2.6312208, -4.112255), (-3.8452322, -3.4324722), (-3.0131373, -3.930986), (-3.1709232, -3.299386), (-4.9744406, -2.4049277), (-5.986746, 0.0095947385), (7.463301, 5.2541876), (7.6898503, 2.8812268), (7.9455905, 3.9988015), (1.8496822, -3.3803988), (3.1089606, -2.8475437), (7.8088326, 5.078052), (7.6768436, 5.512355), (7.4040813, 5.964483), (6.7417393, 6.9260178), (6.382051, 7.431804), (-3.3775463, -2.2659945), (-4.1054707, -1.0848), (-6.5192785, -1.0518174), (-0.52207285, -3.351328), (5.743266, 8.272002), (-7.1076274, 0.75760096), (4.129819, 9.754988), (2.7725072, 10.864346), (4.8794546, 9.126892), (-1.2024527, 10.9749775), (-1.971735, 10.394137), (-0.30569884, 11.129262), (2.7625906, 10.520507), (-7.3120875, 5.2239337), (-1.4143491, 10.905614), (-2.1856482, 10.630584), (1.7630744, -3.0559165), (-2.7514505, 10.324749), (-3.6894226, 9.584603), (-6.7766805, -0.055306852), (-2.1823807, -2.9788368), (-4.7680364, 8.451506), (-5.715041, 5.8244), (-6.1302543, 7.1955853), (4.6242824, -1.234453), (-0.080839746, -3.0022042), (1.7592441, -2.5119276), (-2.583573, -2.465151), (-5.0838294, -0.43161255), (-5.793426, 2.7157507), (1.752666, 9.821013), (-1.0371684, -2.779948), (-5.3406286, 0.7281493), (3.4379237, 8.679634), (-1.6991996, 9.522811), (2.891997, -1.9474356), (-2.2460973, -2.0702515), (4.598293, -0.5738568), (5.562346, 0.20484406), (3.8153057, -1.1958876), (1.7040824, 9.28554), (0.00030598044, 9.218662), (1.5070988, 9.038088), (-3.3623395, -1.2905908), (2.0864344, -2.1802878), (6.124107, 5.1416106), (3.4066148, -1.0893087), (-4.0185747, -0.6900806), (2.2970626, -1.5798666), (2.5008597, 8.454645), (4.616942, -0.02170068), (4.0606847, -0.38705343), (1.6813725, -1.968586), (-0.7050867, 8.484766), (-0.020087764, -2.1816547), (-4.8915005, 1.0800232), (-2.185228, -1.496942), (-3.5546026, -0.62485796), (-4.428027, 5.4998612), (-2.8104, 6.1787553), (-2.2113874, 7.6095343), (5.227167, 0.60865676), (-4.9786468, 4.4965205), (-5.2550206, 3.9861317), (1.2088959, -1.2971125), (5.636708, 3.340574), (-5.479846, 2.5974174), (-0.28396514, -1.5436828), (0.96618557, 8.746636), (5.022902, 1.0896398), (3.6312451, 6.793077), (1.9842726, 8.093699), (0.43324098, 8.250723), (5.281201, 1.8282299), (-3.9992082, 0.57973987), (3.6115584, -0.1804828), (4.446356, 0.47809035), (-5.049432, 2.8832052), (-2.6556385, -0.44600397), (2.3980658, -0.8957071), (-4.653363, 1.5583482), (5.3653173, 3.9670362), (4.6981964, 4.818157), (-1.8132912, -0.96693414), (4.1431217, 0.7905697), (4.7506433, 1.4341359), (2.661945, 0.0052295327), (4.116546, 1.3157566), (4.6367164, 2.0645099), (4.0966663, 1.957546), (3.5856316, 0.77215564), (4.976423, 2.9135263), (0.68256426, -0.9258923), (2.716624, 7.053307), (-0.051085666, -0.841162), (-4.55331, 4.2319736), (1.9528059, 0.32896638), (1.3333113, -0.45859212), (1.7864556, 7.7299395), (-4.612664, 3.260555), (-3.5645494, 1.0955545), (-4.2465096, 1.4950583), (-4.248515, 1.9506304), (5.017789, 3.5763128), (4.64974, 4.079522), (4.751607, 3.6561263), (-1.3337268, 7.523137), (-0.62322444, 7.8734665), (-4.438713, 3.8150299), (-4.3058696, 4.056155), (-4.009085, 4.4188933), (-1.6375872, -0.27623862), (-3.7130518, 1.9797435), (-2.7773464, 1.6170871), (-3.383451, 2.3968925), (0.31228533, 7.684147), (2.923277, 1.0064944), (2.2962902, 0.9986176), (4.409093, 2.4851358), (-2.4640875, 0.71278316), (-4.066012, 2.933742), (-4.2535176, 3.786934), (4.2041445, 5.0482774), (-3.925865, 3.5024395), (1.9959079, 7.217407), (3.8574386, 1.4008348), (4.3738217, 4.1955004), (-0.9042349, 7.4137516), (3.4775805, 5.8096194), (-0.008365378, 6.9014297), (-0.65835464, 7.2194123), (4.5026526, 3.2346122), (3.6211903, 1.7876511), (-3.6989584, 5.310616), (-1.4209365, 6.743695), (3.2709787, 5.3527546), (2.9053872, 5.896203), (2.9937472, 5.294263), (4.1488237, 2.514134), (3.6591449, 4.8685718), (-3.7483006, 2.9484174), (2.3545692, 6.5025854), (4.0189734, 4.4472294), (1.5021592, 7.0977755), (-3.5746346, 3.983134), (3.8535929, 4.006144), (3.373807, 3.9134505), (3.5823452, 3.2442684), (1.0925298, 0.18716234), (0.27409133, -0.18154782), (4.104309, 3.1923835), (3.5792806, 4.336294), (-3.3156452, 4.825309), (-3.5286572, 3.2486706), (0.343945, 0.28478062), (-3.539338, 3.586822), (3.1868749, 4.903218), (3.675647, 2.5229666), (-2.6555402, 5.351944), (-3.218396, 3.495129), (3.291389, 4.5607305), (-2.0593326, 5.951057), (3.214916, 1.9614043), (-3.2266736, 2.968509), (-0.4597893, 0.1736641), (-3.3763955, 3.764661), (1.874252, 6.338257), (-2.8227055, 4.6568174), (2.4257457, 5.9705973), (2.2470753, 6.2595773), (2.6709974, 5.4102116), (2.2116125, 5.517205), (2.9467347, 2.305834), (2.726481, 1.7102499), (3.2711167, 2.7921298), (-1.6209056, 1.2268243), (-3.1235347, 4.043655), (3.2513986, 3.5541184), (-2.5114782, 5.028778), (-2.4873855, 5.2503676), (2.9534924, 4.1564713), (-2.9680023, 2.3337889), (-1.5644823, 6.085963), (2.84158, 4.8945374), (-1.0871638, 6.040482), (2.4509265, 4.8811383), (-2.2775671, 5.357038), (1.7288234, 5.6311936), (1.9976133, 5.378714), (-2.3817654, 2.3310575), (-1.1478165, 0.7149309), (-0.57665205, 0.8692928), (3.0742114, 3.781676), (-1.9168917, 5.623921), (-1.7563416, 5.838926), (2.2081418, 1.5885789), (1.6046474, 0.9359644), (2.9970758, 4.5881658), (-2.6214113, 4.2502003), (2.8661995, 3.367168), (2.6541824, 4.4686675), (-2.8663287, 2.986503), (-1.4617337, 2.017111), (-1.6442696, 2.7572799), (0.97070956, 6.2961426), (1.1605904, 5.8496), (-0.63404346, 5.6748486), (-0.28865826, 6.1703324), (1.9954826, 4.9872017), (-2.2410803, 4.9292803), (0.0037177056, 0.8139674), (-2.5104806, 4.6632323), (2.6095555, 2.7544155), (0.27366856, 6.3480678), (-1.5406351, 5.5745187), (0.61722004, 1.0974321), (2.5043173, 1.9432616), (0.5981246, 6.060194), (0.17783809, 5.986641), (0.88988304, 6.014722), (2.1115978, 4.267119), (-2.6266272, 3.6480968), (1.2250012, 5.3247194), (0.83128095, 5.774794), (-2.283859, 4.536105), (1.6460786, 5.0774198), (-1.9563963, 5.2731404), (0.47402915, 5.7482576), (0.2004472, 5.695456), (-0.54155743, 1.5143329), (-0.13317814, 5.717059), (-1.0176272, 5.5316916), (2.4332054, 3.9785707), (-1.1083755, 5.7243743), (0.6393243, 5.464174), (-1.1254386, 1.6753762), (-2.135445, 4.1490107), (1.9468848, 1.9808431), (2.6079607, 3.8007777), (2.2009375, 2.4287894), (1.4417182, 4.4391713), (-2.3872983, 2.951238), (-1.799639, 4.791623), (0.11727208, 5.4119296), (0.3858609, 5.538155), (1.1557635, 1.7578688), (2.4062934, 3.5609858), (-2.1658099, 3.258381), (0.49980333, 5.588361), (-1.2066053, 5.5660133), (1.9840053, 3.20565), (2.0053144, 2.6895266), (0.67044926, 4.8769865), (-1.7955748, 3.5805044), (-1.1783609, 4.8839984), (1.375526, 3.3664734), (0.9246571, 3.3899858), (-0.2843209, 5.1569376), (0.17663988, 5.0221257), (0.39687976, 5.2595506), (-1.4430987, 4.1735153), (-0.7763932, 5.1771207), (1.4425176, 2.5320716), (1.3791465, 2.0874763), (-0.686286, 3.779618), (-0.6207833, 4.6793404), (-1.3060547, 3.0267637), (-1.1882135, 3.386422), (-0.7323612, 2.001943), (0.68262136, 4.24914), (0.8510487, 3.8842287), (0.020250767, 4.470505), (0.22067863, 2.174278), (0.9710883, 2.2010972), (1.0641441, 2.9510672), (-0.8098868, 2.6523213), (0.6780009, 2.7325962), (0.30686462, 3.4624116), (-0.062917165, 2.8623445)] (
            interpolation = "vertex"
        )
    }
}

