mtllib Balls.mtl
o Balls_1
usemtl _null_
v -2.4494900703430176 -2.9999999584376513 0.550510215755331
v -3 -2.999999904272432 1.2679502844771022
v -3.3460700511932373 -2.999999841195447 2.1034302592238063
v -3.464099884033203 -2.999999773506296 3.000000226493704
v -3.3460700511932373 -2.9999997058171455 3.8965701937636013
v -3 -2.9999996427401605 4.732050168510305
v -2.4494900703430176 -2.9999995885749366 5.449490296836721
v -1.7320499420166016 -2.9999995470125924 6.000000226493704
v -0.8965749740600586 -2.999999520885048 6.346070039268362
v 0 -2.9999995119740253 6.464100110526907
v 0.8965749740600586 -2.999999520885048 6.346070039268362
v 1.7320499420166016 -2.9999995470125924 6.000000226493704
v 2.4494900703430176 -2.9999995885749366 5.449490296836721
v 3 -2.9999996427401605 4.732050168510305
v 3.3460700511932373 -2.9999997058171455 3.8965701937636013
v 3.464099884033203 -2.999999773506296 3.000000226493704
v 3.3460700511932373 -2.999999841195447 2.1034302592238063
v 3 -2.999999904272432 1.2679502844771022
v 2.4494900703430176 -2.9999999584376513 0.550510215755331
v -1.7320499420166016 -3 2.264937037921306e-7
v 1.7320499420166016 -3 2.264937037921306e-7
v -2.180340051651001 -2.9318499369721587 0.25881923518251815
v -2.5980799198150635 -2.732049904267651 0.5000002062640367
v -2.9567999839782715 -2.414210027715369 0.7071071897713038
v -3.2320499420166016 -1.9999999346169322 0.8660251220041033
v -3.4050800800323486 -1.5176399216958918 0.9659261061138212
v -3.464099884033203 -0.9999999245020987 1.0000000754979013
v -3.4050800800323486 -0.482361929208938 0.9659260279525056
v -3.2320499420166016 6.538306775338086e-8 0.8660249710083008
v -2.9567999839782715 0.41421403858979167 0.707106976231223
v -2.5980799198150635 0.7320510526491582 0.49999994473168474
v -2.180340051651001 0.9318520026106659 0.2588189434811306
v -1.7320499420166016 1 -7.549790126404353e-8
v -1.2837599515914917 0.9318519635300812 -0.25881908418686866
v -0.8660249710083008 0.7320509771512569 -0.5000000552683153
v -0.5073059797286987 0.41421393181960164 -0.7071070387757961
v -0.23205099999904633 -6.538306775338086e-8 -0.8660249710083008
v -0.05901800096035004 -0.48236207505970824 -0.9659259551178679
v 0 -1.0000000754979013 -0.9999999245020987
v 2.180340051651001 -2.9318499369721587 0.25881923518251815
v 2.5980799198150635 -2.732049904267651 0.5000002062640367
v 2.9567999839782715 -2.414210027715369 0.7071071897713038
v 3.2320499420166016 -1.9999999346169322 0.8660251220041033
v 3.4050800800323486 -1.5176399216958918 0.9659261061138212
v 3.464099884033203 -0.9999999245020987 1.0000000754979013
v 3.4050800800323486 -0.482361929208938 0.9659260279525056
v 3.2320499420166016 6.538306775338086e-8 0.8660249710083008
v 2.9567999839782715 0.41421403858979167 0.707106976231223
v 2.5980799198150635 0.7320510526491582 0.49999994473168474
v 2.180340051651001 0.9318520026106659 0.2588189434811306
v 1.7320499420166016 1 -7.549790126404353e-8
v 1.2837599515914917 0.9318519635300812 -0.25881908418686866
v 0.8660249710083008 0.7320509771512569 -0.5000000552683153
v 0.5073059797286987 0.41421393181960164 -0.7071070387757961
v 0.23205099999904633 -6.538306775338086e-8 -0.8660249710083008
v 0.05901800096035004 -0.48236207505970824 -0.9659259551178679
v 0 3.000000226493704 2.999999773506296
v -3.8636999130249023 -2.03527976274885 3.0000001536593675
v -4 -0.9999997735062962 3.0000000754979013
v -3.8636999130249023 0.03527622595034785 2.999999997336736
v -3.464099884033203 1.0000002264937038 2.9999999245020987
v -2.828429937362671 1.8284302830656642 2.999999861957368
v -2 2.464100110526907 2.9999998139656303
v -1.0352799892425537 2.863700139518606 2.9999997837966665
v -3.3460700511932373 -2.0352799085994673 1.0681501971469165
v -3.7320499420166016 -2.035279838246751 2.0000001536593675
v -3.8636999130249023 -0.9999998516677626 1.9647200862553476
v -3.7320499420166016 0.035276150452446586 1.9999999973367362
v -3.3460700511932373 1.0000001588045528 2.1034299572322013
v -2.7320499420166016 1.82843022779743 2.2679499199407664
v -1.9318499565124512 2.4641000714461647 2.482359700135064
v -1 2.8637001192889393 2.732049725813268
v -0.8965749740600586 2.863700100437864 2.4823596699661
v -1.7320499420166016 2.4641000350290057 1.9999998139656303
v -2.4494900703430176 1.8284301762957802 1.585789900066194
v -3 1.0000000957275683 1.2679499824854972
v -3.3460700511932373 0.03527608009973058 1.068150040824285
v -3.7320499420166016 -2.0352796872509487 4.000000153659368
v -3.8636999130249023 -0.9999996953448118 4.035280303159034
v -3.7320499420166016 0.035276301448249114 3.999999997336736
v -3.3460700511932373 1.0000002941828547 3.896569891771996
v -2.7320499420166016 1.8284303383338985 3.7320498039739696
v -1.9318499565124512 2.464100149607649 3.5176399277961967
v -1 2.863700159748273 3.267949841780065
v -3.3460700511932373 -2.0352796168982326 4.931850110171819
v -3.464099884033203 -0.9999996225104937 5.000000075497901
v -3.3460700511932373 0.03527637180096512 4.931849953849187
v -3 1.0000003572598393 4.7320498665187
v -2.4494900703430176 1.8284303898355394 4.414209704639253
v -1.7320499420166016 2.464100186024808 3.9999998139656303
v -0.8965749740600586 2.8637001785993483 3.517639897627233
v -2.7320499420166016 -2.035279556484813 5.7320500956759695
v -2.828429937362671 -0.9999995599657541 5.828430251279151
v -2.7320499420166016 0.035276432214384625 5.732049939353337
v -2.4494900703430176 1.0000004114250634 5.449489994845116
v -2 1.8284304340614668 4.9999998619573685
v -1.4142099618911743 2.464100217296782 4.414209656647515
v -0.7320510149002075 2.8637001947868406 3.732049725813268
v -1.9318499565124512 -2.0352795101276016 6.346069966434026
v -2 -0.9999995119740251 6.464099959531104
v -1.9318499565124512 0.0352764785715962 6.346069810111394
v -1.7320499420166016 1.0000004529874076 5.999999924502099
v -1.4142099618911743 1.8284304679970238 5.449489932300386
v -1 2.4641002412930426 4.732049755982231
v -0.5176380276679993 2.863700207207757 3.896569751066564
v -1 -2.0352794809869117 6.7320500956759695
v -1.0352799892425537 -0.9999994818050617 6.863699988522804
v -1 0.03527650771228589 6.732049939353337
v -0.8965749740600586 1.0000004791149522 6.346069737276757
v -0.7320510149002075 1.828430489329701 5.73204980397397
v -0.5176380276679993 2.4641002563775243 4.931849770478081
v -0.2679489850997925 2.8637002150165074 3.9999997837966665
v 0 -2.035279471047615 6.86370006668427
v 0 -0.9999994715146912 7.000000075497901
v 0 0.0352765176515824 6.863699910361638
v 0 1.0000004880259747 6.464099808535302
v 0 1.8284304966062064 5.8284300377386185
v 0 2.4641002615227094 4.99999981396563
v 0 2.8637002176800905 4.035280011457799
v 1 -2.0352794809869117 6.7320500956759695
v 1.0352799892425537 -0.9999994818050617 6.863699988522804
v 1 0.03527650771228589 6.732049939353337
v 0.8965749740600586 1.0000004791149522 6.346069737276757
v 0.7320510149002075 1.828430489329701 5.73204980397397
v 0.5176380276679993 2.4641002563775243 4.931849770478081
v 0.2679489850997925 2.8637002150165074 3.9999997837966665
v 1.9318499565124512 -2.0352795101276016 6.346069966434026
v 2 -0.9999995119740251 6.464099959531104
v 1.9318499565124512 0.0352764785715962 6.346069810111394
v 1.7320499420166016 1.0000004529874076 5.999999924502099
v 1.4142099618911743 1.8284304679970238 5.449489932300386
v 1 2.4641002412930426 4.732049755982231
v 0.5176380276679993 2.863700207207757 3.896569751066564
v 2.7320499420166016 -2.035279556484813 5.7320500956759695
v 2.828429937362671 -0.9999995599657541 5.828430251279151
v 2.7320499420166016 0.035276432214384625 5.732049939353337
v 2.4494900703430176 1.0000004114250634 5.449489994845116
v 2 1.8284304340614668 4.9999998619573685
v 1.4142099618911743 2.464100217296782 4.414209656647515
v 0.7320510149002075 2.8637001947868406 3.732049725813268
v 3.3460700511932373 -2.0352796168982326 4.931850110171819
v 3.464099884033203 -0.9999996225104937 5.000000075497901
v 3.3460700511932373 0.03527637180096512 4.931849953849187
v 3 1.0000003572598393 4.7320498665187
v 2.4494900703430176 1.8284303898355394 4.414209704639253
v 1.7320499420166016 2.464100186024808 3.9999998139656303
v 0.8965749740600586 2.8637001785993483 3.517639897627233
v 3.7320499420166016 -2.0352796872509487 4.000000153659368
v 3.8636999130249023 -0.9999996953448118 4.035280303159034
v 3.7320499420166016 0.035276301448249114 3.999999997336736
v 3.3460700511932373 1.0000002941828547 3.896569891771996
v 2.7320499420166016 1.8284303383338985 3.7320498039739696
v 1.9318499565124512 2.464100149607649 3.5176399277961967
v 1 2.863700159748273 3.267949841780065
v 3.8636999130249023 -2.03527976274885 3.0000001536593675
v 4 -0.9999997735062962 3.0000000754979013
v 3.8636999130249023 0.03527622595034785 2.999999997336736
v 3.464099884033203 1.0000002264937038 2.9999999245020987
v 2.828429937362671 1.8284302830656642 2.999999861957368
v 2 2.464100110526907 2.9999998139656303
v 1.0352799892425537 2.863700139518606 2.9999997837966665
v 3.7320499420166016 -2.035279838246751 2.0000001536593675
v 3.8636999130249023 -0.9999998516677626 1.9647200862553476
v 3.7320499420166016 0.035276150452446586 1.9999999973367362
v 3.3460700511932373 1.0000001588045528 2.1034299572322013
v 2.7320499420166016 1.82843022779743 2.2679499199407664
v 1.9318499565124512 2.4641000714461647 2.482359700135064
v 1 2.8637001192889393 2.732049725813268
v 3.3460700511932373 -2.0352799085994673 1.0681501971469165
v 3.3460700511932373 0.03527608009973058 1.068150040824285
v 3 1.0000000957275683 1.2679499824854972
v 2.4494900703430176 1.8284301762957802 1.585789900066194
v 1.7320499420166016 2.4641000350290057 1.9999998139656303
v 0.8965749740600586 2.863700100437864 2.4823596699661
v 2.4494900703430176 1.000000041562349 0.5505099137637259
v 2 1.8284301320698617 0.9999998619573681
v 1.4142099618911743 2.464100003757023 1.585789852074456
v 0.7320510149002075 2.8637000842503717 2.267949841780065
v 1.4142099618911743 1.8284300981343093 0.5505098512189953
v 1 2.464099979760771 1.2679498719490288
v 0.5176380276679993 2.8637000718294554 2.103429816526769
v 0.8965749740600586 0.9999999738728177 -0.34606509009865505
v 0.7320510149002075 1.8284300768015465 0.2679488470571606
v 0.5176380276679993 2.4640999646762896 1.0681498574531791
v 0.2679489850997925 2.863700064020705 1.9999997837966668
v 0 0.0352759342488793 -0.8637030151296946
v 0 0.9999999649612731 -0.4641020754959939
v 0 1.8284300695253617 0.1715728601234524
v 0 2.4640999595311044 0.9999998139656302
v 0 2.86370006135714 1.964719794554113
v -0.8965749740600586 0.9999999738728177 -0.34606509009865505
v -0.7320510149002075 1.8284300768015465 0.2679488470571606
v -0.5176380276679993 2.4640999646762896 1.0681498574531791
v -0.2679489850997925 2.863700064020705 1.9999997837966668
v -1.4142099618911743 1.8284300981343093 0.5505098512189953
v -1 2.464099979760771 1.2679498719490288
v -0.5176380276679993 2.8637000718294554 2.103429816526769
v -2.4494900703430176 1.000000041562349 0.5505099137637259
v -2 1.8284301320698617 0.9999998619573681
v -1.4142099618911743 2.464100003757023 1.585789852074456
v -0.7320510149002075 2.8637000842503717 2.267949841780065
v 0 -0.48236208277740966 -1.0681500070702301
v 0 -9.572756828536888e-8 -1.2679500579833984
v 0 0.4142138654808769 -1.5857900693811122
v 0 0.732050863904405 -2.0000000552683153
v 0 0.9318517956574119 -2.4823599565223025
v 0 0.9999997735062962 -3.0000000754979013
v 0 0.9318517174959275 -3.5176401841834353
v 0 0.7320507129086025 -4.000000055268315
v 0 0.4142136519411178 -4.414209873954172
v 0 -3.572598392988923e-7 -4.732049942016602
v 0 -0.48236237447864416 -4.931849920095132
v 0 -1.0000003774895063 -4.999999924502099
v 0 -1.517640366965598 -4.931849841933817
v 0 -2.0000003572598395 -4.732049791020799
v 0 -2.414210414364043 -4.41420966041409
v 0 -2.7320502440082066 -3.999999793735963
v 0 -2.931850222086897 -3.517639892482048
v 0 -3.000000226493704 -2.999999773506296
v -0.11803600192070007 -3.0000002941828545 -3.8965697407761937
v -0.46410199999809265 -3.0000003572598395 -4.732049715522898
v -1.0146100521087646 -3.0000004114250634 -5.449489843849314
v -1.7320499420166016 -3.0000004529874076 -5.999999773506296
v -2.5675299167633057 -3.000000479114952 -6.346069586280954
v -3.464099884033203 -3.0000004880259747 -6.464099657539499
v -4.360680103302002 -3.000000479114952 -6.346069586280954
v -5.196149826049805 -3.0000004529874076 -5.999999773506296
v -5.913589954376221 -3.0000004114250634 -5.449489843849314
v -6.464099884033203 -3.0000003572598395 -4.732049715522898
v -6.8101701736450195 -3.0000002941828545 -3.8965697407761937
v -6.928199768066406 -3.000000226493704 -2.999999773506296
v -6.8101701736450195 -3.000000158804553 -2.1034298062363987
v -6.464099884033203 -3.000000095727568 -1.2679498314896946
v -5.913589954376221 -3.0000000415623487 -0.5505097627679234
v -5.196149826049805 -3 2.264937037921306e-7
v -4.360680103302002 -2.999999973872818 0.3460652410944576
v -3.464099884033203 -2.999999964961273 0.46410222649179644
v -2.5675299167633057 -2.999999973872818 0.3460652410944576
v -3.464099884033203 2.999999773506296 -3.000000226493704
v -1.5322500467300415 -2.035280468357506 -6.34606965911529
v -1.4641000032424927 -1.0000004880259747 -6.464099808535302
v -1.5322500467300415 0.035275520341691916 -6.3460698154379225
v -1.7320499420166016 0.9999995470125924 -6.000000075497901
v -2.0498900413513184 1.828429645146897 -5.449490208385649
v -2.464099884033203 2.4640995267733636 -4.732050128050972
v -2.946460008621216 2.863699618842048 -3.896570183473231
v -0.11803600192070007 -2.035280361586875 -4.931849802853083
v -0.7320510149002075 -2.0352804220002945 -5.732049788357234
v -0.635673999786377 -1.000000440034246 -5.828430100283349
v -0.7320510149002075 0.03527556669890349 -5.732049944679866
v -1.0146100521087646 0.9999995885749368 -5.449490145840919
v -1.4641000032424927 1.8284296790824541 -5.0000001380426315
v -2.0498900413513184 2.464099550769624 -4.414210028716255
v -2.7320499420166016 2.863699631262964 -3.732050158219935
v -2.5675299167633057 2.8636996474504564 -3.5176403300339
v -1.7320499420166016 2.464099582041598 -4.00000018603437
v -1.0146100521087646 1.8284297233083815 -4.414209980724516
v -0.46410199999809265 0.9999996427401607 -4.732050017514503
v -0.11803600192070007 0.035275627112322995 -4.9318499591757154
v -2.464099884033203 -2.0352804974981957 -6.732049788357234
v -2.4288198947906494 -1.0000005181949383 -6.863699837527001
v -2.464099884033203 0.03527549120100223 -6.732049944679866
v -2.5675299167633057 0.9999995208850478 -6.3460698882725595
v -2.7320499420166016 1.82842962381422 -5.732050080059233
v -2.946460008621216 2.464099511688882 -4.931850142546821
v -3.196150064468384 2.8636996110332973 -4.0000002162033335
v -3.464099884033203 -2.0352805074374922 -6.8636997593655344
v -3.464099884033203 -1.0000005284853088 -6.999999924502099
v -3.464099884033203 0.03527548126170572 -6.863699915688167
v -3.464099884033203 0.9999995119740251 -6.464099959531104
v -3.464099884033203 1.8284296165377145 -5.8284303138238815
v -3.464099884033203 2.464099506543697 -5.00000018603437
v -3.464099884033203 2.863699608369714 -4.035280443864466
v -4.464099884033203 -2.0352804974981957 -6.732049788357234
v -4.499380111694336 -1.0000005181949383 -6.863699837527001
v -4.464099884033203 0.03527549120100223 -6.732049944679866
v -4.360680103302002 0.9999995208850478 -6.3460698882725595
v -4.196149826049805 1.82842962381422 -5.732050080059233
v -3.9817399978637695 2.464099511688882 -4.931850142546821
v -3.7320499420166016 2.8636996110332973 -4.0000002162033335
v -5.395949840545654 -2.035280468357506 -6.34606965911529
v -5.464099884033203 -1.0000004880259747 -6.464099808535302
v -5.395949840545654 0.035275520341691916 -6.3460698154379225
v -5.196149826049805 0.9999995470125924 -6.000000075497901
v -4.878310203552246 1.828429645146897 -5.449490208385649
v -4.464099884033203 2.4640995267733636 -4.732050128050972
v -3.9817399978637695 2.863699618842048 -3.896570183473231
v -6.196149826049805 -2.0352804220002945 -5.732049788357234
v -6.292530059814453 -1.000000440034246 -5.828430100283349
v -6.196149826049805 0.03527556669890349 -5.732049944679866
v -5.913589954376221 0.9999995885749368 -5.449490145840919
v -5.464099884033203 1.8284296790824541 -5.0000001380426315
v -4.878310203552246 2.464099550769624 -4.414210028716255
v -4.196149826049805 2.863699631262964 -3.732050158219935
v -6.8101701736450195 -2.035280361586875 -4.931849802853083
v -6.928199768066406 -1.0000003774895063 -4.999999924502099
v -6.8101701736450195 0.035275627112322995 -4.9318499591757154
v -6.464099884033203 0.9999996427401607 -4.732050017514503
v -5.913589954376221 1.8284297233083815 -4.414209980724516
v -5.196149826049805 2.464099582041598 -4.00000018603437
v -4.360680103302002 2.8636996474504564 -3.5176403300339
v -7.196149826049805 -2.0352802912341588 -3.9999998463406325
v -7.327809810638428 -1.0000003046551882 -4.0352801521632315
v -7.196149826049805 0.035275697465039 -4.000000002663264
v -6.8101701736450195 0.9999997058171454 -3.8965700427677987
v -6.196149826049805 1.8284297748100224 -3.7320500800592336
v -5.395949840545654 2.464099618458757 -3.517640299864936
v -4.464099884033203 2.8636996663015317 -3.267950274186732
v -7.327809810638428 -2.0352802157362575 -2.9999998463406325
v -7.464099884033203 -1.0000002264937038 -2.9999999245020987
v -7.327809810638428 0.035275772962940266 -3.000000002663264
v -6.928199768066406 0.9999997735062962 -3.0000000754979013
v -6.292530059814453 1.8284298300782567 -3.000000138042632
v -5.464099884033203 2.4640996575394993 -3.0000001860343697
v -4.499380111694336 2.8636996865311986 -3.0000002162033335
v -7.196149826049805 -2.0352801402383562 -1.9999998463406323
v -7.327809810638428 -1.0000001483322374 -1.964719935259545
v -7.196149826049805 0.03527584846084153 -2.000000002663264
v -6.8101701736450195 0.999999841195447 -2.103430108228004
v -6.196149826049805 1.8284298853464909 -2.2679501960260304
v -5.395949840545654 2.4640996966202415 -2.4823600722038033
v -4.464099884033203 2.8636997067608654 -2.732050158219935
v -6.8101701736450195 -2.03528006988564 -1.0681498898281812
v -6.928199768066406 -1.0000000754979013 -0.9999999245020987
v -6.8101701736450195 0.03527591881355754 -1.0681500461508127
v -6.464099884033203 0.9999999042724317 -1.2679501334812997
v -5.913589954376221 1.8284299368481407 -1.5857901761514575
v -5.196149826049805 2.4640997330374006 -2.0000001860343697
v -4.360680103302002 2.8636997256119407 -2.482360102372767
v -6.196149826049805 -2.0352800094721397 -0.2679488314404248
v -6.292530059814453 -1.0000000129534012 -0.17157292266818303
v -6.196149826049805 0.03527597922705804 -0.2679489877630564
v -5.913589954376221 0.9999999584376512 -0.5505100647595285
v -5.464099884033203 1.8284299810740592 -1.0000001380426318
v -4.878310203552246 2.4640997643093834 -1.5857902241431954
v -4.196149826049805 2.863699741799433 -2.267950274186732
v -5.395949840545654 -2.0352799631153715 0.34606516826012146
v -5.464099884033203 -0.9999999649612731 0.4641020754959939
v -5.395949840545654 0.035276025583826365 0.34606501193748984
v -5.196149826049805 1 -7.549790126404353e-8
v -4.878310203552246 1.8284300150096116 -0.5505101273042591
v -4.464099884033203 2.464099788305635 -1.2679502440177681
v -3.9817399978637695 2.8636997542203493 -2.103430248933436
v -4.464099884033203 -2.0352799339742385 0.7320511685595752
v -4.499380111694336 -0.9999999347922353 0.8637030879643319
v -4.464099884033203 0.0352760547249593 0.7320510122369436
v -4.360680103302002 1.0000000261271822 0.3460649391028525
v -4.196149826049805 1.8284300363423744 -0.26794912314242436
v -3.9817399978637695 2.4640998033901167 -1.0681502295219185
v -3.7320499420166016 2.8636997620291 -2.0000002162033335
v -3.464099884033203 -2.0352799240347887 0.8637031661257983
v -3.464099884033203 0.035276064664408815 0.8637030098031667
v -3.464099884033203 1.000000035038727 0.4641019245001914
v -3.464099884033203 1.8284300436185592 -0.17157313620871617
v -3.464099884033203 2.464099808535302 -1.0000001860343697
v -3.464099884033203 2.8636997646926647 -1.9647202269607795
v -2.5675299167633057 1.0000000261271822 0.3460649391028525
v -2.7320499420166016 1.8284300363423744 -0.26794912314242436
v -2.946460008621216 2.4640998033901167 -1.0681502295219185
v -3.196150064468384 2.8636997620291 -2.0000002162033335
v -2.0498900413513184 1.8284300150096116 -0.5505101273042591
v -2.464099884033203 2.464099788305635 -1.2679502440177681
v -2.946460008621216 2.8636997542203493 -2.103430248933436
v -1.0146100521087646 0.9999999584376512 -0.5505100647595285
v -1.4641000032424927 1.8284299810740592 -1.0000001380426318
v -2.0498900413513184 2.4640997643093834 -1.5857902241431954
v -2.7320499420166016 2.863699741799433 -2.267950274186732
v -0.11803600192070007 0.03527591881355754 -1.0681500461508127
v -0.46410199999809265 0.9999999042724317 -1.2679501334812997
v -1.0146100521087646 1.8284299368481407 -1.5857901761514575
v -1.7320499420166016 2.4640997330374006 -2.0000001860343697
v -2.5675299167633057 2.8636997256119407 -2.482360102372767
v -0.11803600192070007 0.999999841195447 -2.103430108228004
v -0.7320510149002075 1.8284298853464909 -2.2679501960260304
v -1.5322500467300415 2.4640996966202415 -2.4823600722038033
v -2.464099884033203 2.8636997067608654 -2.732050158219935
v -0.635673999786377 1.8284298300782567 -3.000000138042632
v -1.4641000032424927 2.4640996575394993 -3.0000001860343697
v -2.4288198947906494 2.8636996865311986 -3.0000002162033335
v -0.11803600192070007 0.9999997058171454 -3.8965700427677987
v -0.7320510149002075 1.8284297748100224 -3.7320500800592336
v -1.5322500467300415 2.464099618458757 -3.517640299864936
v -2.464099884033203 2.8636996663015317 -3.267950274186732
v 2.5675299167633057 -2.999999973872818 0.3460652410944576
v 3.464099884033203 -2.999999964961273 0.46410222649179644
v 4.360680103302002 -2.999999973872818 0.3460652410944576
v 5.196149826049805 -3 2.264937037921306e-7
v 5.913589954376221 -3.0000000415623487 -0.5505097627679234
v 6.464099884033203 -3.000000095727568 -1.2679498314896946
v 6.8101701736450195 -3.000000158804553 -2.1034298062363987
v 6.928199768066406 -3.000000226493704 -2.999999773506296
v 6.8101701736450195 -3.0000002941828545 -3.8965697407761937
v 6.464099884033203 -3.0000003572598395 -4.732049715522898
v 5.913589954376221 -3.0000004114250634 -5.449489843849314
v 5.196149826049805 -3.0000004529874076 -5.999999773506296
v 4.360680103302002 -3.000000479114952 -6.346069586280954
v 3.464099884033203 -3.0000004880259747 -6.464099657539499
v 2.5675299167633057 -3.000000479114952 -6.346069586280954
v 1.7320499420166016 -3.0000004529874076 -5.999999773506296
v 1.0146100521087646 -3.0000004114250634 -5.449489843849314
v 0.46410199999809265 -3.0000003572598395 -4.732049715522898
v 0.11803600192070007 -3.0000002941828545 -3.8965697407761937
v 3.464099884033203 2.999999773506296 -3.000000226493704
v 5.395949840545654 -2.0352799631153715 0.34606516826012146
v 5.464099884033203 -0.9999999649612731 0.4641020754959939
v 5.395949840545654 0.035276025583826365 0.34606501193748984
v 5.196149826049805 1 -7.549790126404353e-8
v 4.878310203552246 1.8284300150096116 -0.5505101273042591
v 4.464099884033203 2.464099788305635 -1.2679502440177681
v 3.9817399978637695 2.8636997542203493 -2.103430248933436
v 3.464099884033203 -2.0352799240347887 0.8637031661257983
v 4.464099884033203 -2.0352799339742385 0.7320511685595752
v 4.499380111694336 -0.9999999347922353 0.8637030879643319
v 4.464099884033203 0.0352760547249593 0.7320510122369436
v 4.360680103302002 1.0000000261271822 0.3460649391028525
v 4.196149826049805 1.8284300363423744 -0.26794912314242436
v 3.9817399978637695 2.4640998033901167 -1.0681502295219185
v 3.7320499420166016 2.8636997620291 -2.0000002162033335
v 3.464099884033203 2.8636997646926647 -1.9647202269607795
v 3.464099884033203 2.464099808535302 -1.0000001860343697
v 3.464099884033203 1.8284300436185592 -0.17157313620871617
v 3.464099884033203 1.000000035038727 0.4641019245001914
v 3.464099884033203 0.035276064664408815 0.8637030098031667
v 6.196149826049805 -2.0352800094721397 -0.2679488314404248
v 6.292530059814453 -1.0000000129534012 -0.17157292266818303
v 6.196149826049805 0.03527597922705804 -0.2679489877630564
v 5.913589954376221 0.9999999584376512 -0.5505100647595285
v 5.464099884033203 1.8284299810740592 -1.0000001380426318
v 4.878310203552246 2.4640997643093834 -1.5857902241431954
v 4.196149826049805 2.863699741799433 -2.267950274186732
v 6.8101701736450195 -2.03528006988564 -1.0681498898281812
v 6.928199768066406 -1.0000000754979013 -0.9999999245020987
v 6.8101701736450195 0.03527591881355754 -1.0681500461508127
v 6.464099884033203 0.9999999042724317 -1.2679501334812997
v 5.913589954376221 1.8284299368481407 -1.5857901761514575
v 5.196149826049805 2.4640997330374006 -2.0000001860343697
v 4.360680103302002 2.8636997256119407 -2.482360102372767
v 7.196149826049805 -2.0352801402383562 -1.9999998463406323
v 7.327809810638428 -1.0000001483322374 -1.964719935259545
v 7.196149826049805 0.03527584846084153 -2.000000002663264
v 6.8101701736450195 0.999999841195447 -2.103430108228004
v 6.196149826049805 1.8284298853464909 -2.2679501960260304
v 5.395949840545654 2.4640996966202415 -2.4823600722038033
v 4.464099884033203 2.8636997067608654 -2.732050158219935
v 7.327809810638428 -2.0352802157362575 -2.9999998463406325
v 7.464099884033203 -1.0000002264937038 -2.9999999245020987
v 7.327809810638428 0.035275772962940266 -3.000000002663264
v 6.928199768066406 0.9999997735062962 -3.0000000754979013
v 6.292530059814453 1.8284298300782567 -3.000000138042632
v 5.464099884033203 2.4640996575394993 -3.0000001860343697
v 4.499380111694336 2.8636996865311986 -3.0000002162033335
v 7.196149826049805 -2.0352802912341588 -3.9999998463406325
v 7.327809810638428 -1.0000003046551882 -4.0352801521632315
v 7.196149826049805 0.035275697465039 -4.000000002663264
v 6.8101701736450195 0.9999997058171454 -3.8965700427677987
v 6.196149826049805 1.8284297748100224 -3.7320500800592336
v 5.395949840545654 2.464099618458757 -3.517640299864936
v 4.464099884033203 2.8636996663015317 -3.267950274186732
v 6.8101701736450195 -2.035280361586875 -4.931849802853083
v 6.928199768066406 -1.0000003774895063 -4.999999924502099
v 6.8101701736450195 0.035275627112322995 -4.9318499591757154
v 6.464099884033203 0.9999996427401607 -4.732050017514503
v 5.913589954376221 1.8284297233083815 -4.414209980724516
v 5.196149826049805 2.464099582041598 -4.00000018603437
v 4.360680103302002 2.8636996474504564 -3.5176403300339
v 6.196149826049805 -2.0352804220002945 -5.732049788357234
v 6.292530059814453 -1.000000440034246 -5.828430100283349
v 6.196149826049805 0.03527556669890349 -5.732049944679866
v 5.913589954376221 0.9999995885749368 -5.449490145840919
v 5.464099884033203 1.8284296790824541 -5.0000001380426315
v 4.878310203552246 2.464099550769624 -4.414210028716255
v 4.196149826049805 2.863699631262964 -3.732050158219935
v 5.395949840545654 -2.035280468357506 -6.34606965911529
v 5.464099884033203 -1.0000004880259747 -6.464099808535302
v 5.395949840545654 0.035275520341691916 -6.3460698154379225
v 5.196149826049805 0.9999995470125924 -6.000000075497901
v 4.878310203552246 1.828429645146897 -5.449490208385649
v 4.464099884033203 2.4640995267733636 -4.732050128050972
v 3.9817399978637695 2.863699618842048 -3.896570183473231
v 4.464099884033203 -2.0352804974981957 -6.732049788357234
v 4.499380111694336 -1.0000005181949383 -6.863699837527001
v 4.464099884033203 0.03527549120100223 -6.732049944679866
v 4.360680103302002 0.9999995208850478 -6.3460698882725595
v 4.196149826049805 1.82842962381422 -5.732050080059233
v 3.9817399978637695 2.464099511688882 -4.931850142546821
v 3.7320499420166016 2.8636996110332973 -4.0000002162033335
v 3.464099884033203 -2.0352805074374922 -6.8636997593655344
v 3.464099884033203 -1.0000005284853088 -6.999999924502099
v 3.464099884033203 0.03527548126170572 -6.863699915688167
v 3.464099884033203 0.9999995119740251 -6.464099959531104
v 3.464099884033203 1.8284296165377145 -5.8284303138238815
v 3.464099884033203 2.464099506543697 -5.00000018603437
v 3.464099884033203 2.863699608369714 -4.035280443864466
v 2.464099884033203 -2.0352804974981957 -6.732049788357234
v 2.4288198947906494 -1.0000005181949383 -6.863699837527001
v 2.464099884033203 0.03527549120100223 -6.732049944679866
v 2.5675299167633057 0.9999995208850478 -6.3460698882725595
v 2.7320499420166016 1.82842962381422 -5.732050080059233
v 2.946460008621216 2.464099511688882 -4.931850142546821
v 3.196150064468384 2.8636996110332973 -4.0000002162033335
v 1.5322500467300415 -2.035280468357506 -6.34606965911529
v 1.4641000032424927 -1.0000004880259747 -6.464099808535302
v 1.5322500467300415 0.035275520341691916 -6.3460698154379225
v 1.7320499420166016 0.9999995470125924 -6.000000075497901
v 2.0498900413513184 1.828429645146897 -5.449490208385649
v 2.464099884033203 2.4640995267733636 -4.732050128050972
v 2.946460008621216 2.863699618842048 -3.896570183473231
v 0.7320510149002075 -2.0352804220002945 -5.732049788357234
v 0.635673999786377 -1.000000440034246 -5.828430100283349
v 0.7320510149002075 0.03527556669890349 -5.732049944679866
v 1.0146100521087646 0.9999995885749368 -5.449490145840919
v 1.4641000032424927 1.8284296790824541 -5.0000001380426315
v 2.0498900413513184 2.464099550769624 -4.414210028716255
v 2.7320499420166016 2.863699631262964 -3.732050158219935
v 0.11803600192070007 -2.035280361586875 -4.931849802853083
v 0.11803600192070007 0.035275627112322995 -4.9318499591757154
v 0.46410199999809265 0.9999996427401607 -4.732050017514503
v 1.0146100521087646 1.8284297233083815 -4.414209980724516
v 1.7320499420166016 2.464099582041598 -4.00000018603437
v 2.5675299167633057 2.8636996474504564 -3.5176403300339
v 0.11803600192070007 0.9999997058171454 -3.8965700427677987
v 0.7320510149002075 1.8284297748100224 -3.7320500800592336
v 1.5322500467300415 2.464099618458757 -3.517640299864936
v 2.464099884033203 2.8636996663015317 -3.267950274186732
v 0.635673999786377 1.8284298300782567 -3.000000138042632
v 1.4641000032424927 2.4640996575394993 -3.0000001860343697
v 2.4288198947906494 2.8636996865311986 -3.0000002162033335
v 0.11803600192070007 0.999999841195447 -2.103430108228004
v 0.7320510149002075 1.8284298853464909 -2.2679501960260304
v 1.5322500467300415 2.4640996966202415 -2.4823600722038033
v 2.464099884033203 2.8636997067608654 -2.732050158219935
v 0.11803600192070007 0.03527591881355754 -1.0681500461508127
v 0.46410199999809265 0.9999999042724317 -1.2679501334812997
v 1.0146100521087646 1.8284299368481407 -1.5857901761514575
v 1.7320499420166016 2.4640997330374006 -2.0000001860343697
v 2.5675299167633057 2.8636997256119407 -2.482360102372767
v 1.0146100521087646 0.9999999584376512 -0.5505100647595285
v 1.4641000032424927 1.8284299810740592 -1.0000001380426318
v 2.0498900413513184 2.4640997643093834 -1.5857902241431954
v 2.7320499420166016 2.863699741799433 -2.267950274186732
v 2.0498900413513184 1.8284300150096116 -0.5505101273042591
v 2.464099884033203 2.464099788305635 -1.2679502440177681
v 2.946460008621216 2.8636997542203493 -2.103430248933436
v 2.5675299167633057 1.0000000261271822 0.3460649391028525
v 2.7320499420166016 1.8284300363423744 -0.26794912314242436
v 2.946460008621216 2.4640998033901167 -1.0681502295219185
v 3.196150064468384 2.8636997620291 -2.0000002162033335
vn -0.629312926195624 -0.5217864896018224 -0.5759375835905385
vn -0.8176736271737972 -0.40161177827093403 -0.4124534143130644
vn -0.9028148979952979 -0.3823198367945036 -0.19686747408133157
vn -0.9230053048208517 -0.38231999773772324 0.0435043285477882
vn -0.880294812170999 -0.382321345805014 0.2809117872334095
vn -0.7775912561234238 -0.3823239269272924 0.4991795802106595
vn -0.6219007948446927 -0.3823223181513557 0.6834244994254397
vn -0.42382547663123454 -0.3823229116221879 0.8210975317263104
vn -0.19686754167416362 -0.3823192355277512 0.9028151378774325
vn 0 -0.3826833164346189 0.9238795805312514
vn 0.2391155886326736 -0.3826831028957265 0.8923997859877315
vn 0.499180228324544 -0.38232380303332253 0.7775909009781387
vn 0.6834243901014349 -0.3823224005365843 0.6219008643364516
vn 0.8210976543372229 -0.38232352288349614 0.4238246876856786
vn 0.9028148979952979 -0.38231980706833696 0.1968675318100199
vn 0.9230053048208517 -0.3823200043066899 -0.04350427081907282
vn 0.880294812170999 -0.38232138822151035 -0.28091172950448784
vn 0.7981006938011196 -0.41144123185693243 -0.44017200647272114
vn 0.6293129457678193 -0.5217864462252032 -0.5759376015027174
vn -0.11304048220743589 -0.9914445031731891 0.06526596747140698
vn 0.11304048220743589 -0.9914445031731891 0.06526596747140698
vn -0.22414208849993847 -0.9659258583056403 0.12941236579012802
vn -0.49076561297969995 -0.8239334206203417 0.2833422515289989
vn -0.6186042491320798 -0.6998406450616989 0.3571440248350253
vn -0.7500135432727983 -0.4999973831866996 0.4329922651893853
vn -0.8365301031605138 -0.2588185048000733 0.482939300615838
vn -0.8641599637899613 0.06557276309243296 0.49892661757312196
vn -0.8365300967080272 0.25881860552783054 0.4829392578102215
vn -0.750014786191892 0.49999496912182334 0.43299289987989126
vn -0.6186058708231307 0.6998388056297865 0.35714482037099454
vn -0.49076370266239566 0.8239350177105779 0.2833409161052554
vn -0.22414125773857485 0.9659261322256419 0.12941176014173414
vn 0 0.9999999999993414 0.00000114771574288766
vn 0.22414439452089632 0.9659258425377977 -0.12940848937572202
vn 0.4907657056092713 0.8239327703794396 -0.28334398192426064
vn 0.6186036057795745 0.6998382747890876 -0.35714978378369816
vn 0.750002505637356 0.4999998793966448 -0.4330085012341309
vn 0.836518960353788 0.2588193700752887 -0.4829581375672724
vn 1.5437025524533827e-7 0.9999999999999853 -7.549790126404242e-8
vn 0.2241420889321726 -0.9659258601683265 0.1294123511385248
vn 0.49076561297969995 -0.8239334206203417 0.2833422515289989
vn 0.6186042233277741 -0.699840675473361 0.3571440099372116
vn 0.7500135320967831 -0.4999974055385188 0.43299225873733316
vn 0.8365301031605138 -0.2588185048000733 0.482939300615838
vn 0.8660241985378558 3.574586657259216e-7 0.5000020875423787
vn 0.8365300967080272 0.25881860552783054 0.4829392578102215
vn 0.7500147973678699 0.49999494676993045 0.43299290633192505
vn 0.6186058944501038 0.6998387649276723 0.3571448592043533
vn 0.49076370266239566 0.8239350177105779 0.2833409161052554
vn 0.22414124358603738 0.9659261354518013 0.12941176057396486
vn 1.0243745407467691e-8 0.9999999999990161 0.0000014028363963787432
vn -0.22414439452089632 0.9659258425377977 -0.12940848937572202
vn -0.4907657056092713 0.8239327703794396 -0.28334398192426064
vn -0.6186036228222331 0.6998382266378816 -0.3571498486175698
vn -0.750002505637356 0.4999998793966448 -0.4330085012341309
vn -0.8365189547659625 0.25881933854408773 -0.48295816414350257
vn 0 0.9999999999999973 -7.549790126404333e-8
vn -0.9667086677530242 -0.2558411078600339 0.00443612670284339
vn -0.9999999999999969 4.687539890691764e-9 -7.968827766409618e-8
vn -0.9667086645473721 0.2558411227861374 -0.004435964445852553
vn -0.8692921537927617 0.4942244322365008 -0.008565158191775354
vn -0.715130170494256 0.6988863536994671 -0.012112136951014102
vn -0.5293475641083562 0.8481426863296094 -0.0210983411230266
vn -0.3206299913604333 0.9472045231311997 -7.087288481134421e-8
vn -0.8901646938425125 -0.23810394609690438 -0.38847564748558966
vn -0.9349169491559204 -0.2558413268027379 -0.2459176969654697
vn -0.9659259827426288 0.000001468760027187814 -0.25881846120500984
vn -0.9326225504796782 0.25583911961560546 -0.25448285445407126
vn -0.8261797522822942 0.5086145276318796 -0.2423598135016759
vn -0.6591333153324881 0.7309926021617758 -0.17661565107192223
vn -0.4601493907540047 0.8792384425405643 -0.1232976047924742
vn -0.2500004476229703 0.9659255715174941 -0.06698930121233473
vn -0.2680020571775891 0.9538218664160141 -0.13564197173165804
vn -0.4552130229063658 0.8558135715756777 -0.24569133986229694
vn -0.6253771160070605 0.6988866038321372 -0.34707488782490875
vn -0.7335421618975415 0.5234187639686505 -0.43353049978543756
vn -0.8729097674701036 0.3034136246337683 -0.38205851677706165
vn -0.932622529297839 -0.2558390840026249 0.2544829678835095
vn -0.9659260239881858 -0.0000014640723609842902 0.25881830727410116
vn -0.9349168927557596 0.25584137379287974 0.24591786249820816
vn -0.8418881457020645 0.49422606420479587 0.21671397644585952
vn -0.6938978014668324 0.6988864254291098 0.17338859671390566
vn -0.4939263843972353 0.8619979254728966 0.11400133015319229
vn -0.25000041968329934 0.9659255888293052 0.06698915586073609
vn -0.8349770619699631 -0.2558419432263156 0.4871942180180209
vn -0.8660262150379356 0.0000011768269427425946 0.4999985948637082
vn -0.8394113352923464 0.25584129656868326 0.4795141720040976
vn -0.757111070332961 0.49422714215336605 0.427226355856231
vn -0.6431159602035093 0.684750427963216 0.34281002484716055
vn -0.46188054516414234 0.8445911254876761 0.27079917419803085
vn -0.2680020571775891 0.9538218868973716 0.1356418277085583
vn -0.6804297098511594 -0.2558428174870699 0.6867021644731762
vn -0.7071068109888694 6.979151593893391e-8 0.7071067513842209
vn -0.7065897983327722 0.23250344323909375 0.6683359976643618
vn -0.6283392818598105 0.4586714916593171 0.6283392472310754
vn -0.521388705431002 0.6840698454115143 0.5101002494095163
vn -0.35938687555164534 0.8481425569257979 0.3892239417258349
vn -0.2267192324991134 0.9472043150006492 0.22672091932409702
vn -0.47951398634448916 -0.25584116913296245 0.839411480191149
vn -0.4999987358899624 -0.0000010877577136246614 0.8660261336167957
vn -0.4982054614696493 0.272849239041539 0.8230094840986142
vn -0.4427192112694188 0.5191164802698409 0.7311072287190405
vn -0.33532877558951096 0.7096258020227766 0.6196659046334324
vn -0.2381919681570374 0.8792387226848261 0.41255769879743154
vn -0.12941018043260266 0.9659256133437267 0.22414440587921566
vn -0.24591801040663644 -0.255840802064999 0.9349170103043262
vn -0.2588185168168251 0.0000015213813559610846 0.9659259678414408
vn -0.25448275095786604 0.2558390058772493 0.9326226099214289
vn -0.261099158667194 0.49389645559862194 0.8293934654254287
vn -0.1646783712669846 0.6847508750539161 0.7099276534617802
vn -0.13511709654066664 0.8445912260365066 0.518082069873655
vn -0.09359551531390521 0.9538220102779098 0.2854180306542163
vn 0.01995466059040357 -0.27284826093679715 0.9618501120364271
vn -7.9688277310197e-8 7.549790126404308e-8 0.999999999999994
vn -0.027049197808290036 0.23250297284910804 0.9722194754859909
vn -0.012201133801065613 0.47691536055698364 0.8788645351809179
vn 0.01211208323192104 0.6988862880499885 0.7151302355623704
vn 0.02109837310923531 0.848142709458961 0.5293475257746616
vn 4.260475520214899e-10 0.9472045382870634 0.32062994658701305
vn 0.2777534072566613 -0.23249916688169542 0.9320929042518415
vn 0.2588183350799611 -0.0000013778742234500677 0.9659260165377773
vn 0.20991656727602326 0.2556224168499171 0.9437119342187309
vn 0.23326259352898568 0.4942261805257423 0.8374539061602541
vn 0.1967919435264185 0.6988873285464992 0.6876259397086708
vn 0.14815639786019386 0.8558137407749078 0.49561327955771234
vn 0.09359551531390521 0.9538220102779098 0.2854180306542163
vn 0.4601410279229163 -0.2819494534797001 0.8418876053871681
vn 0.49953963369843807 -0.04283711030605168 0.8652312617705497
vn 0.4835586339505948 0.25433004736948944 0.8375483714609372
vn 0.4117999225431173 0.5191169537853563 0.7489582178506987
vn 0.36805539513383106 0.6988861839897759 0.6132644844935086
vn 0.26864920815239396 0.8619981697744257 0.42986830339608906
vn 0.12941018043260266 0.9659256133437267 0.22414440587921566
vn 0.6756587805124494 -0.23730344905338996 0.697977281423826
vn 0.7064577328004285 0.04283531120424397 0.706457789171097
vn 0.6941078125158684 0.28195241823496514 0.6623572891241489
vn 0.5877256395896191 0.4938961753344209 0.6408159958669917
vn 0.5142391200621914 0.6988869516992288 0.4971067854518012
vn 0.3892240084855571 0.8481425659512928 0.3593867819494646
vn 0.2267192317331638 0.9472043118006097 0.22672093345930205
vn 0.8394114544754468 -0.25584122415608607 0.47951400200383126
vn 0.8660260949024371 -0.0000011013292367202655 0.4999988029453892
vn 0.8284429342399461 0.23250330447127515 0.5095336280539744
vn 0.7550173452720962 0.47691819810369096 0.44999760072227607
vn 0.6253771523005328 0.6988866301877146 0.3470747693586166
vn 0.4552130377941234 0.8558135770588038 0.24569129317918667
vn 0.2680020571775891 0.9538218868973716 0.1356418277085583
vn 0.9349169491559206 -0.255841289670195 0.24591773559643343
vn 0.9659259752920699 0.0000015031529831626245 0.2588184890107428
vn 0.9222382494354306 0.25562248690869455 0.2900581932386785
vn 0.8366731532760561 0.5086139309119501 0.20319917290529393
vn 0.6661806032615907 0.7208986346578465 0.19107213922096528
vn 0.49392642904100503 0.8619978993632522 0.1140013341507085
vn 0.25000041968329934 0.9659255888293052 0.06698915586073609
vn 0.9667086751238481 -0.25584108067824585 -0.004436088105735846
vn 0.9999999999999969 -4.687539890691764e-9 7.968827766409618e-8
vn 0.9618501394372387 0.2728481698633069 0.01995458510740278
vn 0.8545185639997042 0.5191139755162743 -0.01785228846877628
vn 0.7148307061299135 0.6985936295380302 0.03136881162381968
vn 0.5293475640875536 0.8481426862962785 -0.02109834298484249
vn 0.3206299646218982 0.9472045321822289 -7.151195424754847e-8
vn 0.9326225364087117 -0.25583909457683074 -0.2544829311932113
vn 0.9659260239881792 -0.0000015078403748505053 -0.258818307273875
vn 0.9349168998841889 0.2558413088086928 -0.2459179030042186
vn 0.8566447387076532 0.4747741605426865 -0.20186452914141112
vn 0.7065862543224328 0.6840694531986505 -0.18106586758164392
vn 0.4956134006865553 0.8558136786967805 -0.14815635124891469
vn 0.2854188166824634 0.9538219179178681 -0.09359405955007045
vn 0.8729093065228499 -0.3034140661920183 -0.3820592192613895
vn 0.8901649746296247 0.23810401693884828 -0.3884749606605609
vn 0.7561396746310114 0.5121258643379952 -0.4074062978464734
vn 0.6061696169001424 0.7208977397235627 -0.33595363431371467
vn 0.4298686100852279 0.8619978252575697 -0.2686498228449342
vn 0.22414447789111283 0.9659255781043908 -0.1294103187331624
vn 0.5538410425189279 0.5956572918899965 -0.5817666974310428
vn 0.5276425967727084 0.6985941615924758 -0.48327992660554275
vn 0.3593868677667274 0.8481424905103917 -0.3892240936371369
vn 0.22671923249911344 0.9472042807667315 -0.22672106234797018
vn 0.38458274324893144 0.6985936579682973 -0.6033763457756692
vn 0.24569032554495554 0.855814046419865 -0.4552126776398816
vn 0.13564167706497643 0.9538218624865836 -0.26800222029980536
vn 0.20118401935726501 0.5915020112161096 -0.7808011021268816
vn 0.19648653372641312 0.6840690476229807 -0.7024546819178924
vn 0.11400118853651676 0.8619980729114578 -0.49392615977410514
vn 0.06699174986979883 0.9659255454835871 -0.24999989206321055
vn 2.8369367677158447e-10 0.3312540500344311 -0.943541601804492
vn 0.015798042153504274 0.5271114251203901 -0.8496493202325696
vn -0.01211337571801939 0.6988861691252747 -0.7151303298938678
vn -0.021097488754077943 0.8481423476380959 -0.5293481407459657
vn 0 0.9472044898732765 -0.32063008961091877
vn -0.17739350594658554 0.5954772070909323 -0.7835422387358333
vn -0.19679047316685952 0.698886221997983 -0.6876274851779481
vn -0.14815654116434715 0.8558137786507184 -0.49561317131589255
vn -0.09359544931802365 0.9538219616531751 -0.28541821479198926
vn -0.3359538571988563 0.7208979772480779 -0.6061692108915134
vn -0.26864918746607075 0.8619980980958196 -0.42986846005843404
vn -0.12941018043260266 0.9659255794988513 -0.22414455172992628
vn -0.5756008911586974 0.591503785780625 -0.5646298659338719
vn -0.5101003451507297 0.6840697467375643 -0.5213887412243489
vn -0.3892240057588179 0.8481425004072473 -0.359386939584624
vn -0.2267192317331638 0.9472042775666896 -0.22672107648317466
vn 0 0.25881987480508656 0.9659256039705539
vn -3.0485184410179196e-8 0.5000012311942668 0.8660246929529298
vn 0 0.6998385931705615 0.7143010174352612
vn 3.200768750964463e-8 0.8239336529735293 0.5666862760802444
vn 0 0.9659258939832462 0.25881879246427764
vn -1.0788124882310481e-7 0.9999999999999913 -7.61349952527186e-8
vn 1.524261253892525e-8 0.9659258549026839 -0.2588189383150301
vn 1.6003843214258276e-8 0.8239335395761486 -0.5666864409543598
vn -2.4113407076895613e-8 0.699838485314098 -0.7143011231079428
vn -3.048518416673376e-8 0.5000012156446115 -0.8660247019305567
vn 0 0.2588197289543718 -0.9659256430512575
vn -0.17056643760105228 0.028062829558622004 -0.9849464797445848
vn 3.0485219458649877e-8 -0.25881987480508645 -0.9659256039705535
vn 0 -0.5000037728694715 -0.8660232255062759
vn -2.4113471690828233e-8 -0.6998405198217227 -0.7142991297878364
vn 0 -0.8239320229574069 -0.5666886460352941
vn 0 -0.9659256430512575 -0.2588197289543718
vn 0 -0.9914445155164564 -0.13052881924057755
vn 0.8134346203548402 -0.5217837032219639 -0.2570328489904563
vn 0.7660341865840746 -0.4016096378483057 -0.5018977224214393
vn 0.6532822430771816 -0.3826829197309827 -0.6532810220924959
vn 0.46193980706193366 -0.3826852410370633 -0.8001022565547409
vn 0.19686748948700314 -0.3823200427690158 -0.9028148074107905
vn -0.043504147405681155 -0.382319776719002 -0.923005404907272
vn -0.28091199138002154 -0.38232012557053174 -0.8802952769853097
vn -0.49918102401623177 -0.38232390659866183 -0.7775903392566318
vn -0.6834243583362648 -0.382322510015009 -0.6219008319406623
vn -0.8210976356258362 -0.3823236377713934 -0.42382462029819623
vn -0.9028131635619284 -0.3823224225379228 -0.1968704064201538
vn -0.9238761739188386 -0.382691540623891 2.8892408148607228e-8
vn -0.9028131635619284 -0.3823223928113134 0.1968704641492326
vn -0.8001022608670646 -0.3826854605310962 0.4619396177570341
vn -0.6532813128138085 -0.3826839621770687 0.6532813417056444
vn -0.49917898196871413 -0.3823218033921264 0.7775926842580697
vn -0.28091416017299975 -0.38232174176389033 0.8802938829668892
vn -0.05164022088534337 -0.4016095673516684 0.9143538937405574
vn 0.18412180198126588 -0.5217809631031954 0.8329728618498163
vn 1.6786549927871926e-9 0.9999999999999973 -7.549790126404333e-8
vn 0.46268540557765514 -0.23250210759290774 -0.8554910785217439
vn 0.49999935667673695 -9.138334257007723e-7 -0.8660257752064972
vn 0.48719449305481355 0.2558417660301145 -0.8349769557848022
vn 0.44206471743883996 0.49422719072482363 -0.7485440999326408
vn 0.36805540932365466 0.6988860021387816 -0.613264683217669
vn 0.28294561478259617 0.848142982637816 -0.44787862203673906
vn 0.16031606502416132 0.9472044785231397 -0.27767325251250896
vn 0.7815128008278343 -0.23810592297411828 -0.5766656844193845
vn 0.6660213606735094 -0.2728499158036256 -0.6942394907901462
vn 0.7071073176279766 -7.682375397739745e-7 -0.7071062447442942
vn 0.6867026182698288 0.2558426675612609 -0.6804293082433325
vn 0.6229805058782486 0.5086142330118079 -0.5943120823889515
vn 0.4813948764543261 0.7208985598711897 -0.49856217194966657
vn 0.37075338643483086 0.8619978966586448 -0.3456899660146033
vn 0.18301364269085615 0.9659254333805949 -0.18301383482549508
vn 0.2514694462094881 0.9538218210007088 -0.16427736120958755
vn 0.4245512835281829 0.8734550998614676 -0.23839546174490445
vn 0.6002365280359964 0.7096249695459506 -0.3689830795689708
vn 0.742221392346018 0.5234168291911415 -0.4184999733135351
vn 0.7673276801719081 0.3034147546633372 -0.5649316046165098
vn 0.2699342919775926 -0.2819497337951314 -0.9206735717003125
vn 0.2585808386249818 -0.042836084134790474 -0.9650393876894343
vn 0.23614688743055826 0.23730122417368044 -0.9422965438557714
vn 0.23326263335329084 0.49422607530783125 -0.8374539571623663
vn 0.19679175017228595 0.6988868087672315 -0.687626523336094
vn 0.15669352230627148 0.85566787451224 -0.4932338477790827
vn 0.06165893051229701 0.9538218250919107 -0.2939763634485199
vn 0.01578057186159794 -0.23730227253993555 -0.9713076778236149
vn 0 0.04283558787484093 -0.9990821349675996
vn -0.022449732294139414 0.2819500794144262 -0.9591663892350066
vn 0.00856504409388029 0.4942244863645945 -0.8692921241431575
vn 0.01211210458300672 0.6988863011428925 -0.7151302224052458
vn 0.023696413516376257 0.8556677996072533 -0.5169826851082563
vn -0.016532287553531845 0.9538218471017794 -0.29991760111670224
vn -0.25448271031549974 -0.25583875656086863 -0.9326226894043841
vn -0.258818390691872 -0.0000015284128507962305 -0.9659260016364262
vn -0.24591836240732382 0.2558403348759784 -0.9349170455615019
vn -0.2167140201428884 0.49422593923689995 -0.8418882078155696
vn -0.1733882229586474 0.6988866209979735 -0.6938976978844053
vn -0.11091874920613079 0.8556675844322371 -0.5054997685721011
vn -0.09359538596238072 0.9538220426363773 -0.285417964934799
vn -0.48719495676996466 -0.25584130482100065 -0.8349768265319703
vn -0.49999854670248206 0.0000010971327973665928 -0.866026242843831
vn -0.4795141876634445 0.25584122484419397 -0.8394113482075932
vn -0.4272279283434402 0.4942264147353925 -0.7571106578441306
vn -0.34707537234013397 0.6988870613453451 -0.625376335816303
vn -0.23797231600047275 0.8556679027877098 -0.4595667709443901
vn -0.1642772287396424 0.9538218094608095 -0.25146957651877133
vn -0.686702057959245 -0.25584291042215107 -0.6804297824031962
vn -0.7071066917795771 -1.0494817853543133e-7 -0.707106870593499
vn -0.6804297489578649 0.25584292898910016 -0.6867020841816449
vn -0.6086251347430605 0.4942263362903955 -0.6207380879855565
vn -0.4975791205117582 0.684751341524052 -0.5324759328943951
vn -0.376055055172847 0.8445910970510607 -0.38111477832935425
vn -0.22376204402694042 0.9538215616521795 -0.2003870659006791
vn -0.8394103937085853 -0.2558426413583558 -0.4795151027827774
vn -0.8660247197935552 2.622546040825197e-7 -0.5000011847050218
vn -0.8349771401955327 0.2558419604709912 -0.48719407489546634
vn -0.7485439330275809 0.4942274156244718 -0.44206474862033046
vn -0.6033765473354424 0.6985936834708165 -0.3845823806939644
vn -0.45521296531915334 0.8558133965545223 -0.24569205620686105
vn -0.26800189442348404 0.9538218771109331 -0.13564221809598867
vn -0.9349162014516366 -0.25584277823694623 -0.24591902953460815
vn -0.9659255788072881 -6.875972392771621e-8 -0.2588199687153233
vn -0.9326202478136746 0.2558433277546624 -0.2544870625618926
vn -0.8374538937967384 0.4942262247572793 -0.23326254420041032
vn -0.6823534069842674 0.6985939882052326 -0.21531434606284386
vn -0.5032917452867267 0.8558136460573237 -0.11950072112046331
vn -0.2939773141000398 0.953821731355231 -0.061655847971107756
vn -0.9618497795234753 -0.2728495371087863 0.019953238588331212
vn -0.9999999999999969 -2.3437789697924204e-9 -7.968827713324636e-8
vn -0.966708279671155 0.2558426056911192 -0.004434312620280901
vn -0.8692906869931931 0.49422698277533494 -0.008566854947470462
vn -0.7148306482194917 0.6985936860618429 -0.031368872479396404
vn -0.517070984679202 0.8558139805426545 0.014833324327925841
vn -0.29991745784794527 0.9538218935392954 0.016532207449078393
vn -0.9222361512047327 -0.25562522790279874 0.29006244891526967
vn -0.9659256309615082 6.875970478481295e-8 0.258819774073789
vn -0.9349161521795819 0.25584279737550364 0.2459191969424136
vn -0.8418871075293606 0.49422718207939836 0.21671546015387164
vn -0.6985920264732877 0.6985940647116267 0.15471106391474698
vn -0.4956133974040567 0.8558136953996189 0.14815626574686955
vn -0.2854197171450546 0.9538217942152818 0.09359257419676788
vn -0.8284429527524974 -0.23250269446066668 0.5095338763058382
vn -0.8660246532729423 -6.349157184573813e-7 0.5000012999213873
vn -0.8394103929038043 0.25584270071771237 0.47951507252071657
vn -0.7571110591813843 0.49422716467615907 0.42722634956356226
vn -0.6347465214583922 0.6985934891309298 0.33024837689282366
vn -0.44038042759087515 0.8558135319133854 0.27138216151548183
vn -0.25146950887617103 0.9538218512508636 0.16427708964415177
vn -0.6749934717282118 -0.2979347268260543 0.674995341965691
vn -0.706457680509532 -0.04283594630831859 0.7064578029528465
vn -0.690534213244494 0.21522827908795641 0.6905355082974695
vn -0.62833890121809 0.458671309753437 0.6283397606590799
vn -0.5213887859438016 0.684069813238675 0.5101002102603498
vn -0.3551352626524472 0.8558137120173468 0.37611412569041747
vn -0.20038315918178823 0.953821736846185 0.22376479579248643
vn -0.47198701335125476 -0.23730335896183316 0.8490673560167024
vn -0.5218349256215901 0.025591496330059783 0.8526625274498101
vn -0.4795141629765281 0.25584232189683687 0.839411027942423
vn -0.4272276727868566 0.494226146928827 0.7571109768699779
vn -0.33532874226463655 0.7096256192176951 0.6196661320107142
vn -0.24847815778968002 0.8734549546726397 0.418730279845229
vn -0.13564212670876838 0.9538219212997289 0.26800178340827596
vn -0.22656461130360103 -0.2819505764122962 0.9322941324311883
vn -0.27653280940919056 -0.01842954834433345 0.9608277457838549
vn -0.2296709492162276 0.272849370871421 0.9342400526102416
vn -0.23840901384076907 0.5191151551346903 0.8207804809015371
vn -0.15471110855482406 0.6985936596363834 0.6985924216634348
vn -0.15669365895219 0.8556680224386907 0.49323354774390116
vn -0.061658825314639655 0.9538218537437513 0.29397629255035623
vn -0.10865184446005818 -0.23810419124909094 0.965143083073719
vn -0.10050166853020245 0.2781280622002131 0.9552717915019787
vn -0.042295330554924085 0.49859837373896465 0.8658006506801145
vn 0.03137017699032807 0.6985935913701575 0.7148306835133343
vn -0.02369558223579462 0.8556676197208576 0.516983020943385
vn 0.016532287849070907 0.9538219094390381 0.29991740285042323
vn 0.17739357427959243 0.5954771758880808 0.7835422469788508
vn 0.21531273975667506 0.6985931494389866 0.6823547725746424
vn 0.11091792969933227 0.8556676612006164 0.5054998184437666
vn 0.09359535070044811 0.9538220627419937 0.28541790930820743
vn 0.3535530528749023 0.7071073440754865 0.6123719807089056
vn 0.2646025569957673 0.8445916653126043 0.4654572007347006
vn 0.16427721670292975 0.9538218640631209 0.25146937727582674
vn 0.5756022144633118 0.5915025720690235 0.5646297883929444
vn 0.5101005948345683 0.6840697213630472 0.5213885302379624
vn 0.37611341574835183 0.8558138899441291 0.3551355857595879
vn 0.22376353099909688 0.9538216381124762 0.20038504151569922
vn 0.8171316217313231 0.33125498791529545 0.47176905976120903
vn 0.7299023782671846 0.5381988543201629 0.4214077733127043
vn 0.5909639369812497 0.730991718818243 0.34119310105389333
vn 0.41873033526025827 0.8734549224177338 0.24847817778843787
vn 0.26800186838679185 0.9538219109942403 0.13564203127527966
vn 0.7767848548799415 0.5915028154309643 0.21617055434630908
vn 0.7065873626452651 0.6840684438645324 0.18106535576626906
vn 0.4932340456710472 0.8556677944344094 0.15669333667621108
vn 0.2939763647644808 0.9538218368615337 0.06165874216971049
vn 0.7071067811865485 0.7071067811865444 -5.338507794915736e-8
vn 0.5354001473496843 0.8445909545417869 0.003577949710347833
vn 0.29991748487717784 0.9538218822237848 -0.016532369945770686
vn 0.7767848835238051 0.591502759214232 -0.216170605242384
vn 0.7065873905849203 0.6840683858685921 -0.1810654658446286
vn 0.49561359489421786 0.855813586069014 -0.1481562366413383
vn 0.28541795494041333 0.9538220455662979 -0.09359538658157818
vn -0.18412176793473817 -0.5217809933038492 0.8329728504575853
vn 0.05164022398262275 -0.4016095922699065 0.9143538826208504
vn 0.28091416017299975 -0.38232174176389033 0.8802938829668892
vn 0.49917898196871413 -0.3823218033921264 0.7775926842580697
vn 0.6532813128138085 -0.3826839621770687 0.6532813417056444
vn 0.8001022627568701 -0.3826854912373077 0.46193958904579346
vn 0.8924001952251929 -0.38268116866502094 0.23911715687338525
vn 0.9238784356746923 -0.3826860803521375 2.8891995909549508e-8
vn 0.8924001952251929 -0.38268120477070355 -0.2391170990901324
vn 0.8001022422929185 -0.38268540218882 -0.4619396982609578
vn 0.6219008201779918 -0.38232243691958595 -0.6834244099312011
vn 0.4238262759437829 -0.3823224318134112 -0.8210973425556216
vn 0.19686761640087705 -0.3823186272200048 -0.9028153791851621
vn 0 -0.38268340942525736 -0.923879542013276
vn -0.19686748948700314 -0.3823200427690158 -0.9028148074107905
vn -0.4238247136707954 -0.38232357986263255 -0.8210976143936172
vn -0.6219014268612957 -0.38232207899039805 -0.6834240580959556
vn -0.7660341865840746 -0.4016096378483057 -0.5018977224214393
vn -0.81343464565325 -0.5217836598451738 -0.25703285698436984
vn -1.678655103809495e-9 0.9999999999999973 -7.549790126404333e-8
vn 0.4871949519423286 -0.25584196522044916 0.8349766269986546
vn 0.5000000772436294 2.7632327649795415e-7 0.8660253591877598
vn 0.4795141629765281 0.25584232189683687 0.839411027942423
vn 0.4167037957352411 0.4747743060228485 0.7752079107957845
vn 0.3716003237721814 0.6840694908210062 0.6276640272473
vn 0.24640413512434825 0.84814292814722 0.4689760928101573
vn 0.16031604917931253 0.9472045148749915 0.2776731376564323
vn 0.1086518297348088 -0.2381041916345908 0.9651430846363229
vn 0.25448603950230025 -0.2558419748405991 0.9326208981188958
vn 0.2588188931956016 1.8308301102826534e-7 0.9659258669923745
vn 0.24591954256941084 0.2558416855275148 0.9349163655262924
vn 0.20319962265011374 0.5086145377424581 0.8366726751555096
vn 0.17661478169381647 0.7309920914558571 0.659134114665777
vn 0.12329808487442644 0.8792388094154764 0.46014856110168884
vn 0.06699147899567924 0.9659256045815767 0.24999973631123537
vn 0.016532284899268196 0.9538219063206822 0.299917412930275
vn 0.014832608838923712 0.8558138118134736 0.5170712844708395
vn 0.0121133677404701 0.6988861870986177 0.7151303124639171
vn -0.008677533645850409 0.5234169897539677 0.8520324848541398
vn 0.10558245782975231 0.3034147868984017 0.946990924819254
vn 0.6942397866388275 -0.2728498935630892 0.6660210614014289
vn 0.6885482003913167 -0.025591242455425708 0.7247388937041166
vn 0.6979767141693795 0.2373038463985647 0.6756592269493273
vn 0.58772521985051 0.4938959050071424 0.6408165891804345
vn 0.5324760626288414 0.6847513630528221 0.49757895205141917
vn 0.3760550741040433 0.8445911375111684 0.38111466998554816
vn 0.22376210208091546 0.9538215813858608 0.20038690714441884
vn 0.8554900955279365 -0.23250366426440341 0.4626864408616567
vn 0.8565153482339521 0.018430700357280984 0.5157923686174622
vn 0.8418878304445196 0.28194973324823674 0.460140444723856
vn 0.7335537897813456 0.49389701166060707 0.46686676832919627
vn 0.625377184820472 0.6988866069255373 0.347074757604368
vn 0.4475909749709738 0.8619976185171146 0.23795466962292683
vn 0.22414426808561938 0.9659255925198946 0.12941057452716986
vn 0.9220587321427862 -0.2979369181376174 0.24706535024138077
vn 0.9650390639433707 -0.04283432634351073 0.2585823380472858
vn 0.9422953852055954 0.2373035909448931 0.2361491324246135
vn 0.8293934797554448 0.49389652392322453 0.2610989839040176
vn 0.6938977707683991 0.6988864541146217 0.17338860394425198
vn 0.5167708278855287 0.8481426133306892 0.11662769353414562
vn 0.30970539666035896 0.9472043278188629 0.08298511095772604
vn 0.9765632491568436 -0.2152306214185812 1.6249460204858776e-8
vn 0.9990819924876662 0.04283891089739528 -3.2342478651907073e-9
vn 0.9591663769706189 0.2819501229843672 -0.022449709088466996
vn 0.8687097291866351 0.4938966879591776 0.03754288267352037
vn 0.7151301412769139 0.6988863847504309 -0.012112070332263445
vn 0.5170709583174443 0.8558139942756766 -0.014833450933351906
vn 0.29991751208188616 0.9538218739626457 -0.016532353038776332
vn 0.9239099795226904 -0.2728516117144528 -0.26822070711115437
vn 0.965925616060306 2.733522883001735e-8 -0.25881982968566647
vn 0.9460927935559326 0.23250286293628103 -0.22550131863908118
vn 0.8413069229412078 0.4913094160590087 -0.22542785786799469
vn 0.6724643473781986 0.7208989524697558 -0.1676198133671038
vn 0.48475355791230135 0.8619976088505888 -0.1482366703188933
vn 0.2500010297050049 0.9659255771681902 -0.06698704739526948
vn 0.8284429349114282 -0.2325031705492804 -0.5095336880716245
vn 0.8660248270248229 -3.37752637638791e-7 -0.5000009989755132
vn 0.8572224682518954 0.25562469885602074 -0.4470186274182506
vn 0.7335537801658084 0.4938969048892738 -0.466866896390447
vn 0.6347464921159289 0.6985934725709532 -0.33024846832011195
vn 0.4478798578435825 0.8481420761455218 -0.28294637585517185
vn 0.2776731509735962 0.9472045041640509 -0.1603160893975674
vn 0.6941076282915734 -0.2819527438628029 -0.662357343565906
vn 0.7064576755631511 -0.04283523311669488 -0.7064578511431153
vn 0.6979771702885538 0.2373036532897468 -0.6756588235872617
vn 0.6031433995022387 0.47477434640563476 -0.6409425556412878
vn 0.5085893222141742 0.6947473429697819 -0.5085892554568522
vn 0.3368519674270201 0.8792385543085479 -0.3368535537261859
vn 0.1830111903589202 0.9659254479040708 -0.18301621046981456
vn 0.49932019514615766 -0.23730338707159784 -0.8332865324746048
vn 0.49953965754738777 0.04283720175814905 -0.8652312434736569
vn 0.4990262931942692 0.2819498128624715 -0.8194370395140828
vn 0.42722797706882426 0.4942264021500303 -0.7571106385644814
vn 0.33024891937947043 0.6985939204162875 -0.6347457645436431
vn 0.27138261171930644 0.855814222012933 -0.4403788090460376
vn 0.1642772538093444 0.9538218088964634 -0.25146956228207556
vn 0.2459181809995148 -0.2558404578436203 -0.9349170596284232
vn 0.2833683235422263 -0.025589987755538172 -0.9586696749869269
vn 0.2666358043113413 0.23730127817447128 -0.9341271065738359
vn 0.21671402333488723 0.4942259167140707 -0.8418882202158089
vn 0.16467808990912344 0.684750832442124 -0.709927759827506
vn 0.14142259630051102 0.8375165467389502 -0.5277932201100034
vn 0.08298730188750567 0.9472045760024556 -0.3097040505473574
vn 0 -0.297932788943952 -0.9545868495176741
vn 0.01842917785737946 -0.018429322247508633 -0.9996603050461685
vn -0.004435901291437665 0.2558411058894894 -0.9667086693088957
vn -0.00856504502513455 0.4942244863606521 -0.8692921241362231
vn -0.01211210374146663 0.6988863004575219 -0.715130223089302
vn -0.014833390045662169 0.8558139563105034 -0.5170710229010295
vn -0.01653228582150718 0.9538218663827882 -0.29991753989316855
vn -0.2666353438018202 -0.23730212248717217 -0.9341270235352194
vn -0.2585808936252662 0.0428359935344994 -0.9650393769737435
vn -0.226560956839214 0.2819482359931911 -0.9322957283268156
vn -0.23326263335329084 0.49422607530783125 -0.8374539571623663
vn -0.19679175823793982 0.6988868374116232 -0.6876264919143239
vn -0.14823748458795558 0.8619980017209201 -0.4847526102994972
vn -0.06699162017096742 0.9659255612707545 -0.24999986582125733
vn -0.5188686365222108 -0.2556241528470841 -0.8157399282337432
vn -0.49999919329884035 7.854109049610367e-7 -0.8660258695327133
vn -0.4470175296105101 0.25562340021218716 -0.857223427984138
vn -0.4420646737370526 0.494227175185254 -0.7485441360014503
vn -0.36805542163512694 0.6988859689260887 -0.6132647136785477
vn -0.2829455494226741 0.8481430249907497 -0.44787858312431256
vn -0.16031606502416132 0.9472044785231397 -0.27767325251250896
vn -0.7123192301665435 -0.2556245731817349 -0.6536492881665201
vn -0.6885484338405371 -0.025590371599231408 -0.7247387026626609
vn -0.6838560886456965 0.25433056819283323 -0.6838543793125257
vn -0.5916127986485876 0.5191147306758622 -0.6168583247963123
vn -0.5142393901714153 0.6988867408940379 -0.49710680240632465
vn -0.3761134957704752 0.8558137553610812 -0.35513582533176846
vn -0.2237634737107099 0.9538216177285278 -0.20038520251418424
vn -0.7770396362548605 -0.27812919915300405 -0.5646711895142362
vn -0.7770389404688495 0.27812897184721647 -0.5646722589381014
vn -0.7308959086091134 0.512124228567734 -0.45113184912214077
vn -0.5909639369812497 0.7309916672995086 -0.34119321143057063
vn -0.4125575840599457 0.8792386129489069 -0.2381925719545076
vn -0.224144253933103 0.9659255762056309 -0.1294107208101115
vn -0.7767849084082018 0.5915027185584469 -0.21617062706859208
vn -0.7162699343128655 0.6709117410793706 -0.19192398724831408
vn -0.5277937586653383 0.8375162869937475 -0.1414221246273765
vn -0.30970400789409613 0.9472045902330896 -0.08298729864080666
vn -0.69293529288626 0.7208975595676189 -0.012140365813448748
vn -0.5170717149915016 0.8558135491823962 0.01483275401190975
vn -0.29991748487717784 0.9538218847200924 0.016532225922669924
vn -0.7767848810216316 0.5915027899497362 0.21617053013278176
vn -0.7065873626452651 0.6840684438645324 0.18106535576626906
vn -0.48475278813426015 0.8619979382945325 0.14823727187194294
vn -0.24999986499116952 0.9659255758893107 0.06699141248921872
vn -0.8171316493537605 0.3312549395084399 0.4717690459066413
vn -0.7437177500738751 0.5271110390977886 0.41114214170564267
vn -0.6132653111598521 0.6988856279427975 0.36805507357325096
vn -0.4478786294760809 0.8481430038509195 0.282945539419456
vn -0.2776732071783882 0.947204499226457 0.16031602122191296
vn -0.5698826299642071 0.5983356052547456 0.5632302296126477
vn -0.4985621990123623 0.720898622406885 0.4813947547780441
vn -0.3551356905502609 0.8558138569280554 0.37611339192764126
vn -0.20038499776838536 0.9538216563014382 0.22376349264289108
vn -0.3845826233895069 0.6985937533634047 0.6033763117230202
vn -0.23795461601469314 0.8619980534677877 0.4475901658158333
vn -0.1294105820773512 0.9659256082188057 0.22414419607371375
vn -0.20118404114339336 0.5915019267314301 0.7808011605154154
vn -0.1964866698094462 0.6840688625350222 0.7024548240970622
vn -0.11662689068612435 0.8481426245332806 0.5167709906899628
vn -0.08298726412519487 0.947204616952156 0.3097039354246808
f 1//1 22//22 20//20
f 1//1 23//23 22//22
f 1//1 2//2 23//23
f 23//23 2//2 24//24
f 24//24 2//2 65//65
f 25//25 65//65 26//26
f 25//25 24//24 65//65
f 2//2 3//3 66//66
f 65//65 66//66 67//67
f 27//27 67//67 68//68
f 77//77 68//68 69//69
f 77//77 69//69 76//76
f 76//76 30//30 77//77
f 76//76 31//31 30//30
f 76//76 198//198 31//31
f 76//76 75//75 199//199
f 76//76 199//199 198//198
f 69//69 70//70 75//75
f 69//69 75//75 76//76
f 69//69 61//61 62//62
f 70//70 62//62 63//63
f 71//71 63//63 64//64
f 72//72 64//64 57//57
f 3//3 4//4 58//58
f 66//66 58//58 59//59
f 67//67 59//59 60//60
f 68//68 60//60 61//61
f 69//69 68//68 61//61
f 4//4 5//5 78//78
f 58//58 78//78 79//79
f 59//59 79//79 80//80
f 60//60 80//80 81//81
f 61//61 81//81 82//82
f 62//62 82//82 83//83
f 63//63 83//83 64//64
f 63//63 62//62 83//83
f 5//5 6//6 85//85
f 78//78 85//85 86//86
f 78//78 86//86 79//79
f 85//85 78//78 5//5
f 6//6 7//7 92//92
f 85//85 92//92 93//93
f 85//85 93//93 86//86
f 92//92 85//85 6//6
f 7//7 8//8 99//99
f 92//92 99//99 100//100
f 92//92 100//100 93//93
f 99//99 92//92 7//7
f 8//8 9//9 106//106
f 99//99 106//106 107//107
f 99//99 107//107 100//100
f 106//106 99//99 8//8
f 9//9 10//10 113//113
f 106//106 113//113 114//114
f 106//106 114//114 107//107
f 113//113 106//106 9//9
f 113//113 10//10 11//11
f 120//120 11//11 127//127
f 128//128 127//127 134//134
f 128//128 134//134 135//135
f 135//135 136//136 129//129
f 135//135 129//129 128//128
f 142//142 135//135 134//134
f 142//142 134//134 141//141
f 141//141 148//148 149//149
f 141//141 149//149 142//142
f 13//13 14//14 141//141
f 134//134 13//13 141//141
f 134//134 12//12 13//13
f 134//134 127//127 12//12
f 12//12 127//127 11//11
f 14//14 15//15 148//148
f 141//141 14//14 148//148
f 15//15 16//16 155//155
f 148//148 155//155 156//156
f 148//148 156//156 149//149
f 155//155 148//148 15//15
f 16//16 17//17 162//162
f 155//155 162//162 163//163
f 155//155 163//163 156//156
f 162//162 155//155 16//16
f 17//17 18//18 169//169
f 162//162 169//169 45//45
f 163//163 45//45 170//170
f 164//164 170//170 171//171
f 164//164 171//171 165//165
f 165//165 158//158 157//157
f 165//165 157//157 164//164
f 166//166 165//165 171//171
f 166//166 171//171 172//172
f 172//172 173//173 167//167
f 172//172 167//167 166//166
f 176//176 172//172 171//171
f 176//176 171//171 175//175
f 179//179 176//176 175//175
f 51//51 175//175 50//50
f 51//51 179//179 175//175
f 51//51 183//183 179//179
f 51//51 182//182 183//183
f 51//51 52//52 182//182
f 182//182 52//52 53//53
f 187//187 53//53 54//54
f 186//186 54//54 55//55
f 56//56 186//186 55//55
f 56//56 39//39 186//186
f 186//186 39//39 38//38
f 37//37 186//186 38//38
f 37//37 36//36 186//186
f 186//186 36//36 187//187
f 54//54 186//186 187//187
f 19//19 41//41 18//18
f 19//19 40//40 41//41
f 19//19 21//21 40//40
f 41//41 42//42 18//18
f 18//18 42//42 169//169
f 169//169 42//42 43//43
f 44//44 169//169 43//43
f 44//44 45//45 169//169
f 45//45 46//46 170//170
f 170//170 46//46 47//47
f 48//48 170//170 47//47
f 48//48 171//171 170//170
f 48//48 49//49 171//171
f 171//171 49//49 175//175
f 175//175 49//49 50//50
f 187//187 36//36 35//35
f 191//191 35//35 34//34
f 33//33 191//191 34//34
f 33//33 192//192 191//191
f 33//33 195//195 192//192
f 33//33 199//199 195//195
f 33//33 198//198 199//199
f 33//33 32//32 198//198
f 198//198 32//32 31//31
f 30//30 29//29 77//77
f 77//77 29//29 28//28
f 27//27 77//77 28//28
f 27//27 68//68 77//77
f 27//27 26//26 65//65
f 67//67 27//27 65//65
f 57//57 178//178 181//181
f 57//57 126//126 133//133
f 57//57 73//73 72//72
f 57//57 201//201 73//73
f 57//57 197//197 201//201
f 57//57 194//194 197//197
f 57//57 190//190 194//194
f 57//57 185//185 190//190
f 57//57 181//181 185//185
f 57//57 174//174 178//178
f 57//57 168//168 174//174
f 57//57 161//161 168//168
f 57//57 154//154 161//161
f 57//57 147//147 154//154
f 57//57 140//140 147//147
f 57//57 133//133 140//140
f 57//57 119//119 126//126
f 57//57 112//112 119//119
f 57//57 105//105 112//112
f 57//57 98//98 105//105
f 57//57 91//91 98//98
f 57//57 84//84 91//91
f 78//78 58//58 4//4
f 79//79 59//59 58//58
f 80//80 60//60 59//59
f 81//81 61//61 60//60
f 82//82 62//62 61//61
f 11//11 120//120 113//113
f 113//113 120//120 121//121
f 113//113 121//121 114//114
f 120//120 127//127 128//128
f 120//120 128//128 121//121
f 121//121 128//128 129//129
f 121//121 129//129 122//122
f 122//122 115//115 114//114
f 122//122 114//114 121//121
f 123//123 122//122 129//129
f 123//123 129//129 130//130
f 130//130 131//131 124//124
f 130//130 124//124 123//123
f 137//137 130//130 129//129
f 137//137 129//129 136//136
f 136//136 143//143 144//144
f 136//136 144//144 137//137
f 135//135 142//142 143//143
f 135//135 143//143 136//136
f 142//142 149//149 150//150
f 142//142 150//150 143//143
f 149//149 156//156 157//157
f 149//149 157//157 150//150
f 156//156 163//163 164//164
f 156//156 164//164 157//157
f 170//170 164//164 163//163
f 66//66 65//65 2//2
f 58//58 66//66 3//3
f 59//59 67//67 66//66
f 60//60 68//68 67//67
f 70//70 71//71 74//74
f 70//70 74//74 75//75
f 63//63 71//71 70//70
f 62//62 70//70 69//69
f 71//71 72//72 73//73
f 71//71 73//73 74//74
f 64//64 72//72 71//71
f 74//74 73//73 201//201
f 74//74 201//201 200//200
f 200//200 199//199 75//75
f 200//200 75//75 74//74
f 196//196 200//200 201//201
f 196//196 201//201 197//197
f 193//193 194//194 190//190
f 193//193 190//190 189//189
f 189//189 188//188 192//192
f 189//189 192//192 193//193
f 184//184 189//189 190//190
f 184//184 190//190 185//185
f 180//180 181//181 178//178
f 180//180 178//178 177//177
f 177//177 176//176 179//179
f 177//177 179//179 180//180
f 173//173 177//177 178//178
f 173//173 178//178 174//174
f 167//167 168//168 161//161
f 167//167 161//161 160//160
f 160//160 159//159 166//166
f 160//160 166//166 167//167
f 153//153 160//160 161//161
f 153//153 161//161 154//154
f 146//146 147//147 140//140
f 146//146 140//140 139//139
f 139//139 138//138 145//145
f 139//139 145//145 146//146
f 132//132 139//139 140//140
f 132//132 140//140 133//133
f 125//125 126//126 119//119
f 125//125 119//119 118//118
f 118//118 117//117 124//124
f 118//118 124//124 125//125
f 111//111 118//118 119//119
f 111//111 119//119 112//112
f 104//104 105//105 98//98
f 104//104 98//98 97//97
f 97//97 96//96 103//103
f 97//97 103//103 104//104
f 90//90 97//97 98//98
f 90//90 98//98 91//91
f 83//83 84//84 64//64
f 83//83 90//90 91//91
f 83//83 91//91 84//84
f 82//82 89//89 90//90
f 82//82 90//90 83//83
f 81//81 88//88 89//89
f 81//81 89//89 82//82
f 80//80 87//87 88//88
f 80//80 88//88 81//81
f 79//79 86//86 87//87
f 79//79 87//87 80//80
f 86//86 93//93 94//94
f 86//86 94//94 87//87
f 93//93 100//100 101//101
f 93//93 101//101 94//94
f 100//100 107//107 108//108
f 100//100 108//108 101//101
f 107//107 114//114 115//115
f 107//107 115//115 108//108
f 108//108 115//115 116//116
f 108//108 116//116 109//109
f 109//109 102//102 101//101
f 109//109 101//101 108//108
f 110//110 109//109 116//116
f 110//110 116//116 117//117
f 111//111 110//110 117//117
f 111//111 117//117 118//118
f 104//104 111//111 112//112
f 104//104 112//112 105//105
f 103//103 110//110 111//111
f 103//103 111//111 104//104
f 102//102 103//103 96//96
f 102//102 96//96 95//95
f 95//95 94//94 101//101
f 95//95 101//101 102//102
f 88//88 95//95 96//96
f 88//88 96//96 89//89
f 87//87 94//94 95//95
f 87//87 95//95 88//88
f 64//64 84//84 57//57
f 90//90 89//89 96//96
f 90//90 96//96 97//97
f 103//103 102//102 109//109
f 103//103 109//109 110//110
f 116//116 115//115 122//122
f 116//116 122//122 123//123
f 117//117 116//116 123//123
f 117//117 123//123 124//124
f 125//125 124//124 131//131
f 125//125 131//131 132//132
f 126//126 125//125 132//132
f 126//126 132//132 133//133
f 131//131 130//130 137//137
f 131//131 137//137 138//138
f 132//132 131//131 138//138
f 132//132 138//138 139//139
f 138//138 137//137 144//144
f 138//138 144//144 145//145
f 145//145 144//144 151//151
f 145//145 151//151 152//152
f 152//152 153//153 146//146
f 152//152 146//146 145//145
f 159//159 152//152 151//151
f 159//159 151//151 158//158
f 166//166 159//159 158//158
f 166//166 158//158 165//165
f 144//144 143//143 150//150
f 144//144 150//150 151//151
f 151//151 150//150 157//157
f 151//151 157//157 158//158
f 147//147 146//146 153//153
f 147//147 153//153 154//154
f 153//153 152//152 159//159
f 153//153 159//159 160//160
f 169//169 162//162 17//17
f 45//45 163//163 162//162
f 168//168 167//167 173//173
f 168//168 173//173 174//174
f 173//173 172//172 176//176
f 173//173 176//176 177//177
f 180//180 179//179 183//183
f 180//180 183//183 184//184
f 181//181 180//180 184//184
f 181//181 184//184 185//185
f 183//183 182//182 187//187
f 183//183 187//187 188//188
f 184//184 183//183 188//188
f 184//184 188//188 189//189
f 188//188 187//187 191//191
f 188//188 191//191 192//192
f 187//187 35//35 191//191
f 182//182 53//53 187//187
f 193//193 192//192 195//195
f 193//193 195//195 196//196
f 194//194 193//193 196//196
f 194//194 196//196 197//197
f 196//196 195//195 199//199
f 196//196 199//199 200//200
f 220//220 218//218 219//219
f 220//220 217//217 218//218
f 220//220 221//221 217//217
f 217//217 221//221 216//216
f 216//216 221//221 247//247
f 215//215 247//247 214//214
f 215//215 216//216 247//247
f 221//221 222//222 248//248
f 247//247 248//248 249//249
f 213//213 249//249 250//250
f 259//259 250//250 251//251
f 259//259 251//251 258//258
f 258//258 210//210 259//259
f 258//258 209//209 210//210
f 258//258 380//380 209//209
f 258//258 257//257 381//381
f 258//258 381//381 380//380
f 251//251 252//252 257//257
f 251//251 257//257 258//258
f 251//251 243//243 244//244
f 252//252 244//244 245//245
f 253//253 245//245 246//246
f 254//254 246//246 239//239
f 248//248 222//222 223//223
f 240//240 223//223 260//260
f 261//261 260//260 267//267
f 261//261 267//267 268//268
f 268//268 269//269 262//262
f 268//268 262//262 261//261
f 275//275 268//268 267//267
f 275//275 267//267 274//274
f 274//274 281//281 282//282
f 274//274 282//282 275//275
f 225//225 226//226 274//274
f 267//267 225//225 274//274
f 267//267 224//224 225//225
f 267//267 260//260 224//224
f 224//224 260//260 223//223
f 226//226 227//227 281//281
f 274//274 226//226 281//281
f 227//227 228//228 288//288
f 281//281 288//288 289//289
f 281//281 289//289 282//282
f 288//288 281//281 227//227
f 228//228 229//229 295//295
f 288//288 295//295 296//296
f 288//288 296//296 289//289
f 295//295 288//288 228//228
f 229//229 230//230 302//302
f 295//295 302//302 303//303
f 295//295 303//303 296//296
f 302//302 295//295 229//229
f 230//230 231//231 309//309
f 302//302 309//309 310//310
f 302//302 310//310 303//303
f 309//309 302//302 230//230
f 309//309 231//231 232//232
f 316//316 232//232 233//233
f 323//323 233//233 330//330
f 331//331 330//330 337//337
f 331//331 337//337 338//338
f 338//338 339//339 332//332
f 338//338 332//332 331//331
f 345//345 338//338 337//337
f 345//345 337//337 344//344
f 345//345 344//344 351//351
f 27//27 351//351 26//26
f 27//27 345//345 351//351
f 27//27 346//346 345//345
f 27//27 352//352 346//346
f 27//27 28//28 352//352
f 352//352 28//28 29//29
f 30//30 352//352 29//29
f 30//30 353//353 352//352
f 30//30 31//31 353//353
f 353//353 31//31 357//357
f 358//358 357//357 33//33
f 361//361 33//33 365//365
f 366//366 365//365 370//370
f 366//366 370//370 371//371
f 371//371 372//372 367//367
f 371//371 367//367 366//366
f 375//375 371//371 370//370
f 375//375 370//370 374//374
f 374//374 377//377 378//378
f 374//374 378//378 375//375
f 374//374 373//373 207//207
f 377//377 207//207 381//381
f 382//382 381//381 257//257
f 382//382 257//257 256//256
f 256//256 255//255 383//383
f 256//256 383//383 382//382
f 253//253 256//256 257//257
f 253//253 257//257 252//252
f 245//245 253//253 252//252
f 233//233 234//234 330//330
f 330//330 234//234 235//235
f 337//337 235//235 236//236
f 344//344 236//236 237//237
f 351//351 237//237 24//24
f 25//25 351//351 24//24
f 25//25 26//26 351//351
f 238//238 23//23 237//237
f 238//238 22//22 23//23
f 238//238 20//20 22//22
f 23//23 24//24 237//237
f 32//32 357//357 31//31
f 32//32 33//33 357//357
f 33//33 34//34 364//364
f 365//365 364//364 369//369
f 365//365 369//369 370//370
f 33//33 364//364 365//365
f 35//35 364//364 34//34
f 35//35 369//369 364//364
f 35//35 36//36 369//369
f 369//369 36//36 368//368
f 204//204 368//368 203//203
f 204//204 369//369 368//368
f 204//204 205//205 369//369
f 369//369 205//205 373//373
f 374//374 370//370 369//369
f 374//374 369//369 373//373
f 36//36 37//37 368//368
f 368//368 37//37 38//38
f 39//39 368//368 38//38
f 39//39 202//202 368//368
f 368//368 202//202 203//203
f 206//206 373//373 205//205
f 206//206 207//207 373//373
f 207//207 208//208 380//380
f 381//381 207//207 380//380
f 209//209 380//380 208//208
f 210//210 211//211 259//259
f 259//259 211//211 212//212
f 213//213 259//259 212//212
f 213//213 250//250 259//259
f 213//213 214//214 247//247
f 249//249 213//213 247//247
f 223//223 240//240 248//248
f 248//248 240//240 241//241
f 249//249 241//241 242//242
f 250//250 242//242 243//243
f 251//251 250//250 243//243
f 239//239 360//360 363//363
f 239//239 308//308 315//315
f 239//239 255//255 254//254
f 239//239 383//383 255//255
f 239//239 379//379 383//383
f 239//239 376//376 379//379
f 239//239 372//372 376//376
f 239//239 367//367 372//372
f 239//239 363//363 367//367
f 239//239 356//356 360//360
f 239//239 350//350 356//356
f 239//239 343//343 350//350
f 239//239 336//336 343//343
f 239//239 329//329 336//336
f 239//239 322//322 329//329
f 239//239 315//315 322//322
f 239//239 301//301 308//308
f 239//239 294//294 301//301
f 239//239 287//287 294//294
f 239//239 280//280 287//287
f 239//239 273//273 280//280
f 239//239 266//266 273//273
f 261//261 241//241 240//240
f 260//260 261//261 240//240
f 262//262 242//242 241//241
f 261//261 262//262 241//241
f 263//263 243//243 242//242
f 262//262 263//263 242//242
f 262//262 269//269 270//270
f 262//262 270//270 263//263
f 269//269 276//276 277//277
f 269//269 277//277 270//270
f 268//268 275//275 276//276
f 268//268 276//276 269//269
f 275//275 282//282 283//283
f 275//275 283//283 276//276
f 282//282 289//289 290//290
f 282//282 290//290 283//283
f 289//289 296//296 297//297
f 289//289 297//297 290//290
f 296//296 303//303 304//304
f 296//296 304//304 297//297
f 303//303 310//310 311//311
f 303//303 311//311 304//304
f 310//310 317//317 318//318
f 310//310 318//318 311//311
f 309//309 316//316 317//317
f 309//309 317//317 310//310
f 232//232 316//316 309//309
f 264//264 244//244 243//243
f 263//263 264//264 243//243
f 263//263 270//270 271//271
f 263//263 271//271 264//264
f 270//270 277//277 278//278
f 270//270 278//278 271//271
f 277//277 284//284 285//285
f 277//277 285//285 278//278
f 276//276 283//283 284//284
f 276//276 284//284 277//277
f 283//283 290//290 291//291
f 283//283 291//291 284//284
f 290//290 297//297 298//298
f 290//290 298//298 291//291
f 297//297 304//304 305//305
f 297//297 305//305 298//298
f 304//304 311//311 312//312
f 304//304 312//312 305//305
f 311//311 318//318 319//319
f 311//311 319//319 312//312
f 318//318 325//325 326//326
f 318//318 326//326 319//319
f 317//317 324//324 325//325
f 317//317 325//325 318//318
f 316//316 323//323 324//324
f 316//316 324//324 317//317
f 233//233 323//323 316//316
f 265//265 245//245 244//244
f 264//264 265//265 244//244
f 264//264 271//271 272//272
f 264//264 272//272 265//265
f 271//271 278//278 279//279
f 271//271 279//279 272//272
f 278//278 285//285 286//286
f 278//278 286//286 279//279
f 285//285 292//292 293//293
f 285//285 293//293 286//286
f 284//284 291//291 292//292
f 284//284 292//292 285//285
f 291//291 298//298 299//299
f 291//291 299//299 292//292
f 298//298 305//305 306//306
f 298//298 306//306 299//299
f 305//305 312//312 313//313
f 305//305 313//313 306//306
f 312//312 319//319 320//320
f 312//312 320//320 313//313
f 319//319 326//326 327//327
f 319//319 327//327 320//320
f 326//326 333//333 334//334
f 326//326 334//334 327//327
f 325//325 332//332 333//333
f 325//325 333//333 326//326
f 324//324 331//331 332//332
f 324//324 332//332 325//325
f 323//323 330//330 331//331
f 323//323 331//331 324//324
f 246//246 245//245 265//265
f 266//266 265//265 272//272
f 266//266 272//272 273//273
f 246//246 266//266 239//239
f 246//246 265//265 266//266
f 207//207 377//377 374//374
f 33//33 361//361 358//358
f 358//358 361//361 362//362
f 358//358 362//362 359//359
f 359//359 355//355 354//354
f 359//359 354//354 358//358
f 360//360 359//359 362//362
f 360//360 362//362 363//363
f 356//356 355//355 359//359
f 356//356 359//359 360//360
f 350//350 349//349 355//355
f 350//350 355//355 356//356
f 343//343 342//342 349//349
f 343//343 349//349 350//350
f 336//336 335//335 342//342
f 336//336 342//342 343//343
f 329//329 328//328 335//335
f 329//329 335//335 336//336
f 322//322 321//321 328//328
f 322//322 328//328 329//329
f 315//315 314//314 321//321
f 315//315 321//321 322//322
f 308//308 307//307 314//314
f 308//308 314//314 315//315
f 301//301 300//300 307//307
f 301//301 307//307 308//308
f 294//294 293//293 300//300
f 294//294 300//300 301//301
f 287//287 286//286 293//293
f 287//287 293//293 294//294
f 280//280 279//279 286//286
f 280//280 286//286 287//287
f 273//273 272//272 279//279
f 273//273 279//279 280//280
f 237//237 351//351 344//344
f 236//236 344//344 337//337
f 235//235 337//337 330//330
f 248//248 247//247 221//221
f 241//241 249//249 248//248
f 242//242 250//250 249//249
f 244//244 252//252 251//251
f 253//253 254//254 255//255
f 253//253 255//255 256//256
f 246//246 254//254 253//253
f 293//293 292//292 299//299
f 293//293 299//299 300//300
f 300//300 299//299 306//306
f 300//300 306//306 307//307
f 307//307 306//306 313//313
f 307//307 313//313 314//314
f 314//314 313//313 320//320
f 314//314 320//320 321//321
f 321//321 320//320 327//327
f 321//321 327//327 328//328
f 328//328 327//327 334//334
f 328//328 334//334 335//335
f 335//335 334//334 341//341
f 335//335 341//341 342//342
f 334//334 333//333 340//340
f 334//334 340//340 341//341
f 333//333 332//332 339//339
f 333//333 339//339 340//340
f 340//340 339//339 346//346
f 340//340 346//346 347//347
f 347//347 348//348 341//341
f 347//347 341//341 340//340
f 353//353 347//347 346//346
f 353//353 346//346 352//352
f 354//354 353//353 357//357
f 354//354 357//357 358//358
f 348//348 354//354 355//355
f 348//348 355//355 349//349
f 341//341 348//348 349//349
f 341//341 349//349 342//342
f 339//339 338//338 345//345
f 339//339 345//345 346//346
f 348//348 347//347 353//353
f 348//348 353//353 354//354
f 362//362 361//361 365//365
f 362//362 365//365 366//366
f 363//363 362//362 366//366
f 363//363 366//366 367//367
f 372//372 371//371 375//375
f 372//372 375//375 376//376
f 376//376 375//375 378//378
f 376//376 378//378 379//379
f 379//379 378//378 382//382
f 379//379 382//382 383//383
f 378//378 377//377 381//381
f 378//378 381//381 382//382
f 384//384 40//40 21//21
f 384//384 41//41 40//40
f 384//384 385//385 41//41
f 41//41 385//385 42//42
f 42//42 385//385 411//411
f 43//43 411//411 44//44
f 43//43 42//42 411//411
f 385//385 386//386 412//412
f 411//411 412//412 413//413
f 45//45 413//413 414//414
f 423//423 414//414 415//415
f 423//423 415//415 422//422
f 422//422 48//48 423//423
f 422//422 49//49 48//48
f 422//422 544//544 49//49
f 422//422 421//421 545//545
f 422//422 545//545 544//544
f 415//415 416//416 421//421
f 415//415 421//421 422//422
f 415//415 407//407 408//408
f 416//416 408//408 409//409
f 417//417 409//409 410//410
f 418//418 410//410 403//403
f 386//386 387//387 404//404
f 412//412 404//404 405//405
f 413//413 405//405 406//406
f 414//414 406//406 407//407
f 415//415 414//414 407//407
f 387//387 388//388 424//424
f 404//404 424//424 425//425
f 405//405 425//425 426//426
f 406//406 426//426 427//427
f 407//407 427//427 408//408
f 407//407 406//406 427//427
f 424//424 388//388 389//389
f 431//431 389//389 438//438
f 439//439 438//438 445//445
f 439//439 445//445 446//446
f 446//446 447//447 440//440
f 446//446 440//440 439//439
f 453//453 446//446 445//445
f 453//453 445//445 452//452
f 452//452 459//459 460//460
f 452//452 460//460 453//453
f 452//452 392//392 393//393
f 459//459 393//393 466//466
f 467//467 466//466 473//473
f 467//467 473//473 474//474
f 474//474 475//475 468//468
f 474//474 468//468 467//467
f 481//481 474//474 473//473
f 481//481 473//473 480//480
f 480//480 487//487 488//488
f 480//480 488//488 481//481
f 395//395 396//396 480//480
f 473//473 395//395 480//480
f 473//473 394//394 395//395
f 473//473 466//466 394//394
f 394//394 466//466 393//393
f 389//389 390//390 438//438
f 438//438 390//390 391//391
f 445//445 391//391 452//452
f 445//445 438//438 391//391
f 391//391 392//392 452//452
f 396//396 397//397 487//487
f 480//480 396//396 487//487
f 487//487 397//397 398//398
f 494//494 398//398 399//399
f 501//501 399//399 400//400
f 508//508 400//400 401//401
f 515//515 401//401 216//216
f 215//215 515//515 216//216
f 215//215 214//214 515//515
f 515//515 214//214 213//213
f 508//508 213//213 509//509
f 502//502 509//509 510//510
f 502//502 510//510 503//503
f 503//503 496//496 495//495
f 503//503 495//495 502//502
f 504//504 503//503 510//510
f 504//504 510//510 511//511
f 511//511 512//512 505//505
f 511//511 505//505 504//504
f 517//517 511//511 510//510
f 517//517 510//510 516//516
f 516//516 210//210 517//517
f 516//516 211//211 210//210
f 516//516 212//212 211//211
f 516//516 213//213 212//212
f 516//516 510//510 213//213
f 213//213 510//510 509//509
f 402//402 217//217 401//401
f 402//402 218//218 217//217
f 402//402 219//219 218//218
f 217//217 216//216 401//401
f 517//517 210//210 209//209
f 521//521 209//209 208//208
f 207//207 521//521 208//208
f 207//207 522//522 521//521
f 207//207 525//525 522//522
f 207//207 529//529 525//525
f 207//207 528//528 529//529
f 207//207 206//206 528//528
f 528//528 206//206 205//205
f 533//533 205//205 204//204
f 532//532 204//204 203//203
f 202//202 532//532 203//203
f 202//202 39//39 532//532
f 532//532 39//39 56//56
f 55//55 532//532 56//56
f 55//55 54//54 532//532
f 532//532 54//54 533//533
f 204//204 532//532 533//533
f 533//533 54//54 53//53
f 537//537 53//53 52//52
f 51//51 537//537 52//52
f 51//51 541//541 537//537
f 51//51 545//545 541//541
f 51//51 544//544 545//545
f 51//51 50//50 544//544
f 544//544 50//50 49//49
f 48//48 47//47 423//423
f 423//423 47//47 46//46
f 45//45 423//423 46//46
f 45//45 414//414 423//423
f 45//45 44//44 411//411
f 413//413 45//45 411//411
f 403//403 524//524 527//527
f 403//403 472//472 479//479
f 403//403 419//419 418//418
f 403//403 547//547 419//419
f 403//403 543//543 547//547
f 403//403 540//540 543//543
f 403//403 536//536 540//540
f 403//403 531//531 536//536
f 403//403 527//527 531//531
f 403//403 520//520 524//524
f 403//403 514//514 520//520
f 403//403 507//507 514//514
f 403//403 500//500 507//507
f 403//403 493//493 500//500
f 403//403 486//486 493//493
f 403//403 479//479 486//486
f 403//403 465//465 472//472
f 403//403 458//458 465//465
f 403//403 451//451 458//458
f 403//403 444//444 451//451
f 403//403 437//437 444//444
f 403//403 430//430 437//437
f 424//424 404//404 387//387
f 425//425 405//405 404//404
f 426//426 406//406 405//405
f 429//429 409//409 408//408
f 428//428 408//408 427//427
f 434//434 427//427 426//426
f 434//434 426//426 433//433
f 433//433 440//440 441//441
f 433//433 441//441 434//434
f 432//432 433//433 426//426
f 432//432 426//426 425//425
f 389//389 431//431 424//424
f 424//424 431//431 432//432
f 424//424 432//432 425//425
f 431//431 438//438 439//439
f 431//431 439//439 432//432
f 432//432 439//439 440//440
f 432//432 440//440 433//433
f 410//410 409//409 429//429
f 430//430 429//429 436//436
f 430//430 436//436 437//437
f 410//410 430//430 403//403
f 410//410 429//429 430//430
f 401//401 515//515 508//508
f 508//508 515//515 213//213
f 400//400 508//508 501//501
f 501//501 508//508 509//509
f 501//501 509//509 502//502
f 494//494 495//495 488//488
f 494//494 488//488 487//487
f 398//398 494//494 487//487
f 399//399 501//501 494//494
f 494//494 501//501 502//502
f 494//494 502//502 495//495
f 393//393 459//459 452//452
f 412//412 411//411 385//385
f 404//404 412//412 386//386
f 405//405 413//413 412//412
f 406//406 414//414 413//413
f 416//416 417//417 420//420
f 416//416 420//420 421//421
f 409//409 417//417 416//416
f 408//408 416//416 415//415
f 417//417 418//418 419//419
f 417//417 419//419 420//420
f 410//410 418//418 417//417
f 420//420 419//419 547//547
f 420//420 547//547 546//546
f 546//546 545//545 421//421
f 546//546 421//421 420//420
f 542//542 546//546 547//547
f 542//542 547//547 543//543
f 539//539 540//540 536//536
f 539//539 536//536 535//535
f 535//535 534//534 538//538
f 535//535 538//538 539//539
f 530//530 535//535 536//536
f 530//530 536//536 531//531
f 526//526 527//527 524//524
f 526//526 524//524 523//523
f 523//523 522//522 525//525
f 523//523 525//525 526//526
f 519//519 523//523 524//524
f 519//519 524//524 520//520
f 513//513 514//514 507//507
f 513//513 507//507 506//506
f 506//506 505//505 512//512
f 506//506 512//512 513//513
f 499//499 506//506 507//507
f 499//499 507//507 500//500
f 492//492 493//493 486//486
f 492//492 486//486 485//485
f 485//485 484//484 491//491
f 485//485 491//491 492//492
f 478//478 485//485 486//486
f 478//478 486//486 479//479
f 471//471 472//472 465//465
f 471//471 465//465 464//464
f 464//464 463//463 470//470
f 464//464 470//470 471//471
f 457//457 464//464 465//465
f 457//457 465//465 458//458
f 450//450 451//451 444//444
f 450//450 444//444 443//443
f 443//443 442//442 449//449
f 443//443 449//449 450//450
f 436//436 443//443 444//444
f 436//436 444//444 437//437
f 435//435 436//436 429//429
f 435//435 429//429 428//428
f 434//434 435//435 428//428
f 434//434 428//428 427//427
f 441//441 442//442 435//435
f 441//441 435//435 434//434
f 448//448 441//441 440//440
f 448//448 440//440 447//447
f 447//447 454//454 455//455
f 447//447 455//455 448//448
f 446//446 453//453 454//454
f 446//446 454//454 447//447
f 453//453 460//460 461//461
f 453//453 461//461 454//454
f 460//460 467//467 468//468
f 460//460 468//468 461//461
f 459//459 466//466 467//467
f 459//459 467//467 460//460
f 408//408 428//428 429//429
f 436//436 435//435 442//442
f 436//436 442//442 443//443
f 442//442 441//441 448//448
f 442//442 448//448 449//449
f 449//449 448//448 455//455
f 449//449 455//455 456//456
f 456//456 457//457 450//450
f 456//456 450//450 449//449
f 463//463 456//456 455//455
f 463//463 455//455 462//462
f 462//462 469//469 470//470
f 462//462 470//470 463//463
f 461//461 462//462 455//455
f 461//461 455//455 454//454
f 468//468 469//469 462//462
f 468//468 462//462 461//461
f 475//475 476//476 469//469
f 475//475 469//469 468//468
f 482//482 475//475 474//474
f 482//482 474//474 481//481
f 489//489 488//488 495//495
f 489//489 495//495 496//496
f 496//496 497//497 490//490
f 496//496 490//490 489//489
f 503//503 504//504 497//497
f 503//503 497//497 496//496
f 504//504 505//505 498//498
f 504//504 498//498 497//497
f 505//505 506//506 499//499
f 505//505 499//499 498//498
f 498//498 499//499 492//492
f 498//498 492//492 491//491
f 491//491 490//490 497//497
f 491//491 497//497 498//498
f 484//484 483//483 490//490
f 484//484 490//490 491//491
f 477//477 484//484 485//485
f 477//477 485//485 478//478
f 478//478 471//471 470//470
f 478//478 470//470 477//477
f 479//479 472//472 471//471
f 479//479 471//471 478//478
f 451//451 450//450 457//457
f 451//451 457//457 458//458
f 457//457 456//456 463//463
f 457//457 463//463 464//464
f 470//470 469//469 476//476
f 470//470 476//476 477//477
f 477//477 476//476 483//483
f 477//477 483//483 484//484
f 476//476 475//475 482//482
f 476//476 482//482 483//483
f 483//483 482//482 489//489
f 483//483 489//489 490//490
f 482//482 481//481 488//488
f 482//482 488//488 489//489
f 493//493 492//492 499//499
f 493//493 499//499 500//500
f 512//512 511//511 517//517
f 512//512 517//517 518//518
f 518//518 519//519 513//513
f 518//518 513//513 512//512
f 522//522 518//518 517//517
f 522//522 517//517 521//521
f 523//523 519//519 518//518
f 523//523 518//518 522//522
f 514//514 513//513 519//519
f 514//514 519//519 520//520
f 517//517 209//209 521//521
f 526//526 525//525 529//529
f 526//526 529//529 530//530
f 527//527 526//526 530//530
f 527//527 530//530 531//531
f 529//529 528//528 533//533
f 529//529 533//533 534//534
f 530//530 529//529 534//534
f 530//530 534//534 535//535
f 534//534 533//533 537//537
f 534//534 537//537 538//538
f 533//533 53//53 537//537
f 528//528 205//205 533//533
f 541//541 538//538 537//537
f 541//541 542//542 539//539
f 541//541 539//539 538//538
f 545//545 546//546 542//542
f 545//545 542//542 541//541
f 540//540 539//539 542//542
f 540//540 542//542 543//543
