#usda 1.0

def "David328"
{
    def Mesh "David328"
    {
        int[] faceVertexCounts = [3, 3, 3, 3, 3, 3, 3, 3, 3, 3, 3, 3, 3, 3, 3, 3, 3, 3, 3, 3, 3, 3, 3, 3, 3, 3, 3, 3, 3, 3, 3, 3, 3, 3, 3, 3, 3, 3, 3, 3, 3, 3, 3, 3, 3, 3, 3, 3, 3, 3, 3, 3, 3, 3, 3, 3, 3, 3, 3, 3, 3, 3, 3, 3, 3, 3, 3, 3, 3, 3, 3, 3, 3, 3, 3, 3, 3, 3, 3, 3, 3, 3, 3, 3, 3, 3, 3, 3, 3, 3, 3, 3, 3, 3, 3, 3, 3, 3, 3, 3, 3, 3, 3, 3, 3, 3, 3, 3, 3, 3, 3, 3, 3, 3, 3, 3, 3, 3, 3, 3, 3, 3, 3, 3, 3, 3, 3, 3, 3, 3, 3, 3, 3, 3, 3, 3, 3, 3, 3, 3, 3, 3, 3, 3, 3, 3, 3, 3, 3, 3, 3, 3, 3, 3, 3, 3, 3, 3, 3, 3, 3, 3, 3, 3, 3, 3, 3, 3, 3, 3, 3, 3, 3, 3, 3, 3, 3, 3, 3, 3, 3, 3, 3, 3, 3, 3, 3, 3, 3, 3, 3, 3, 3, 3, 3, 3, 3, 3, 3, 3, 3, 3, 3, 3, 3, 3, 3, 3, 3, 3, 3, 3, 3, 3, 3, 3, 3, 3, 3, 3, 3, 3, 3, 3, 3, 3, 3, 3, 3, 3, 3, 3, 3, 3, 3, 3, 3, 3, 3, 3, 3, 3, 3, 3, 3, 3, 3, 3, 3, 3, 3, 3, 3, 3, 3, 3, 3, 3, 3, 3, 3, 3, 3, 3, 3, 3, 3, 3, 3, 3, 3, 3, 3, 3, 3, 3, 3, 3, 3, 3, 3, 3, 3, 3, 3, 3, 3, 3, 3, 3, 3, 3, 3, 3, 3, 3, 3, 3, 3, 3, 3, 3, 3, 3, 3, 3, 3, 3, 3, 3, 3, 3, 3, 3, 3, 3, 3, 3, 3, 3, 3, 3, 3, 3, 3, 3, 3, 3, 3, 3, 3, 3, 3, 3, 3, 3, 3, 3, 3, 3, 3, 3, 3, 3, 3, 3, 3, 3, 3, 3, 3, 3, 3, 3, 3, 3, 3, 3, 3, 3, 3, 3, 3, 3, 3, 3, 3, 3, 3, 3, 3, 3, 3, 3, 3, 3, 3, 3, 3, 3, 3, 3, 3, 3, 3, 3, 3, 3, 3, 3, 3, 3, 3, 3, 3, 3, 3, 3, 3, 3, 3, 3, 3, 3, 3, 3, 3, 3, 3, 3, 3, 3, 3, 3, 3, 3, 3, 3, 3, 3, 3, 3, 3, 3, 3, 3, 3, 3, 3, 3, 3, 3, 3, 3, 3, 3, 3, 3, 3, 3, 3, 3, 3, 3, 3, 3, 3, 3, 3, 3, 3, 3, 3, 3, 3, 3, 3, 3, 3, 3, 3, 3, 3, 3, 3, 3, 3, 3, 3, 3, 3, 3, 3, 3, 3, 3, 3, 3, 3, 3, 3, 3, 3, 3, 3, 3, 3, 3, 3, 3, 3, 3, 3, 3, 3, 3, 3, 3, 3, 3, 3, 3, 3, 3, 3, 3, 3, 3, 3, 3, 3, 3, 3, 3, 3, 3, 3, 3, 3, 3, 3, 3, 3, 3, 3, 3, 3, 3, 3, 3, 3, 3, 3, 3, 3, 3, 3, 3, 3, 3, 3, 3, 3, 3, 3, 3, 3, 3, 3, 3, 3, 3, 3, 3, 3, 3, 3, 3, 3, 3, 3, 3, 3, 3, 3, 3, 3, 3, 3, 3, 3, 3, 3, 3, 3, 3, 3, 3, 3, 3, 3, 3, 3, 3, 3, 3]
        int[] faceVertexIndices = [0, 1, 2, 3, 4, 5, 6, 7, 8, 9, 10, 3, 3, 11, 12, 4, 3, 13, 13, 14, 15, 16, 3, 10, 15, 14, 17, 3, 16, 11, 6, 12, 18, 3, 5, 9, 19, 17, 14, 6, 18, 7, 13, 3, 14, 6, 8, 1, 21, 22, 23, 20, 23, 22, 24, 21, 23, 23, 20, 19, 23, 25, 24, 23, 19, 14, 26, 27, 28, 29, 3, 30, 26, 28, 31, 33, 26, 32, 26, 31, 32, 26, 34, 35, 26, 33, 34, 36, 37, 25, 14, 39, 23, 35, 40, 26, 26, 40, 2, 14, 3, 29, 44, 2, 40, 45, 46, 47, 48, 42, 43, 2, 44, 48, 24, 25, 38, 47, 48, 43, 46, 45, 50, 47, 46, 48, 46, 50, 51, 14, 29, 52, 53, 54, 46, 53, 46, 51, 55, 38, 25, 23, 39, 56, 57, 58, 46, 58, 57, 59, 44, 42, 48, 36, 23, 56, 36, 25, 23, 60, 3, 6, 58, 59, 49, 14, 52, 39, 54, 57, 46, 61, 39, 52, 3, 12, 6, 52, 29, 30, 52, 30, 62, 41, 25, 49, 56, 63, 36, 41, 55, 25, 25, 37, 64, 2, 27, 26, 65, 49, 25, 48, 46, 66, 67, 39, 61, 56, 39, 67, 30, 3, 60, 25, 64, 68, 2, 48, 69, 56, 67, 63, 69, 48, 66, 6, 1, 0, 62, 61, 52, 46, 70, 66, 30, 71, 62, 2, 1, 27, 46, 58, 70, 72, 63, 67, 73, 6, 74, 67, 61, 62, 60, 75, 71, 76, 77, 78, 71, 30, 60, 79, 36, 63, 69, 66, 76, 63, 72, 79, 79, 37, 36, 80, 62, 71, 81, 2, 69, 73, 60, 6, 76, 66, 70, 71, 75, 82, 75, 60, 73, 64, 37, 83, 83, 37, 79, 25, 68, 65, 6, 0, 74, 71, 82, 84, 85, 69, 76, 76, 70, 77, 73, 86, 87, 85, 76, 78, 88, 62, 80, 89, 77, 70, 65, 58, 49, 90, 67, 62, 74, 86, 73, 68, 64, 83, 68, 83, 91, 72, 67, 92, 83, 79, 93, 80, 71, 88, 84, 88, 71, 62, 88, 90, 67, 90, 92, 94, 95, 96, 74, 0, 97, 98, 58, 99, 75, 73, 82, 93, 79, 92, 100, 90, 88, 65, 68, 91, 82, 73, 87, 74, 97, 86, 81, 101, 2, 91, 83, 93, 102, 65, 91, 92, 90, 103, 104, 85, 78, 77, 89, 104, 97, 0, 105, 103, 90, 100, 104, 78, 77, 81, 69, 106, 107, 104, 108, 106, 69, 85, 94, 70, 58, 109, 0, 2, 93, 110, 91, 87, 111, 82, 100, 88, 84, 58, 65, 99, 2, 101, 109, 112, 86, 97, 105, 0, 109, 97, 105, 112, 91, 113, 102, 85, 104, 107, 112, 87, 86, 92, 114, 93, 84, 82, 115, 70, 94, 96, 70, 96, 89, 102, 99, 65, 104, 89, 108, 93, 114, 110, 91, 110, 116, 99, 102, 113, 117, 101, 81, 81, 118, 117, 119, 92, 103, 100, 84, 115, 58, 98, 94, 120, 112, 121, 112, 105, 121, 115, 82, 111, 106, 118, 81, 113, 98, 99, 122, 115, 111, 123, 124, 125, 101, 121, 109, 111, 120, 126, 114, 92, 119, 117, 127, 101, 103, 100, 128, 121, 105, 109, 91, 116, 113, 101, 124, 121, 101, 127, 124, 129, 85, 107, 103, 130, 119, 131, 94, 98, 122, 132, 133, 85, 129, 106, 133, 100, 115, 134, 129, 107, 107, 108, 134, 113, 135, 98, 131, 98, 135, 111, 87, 112, 116, 110, 136, 137, 138, 116, 111, 112, 120, 117, 139, 127, 117, 140, 141, 96, 142, 89, 135, 113, 116, 110, 114, 136, 116, 138, 135, 103, 128, 130, 128, 100, 133, 108, 89, 143, 144, 145, 131, 141, 139, 117, 137, 116, 136, 120, 123, 126, 135, 144, 131, 146, 131, 145, 147, 114, 119, 89, 142, 143, 122, 111, 126, 148, 149, 150, 119, 130, 147, 121, 124, 123, 143, 151, 108, 123, 120, 121, 140, 117, 118, 133, 115, 122, 152, 153, 132, 138, 136, 148, 127, 154, 124, 114, 155, 136, 135, 138, 156, 157, 146, 145, 158, 118, 106, 155, 114, 147, 135, 156, 159, 129, 134, 160, 131, 146, 94, 123, 161, 126, 136, 138, 137, 140, 118, 162, 143, 142, 163, 139, 141, 127, 134, 108, 151, 123, 125, 161, 164, 106, 129, 165, 151, 166, 145, 144, 157, 127, 141, 167, 144, 135, 157, 151, 160, 134, 167, 140, 162, 141, 140, 167, 136, 149, 148, 161, 168, 126, 125, 124, 154, 162, 118, 158, 130, 128, 133, 142, 96, 95, 95, 94, 169, 169, 94, 146, 158, 106, 164, 161, 125, 168, 127, 167, 154, 159, 146, 157, 138, 148, 156, 170, 163, 142, 122, 126, 152, 171, 172, 173, 125, 154, 174, 175, 158, 164, 148, 176, 156, 157, 135, 159, 132, 122, 152, 143, 163, 151, 177, 129, 160, 178, 158, 175, 160, 151, 179, 178, 162, 158, 168, 125, 174, 180, 146, 159, 181, 162, 178, 179, 151, 165, 164, 172, 171, 182, 183, 181, 163, 166, 151, 149, 136, 155, 184, 133, 132, 160, 179, 177, 175, 164, 171, 156, 176, 159, 167, 174, 154, 185, 147, 130, 95, 170, 142, 162, 186, 167, 164, 129, 172, 178, 175, 187, 188, 146, 180, 169, 188, 95, 159, 176, 189, 162, 181, 186, 133, 185, 130, 185, 184, 190, 169, 146, 188, 166, 163, 170, 180, 159, 191, 172, 129, 177, 192, 175, 171, 174, 167, 186, 150, 176, 148, 193, 174, 186, 95, 188, 194, 192, 171, 173, 126, 168, 152, 185, 133, 184, 165, 166, 170, 168, 174, 193, 178, 187, 181, 159, 189, 191, 189, 195, 191, 196, 187, 175, 189, 176, 150, 170, 95, 197, 168, 198, 152, 195, 189, 199, 147, 185, 200, 189, 150, 199, 201, 180, 191, 186, 181, 183, 193, 186, 183, 179, 165, 202, 175, 192, 196, 203, 194, 188, 198, 168, 193, 204, 172, 177, 177, 202, 205, 206, 204, 207, 172, 204, 206, 198, 208, 209, 193, 183, 210, 177, 179, 202, 155, 147, 211, 181, 187, 182, 205, 204, 177, 180, 201, 212, 208, 193, 210, 182, 213, 183, 198, 209, 152, 194, 214, 215, 196, 216, 187, 201, 191, 195, 197, 95, 194, 173, 172, 206, 150, 149, 217, 197, 218, 170, 173, 206, 219, 173, 219, 192, 188, 180, 212, 200, 185, 190, 170, 220, 165, 198, 193, 208, 206, 207, 221, 212, 203, 188, 153, 152, 209, 216, 182, 187, 194, 222, 197, 204, 202, 207, 207, 223, 224, 217, 149, 225, 226, 200, 227, 194, 203, 214, 220, 170, 218, 213, 182, 228, 147, 200, 226, 204, 205, 202, 197, 229, 230, 201, 195, 212, 149, 155, 211, 222, 229, 197, 153, 209, 231, 232, 153, 231, 192, 219, 233, 215, 222, 194, 197, 230, 218, 233, 196, 192, 217, 199, 150, 132, 153, 232, 216, 196, 233, 212, 234, 203, 182, 216, 228, 183, 235, 210, 147, 226, 211, 232, 184, 132, 183, 213, 235, 236, 233, 219, 202, 223, 207, 237, 199, 217, 199, 237, 195, 214, 222, 215, 225, 238, 239, 149, 238, 225, 202, 240, 223, 241, 223, 240, 242, 243, 220, 221, 207, 244, 222, 214, 245, 202, 165, 240, 219, 206, 221, 246, 200, 190, 203, 247, 214, 210, 248, 208, 165, 249, 240, 214, 247, 245, 218, 230, 250, 236, 219, 221, 207, 224, 244, 213, 228, 235, 235, 228, 216, 232, 251, 184, 252, 231, 209, 253, 249, 254, 247, 203, 234, 210, 235, 248, 165, 220, 243, 241, 240, 255, 221, 256, 236, 209, 208, 252, 212, 195, 257, 238, 149, 211, 237, 257, 195, 233, 236, 216, 258, 223, 241, 240, 249, 253, 255, 259, 241, 250, 230, 229, 255, 240, 253, 218, 250, 220, 246, 190, 251, 260, 247, 234, 249, 165, 243, 241, 259, 258, 249, 243, 254, 223, 258, 261, 253, 259, 255, 184, 251, 190, 262, 222, 245, 263, 254, 264, 226, 227, 265, 254, 266, 264, 253, 263, 259, 242, 220, 267, 223, 244, 224, 222, 262, 229, 212, 257, 234, 254, 243, 266, 236, 268, 216, 245, 247, 260, 267, 220, 269, 259, 263, 270, 229, 262, 250, 253, 254, 263, 223, 261, 244, 271, 211, 265, 272, 260, 234, 232, 231, 273, 268, 274, 216, 208, 248, 275, 242, 266, 243, 261, 276, 244, 257, 237, 277, 245, 278, 262, 276, 261, 258, 244, 256, 221, 235, 216, 274, 231, 252, 273, 264, 279, 280, 273, 281, 232, 235, 274, 282, 280, 263, 264, 257, 277, 283, 208, 273, 252, 277, 225, 239, 257, 272, 234, 208, 275, 273, 263, 280, 284, 285, 220, 250, 248, 235, 286, 269, 220, 285, 268, 256, 286, 236, 256, 268, 235, 282, 286, 248, 286, 287, 278, 245, 260, 285, 267, 269, 270, 263, 284, 276, 258, 288, 217, 225, 237, 237, 225, 277, 283, 239, 289, 259, 270, 258, 260, 272, 278, 250, 278, 290, 256, 244, 276, 248, 287, 275, 250, 262, 278, 270, 288, 258, 257, 289, 272, 282, 274, 268, 289, 257, 283, 291, 276, 292, 211, 226, 265, 242, 293, 266, 286, 282, 268, 280, 270, 284, 285, 290, 267, 294, 279, 293, 211, 271, 238, 250, 290, 285, 288, 270, 295, 200, 246, 227, 280, 295, 270, 290, 278, 296, 293, 279, 266, 264, 266, 279, 227, 246, 265, 267, 290, 297, 283, 277, 239, 246, 251, 265, 275, 298, 273, 242, 267, 297, 297, 293, 242, 280, 279, 295, 275, 287, 298, 273, 298, 299, 287, 286, 298, 278, 272, 296, 300, 301, 290, 232, 281, 251, 301, 297, 290, 286, 291, 298, 295, 294, 288, 281, 273, 299, 289, 302, 303, 286, 256, 291, 256, 276, 291, 295, 279, 294, 304, 271, 265, 288, 305, 276, 289, 239, 302, 306, 292, 276, 293, 301, 307, 305, 288, 307, 301, 293, 297, 294, 307, 288, 289, 296, 272, 296, 300, 290, 308, 265, 251, 299, 309, 281, 291, 292, 310, 238, 271, 304, 301, 300, 307, 302, 239, 311, 303, 296, 289, 311, 238, 304, 303, 300, 296, 298, 291, 310, 299, 298, 309, 276, 305, 306, 307, 294, 293, 251, 281, 308, 281, 309, 308, 239, 238, 311, 308, 304, 265, 309, 298, 312, 311, 303, 302, 298, 310, 312, 292, 306, 313, 306, 305, 313, 309, 312, 308, 308, 311, 304, 300, 303, 311, 307, 313, 305, 313, 312, 292, 307, 300, 313, 292, 312, 310, 314, 300, 311, 313, 314, 312, 312, 314, 308, 314, 311, 308, 313, 300, 314, 92, 79, 72]
        point3f[] points = [(1.5, -0.960751, -1.2232), (0.81, -0.891238, -3.74258), (0.16, -0.233535, -2.28405), (1.49, -2.44325, -3.6962), (1.59, -2.98815, -4.15761), (1.66, -2.81016, -4.10777), (1.41, -1.14861, -1.92823), (1, -1.40023, -3.80159), (0.88, -1.33122, -3.83517), (1.69, -2.60816, -4.12133), (1.68, -2.36516, -4.13078), (1.52, -2.07518, -4.0136), (1.36, -1.89818, -4.01323), (1.13, -3.46417, -4.0713), (0.74, -3.4833, -3.41621), (0.77, -3.73919, -3.99486), (1.54, -2.34516, -4.10098), (0.58, -3.89022, -3.80609), (1.21, -1.6112, -3.94075), (0.43, -3.82819, -3.99919), (0.16, -3.89122, -3.85389), (-0.2, -4.04723, -3.76522), (0.0500002, -3.90221, -3.85969), (-0.04, -3.71235, -3.21576), (-0.67, -3.99324, -3.72131), (-1.04, -3.5855, -2.44973), (0.0799999, -0.335372, -3.08527), (0.51, -0.542263, -3.61741), (0.12, -0.501272, -3.5768), (1.21, -2.88041, -2.87359), (1.52, -2.43643, -2.7945), (-0.24, -0.399286, -3.50468), (-0.3, -0.35829, -3.48747), (-0.39, -0.375297, -3.44968), (-0.55, -0.267311, -3.38255), (-0.66, -0.285315, -3.36586), (-0.0799999, -4.10148, -2.55884), (-0.47, -4.20458, -2.07986), (-1.38, -3.96827, -3.58371), (1.12, -3.76941, -2.89177), (-0.93, -0.229326, -3.31065), (-1.84, -3.72732, -3.35326), (-1.19, -0.228369, -3.09795), (-1.39, -0.419346, -3.21079), (-1.04, -0.190367, -3.10644), (-1.82, -1.01735, -3.18631), (-1.85, -1.17447, -2.61224), (-1.67, -0.854345, -3.21667), (-1.47, -0.357456, -2.67107), (-2.252, -2.60735, -3.19383), (-1.9, -1.07837, -3.11352), (-2.012, -1.15736, -3.15554), (1.67, -2.92146, -2.6326), (-2.127, -1.25636, -3.13406), (-2.292, -1.49937, -3.08151), (-1.6, -3.8903, -3.42039), (0.51, -4.10443, -2.81884), (-2.356, -1.79138, -3.05056), (-1.9, -2.51069, -1.52151), (-2.359, -2.16237, -3.09414), (1.76, -1.60557, -2.11933), (1.54, -3.5575, -2.47372), (1.86, -3.16659, -1.99264), (0.17, -4.1925, -2.44685), (-0.69, -3.86155, -2.20379), (-1.33, -3.20976, -1.19865), (-2.471, 0.442458, -2.24791), (1.2, -3.90258, -2.08079), (-1.07, -3.73568, -1.54776), (-1.2, 0.628399, -1.95787), (-2.751, -0.871651, -1.71418), (2.21, -2.53063, -1.81952), (0.63, -4.23668, -1.57386), (2.3, -1.52268, -1.58231), (1.59, -1.18871, -1.44024), (2.32, -1.87469, -1.54638), (-2.46, 0.452292, -1.43591), (-2.644, -0.0687568, -1.19401), (-2.398, 0.701246, -1.20786), (0.1, -4.12471, -1.40484), (1.86, -2.91165, -1.69659), (0.45, 0.32629, -1.42193), (2.6, -1.90678, -1.07639), (-0.52, -4.31969, -1.53188), (2.43, -2.30779, -1.00847), (-1.67, 0.811232, -1.14083), (2.23, -0.991752, -1.2192), (2.5, -1.43085, -0.761291), (2.29, -2.79376, -1.20057), (-2.67, 0.175088, -0.430964), (1.49, -3.84774, -1.25378), (-0.98, -4.07083, -0.849829), (0.21, -4.2948, -0.988875), (-0.24, -4.4138, -1.0039), (-2.544, -2.40909, 0.460509), (-2.829, -1.55032, 1.56768), (-3.087, -1.21304, 0.173753), (1.77, -1.04081, -0.919212), (-2.014, -2.86691, -0.424584), (-1.53, -3.03694, -0.291618), (1.86, -2.88992, -0.395589), (0.93, 0.0291297, -0.636994), (-1.51, -3.40982, -0.890694), (1.49, -3.52786, -0.707718), (-2.649, 0.598151, -0.740878), (1.84, -0.543899, -0.498111), (-0.58, 1.35398, 0.115276), (-2.1, 0.6921, -0.488859), (-2.893, 0.945106, -0.518808), (1.4, -0.481958, -0.205098), (-0.66, -4.03393, -0.333822), (2.51, -1.35598, -0.0782763), (2.15, -0.860982, -0.0891753), (-1.3, -3.72202, 0.122242), (0.31, -4.14794, -0.312845), (2.07, -2.11694, -0.282431), (-1.2, -4.05098, -0.116825), (1.03, 0.126991, 0.0460259), (0.56, 0.831932, 0.335169), (1.05, -3.90197, -0.125795), (2.35, -0.648999, -0.00713214), (1.93, -0.198977, -0.112041), (2.77, -2.0141, 0.50459), (2.67, -0.690122, 0.600859), (2.11, -0.0881042, 0.510982), (2.37, 0.263863, 0.675054), (3.09, -1.04016, 0.783788), (1.65, 0.10697, 0.148022), (2.16, -3.16806, 0.298355), (-1.28, 1.1879, 0.498242), (1.71, -3.93213, 0.647199), (-1.99, -2.85403, 0.150419), (2.8, -1.98129, 1.4306), (2.35, -2.88817, 0.818412), (-1.84, 0.655857, 0.702134), (-1.88, -3.54408, 0.393278), (-0.99, -4.54516, 0.783074), (-1.34, -4.14209, 0.420156), (-1.89, -4.13911, 0.537157), (1.66, -0.18208, 0.392963), (1.15, 0.127879, 0.595026), (1.12, -0.102142, 0.697979), (-2.888, -0.639139, 0.68187), (-2.431, -0.0851487, 0.729983), (-1.61, -3.48909, 0.421289), (-1.65, -2.88107, 0.360413), (-2.055, -2.81418, 0.867427), (0.95, -4.38422, 1.07811), (-1.64, -4.30322, 1.07412), (-0.78, -4.44738, 1.87009), (-2.173, -4.38335, 1.69811), (-2.563, 0.737791, 1.02415), (2.87, -0.715306, 1.50185), (3.02, -1.80429, 1.42963), (1.89, 0.0627998, 0.983013), (0.0500002, -4.53931, 1.54308), (-1.79, -3.73416, 0.76824), (-1.84, -2.86318, 0.861417), (0.43, 0.965813, 0.920197), (-1.96, -2.99827, 1.33439), (-1.65, 1.12881, 0.92323), (2.73, -0.183115, 0.564963), (1.11, 0.337787, 1.04607), (-2.654, -0.125206, 1.01297), (-0.1, 1.14076, 1.17723), (-2.71, 0.473525, 2.3311), (-3.103, 0.39373, 1.32408), (1.51, 0.180756, 1.19904), (2.6, 0.248715, 1.39905), (-2.651, -2.07824, 1.18458), (-3.165, -0.605246, 1.20588), (0.0500002, 1.69973, 1.32335), (-0.0799999, 1.42667, 1.62029), (0.17, 1.57364, 1.78632), (1.89, 0.402756, 1.20008), (0.7, 1.46477, 1.1423), (-1.97, -3.80024, 1.18223), (-0.98, 1.46069, 1.5023), (0.97, 1.09776, 1.17922), (-2.193, 1.37373, 1.33628), (-2.684, -2.55333, 1.60348), (1.6, 1.40071, 1.41729), (1.4, 1.38761, 1.92128), (1.78, 0.878598, 1.97218), (2.51, -2.56642, 2.06748), (2.06, -3.50636, 1.77829), (1.81, 0.464675, 1.59509), (1.23, 1.50466, 1.64831), (-3.051, -2.34731, 1.54052), (-2.104, -3.58129, 1.40827), (2.26, -2.73348, 2.33744), (-2.063, -3.15233, 1.59636), (0.28, 1.83062, 1.88137), (2.14, 0.379674, 1.59908), (-3.179, -1.71335, 1.72465), (-2.623, -3.26542, 2.04234), (0.92, 1.93561, 1.89839), (-3.029, -1.15438, 1.88676), (2.64, -0.125334, 1.63897), (-2.315, -3.88141, 2.02721), (1.79, -3.71943, 2.10124), (-2.595, -2.86736, 1.77242), (-1.34, 1.55156, 2.15932), (-3.528, -2.41343, 2.11851), (-0.65, 1.8006, 1.94937), (-0.71, 1.50961, 1.90131), (-0.17, 1.97962, 1.8584), (-0.81, 1.99761, 1.89341), (2.13, 0.290544, 2.23906), (2.58, 0.0225778, 2.073), (2.27, 0.684588, 2.02314), (0.04, -4.23857, 2.82114), (-3.023, -3.02343, 2.09238), (2.18, 1.18756, 2.16424), (-3.222, -1.93444, 2.16161), (-3.573, -1.57246, 2.25368), (0.75, 1.33651, 2.42927), (-1.4, -4.41444, 2.1471), (-3.068, -0.672461, 2.26286), (-7.39355e-17, 1.76452, 2.36836), (-2.996, -0.28852, 2.55494), (-0.11, 2.38779, 2.51549), (-3.427, -1.39447, 2.32272), (-1.34, 1.82351, 2.41237), (-1.13, 2.34363, 2.78448), (-1.3, -4.15561, 2.98815), (0.56, -4.25748, 2.35913), (1.13, -3.64361, 2.98426), (1.18, 1.63354, 2.26833), (-3.605, -1.19949, 2.41776), (-3.811, -0.713451, 2.21385), (2.67, -1.08949, 2.39478), (2.36, -1.46556, 2.7567), (0.55, 1.64854, 2.24134), (-3.215, -2.6965, 2.46545), (1.41, 1.22444, 2.75725), (0.4, 2.01563, 2.32841), (-1.73, -3.76851, 2.52723), (-0.54, -3.75574, 3.63324), (-1.21, -3.09676, 3.72237), (-2.143, 1.09049, 2.52622), (-2.08, 1.65854, 2.24134), (-3.463, 0.377406, 2.91908), (-3.13, 0.688472, 2.59214), (-0.78, 2.11063, 2.78243), (-3.084, -1.73454, 2.63765), (1.94, -2.77361, 3.00844), (-3.137, -2.1045, 2.45457), (1.91, 0.535441, 2.74711), (-2.631, 0.644501, 2.45013), (-3.618, -0.528578, 2.83789), (1.91, -2.1287, 3.45857), (2.44, -0.00954504, 2.676), (-2.561, 1.57947, 2.58432), (-2.769, 1.11947, 2.59723), (-2.274, 1.56548, 2.55232), (-0.04, 1.76235, 3.19436), (-2.791, -3.04159, 2.88038), (-1.51, 1.86236, 3.14838), (-2.309, 2.20465, 2.72445), (-2.933, -2.39857, 2.79151), (-1.23, 1.74245, 2.69436), (-3.733, -1.43558, 2.85271), (-2.695, 1.72242, 2.82435), (-3.124, 1.49743, 2.7843), (0.84, -3.15577, 3.78136), (-3.457, 1.22541, 2.91025), (-3.319, -0.0606052, 2.97199), (0.48, 1.53636, 3.13731), (-2.988, -0.330589, 2.89393), (-2.418, 1.78034, 3.23636), (0.0799999, -3.58974, 3.64027), (-3.199, -2.16866, 3.25056), (2.18, -0.631656, 3.21887), (0.86, 1.59342, 2.86032), (1.88, -0.319625, 3.06793), (-0.17, 1.40531, 3.36529), (-1.83, -3.56965, 3.20827), (-3.216, -1.70166, 3.23365), (-3.011, 1.20129, 3.48824), (-2.828, 1.46138, 3.0673), (2.11, -0.936734, 3.60381), (0.79, 0.946377, 3.05919), (-2.615, -2.90064, 3.14941), (-2.639, 1.26537, 3.07026), (-3.238, -0.629614, 3.01587), (0.97, 0.562297, 3.45311), (1.82, 0.159309, 3.39503), (-1.87, 1.70229, 3.49235), (-2.062, -2.28874, 3.61053), (-3.011, -0.868702, 3.44782), (0.58, 0.563231, 3.77411), (0.38, 0.239174, 4.05505), (-2.879, 0.989211, 3.8722), (-2.346, 1.43022, 3.82129), (-2.99, 1.74525, 3.69836), (-2.838, -1.48673, 3.5997), (-3.435, 0.192272, 3.57404), (1.51, -0.107734, 3.60498), (1.45, -0.921727, 3.56781), (-1.92, -0.963874, 4.2898), (-2.902, -0.580758, 3.72188), (-1.74, -2.48481, 3.96149), (-2.166, -1.76485, 4.18164), (-0.1, -2.69185, 4.19245), (-1.28, 1.0172, 3.93221), (-0.34, 0.370186, 3.99708), (-1.86, 0.47017, 4.0741), (0.35, -2.10288, 4.29757), (1.2, -1.29281, 3.96374), (0.76, -0.338822, 4.03493), (-0.8, -2.18089, 4.35456), (0.18, -0.903907, 4.45282), (-0.76, -0.464901, 4.42291), (-0.37, -1.3689, 4.40272)]
        texCoord2f[] primvars:st = [(4.975549, -1.5565996), (6.697109, -2.302466), (6.5897675, 2.394602), (1.9052567, -5.811227), (0.61696845, -6.838607), (1.0473632, -6.7280874), (4.8242025, -3.1698015), (5.1611996, -4.067982), (5.472664, -3.8022184), (1.518523, -6.54441), (2.1214461, -6.214949), (3.286224, -5.3215117), (3.8087573, -4.970203), (-0.84405875, -6.9263487), (-1.4593912, -6.3493156), (-2.0635092, -6.8858824), (2.5013118, -5.9572687), (-2.9593723, -6.7872105), (4.474394, -4.565123), (-3.6903381, -6.601006), (-4.8095737, -6.2681236), (-6.301862, -5.78527), (-5.290534, -6.141315), (-5.0586514, -5.71885), (-7.137951, -4.349237), (-7.617542, -1.9688379), (7.122692, 3.2982466), (7.19015, 0.07974268), (7.4011145, 1.9816495), (0.45390636, -5.7288027), (1.1329519, -5.1039405), (7.456233, 3.2844918), (7.1642756, 3.457152), (6.8327374, 4.079707), (6.1357546, 5.2545323), (5.7671337, 5.803564), (-5.6607375, -4.01973), (-6.428975, -2.520357), (-8.532482, -2.6862133), (-2.4000473, -5.6095786), (4.912542, 6.929768), (-8.799934, -0.7674759), (3.520511, 8.324111), (2.0790823, 9.357362), (4.136367, 7.765814), (-1.6352775, 9.916352), (-2.2629557, 9.252977), (-0.6238626, 10.116814), (1.7691602, 8.783094), (-8.850752, 4.011066), (-2.141945, 9.713369), (-2.6872468, 9.422959), (-0.59199375, -5.5880976), (-3.2398982, 9.059396), (-4.313098, 8.195419), (-8.657595, -1.7540317), (-4.138864, -5.2635107), (-5.5267005, 7.0719256), (-6.9294224, 4.4315996), (-7.208523, 5.9482803), (2.6493623, -4.2817497), (-1.4816997, -5.3236217), (-0.3318421, -4.9237385), (-4.5070724, -4.648056), (-6.931837, -1.817599), (-7.403542, 0.6076009), (-0.43036523, 8.645479), (-2.7069874, -4.903365), (-7.045651, -1.1695148), (3.045472, 6.175746), (-2.9945605, 7.3793864), (1.2942982, -4.2916), (-4.1223526, -4.434532), (3.344892, -3.2534137), (4.257403, -2.5262556), (2.4001265, -3.819), (-0.07220324, 7.641421), (-1.1815641, 7.3500166), (-0.13565248, 7.1830487), (-5.194139, -3.5351317), (0.3919343, -4.5494637), (4.9100947, 3.0332084), (2.173253, -3.3467293), (-6.3649287, -2.0230565), (0.97548926, -3.8445718), (1.1342075, 6.477719), (3.6157243, -2.5551584), (3.0312772, -2.7083058), (0.14210893, -4.3814573), (-2.0256453, 6.694467), (-1.3971075, -4.393589), (-6.5228333, -0.74687105), (-3.6034942, -3.9228141), (-5.3647075, -2.431152), (-5.7449474, 3.7311287), (-4.177967, 4.1898613), (-3.7029862, 5.741883), (4.075938, -2.0530777), (-6.773887, 1.9920506), (-6.947892, 1.3671601), (-0.24115402, -3.8473494), (4.897189, 1.3483001), (-6.7357244, 0.34723908), (-1.7553324, -3.766299), (-0.45925352, 6.862282), (4.194422, -1.3486214), (3.1093602, 4.5036254), (0.21667747, 6.269122), (-0.84506404, 6.3347645), (4.8287907, -0.043158706), (-5.5864563, -1.4613923), (2.5801625, -2.234056), (3.5230439, -1.8625499), (-6.2367783, 0.44787923), (-4.199495, -2.3690517), (1.2410382, -3.1621544), (-5.78796, -0.46416497), (4.3946238, 2.0665488), (3.9444838, 2.9073768), (-2.7278142, -3.2209158), (3.3088925, -1.2107924), (4.064015, -0.43762857), (1.6044145, -2.1962533), (3.477235, -0.40325916), (4.0118413, 0.52318877), (3.4272304, 0.1912446), (2.7163615, -1.1576966), (4.201667, 1.4342852), (-0.83952236, -3.4719174), (1.16824, 5.3054066), (-1.4660718, -3.1501598), (-5.8389664, 2.1560788), (0.9667585, -1.8308582), (0.05821258, -2.921228), (-0.045999296, 5.850266), (-5.5442543, 0.9905091), (-5.10074, -0.968664), (-5.4491076, -0.5499315), (-5.3607945, -0.16861925), (4.2438602, 1.770181), (3.9603536, 2.1439433), (4.120329, 1.8027136), (-2.7776244, 5.597232), (-1.7403445, 6.033967), (-5.5360527, 1.735298), (-5.5150695, 2.012955), (-5.3160667, 2.4255853), (-2.4454167, -2.240448), (-4.928196, -0.07470512), (-4.2486825, -0.4038076), (-4.551989, 0.36156058), (-0.9511159, 5.575193), (1.9429278, -1.0918157), (1.348868, -1.0729476), (3.7559028, 0.9002155), (-3.9608014, -1.4954677), (-5.13342, 0.50035435), (-5.3618145, 1.7112029), (3.08063, 3.3122227), (-4.9811563, 1.3534583), (0.10451797, 5.3514376), (3.1133482, -0.40993005), (3.423637, 2.3419251), (-1.9578958, 5.4800158), (2.2480938, 4.077004), (-1.1305115, 4.573765), (-1.6577854, 5.1472745), (3.7359335, 1.5692902), (2.7929454, -0.2136427), (-5.1195292, 3.285066), (-2.5399792, 4.701211), (1.9257852, 3.6726413), (1.3599786, 4.2103543), (1.5868601, 3.5994582), (3.2817287, 0.7703823), (2.4119072, 3.2047925), (-4.839945, 0.60453373), (0.5252844, 4.7200894), (2.876678, 2.7100787), (-0.27017555, 4.9650383), (-4.6667886, 2.0522969), (2.8351912, 2.1208563), (2.4041977, 2.0343482), (2.5289986, 1.5351008), (-0.055168826, -2.022566), (-0.99401397, -2.4638102), (3.120948, 1.5122736), (2.4701607, 2.5348346), (-4.5341034, 2.925525), (-4.5935416, 1.0005527), (-0.81127363, -1.8687904), (-4.58413, 1.5220178), (1.9190025, 3.2259), (2.6242447, 0.6543467), (-3.8436065, 3.3952243), (-4.259687, 1.4071082), (2.1445332, 2.823097), (-3.292904, 3.8811762), (2.2215784, -0.21065243), (-4.331266, 0.80941355), (-1.4977858, -1.8959941), (-4.4174275, 1.792464), (0.060497854, 4.2808156), (-3.9186943, 2.8256242), (0.69421834, 4.1713142), (0.43080065, 4.4023833), (1.1448268, 3.666209), (0.5595577, 3.6250572), (1.8490989, 0.2350508), (1.7169006, -0.53401184), (2.1797085, 1.0008243), (-3.0049098, -1.1217202), (-4.1664133, 2.1712036), (2.2906275, 1.7885045), (-3.6352422, 3.1333408), (-3.6400514, 3.3063114), (2.0204546, 2.283577), (-4.2123585, 0.39841342), (-2.7136443, 3.9664614), (1.5240616, 3.1872842), (-2.0359702, 3.8885598), (1.0507607, 3.1086967), (-3.4330595, 3.3782263), (0.0541742, 3.5257742), (0.36102206, 3.418377), (-3.803689, 0.41819936), (-2.0683458, -1.5889868), (-1.6288719, -1.522885), (2.1872382, 1.938383), (-3.0967128, 3.5622349), (-2.9482567, 3.7358737), (1.288091, -0.6494699), (0.68655527, -1.1252317), (1.8381488, 2.8364348), (-3.6686633, 2.4059606), (2.0075078, 1.6466604), (1.5226127, 2.6527982), (-4.0037384, 0.9346739), (-3.1897552, -0.11002639), (-3.2338662, 0.8445631), (-0.4999575, 3.905714), (-0.3606025, 3.543181), (-1.6035901, 3.4915628), (-1.3134549, 3.8529718), (0.459058, 3.0921938), (-3.3527386, 3.033398), (-1.2125165, -1.5265135), (-3.5919344, 2.8220913), (1.7175124, 0.9747068), (-0.92544365, 3.9426987), (-2.669151, 3.4865196), (-0.4722267, -1.222641), (1.5029271, -0.28230357), (-0.7108019, 3.671785), (-0.98158413, 3.6314988), (-0.53053313, 3.6450605), (0.98046076, 2.3762326), (-3.7001097, 1.6284192), (-0.28607348, 3.1647415), (-0.5542308, 3.4496562), (-3.3681808, 2.6774695), (0.07185883, 3.0684836), (-3.1074116, 3.2739568), (-0.7809518, 3.428254), (-0.96401036, 3.4049432), (-1.7907733, -1.0370626), (-1.2017409, 3.4536476), (-1.9812229, 3.4330115), (1.592971, 2.1051528), (-2.071614, 3.603566), (-0.6652285, 3.2269685), (-2.6067712, -0.6563567), (-3.2514758, 2.229808), (1.0863432, -0.13524504), (1.8409178, 1.9620904), (1.38429, 0.54587823), (0.037576944, 2.470466), (-3.6449156, 1.0112982), (-2.9558737, 2.854051), (-1.0226908, 3.2165747), (-0.83598846, 3.2834918), (0.23080744, -0.41268724), (1.7131803, 1.8133562), (-3.4296193, 1.2592207), (-0.7604942, 3.3134024), (-2.1972585, 3.4794679), (1.3722578, 1.5342757), (1.3291655, 0.95196146), (-0.6240761, 2.827691), (-3.1127672, 1.5475613), (-2.2187762, 2.9334679), (0.5831454, 1.6627822), (-0.084740385, 1.6666164), (-1.3319653, 3.0822499), (-0.98197246, 2.9535694), (-0.8250535, 3.1035235), (-2.6709855, 2.1855197), (-1.7587773, 3.144887), (0.76014704, 0.76318103), (0.5686176, 0.097447716), (-1.8523349, 1.918821), (-1.6537027, 2.7319274), (-2.8388958, 1.1520352), (-2.5824375, 1.501919), (-2.2602086, -0.27381915), (-0.5650047, 2.3251905), (-0.3484428, 2.0524497), (-1.113814, 2.5192413), (-1.0249565, -0.092512876), (0.08280673, 0.23019767), (0.25934112, 1.2378061), (-2.3618052, 0.7069337), (-0.28816143, 0.89980876), (-0.7969341, 1.7535402), (-1.2994835, 0.9950251)] (
            interpolation = "vertex"
        )
    }
}

