#usda 1.0

def "David328"
{
    def Mesh "David328"
    {
        int[] faceVertexCounts = [3, 3, 3, 3, 3, 3, 3, 3, 3, 3, 3, 3, 3, 3, 3, 3, 3, 3, 3, 3, 3, 3, 3, 3, 3, 3, 3, 3, 3, 3, 3, 3, 3, 3, 3, 3, 3, 3, 3, 3, 3, 3, 3, 3, 3, 3, 3, 3, 3, 3, 3, 3, 3, 3, 3, 3, 3, 3, 3, 3, 3, 3, 3, 3, 3, 3, 3, 3, 3, 3, 3, 3, 3, 3, 3, 3, 3, 3, 3, 3, 3, 3, 3, 3, 3, 3, 3, 3, 3, 3, 3, 3, 3, 3, 3, 3, 3, 3, 3, 3, 3, 3, 3, 3, 3, 3, 3, 3, 3, 3, 3, 3, 3, 3, 3, 3, 3, 3, 3, 3, 3, 3, 3, 3, 3, 3, 3, 3, 3, 3, 3, 3, 3, 3, 3, 3, 3, 3, 3, 3, 3, 3, 3, 3, 3, 3, 3, 3, 3, 3, 3, 3, 3, 3, 3, 3, 3, 3, 3, 3, 3, 3, 3, 3, 3, 3, 3, 3, 3, 3, 3, 3, 3, 3, 3, 3, 3, 3, 3, 3, 3, 3, 3, 3, 3, 3, 3, 3, 3, 3, 3, 3, 3, 3, 3, 3, 3, 3, 3, 3, 3, 3, 3, 3, 3, 3, 3, 3, 3, 3, 3, 3, 3, 3, 3, 3, 3, 3, 3, 3, 3, 3, 3, 3, 3, 3, 3, 3, 3, 3, 3, 3, 3, 3, 3, 3, 3, 3, 3, 3, 3, 3, 3, 3, 3, 3, 3, 3, 3, 3, 3, 3, 3, 3, 3, 3, 3, 3, 3, 3, 3, 3, 3, 3, 3, 3, 3, 3, 3, 3, 3, 3, 3, 3, 3, 3, 3, 3, 3, 3, 3, 3, 3, 3, 3, 3, 3, 3, 3, 3, 3, 3, 3, 3, 3, 3, 3, 3, 3, 3, 3, 3, 3, 3, 3, 3, 3, 3, 3, 3, 3, 3, 3, 3, 3, 3, 3, 3, 3, 3, 3, 3, 3, 3, 3, 3, 3, 3, 3, 3, 3, 3, 3, 3, 3, 3, 3, 3, 3, 3, 3, 3, 3, 3, 3, 3, 3, 3, 3, 3, 3, 3, 3, 3, 3, 3, 3, 3, 3, 3, 3, 3, 3, 3, 3, 3, 3, 3, 3, 3, 3, 3, 3, 3, 3, 3, 3, 3, 3, 3, 3, 3, 3, 3, 3, 3, 3, 3, 3, 3, 3, 3, 3, 3, 3, 3, 3, 3, 3, 3, 3, 3, 3, 3, 3, 3, 3, 3, 3, 3, 3, 3, 3, 3, 3, 3, 3, 3, 3, 3, 3, 3, 3, 3, 3, 3, 3, 3, 3, 3, 3, 3, 3, 3, 3, 3, 3, 3, 3, 3, 3, 3, 3, 3, 3, 3, 3, 3, 3, 3, 3, 3, 3, 3, 3, 3, 3, 3, 3, 3, 3, 3, 3, 3, 3, 3, 3, 3, 3, 3, 3, 3, 3, 3, 3, 3, 3, 3, 3, 3, 3, 3, 3, 3, 3, 3, 3, 3, 3, 3, 3, 3, 3, 3, 3, 3, 3, 3, 3, 3, 3, 3, 3, 3, 3, 3, 3, 3, 3, 3, 3, 3, 3, 3, 3, 3, 3, 3, 3, 3, 3, 3, 3, 3, 3, 3, 3, 3, 3, 3, 3, 3, 3, 3, 3, 3, 3, 3, 3, 3, 3, 3, 3, 3, 3, 3, 3, 3, 3, 3, 3, 3, 3, 3, 3, 3, 3, 3, 3, 3, 3, 3, 3, 3, 3, 3, 3, 3, 3, 3, 3, 3, 3, 3, 3, 3, 3, 3, 3, 3, 3, 3, 3, 3, 3, 3]
        int[] faceVertexIndices = [0, 1, 2, 3, 4, 5, 6, 7, 8, 9, 10, 3, 3, 11, 12, 4, 3, 13, 13, 14, 15, 16, 3, 10, 15, 14, 17, 3, 16, 11, 6, 12, 18, 3, 5, 9, 19, 17, 14, 6, 18, 7, 13, 3, 14, 6, 8, 1, 21, 22, 23, 20, 23, 22, 24, 21, 23, 23, 20, 19, 23, 25, 24, 23, 19, 14, 26, 27, 28, 29, 3, 30, 26, 28, 31, 33, 26, 32, 26, 31, 32, 26, 34, 35, 26, 33, 34, 36, 37, 25, 14, 39, 23, 35, 40, 26, 26, 40, 2, 14, 3, 29, 44, 2, 40, 45, 46, 47, 48, 42, 43, 2, 44, 48, 24, 25, 38, 47, 48, 43, 46, 45, 50, 47, 46, 48, 46, 50, 51, 14, 29, 52, 53, 54, 46, 53, 46, 51, 55, 38, 25, 23, 39, 56, 57, 58, 46, 58, 57, 59, 44, 42, 48, 36, 23, 56, 36, 25, 23, 60, 3, 6, 58, 59, 49, 14, 52, 39, 54, 57, 46, 61, 39, 52, 3, 12, 6, 52, 29, 30, 52, 30, 62, 41, 25, 49, 56, 63, 36, 41, 55, 25, 25, 37, 64, 2, 27, 26, 65, 49, 25, 48, 46, 66, 67, 39, 61, 56, 39, 67, 30, 3, 60, 25, 64, 68, 2, 48, 69, 56, 67, 63, 69, 48, 66, 6, 1, 0, 62, 61, 52, 46, 70, 66, 30, 71, 62, 2, 1, 27, 46, 58, 70, 72, 63, 67, 73, 6, 74, 67, 61, 62, 60, 75, 71, 76, 77, 78, 71, 30, 60, 79, 36, 63, 69, 66, 76, 63, 72, 79, 79, 37, 36, 80, 62, 71, 81, 2, 69, 73, 60, 6, 76, 66, 70, 71, 75, 82, 75, 60, 73, 64, 37, 83, 83, 37, 79, 25, 68, 65, 6, 0, 74, 71, 82, 84, 85, 69, 76, 76, 70, 77, 73, 86, 87, 85, 76, 78, 88, 62, 80, 89, 77, 70, 65, 58, 49, 90, 67, 62, 74, 86, 73, 68, 64, 83, 68, 83, 91, 72, 67, 92, 83, 79, 93, 80, 71, 88, 84, 88, 71, 62, 88, 90, 67, 90, 92, 94, 95, 96, 74, 0, 97, 98, 58, 99, 75, 73, 82, 93, 79, 92, 100, 90, 88, 65, 68, 91, 82, 73, 87, 74, 97, 86, 81, 101, 2, 91, 83, 93, 102, 65, 91, 92, 90, 103, 104, 85, 78, 77, 89, 104, 97, 0, 105, 103, 90, 100, 104, 78, 77, 81, 69, 106, 107, 104, 108, 106, 69, 85, 94, 70, 58, 109, 0, 2, 93, 110, 91, 87, 111, 82, 100, 88, 84, 58, 65, 99, 2, 101, 109, 112, 86, 97, 105, 0, 109, 97, 105, 112, 91, 113, 102, 85, 104, 107, 112, 87, 86, 92, 114, 93, 84, 82, 115, 70, 94, 96, 70, 96, 89, 102, 99, 65, 104, 89, 108, 93, 114, 110, 91, 110, 116, 99, 102, 113, 117, 101, 81, 81, 118, 117, 119, 92, 103, 100, 84, 115, 58, 98, 94, 120, 112, 121, 112, 105, 121, 115, 82, 111, 106, 118, 81, 113, 98, 99, 122, 115, 111, 123, 124, 125, 101, 121, 109, 111, 120, 126, 114, 92, 119, 117, 127, 101, 103, 100, 128, 121, 105, 109, 91, 116, 113, 101, 124, 121, 101, 127, 124, 129, 85, 107, 103, 130, 119, 131, 94, 98, 122, 132, 133, 85, 129, 106, 133, 100, 115, 134, 129, 107, 107, 108, 134, 113, 135, 98, 131, 98, 135, 111, 87, 112, 116, 110, 136, 137, 138, 116, 111, 112, 120, 117, 139, 127, 117, 140, 141, 96, 142, 89, 135, 113, 116, 110, 114, 136, 116, 138, 135, 103, 128, 130, 128, 100, 133, 108, 89, 143, 144, 145, 131, 141, 139, 117, 137, 116, 136, 120, 123, 126, 135, 144, 131, 146, 131, 145, 147, 114, 119, 89, 142, 143, 122, 111, 126, 148, 149, 150, 119, 130, 147, 121, 124, 123, 143, 151, 108, 123, 120, 121, 140, 117, 118, 133, 115, 122, 152, 153, 132, 138, 136, 148, 127, 154, 124, 114, 155, 136, 135, 138, 156, 157, 146, 145, 158, 118, 106, 155, 114, 147, 135, 156, 159, 129, 134, 160, 131, 146, 94, 123, 161, 126, 136, 138, 137, 140, 118, 162, 143, 142, 163, 139, 141, 127, 134, 108, 151, 123, 125, 161, 164, 106, 129, 165, 151, 166, 145, 144, 157, 127, 141, 167, 144, 135, 157, 151, 160, 134, 167, 140, 162, 141, 140, 167, 136, 149, 148, 161, 168, 126, 125, 124, 154, 162, 118, 158, 130, 128, 133, 142, 96, 95, 95, 94, 169, 169, 94, 146, 158, 106, 164, 161, 125, 168, 127, 167, 154, 159, 146, 157, 138, 148, 156, 170, 163, 142, 122, 126, 152, 171, 172, 173, 125, 154, 174, 175, 158, 164, 148, 176, 156, 157, 135, 159, 132, 122, 152, 143, 163, 151, 177, 129, 160, 178, 158, 175, 160, 151, 179, 178, 162, 158, 168, 125, 174, 180, 146, 159, 181, 162, 178, 179, 151, 165, 164, 172, 171, 182, 183, 181, 163, 166, 151, 149, 136, 155, 184, 133, 132, 160, 179, 177, 175, 164, 171, 156, 176, 159, 167, 174, 154, 185, 147, 130, 95, 170, 142, 162, 186, 167, 164, 129, 172, 178, 175, 187, 188, 146, 180, 169, 188, 95, 159, 176, 189, 162, 181, 186, 133, 185, 130, 185, 184, 190, 169, 146, 188, 166, 163, 170, 180, 159, 191, 172, 129, 177, 192, 175, 171, 174, 167, 186, 150, 176, 148, 193, 174, 186, 95, 188, 194, 192, 171, 173, 126, 168, 152, 185, 133, 184, 165, 166, 170, 168, 174, 193, 178, 187, 181, 159, 189, 191, 189, 195, 191, 196, 187, 175, 189, 176, 150, 170, 95, 197, 168, 198, 152, 195, 189, 199, 147, 185, 200, 189, 150, 199, 201, 180, 191, 186, 181, 183, 193, 186, 183, 179, 165, 202, 175, 192, 196, 203, 194, 188, 198, 168, 193, 204, 172, 177, 177, 202, 205, 206, 204, 207, 172, 204, 206, 198, 208, 209, 193, 183, 210, 177, 179, 202, 155, 147, 211, 181, 187, 182, 205, 204, 177, 180, 201, 212, 208, 193, 210, 182, 213, 183, 198, 209, 152, 194, 214, 215, 196, 216, 187, 201, 191, 195, 197, 95, 194, 173, 172, 206, 150, 149, 217, 197, 218, 170, 173, 206, 219, 173, 219, 192, 188, 180, 212, 200, 185, 190, 170, 220, 165, 198, 193, 208, 206, 207, 221, 212, 203, 188, 153, 152, 209, 216, 182, 187, 194, 222, 197, 204, 202, 207, 207, 223, 224, 217, 149, 225, 226, 200, 227, 194, 203, 214, 220, 170, 218, 213, 182, 228, 147, 200, 226, 204, 205, 202, 197, 229, 230, 201, 195, 212, 149, 155, 211, 222, 229, 197, 153, 209, 231, 232, 153, 231, 192, 219, 233, 215, 222, 194, 197, 230, 218, 233, 196, 192, 217, 199, 150, 132, 153, 232, 216, 196, 233, 212, 234, 203, 182, 216, 228, 183, 235, 210, 147, 226, 211, 232, 184, 132, 183, 213, 235, 236, 233, 219, 202, 223, 207, 237, 199, 217, 199, 237, 195, 214, 222, 215, 225, 238, 239, 149, 238, 225, 202, 240, 223, 241, 223, 240, 242, 243, 220, 221, 207, 244, 222, 214, 245, 202, 165, 240, 219, 206, 221, 246, 200, 190, 203, 247, 214, 210, 248, 208, 165, 249, 240, 214, 247, 245, 218, 230, 250, 236, 219, 221, 207, 224, 244, 213, 228, 235, 235, 228, 216, 232, 251, 184, 252, 231, 209, 253, 249, 254, 247, 203, 234, 210, 235, 248, 165, 220, 243, 241, 240, 255, 221, 256, 236, 209, 208, 252, 212, 195, 257, 238, 149, 211, 237, 257, 195, 233, 236, 216, 258, 223, 241, 240, 249, 253, 255, 259, 241, 250, 230, 229, 255, 240, 253, 218, 250, 220, 246, 190, 251, 260, 247, 234, 249, 165, 243, 241, 259, 258, 249, 243, 254, 223, 258, 261, 253, 259, 255, 184, 251, 190, 262, 222, 245, 263, 254, 264, 226, 227, 265, 254, 266, 264, 253, 263, 259, 242, 220, 267, 223, 244, 224, 222, 262, 229, 212, 257, 234, 254, 243, 266, 236, 268, 216, 245, 247, 260, 267, 220, 269, 259, 263, 270, 229, 262, 250, 253, 254, 263, 223, 261, 244, 271, 211, 265, 272, 260, 234, 232, 231, 273, 268, 274, 216, 208, 248, 275, 242, 266, 243, 261, 276, 244, 257, 237, 277, 245, 278, 262, 276, 261, 258, 244, 256, 221, 235, 216, 274, 231, 252, 273, 264, 279, 280, 273, 281, 232, 235, 274, 282, 280, 263, 264, 257, 277, 283, 208, 273, 252, 277, 225, 239, 257, 272, 234, 208, 275, 273, 263, 280, 284, 285, 220, 250, 248, 235, 286, 269, 220, 285, 268, 256, 286, 236, 256, 268, 235, 282, 286, 248, 286, 287, 278, 245, 260, 285, 267, 269, 270, 263, 284, 276, 258, 288, 217, 225, 237, 237, 225, 277, 283, 239, 289, 259, 270, 258, 260, 272, 278, 250, 278, 290, 256, 244, 276, 248, 287, 275, 250, 262, 278, 270, 288, 258, 257, 289, 272, 282, 274, 268, 289, 257, 283, 291, 276, 292, 211, 226, 265, 242, 293, 266, 286, 282, 268, 280, 270, 284, 285, 290, 267, 294, 279, 293, 211, 271, 238, 250, 290, 285, 288, 270, 295, 200, 246, 227, 280, 295, 270, 290, 278, 296, 293, 279, 266, 264, 266, 279, 227, 246, 265, 267, 290, 297, 283, 277, 239, 246, 251, 265, 275, 298, 273, 242, 267, 297, 297, 293, 242, 280, 279, 295, 275, 287, 298, 273, 298, 299, 287, 286, 298, 278, 272, 296, 300, 301, 290, 232, 281, 251, 301, 297, 290, 286, 291, 298, 295, 294, 288, 281, 273, 299, 289, 302, 303, 286, 256, 291, 256, 276, 291, 295, 279, 294, 304, 271, 265, 288, 305, 276, 289, 239, 302, 306, 292, 276, 293, 301, 307, 305, 288, 307, 301, 293, 297, 294, 307, 288, 289, 296, 272, 296, 300, 290, 308, 265, 251, 299, 309, 281, 291, 292, 310, 238, 271, 304, 301, 300, 307, 302, 239, 311, 303, 296, 289, 311, 238, 304, 303, 300, 296, 298, 291, 310, 299, 298, 309, 276, 305, 306, 307, 294, 293, 251, 281, 308, 281, 309, 308, 239, 238, 311, 308, 304, 265, 309, 298, 312, 311, 303, 302, 298, 310, 312, 292, 306, 313, 306, 305, 313, 309, 312, 308, 308, 311, 304, 300, 303, 311, 307, 313, 305, 313, 312, 292, 307, 300, 313, 292, 312, 310, 314, 300, 311, 313, 314, 312, 312, 314, 308, 314, 311, 308, 313, 300, 314, 92, 79, 72]
        point3f[] points = [(1.5, -0.960751, -1.2232), (0.81, -0.891238, -3.74258), (0.16, -0.233535, -2.28405), (1.49, -2.44325, -3.6962), (1.59, -2.98815, -4.15761), (1.66, -2.81016, -4.10777), (1.41, -1.14861, -1.92823), (1, -1.40023, -3.80159), (0.88, -1.33122, -3.83517), (1.69, -2.60816, -4.12133), (1.68, -2.36516, -4.13078), (1.52, -2.07518, -4.0136), (1.36, -1.89818, -4.01323), (1.13, -3.46417, -4.0713), (0.74, -3.4833, -3.41621), (0.77, -3.73919, -3.99486), (1.54, -2.34516, -4.10098), (0.58, -3.89022, -3.80609), (1.21, -1.6112, -3.94075), (0.43, -3.82819, -3.99919), (0.16, -3.89122, -3.85389), (-0.2, -4.04723, -3.76522), (0.0500002, -3.90221, -3.85969), (-0.04, -3.71235, -3.21576), (-0.67, -3.99324, -3.72131), (-1.04, -3.5855, -2.44973), (0.0799999, -0.335372, -3.08527), (0.51, -0.542263, -3.61741), (0.12, -0.501272, -3.5768), (1.21, -2.88041, -2.87359), (1.52, -2.43643, -2.7945), (-0.24, -0.399286, -3.50468), (-0.3, -0.35829, -3.48747), (-0.39, -0.375297, -3.44968), (-0.55, -0.267311, -3.38255), (-0.66, -0.285315, -3.36586), (-0.0799999, -4.10148, -2.55884), (-0.47, -4.20458, -2.07986), (-1.38, -3.96827, -3.58371), (1.12, -3.76941, -2.89177), (-0.93, -0.229326, -3.31065), (-1.84, -3.72732, -3.35326), (-1.19, -0.228369, -3.09795), (-1.39, -0.419346, -3.21079), (-1.04, -0.190367, -3.10644), (-1.82, -1.01735, -3.18631), (-1.85, -1.17447, -2.61224), (-1.67, -0.854345, -3.21667), (-1.47, -0.357456, -2.67107), (-2.252, -2.60735, -3.19383), (-1.9, -1.07837, -3.11352), (-2.012, -1.15736, -3.15554), (1.67, -2.92146, -2.6326), (-2.127, -1.25636, -3.13406), (-2.292, -1.49937, -3.08151), (-1.6, -3.8903, -3.42039), (0.51, -4.10443, -2.81884), (-2.356, -1.79138, -3.05056), (-1.9, -2.51069, -1.52151), (-2.359, -2.16237, -3.09414), (1.76, -1.60557, -2.11933), (1.54, -3.5575, -2.47372), (1.86, -3.16659, -1.99264), (0.17, -4.1925, -2.44685), (-0.69, -3.86155, -2.20379), (-1.33, -3.20976, -1.19865), (-2.471, 0.442458, -2.24791), (1.2, -3.90258, -2.08079), (-1.07, -3.73568, -1.54776), (-1.2, 0.628399, -1.95787), (-2.751, -0.871651, -1.71418), (2.21, -2.53063, -1.81952), (0.63, -4.23668, -1.57386), (2.3, -1.52268, -1.58231), (1.59, -1.18871, -1.44024), (2.32, -1.87469, -1.54638), (-2.46, 0.452292, -1.43591), (-2.644, -0.0687568, -1.19401), (-2.398, 0.701246, -1.20786), (0.1, -4.12471, -1.40484), (1.86, -2.91165, -1.69659), (0.45, 0.32629, -1.42193), (2.6, -1.90678, -1.07639), (-0.52, -4.31969, -1.53188), (2.43, -2.30779, -1.00847), (-1.67, 0.811232, -1.14083), (2.23, -0.991752, -1.2192), (2.5, -1.43085, -0.761291), (2.29, -2.79376, -1.20057), (-2.67, 0.175088, -0.430964), (1.49, -3.84774, -1.25378), (-0.98, -4.07083, -0.849829), (0.21, -4.2948, -0.988875), (-0.24, -4.4138, -1.0039), (-2.544, -2.40909, 0.460509), (-2.829, -1.55032, 1.56768), (-3.087, -1.21304, 0.173753), (1.77, -1.04081, -0.919212), (-2.014, -2.86691, -0.424584), (-1.53, -3.03694, -0.291618), (1.86, -2.88992, -0.395589), (0.93, 0.0291297, -0.636994), (-1.51, -3.40982, -0.890694), (1.49, -3.52786, -0.707718), (-2.649, 0.598151, -0.740878), (1.84, -0.543899, -0.498111), (-0.58, 1.35398, 0.115276), (-2.1, 0.6921, -0.488859), (-2.893, 0.945106, -0.518808), (1.4, -0.481958, -0.205098), (-0.66, -4.03393, -0.333822), (2.51, -1.35598, -0.0782763), (2.15, -0.860982, -0.0891753), (-1.3, -3.72202, 0.122242), (0.31, -4.14794, -0.312845), (2.07, -2.11694, -0.282431), (-1.2, -4.05098, -0.116825), (1.03, 0.126991, 0.0460259), (0.56, 0.831932, 0.335169), (1.05, -3.90197, -0.125795), (2.35, -0.648999, -0.00713214), (1.93, -0.198977, -0.112041), (2.77, -2.0141, 0.50459), (2.67, -0.690122, 0.600859), (2.11, -0.0881042, 0.510982), (2.37, 0.263863, 0.675054), (3.09, -1.04016, 0.783788), (1.65, 0.10697, 0.148022), (2.16, -3.16806, 0.298355), (-1.28, 1.1879, 0.498242), (1.71, -3.93213, 0.647199), (-1.99, -2.85403, 0.150419), (2.8, -1.98129, 1.4306), (2.35, -2.88817, 0.818412), (-1.84, 0.655857, 0.702134), (-1.88, -3.54408, 0.393278), (-0.99, -4.54516, 0.783074), (-1.34, -4.14209, 0.420156), (-1.89, -4.13911, 0.537157), (1.66, -0.18208, 0.392963), (1.15, 0.127879, 0.595026), (1.12, -0.102142, 0.697979), (-2.888, -0.639139, 0.68187), (-2.431, -0.0851487, 0.729983), (-1.61, -3.48909, 0.421289), (-1.65, -2.88107, 0.360413), (-2.055, -2.81418, 0.867427), (0.95, -4.38422, 1.07811), (-1.64, -4.30322, 1.07412), (-0.78, -4.44738, 1.87009), (-2.173, -4.38335, 1.69811), (-2.563, 0.737791, 1.02415), (2.87, -0.715306, 1.50185), (3.02, -1.80429, 1.42963), (1.89, 0.0627998, 0.983013), (0.0500002, -4.53931, 1.54308), (-1.79, -3.73416, 0.76824), (-1.84, -2.86318, 0.861417), (0.43, 0.965813, 0.920197), (-1.96, -2.99827, 1.33439), (-1.65, 1.12881, 0.92323), (2.73, -0.183115, 0.564963), (1.11, 0.337787, 1.04607), (-2.654, -0.125206, 1.01297), (-0.1, 1.14076, 1.17723), (-2.71, 0.473525, 2.3311), (-3.103, 0.39373, 1.32408), (1.51, 0.180756, 1.19904), (2.6, 0.248715, 1.39905), (-2.651, -2.07824, 1.18458), (-3.165, -0.605246, 1.20588), (0.0500002, 1.69973, 1.32335), (-0.0799999, 1.42667, 1.62029), (0.17, 1.57364, 1.78632), (1.89, 0.402756, 1.20008), (0.7, 1.46477, 1.1423), (-1.97, -3.80024, 1.18223), (-0.98, 1.46069, 1.5023), (0.97, 1.09776, 1.17922), (-2.193, 1.37373, 1.33628), (-2.684, -2.55333, 1.60348), (1.6, 1.40071, 1.41729), (1.4, 1.38761, 1.92128), (1.78, 0.878598, 1.97218), (2.51, -2.56642, 2.06748), (2.06, -3.50636, 1.77829), (1.81, 0.464675, 1.59509), (1.23, 1.50466, 1.64831), (-3.051, -2.34731, 1.54052), (-2.104, -3.58129, 1.40827), (2.26, -2.73348, 2.33744), (-2.063, -3.15233, 1.59636), (0.28, 1.83062, 1.88137), (2.14, 0.379674, 1.59908), (-3.179, -1.71335, 1.72465), (-2.623, -3.26542, 2.04234), (0.92, 1.93561, 1.89839), (-3.029, -1.15438, 1.88676), (2.64, -0.125334, 1.63897), (-2.315, -3.88141, 2.02721), (1.79, -3.71943, 2.10124), (-2.595, -2.86736, 1.77242), (-1.34, 1.55156, 2.15932), (-3.528, -2.41343, 2.11851), (-0.65, 1.8006, 1.94937), (-0.71, 1.50961, 1.90131), (-0.17, 1.97962, 1.8584), (-0.81, 1.99761, 1.89341), (2.13, 0.290544, 2.23906), (2.58, 0.0225778, 2.073), (2.27, 0.684588, 2.02314), (0.04, -4.23857, 2.82114), (-3.023, -3.02343, 2.09238), (2.18, 1.18756, 2.16424), (-3.222, -1.93444, 2.16161), (-3.573, -1.57246, 2.25368), (0.75, 1.33651, 2.42927), (-1.4, -4.41444, 2.1471), (-3.068, -0.672461, 2.26286), (-7.39355e-17, 1.76452, 2.36836), (-2.996, -0.28852, 2.55494), (-0.11, 2.38779, 2.51549), (-3.427, -1.39447, 2.32272), (-1.34, 1.82351, 2.41237), (-1.13, 2.34363, 2.78448), (-1.3, -4.15561, 2.98815), (0.56, -4.25748, 2.35913), (1.13, -3.64361, 2.98426), (1.18, 1.63354, 2.26833), (-3.605, -1.19949, 2.41776), (-3.811, -0.713451, 2.21385), (2.67, -1.08949, 2.39478), (2.36, -1.46556, 2.7567), (0.55, 1.64854, 2.24134), (-3.215, -2.6965, 2.46545), (1.41, 1.22444, 2.75725), (0.4, 2.01563, 2.32841), (-1.73, -3.76851, 2.52723), (-0.54, -3.75574, 3.63324), (-1.21, -3.09676, 3.72237), (-2.143, 1.09049, 2.52622), (-2.08, 1.65854, 2.24134), (-3.463, 0.377406, 2.91908), (-3.13, 0.688472, 2.59214), (-0.78, 2.11063, 2.78243), (-3.084, -1.73454, 2.63765), (1.94, -2.77361, 3.00844), (-3.137, -2.1045, 2.45457), (1.91, 0.535441, 2.74711), (-2.631, 0.644501, 2.45013), (-3.618, -0.528578, 2.83789), (1.91, -2.1287, 3.45857), (2.44, -0.00954504, 2.676), (-2.561, 1.57947, 2.58432), (-2.769, 1.11947, 2.59723), (-2.274, 1.56548, 2.55232), (-0.04, 1.76235, 3.19436), (-2.791, -3.04159, 2.88038), (-1.51, 1.86236, 3.14838), (-2.309, 2.20465, 2.72445), (-2.933, -2.39857, 2.79151), (-1.23, 1.74245, 2.69436), (-3.733, -1.43558, 2.85271), (-2.695, 1.72242, 2.82435), (-3.124, 1.49743, 2.7843), (0.84, -3.15577, 3.78136), (-3.457, 1.22541, 2.91025), (-3.319, -0.0606052, 2.97199), (0.48, 1.53636, 3.13731), (-2.988, -0.330589, 2.89393), (-2.418, 1.78034, 3.23636), (0.0799999, -3.58974, 3.64027), (-3.199, -2.16866, 3.25056), (2.18, -0.631656, 3.21887), (0.86, 1.59342, 2.86032), (1.88, -0.319625, 3.06793), (-0.17, 1.40531, 3.36529), (-1.83, -3.56965, 3.20827), (-3.216, -1.70166, 3.23365), (-3.011, 1.20129, 3.48824), (-2.828, 1.46138, 3.0673), (2.11, -0.936734, 3.60381), (0.79, 0.946377, 3.05919), (-2.615, -2.90064, 3.14941), (-2.639, 1.26537, 3.07026), (-3.238, -0.629614, 3.01587), (0.97, 0.562297, 3.45311), (1.82, 0.159309, 3.39503), (-1.87, 1.70229, 3.49235), (-2.062, -2.28874, 3.61053), (-3.011, -0.868702, 3.44782), (0.58, 0.563231, 3.77411), (0.38, 0.239174, 4.05505), (-2.879, 0.989211, 3.8722), (-2.346, 1.43022, 3.82129), (-2.99, 1.74525, 3.69836), (-2.838, -1.48673, 3.5997), (-3.435, 0.192272, 3.57404), (1.51, -0.107734, 3.60498), (1.45, -0.921727, 3.56781), (-1.92, -0.963874, 4.2898), (-2.902, -0.580758, 3.72188), (-1.74, -2.48481, 3.96149), (-2.166, -1.76485, 4.18164), (-0.1, -2.69185, 4.19245), (-1.28, 1.0172, 3.93221), (-0.34, 0.370186, 3.99708), (-1.86, 0.47017, 4.0741), (0.35, -2.10288, 4.29757), (1.2, -1.29281, 3.96374), (0.76, -0.338822, 4.03493), (-0.8, -2.18089, 4.35456), (0.18, -0.903907, 4.45282), (-0.76, -0.464901, 4.42291), (-0.37, -1.3689, 4.40272)]
        texCoord2f[] primvars:st = [(1.217551, -0.03308804), (1.6743301, 0.0661396), (0.940235, 0.66933966), (0.74540186, -1.3212019), (0.4346335, -1.5471655), (0.561153, -1.5374619), (1.1682992, -0.6286822), (1.614531, -0.5335642), (1.6149964, -0.41504046), (0.7293369, -1.5234975), (0.96154875, -1.4184209), (1.1152699, -1.2042841), (1.2189815, -1.0815394), (0.02767859, -1.5470065), (-0.28152657, -1.3843148), (-0.27720994, -1.6176735), (0.99413437, -1.3373114), (-0.5290428, -1.4941561), (1.4487085, -0.938968), (-0.6476329, -1.3981177), (-0.8313651, -1.3292775), (-1.1861273, -1.213675), (-0.90814, -1.336589), (-1.0412036, -1.0154134), (-1.4032472, -0.87655264), (-1.3466777, -0.26972702), (1.1124492, 0.7034088), (1.4805251, 0.39532584), (1.3607572, 0.6842432), (0.22107773, -1.2161674), (0.56743723, -1.1002917), (1.190459, 0.90194553), (1.1406338, 0.925788), (1.0912862, 0.95925665), (1.0000331, 1.033143), (0.9484985, 1.0738479), (-0.95952594, -0.7597228), (-1.0125271, -0.48150846), (-1.6652877, -0.40889567), (-0.32570678, -1.1700929), (0.829983, 1.1835471), (-1.5961045, 0.15030736), (0.71542406, 1.2815412), (0.5211947, 1.5513978), (0.7351327, 1.1867929), (-0.10205466, 1.4898), (-0.36460817, 1.2784227), (0.053858496, 1.4805493), (0.44469357, 1.3475708), (-1.4006491, 0.997422), (-0.19111507, 1.4850571), (-0.2890069, 1.512348), (0.214766, -1.0719786), (-0.4238232, 1.5031211), (-0.62162024, 1.430043), (-1.6622514, -0.05795313), (-0.7106297, -0.95437646), (-0.7602451, 1.3439984), (-0.8962687, 0.8905688), (-1.0349259, 1.2941184), (0.8852536, -0.8444654), (-0.14263546, -1.0214816), (0.07243681, -0.8906569), (-0.76542616, -0.77015173), (-1.1336212, -0.3300952), (-1.0492078, 0.44875672), (0.17190956, 1.1098225), (-0.37332493, -0.89908046), (-1.0955627, -0.0079142125), (0.5194088, 0.91757786), (-0.31245285, 0.97837716), (0.4946196, -0.86403996), (-0.55243266, -0.67777365), (0.88643074, -0.61843246), (1.0921386, -0.43757498), (0.734369, -0.7072587), (0.11280278, 0.9387946), (-0.06837726, 0.8695236), (0.1260813, 0.8489795), (-0.7448059, -0.5243052), (0.2485934, -0.8282494), (0.70751643, 0.5894512), (0.6609268, -0.59406227), (-0.9126774, -0.3466332), (0.49340546, -0.63797426), (0.2859752, 0.801667), (0.9328692, -0.39440504), (0.7663902, -0.45603895), (0.31130397, -0.709841), (-0.053529464, 0.7551979), (-0.26787156, -0.7452335), (-0.9094108, -0.014988047), (-0.5948501, -0.49033663), (-0.763531, -0.332919), (-0.4471516, 0.6644198), (-0.23282845, 0.52154785), (-0.28064156, 0.7263314), (1.043633, -0.18346432), (-0.682483, 0.6268475), (-0.7738136, 0.50386155), (0.09058633, -0.61704654), (0.683864, 0.41428038), (-0.89451206, 0.35415533), (-0.25310054, -0.5781618), (0.063426875, 0.76685816), (0.9536319, 0.035073336), (0.42080694, 0.6404732), (0.16061431, 0.70517254), (0.047207385, 0.6924253), (0.8758903, 0.2512702), (-0.7360622, -0.118224494), (0.7012337, -0.323838), (0.8503371, -0.13888548), (-0.7052558, 0.27065465), (-0.5539692, -0.32080922), (0.4941863, -0.49580485), (-0.71541363, 0.14150147), (0.5280927, 0.3790378), (0.493258, 0.48946446), (-0.3714792, -0.43842453), (0.77984893, -0.09956246), (0.8018873, 0.13963665), (0.49642646, -0.32107368), (0.6735941, -0.07213075), (0.6763714, 0.12503316), (0.59414953, 0.072735175), (0.59242123, -0.16799751), (0.5648623, 0.23876569), (0.06610586, -0.49745905), (0.2610034, 0.60961115), (-0.17001002, -0.4237533), (-0.5278205, 0.54056793), (0.3723092, -0.24397436), (0.1958114, -0.4397949), (0.124154024, 0.5989439), (-0.57700366, 0.34897903), (-0.5958058, -0.02492513), (-0.6303761, 0.11354593), (-0.5788654, 0.21046488), (0.52100384, 0.27497533), (0.46190464, 0.29699427), (0.473179, 0.2576297), (-0.17307085, 0.6387251), (-0.06863851, 0.62126476), (-0.5171028, 0.414154), (-0.47810838, 0.4669398), (-0.40010658, 0.47622058), (-0.28261083, -0.29928428), (-0.5293986, 0.11514578), (-0.44202808, -0.028573826), (-0.44909832, 0.15190597), (0.025372256, 0.56881577), (0.47723356, -0.09987784), (0.36792648, -0.13815148), (0.5265463, 0.15492497), (-0.42692843, -0.17291354), (-0.52795255, 0.28788632), (-0.4331682, 0.4082331), (0.42709878, 0.4512795), (-0.41344354, 0.35158974), (0.14239444, 0.5526999), (0.59757864, -0.023226734), (0.42461976, 0.2853912), (-0.08038515, 0.579866), (0.35629869, 0.5065968), (-0.0140836, 0.42313647), (-0.035271585, 0.52072436), (0.438674, 0.19263461), (0.4788427, 0.032496765), (-0.32366377, 0.53869045), (-0.12181159, 0.52611333), (0.31223735, 0.4398256), (0.26134238, 0.46846646), (0.26914862, 0.40908358), (0.47293118, 0.12399744), (0.3593654, 0.38849428), (-0.48222208, 0.25005588), (0.16582297, 0.48721403), (0.38279706, 0.33924332), (0.07113942, 0.50656545), (-0.33077583, 0.402638), (0.35718775, 0.24080257), (0.31005916, 0.2462138), (0.34108108, 0.15419275), (0.15324482, -0.30132675), (-0.056842063, -0.32079208), (0.40468144, 0.1340807), (0.3320701, 0.2816535), (-0.29264382, 0.4386961), (-0.4330552, 0.2630023), (0.069341585, -0.26175657), (-0.3959423, 0.31177676), (0.283314, 0.37051263), (0.41185528, 0.077424124), (-0.21603169, 0.4338672), (-0.348233, 0.24977359), (0.30120638, 0.3114081), (-0.1692927, 0.4524395), (0.431856, -0.01067829), (-0.39161, 0.19099034), (-0.09243179, -0.23832145), (-0.3456109, 0.3366977), (0.097446345, 0.41153654), (-0.26352522, 0.3577481), (0.18260032, 0.41772228), (0.15783778, 0.43695116), (0.22074834, 0.3969455), (0.17097916, 0.3918525), (0.31626028, 0.060813434), (0.35264534, 0.0021891955), (0.33693102, 0.10389745), (-0.28572586, -0.12533563), (-0.31382406, 0.28639284), (0.29333517, 0.18331437), (-0.21387567, 0.34098086), (-0.18681678, 0.37008423), (0.23214383, 0.25080818), (-0.40364495, 0.068928026), (-0.09562881, 0.41830295), (0.23581597, 0.34961724), (-0.06169047, 0.38974229), (0.18757449, 0.3222112), (-0.16737439, 0.36538035), (0.09593345, 0.35832024), (0.13170324, 0.33960375), (-0.33096233, 0.04372302), (-0.20988801, -0.18402864), (-0.111601226, -0.1579712), (0.25800943, 0.22628976), (-0.14937152, 0.3561973), (-0.1279686, 0.38710043), (0.27156916, -0.09635153), (0.20601815, -0.1738385), (0.25136447, 0.29689962), (-0.27383673, 0.27966115), (0.2394975, 0.14554381), (0.21973309, 0.3028852), (-0.34686705, 0.12745936), (-0.25774053, -0.020029256), (-0.2289955, 0.061491877), (0.03752608, 0.38779804), (0.06181124, 0.34211192), (-0.056800302, 0.2981404), (-0.03221729, 0.35454738), (0.14072885, 0.29815513), (-0.19844283, 0.30245602), (0.019859795, -0.18230914), (-0.23193863, 0.3122422), (0.26011252, 0.082767315), (-0.0032405728, 0.3969237), (-0.10671626, 0.34858197), (0.075379856, -0.13861898), (0.28920662, 0.0011841849), (0.01927702, 0.32677233), (-0.0032205947, 0.35006773), (0.037965696, 0.33946148), (0.1552645, 0.23234019), (-0.27790633, 0.2142812), (0.08364507, 0.26143035), (0.044744115, 0.29727495), (-0.23209281, 0.270019), (0.10647705, 0.30588228), (-0.15848473, 0.31136423), (0.00889683, 0.29634672), (-0.010925843, 0.30281773), (-0.10487956, -0.092521474), (-0.029518798, 0.30044782), (-0.075288504, 0.29623562), (0.17610791, 0.20593357), (-0.08156939, 0.3274356), (0.027881583, 0.26689395), (-0.20400923, -0.0674083), (-0.21201386, 0.22495203), (0.20423007, -0.048964918), (0.20849691, 0.20121261), (0.21804866, 0.002111394), (0.12953977, 0.2039619), (-0.28773084, 0.11372352), (-0.17618452, 0.24279784), (-0.023122944, 0.25136998), (0.00018435503, 0.28087127), (0.15278889, -0.08544445), (0.18581727, 0.15078151), (-0.2578347, 0.18537423), (0.01190379, 0.2800579), (-0.10594876, 0.30354017), (0.16059, 0.10400826), (0.19980283, 0.04843534), (0.056160785, 0.23364086), (-0.1911025, 0.14220352), (-0.13189565, 0.23965062), (0.12736325, 0.110390134), (0.0910131, 0.093897544), (-0.033657126, 0.22306807), (0.0057787145, 0.2158467), (0.0049902224, 0.24807103), (-0.15341088, 0.20213479), (-0.07048786, 0.2534131), (0.15805136, 0.025025409), (0.12185335, -0.033899937), (-0.084634155, 0.12827855), (-0.09897515, 0.21341044), (-0.17868045, 0.09874339), (-0.13727523, 0.13462332), (-0.1297357, -0.018268889), (0.047625873, 0.18108116), (0.06627789, 0.13020375), (-0.014915246, 0.1605267), (-0.048602562, -0.037385076), (0.06307031, -0.041676972), (0.09252921, 0.04327512), (-0.12318045, 0.0390857), (0.018795295, 0.024155274), (-0.005512317, 0.090347044), (-0.04599889, 0.03677346)] (
            interpolation = "vertex"
        )
    }
}

